G75*
G70*
%OFA0B0*%
%FSLAX24Y24*%
%IPPOS*%
%LPD*%
%AMOC8*
5,1,8,0,0,1.08239X$1,22.5*
%
%ADD10R,0.0433X0.0394*%
%ADD11R,0.0472X0.0217*%
%ADD12R,0.0315X0.0112*%
%ADD13R,0.0112X0.0315*%
%ADD14R,0.0512X0.0512*%
%ADD15R,0.0787X0.0984*%
%ADD16R,0.1024X0.0787*%
%ADD17R,0.0394X0.0433*%
%ADD18R,0.0709X0.0630*%
D10*
X018415Y005775D03*
X019085Y005775D03*
X021540Y006275D03*
X022210Y006275D03*
X022210Y007025D03*
X021540Y007025D03*
X019085Y007775D03*
X018415Y007775D03*
X018415Y008525D03*
X019085Y008525D03*
X019085Y009275D03*
X018415Y009275D03*
X024915Y013650D03*
X025585Y013650D03*
X027665Y013400D03*
X028335Y013400D03*
X028335Y012650D03*
X027665Y012650D03*
X027665Y011900D03*
X028335Y011900D03*
X026710Y011400D03*
X026040Y011400D03*
X026040Y010650D03*
X026710Y010650D03*
X026710Y009900D03*
X026040Y009900D03*
X026040Y009150D03*
X026710Y009150D03*
X027665Y014150D03*
X028335Y014150D03*
X028335Y014900D03*
X027665Y014900D03*
X027665Y015650D03*
X028335Y015650D03*
X028335Y016525D03*
X027665Y016525D03*
X027665Y017275D03*
X028335Y017275D03*
X028335Y019525D03*
X027665Y019525D03*
X027665Y020275D03*
X028335Y020275D03*
D11*
X019262Y007149D03*
X019262Y006401D03*
X018238Y006401D03*
X018238Y006775D03*
X018238Y007149D03*
D12*
X021516Y009586D03*
X021516Y009783D03*
X021516Y009980D03*
X021516Y010177D03*
X021516Y010373D03*
X021516Y010570D03*
X021516Y010767D03*
X021516Y010964D03*
X023484Y010964D03*
X023484Y010767D03*
X023484Y010570D03*
X023484Y010373D03*
X023484Y010177D03*
X023484Y009980D03*
X023484Y009783D03*
X023484Y009586D03*
D13*
X023189Y009291D03*
X022992Y009291D03*
X022795Y009291D03*
X022598Y009291D03*
X022402Y009291D03*
X022205Y009291D03*
X022008Y009291D03*
X021811Y009291D03*
X021811Y011259D03*
X022008Y011259D03*
X022205Y011259D03*
X022402Y011259D03*
X022598Y011259D03*
X022795Y011259D03*
X022992Y011259D03*
X023189Y011259D03*
D14*
X022815Y010590D03*
X022185Y010590D03*
X022185Y009960D03*
X022815Y009960D03*
D15*
X029500Y012422D03*
X029500Y015178D03*
X029500Y016922D03*
X033240Y016706D03*
X033240Y015394D03*
X033240Y012206D03*
X029500Y019678D03*
X033240Y019894D03*
D16*
X029500Y018300D03*
X029500Y013800D03*
D17*
X028335Y018025D03*
X027665Y018025D03*
X026835Y018025D03*
X026165Y018025D03*
X026165Y018775D03*
X026835Y018775D03*
X027665Y018775D03*
X028335Y018775D03*
X019125Y010610D03*
X018375Y010610D03*
X018375Y009940D03*
X019125Y009940D03*
D18*
X026750Y015974D03*
X026750Y017076D03*
X026750Y019724D03*
X026750Y020826D03*
M02*
