G75*
G70*
%OFA0B0*%
%FSLAX24Y24*%
%IPPOS*%
%LPD*%
%AMOC8*
5,1,8,0,0,1.08239X$1,22.5*
%
%ADD10C,0.0000*%
%ADD11R,0.0594X0.0594*%
%ADD12C,0.0594*%
%ADD13C,0.0660*%
%ADD14C,0.0357*%
%ADD15C,0.0100*%
D10*
X007250Y003400D02*
X007250Y007150D01*
X007252Y007206D01*
X007258Y007262D01*
X007267Y007318D01*
X007281Y007372D01*
X007298Y007426D01*
X007319Y007478D01*
X007343Y007528D01*
X007371Y007577D01*
X007403Y007624D01*
X007437Y007669D01*
X007474Y007711D01*
X007514Y007750D01*
X007557Y007786D01*
X007602Y007820D01*
X007650Y007850D01*
X007699Y007877D01*
X007750Y007900D01*
X007801Y007923D01*
X007850Y007950D01*
X007898Y007980D01*
X007943Y008014D01*
X007986Y008050D01*
X008026Y008089D01*
X008063Y008131D01*
X008097Y008176D01*
X008129Y008223D01*
X008157Y008272D01*
X008181Y008322D01*
X008202Y008374D01*
X008219Y008428D01*
X008233Y008482D01*
X008242Y008538D01*
X008248Y008594D01*
X008250Y008650D01*
X008250Y018150D01*
X008248Y018206D01*
X008242Y018262D01*
X008233Y018318D01*
X008219Y018372D01*
X008202Y018426D01*
X008181Y018478D01*
X008157Y018528D01*
X008129Y018577D01*
X008097Y018624D01*
X008063Y018669D01*
X008026Y018711D01*
X007986Y018750D01*
X007943Y018786D01*
X007898Y018820D01*
X007850Y018850D01*
X007801Y018877D01*
X007750Y018900D01*
X007699Y018923D01*
X007650Y018950D01*
X007602Y018980D01*
X007557Y019014D01*
X007514Y019050D01*
X007474Y019089D01*
X007437Y019131D01*
X007403Y019176D01*
X007371Y019223D01*
X007343Y019272D01*
X007319Y019322D01*
X007298Y019374D01*
X007281Y019428D01*
X007267Y019482D01*
X007258Y019538D01*
X007252Y019594D01*
X007250Y019650D01*
X007250Y023400D01*
X007252Y023454D01*
X007258Y023507D01*
X007267Y023559D01*
X007280Y023611D01*
X007297Y023662D01*
X007318Y023712D01*
X007342Y023759D01*
X007369Y023805D01*
X007400Y023849D01*
X007433Y023891D01*
X007470Y023930D01*
X007509Y023967D01*
X007551Y024000D01*
X007595Y024031D01*
X007641Y024058D01*
X007688Y024082D01*
X007738Y024103D01*
X007789Y024120D01*
X007841Y024133D01*
X007893Y024142D01*
X007946Y024148D01*
X008000Y024150D01*
X029500Y024150D01*
X031587Y021650D02*
X031589Y021702D01*
X031595Y021754D01*
X031605Y021805D01*
X031618Y021855D01*
X031636Y021905D01*
X031657Y021952D01*
X031681Y021998D01*
X031710Y022042D01*
X031741Y022084D01*
X031775Y022123D01*
X031812Y022160D01*
X031852Y022193D01*
X031895Y022224D01*
X031939Y022251D01*
X031985Y022275D01*
X032034Y022295D01*
X032083Y022311D01*
X032134Y022324D01*
X032185Y022333D01*
X032237Y022338D01*
X032289Y022339D01*
X032341Y022336D01*
X032393Y022329D01*
X032444Y022318D01*
X032494Y022304D01*
X032543Y022285D01*
X032590Y022263D01*
X032635Y022238D01*
X032679Y022209D01*
X032720Y022177D01*
X032759Y022142D01*
X032794Y022104D01*
X032827Y022063D01*
X032857Y022021D01*
X032883Y021976D01*
X032906Y021929D01*
X032925Y021880D01*
X032941Y021830D01*
X032953Y021780D01*
X032961Y021728D01*
X032965Y021676D01*
X032965Y021624D01*
X032961Y021572D01*
X032953Y021520D01*
X032941Y021470D01*
X032925Y021420D01*
X032906Y021371D01*
X032883Y021324D01*
X032857Y021279D01*
X032827Y021237D01*
X032794Y021196D01*
X032759Y021158D01*
X032720Y021123D01*
X032679Y021091D01*
X032635Y021062D01*
X032590Y021037D01*
X032543Y021015D01*
X032494Y020996D01*
X032444Y020982D01*
X032393Y020971D01*
X032341Y020964D01*
X032289Y020961D01*
X032237Y020962D01*
X032185Y020967D01*
X032134Y020976D01*
X032083Y020989D01*
X032034Y021005D01*
X031985Y021025D01*
X031939Y021049D01*
X031895Y021076D01*
X031852Y021107D01*
X031812Y021140D01*
X031775Y021177D01*
X031741Y021216D01*
X031710Y021258D01*
X031681Y021302D01*
X031657Y021348D01*
X031636Y021395D01*
X031618Y021445D01*
X031605Y021495D01*
X031595Y021546D01*
X031589Y021598D01*
X031587Y021650D01*
X029500Y024150D02*
X029738Y024144D01*
X029975Y024127D01*
X030212Y024099D01*
X030446Y024060D01*
X030679Y024009D01*
X030909Y023947D01*
X031135Y023875D01*
X031358Y023792D01*
X031577Y023698D01*
X031791Y023594D01*
X032000Y023480D01*
X032203Y023356D01*
X032400Y023223D01*
X032591Y023080D01*
X032774Y022929D01*
X032950Y022769D01*
X033119Y022600D01*
X033279Y022424D01*
X033430Y022241D01*
X033573Y022050D01*
X033706Y021853D01*
X033830Y021650D01*
X033944Y021441D01*
X034048Y021227D01*
X034142Y021008D01*
X034225Y020785D01*
X034297Y020559D01*
X034359Y020329D01*
X034410Y020096D01*
X034449Y019862D01*
X034477Y019625D01*
X034494Y019388D01*
X034500Y019150D01*
X034500Y007650D01*
X031587Y005150D02*
X031589Y005202D01*
X031595Y005254D01*
X031605Y005305D01*
X031618Y005355D01*
X031636Y005405D01*
X031657Y005452D01*
X031681Y005498D01*
X031710Y005542D01*
X031741Y005584D01*
X031775Y005623D01*
X031812Y005660D01*
X031852Y005693D01*
X031895Y005724D01*
X031939Y005751D01*
X031985Y005775D01*
X032034Y005795D01*
X032083Y005811D01*
X032134Y005824D01*
X032185Y005833D01*
X032237Y005838D01*
X032289Y005839D01*
X032341Y005836D01*
X032393Y005829D01*
X032444Y005818D01*
X032494Y005804D01*
X032543Y005785D01*
X032590Y005763D01*
X032635Y005738D01*
X032679Y005709D01*
X032720Y005677D01*
X032759Y005642D01*
X032794Y005604D01*
X032827Y005563D01*
X032857Y005521D01*
X032883Y005476D01*
X032906Y005429D01*
X032925Y005380D01*
X032941Y005330D01*
X032953Y005280D01*
X032961Y005228D01*
X032965Y005176D01*
X032965Y005124D01*
X032961Y005072D01*
X032953Y005020D01*
X032941Y004970D01*
X032925Y004920D01*
X032906Y004871D01*
X032883Y004824D01*
X032857Y004779D01*
X032827Y004737D01*
X032794Y004696D01*
X032759Y004658D01*
X032720Y004623D01*
X032679Y004591D01*
X032635Y004562D01*
X032590Y004537D01*
X032543Y004515D01*
X032494Y004496D01*
X032444Y004482D01*
X032393Y004471D01*
X032341Y004464D01*
X032289Y004461D01*
X032237Y004462D01*
X032185Y004467D01*
X032134Y004476D01*
X032083Y004489D01*
X032034Y004505D01*
X031985Y004525D01*
X031939Y004549D01*
X031895Y004576D01*
X031852Y004607D01*
X031812Y004640D01*
X031775Y004677D01*
X031741Y004716D01*
X031710Y004758D01*
X031681Y004802D01*
X031657Y004848D01*
X031636Y004895D01*
X031618Y004945D01*
X031605Y004995D01*
X031595Y005046D01*
X031589Y005098D01*
X031587Y005150D01*
X029500Y002650D02*
X008000Y002650D01*
X007946Y002652D01*
X007893Y002658D01*
X007841Y002667D01*
X007789Y002680D01*
X007738Y002697D01*
X007688Y002718D01*
X007641Y002742D01*
X007595Y002769D01*
X007551Y002800D01*
X007509Y002833D01*
X007470Y002870D01*
X007433Y002909D01*
X007400Y002951D01*
X007369Y002995D01*
X007342Y003041D01*
X007318Y003088D01*
X007297Y003138D01*
X007280Y003189D01*
X007267Y003241D01*
X007258Y003293D01*
X007252Y003346D01*
X007250Y003400D01*
X029500Y002650D02*
X029738Y002656D01*
X029975Y002673D01*
X030212Y002701D01*
X030446Y002740D01*
X030679Y002791D01*
X030909Y002853D01*
X031135Y002925D01*
X031358Y003008D01*
X031577Y003102D01*
X031791Y003206D01*
X032000Y003320D01*
X032203Y003444D01*
X032400Y003577D01*
X032591Y003720D01*
X032774Y003871D01*
X032950Y004031D01*
X033119Y004200D01*
X033279Y004376D01*
X033430Y004559D01*
X033573Y004750D01*
X033706Y004947D01*
X033830Y005150D01*
X033944Y005359D01*
X034048Y005573D01*
X034142Y005792D01*
X034225Y006015D01*
X034297Y006241D01*
X034359Y006471D01*
X034410Y006704D01*
X034449Y006938D01*
X034477Y007175D01*
X034494Y007412D01*
X034500Y007650D01*
X033487Y013111D02*
X033489Y013140D01*
X033495Y013169D01*
X033504Y013197D01*
X033517Y013224D01*
X033534Y013249D01*
X033553Y013271D01*
X033575Y013290D01*
X033600Y013307D01*
X033627Y013320D01*
X033655Y013329D01*
X033684Y013335D01*
X033713Y013337D01*
X033742Y013335D01*
X033771Y013329D01*
X033799Y013320D01*
X033826Y013307D01*
X033851Y013290D01*
X033873Y013271D01*
X033892Y013249D01*
X033909Y013224D01*
X033922Y013197D01*
X033931Y013169D01*
X033937Y013140D01*
X033939Y013111D01*
X033937Y013082D01*
X033931Y013053D01*
X033922Y013025D01*
X033909Y012998D01*
X033892Y012973D01*
X033873Y012951D01*
X033851Y012932D01*
X033826Y012915D01*
X033799Y012902D01*
X033771Y012893D01*
X033742Y012887D01*
X033713Y012885D01*
X033684Y012887D01*
X033655Y012893D01*
X033627Y012902D01*
X033600Y012915D01*
X033575Y012932D01*
X033553Y012951D01*
X033534Y012973D01*
X033517Y012998D01*
X033504Y013025D01*
X033495Y013053D01*
X033489Y013082D01*
X033487Y013111D01*
X033487Y014489D02*
X033489Y014518D01*
X033495Y014547D01*
X033504Y014575D01*
X033517Y014602D01*
X033534Y014627D01*
X033553Y014649D01*
X033575Y014668D01*
X033600Y014685D01*
X033627Y014698D01*
X033655Y014707D01*
X033684Y014713D01*
X033713Y014715D01*
X033742Y014713D01*
X033771Y014707D01*
X033799Y014698D01*
X033826Y014685D01*
X033851Y014668D01*
X033873Y014649D01*
X033892Y014627D01*
X033909Y014602D01*
X033922Y014575D01*
X033931Y014547D01*
X033937Y014518D01*
X033939Y014489D01*
X033937Y014460D01*
X033931Y014431D01*
X033922Y014403D01*
X033909Y014376D01*
X033892Y014351D01*
X033873Y014329D01*
X033851Y014310D01*
X033826Y014293D01*
X033799Y014280D01*
X033771Y014271D01*
X033742Y014265D01*
X033713Y014263D01*
X033684Y014265D01*
X033655Y014271D01*
X033627Y014280D01*
X033600Y014293D01*
X033575Y014310D01*
X033553Y014329D01*
X033534Y014351D01*
X033517Y014376D01*
X033504Y014403D01*
X033495Y014431D01*
X033489Y014460D01*
X033487Y014489D01*
X033487Y017611D02*
X033489Y017640D01*
X033495Y017669D01*
X033504Y017697D01*
X033517Y017724D01*
X033534Y017749D01*
X033553Y017771D01*
X033575Y017790D01*
X033600Y017807D01*
X033627Y017820D01*
X033655Y017829D01*
X033684Y017835D01*
X033713Y017837D01*
X033742Y017835D01*
X033771Y017829D01*
X033799Y017820D01*
X033826Y017807D01*
X033851Y017790D01*
X033873Y017771D01*
X033892Y017749D01*
X033909Y017724D01*
X033922Y017697D01*
X033931Y017669D01*
X033937Y017640D01*
X033939Y017611D01*
X033937Y017582D01*
X033931Y017553D01*
X033922Y017525D01*
X033909Y017498D01*
X033892Y017473D01*
X033873Y017451D01*
X033851Y017432D01*
X033826Y017415D01*
X033799Y017402D01*
X033771Y017393D01*
X033742Y017387D01*
X033713Y017385D01*
X033684Y017387D01*
X033655Y017393D01*
X033627Y017402D01*
X033600Y017415D01*
X033575Y017432D01*
X033553Y017451D01*
X033534Y017473D01*
X033517Y017498D01*
X033504Y017525D01*
X033495Y017553D01*
X033489Y017582D01*
X033487Y017611D01*
X033487Y018989D02*
X033489Y019018D01*
X033495Y019047D01*
X033504Y019075D01*
X033517Y019102D01*
X033534Y019127D01*
X033553Y019149D01*
X033575Y019168D01*
X033600Y019185D01*
X033627Y019198D01*
X033655Y019207D01*
X033684Y019213D01*
X033713Y019215D01*
X033742Y019213D01*
X033771Y019207D01*
X033799Y019198D01*
X033826Y019185D01*
X033851Y019168D01*
X033873Y019149D01*
X033892Y019127D01*
X033909Y019102D01*
X033922Y019075D01*
X033931Y019047D01*
X033937Y019018D01*
X033939Y018989D01*
X033937Y018960D01*
X033931Y018931D01*
X033922Y018903D01*
X033909Y018876D01*
X033892Y018851D01*
X033873Y018829D01*
X033851Y018810D01*
X033826Y018793D01*
X033799Y018780D01*
X033771Y018771D01*
X033742Y018765D01*
X033713Y018763D01*
X033684Y018765D01*
X033655Y018771D01*
X033627Y018780D01*
X033600Y018793D01*
X033575Y018810D01*
X033553Y018829D01*
X033534Y018851D01*
X033517Y018876D01*
X033504Y018903D01*
X033495Y018931D01*
X033489Y018960D01*
X033487Y018989D01*
D11*
X008000Y022400D03*
X008000Y003400D03*
D12*
X009000Y003400D03*
X010000Y003400D03*
X011000Y003400D03*
X012000Y003400D03*
X013000Y003400D03*
X014000Y003400D03*
X015000Y003400D03*
X016000Y003400D03*
X017000Y003400D03*
X018000Y003400D03*
X019000Y003400D03*
X020000Y003400D03*
X021000Y003400D03*
X022000Y003400D03*
X023000Y003400D03*
X024000Y003400D03*
X025000Y003400D03*
X026000Y003400D03*
X027000Y003400D03*
X028000Y003400D03*
X029000Y003400D03*
X030000Y003400D03*
X030000Y004400D03*
X029000Y004400D03*
X028000Y004400D03*
X027000Y004400D03*
X026000Y004400D03*
X025000Y004400D03*
X024000Y004400D03*
X023000Y004400D03*
X022000Y004400D03*
X021000Y004400D03*
X020000Y004400D03*
X019000Y004400D03*
X018000Y004400D03*
X017000Y004400D03*
X016000Y004400D03*
X015000Y004400D03*
X014000Y004400D03*
X013000Y004400D03*
X012000Y004400D03*
X011000Y004400D03*
X010000Y004400D03*
X009000Y004400D03*
X008000Y004400D03*
X009000Y022400D03*
X010000Y022400D03*
X011000Y022400D03*
X012000Y022400D03*
X013000Y022400D03*
X014000Y022400D03*
X015000Y022400D03*
X016000Y022400D03*
X017000Y022400D03*
X018000Y022400D03*
X019000Y022400D03*
X020000Y022400D03*
X021000Y022400D03*
X022000Y022400D03*
X023000Y022400D03*
X024000Y022400D03*
X025000Y022400D03*
X026000Y022400D03*
X027000Y022400D03*
X028000Y022400D03*
X029000Y022400D03*
X030000Y022400D03*
X030000Y023400D03*
X029000Y023400D03*
X028000Y023400D03*
X027000Y023400D03*
X026000Y023400D03*
X025000Y023400D03*
X024000Y023400D03*
X023000Y023400D03*
X022000Y023400D03*
X021000Y023400D03*
X020000Y023400D03*
X019000Y023400D03*
X018000Y023400D03*
X017000Y023400D03*
X016000Y023400D03*
X015000Y023400D03*
X014000Y023400D03*
X013000Y023400D03*
X012000Y023400D03*
X011000Y023400D03*
X010000Y023400D03*
X009000Y023400D03*
X008000Y023400D03*
D13*
X021750Y014150D03*
X022750Y014150D03*
X022750Y013150D03*
X021750Y013150D03*
X028000Y010775D03*
X028000Y009775D03*
X024500Y007025D03*
X023500Y007025D03*
X023500Y006025D03*
X024500Y006025D03*
D14*
X025750Y005525D03*
X025750Y006650D03*
X025750Y007775D03*
X025375Y009525D03*
X025375Y010150D03*
X025375Y010775D03*
X024250Y010775D03*
X024250Y009400D03*
X023625Y008900D03*
X021875Y007650D03*
X019625Y009275D03*
X019625Y009900D03*
X019875Y011900D03*
X018125Y011900D03*
X016625Y010400D03*
X016625Y008775D03*
X017875Y007775D03*
X016625Y007275D03*
X016625Y005775D03*
X017875Y005775D03*
X019625Y005775D03*
X021500Y005775D03*
X022250Y005775D03*
X021375Y011900D03*
X024500Y012400D03*
X024500Y013025D03*
X024375Y013650D03*
X027125Y013400D03*
X027125Y014150D03*
X026000Y016525D03*
X024625Y017275D03*
X024625Y019275D03*
X026000Y020275D03*
X024625Y021150D03*
D15*
X025739Y020450D02*
X025692Y020336D01*
X025692Y020221D01*
X025320Y019850D01*
X025320Y017225D01*
X023425Y015330D01*
X023320Y015225D01*
X023320Y011450D01*
X023942Y010829D01*
X023942Y010714D01*
X023989Y010600D01*
X024075Y010514D01*
X024189Y010467D01*
X024311Y010467D01*
X024425Y010514D01*
X024511Y010600D01*
X024558Y010714D01*
X024558Y010836D01*
X024511Y010950D01*
X024425Y011036D01*
X024311Y011083D01*
X024196Y011083D01*
X023680Y011600D01*
X023680Y015075D01*
X025680Y017075D01*
X025680Y017225D01*
X025680Y019700D01*
X025946Y019967D01*
X026061Y019967D01*
X026175Y020014D01*
X026261Y020100D01*
X026308Y020214D01*
X026308Y020336D01*
X026261Y020450D01*
X026175Y020536D01*
X026061Y020583D01*
X025939Y020583D01*
X025825Y020536D01*
X025739Y020450D01*
X025760Y020471D02*
X007700Y020471D01*
X007700Y020373D02*
X025707Y020373D01*
X025692Y020274D02*
X007700Y020274D01*
X007700Y020176D02*
X025646Y020176D01*
X025547Y020077D02*
X007700Y020077D01*
X007700Y019979D02*
X025449Y019979D01*
X025350Y019880D02*
X007700Y019880D01*
X007700Y019782D02*
X025320Y019782D01*
X025320Y019683D02*
X007700Y019683D01*
X007700Y019650D02*
X007700Y021953D01*
X007952Y021953D01*
X007952Y022352D01*
X008048Y022352D01*
X008048Y022448D01*
X007952Y022448D01*
X007952Y022847D01*
X007700Y022847D01*
X007700Y023068D01*
X007709Y023059D01*
X007766Y023018D01*
X007828Y022986D01*
X007895Y022964D01*
X007952Y022955D01*
X007952Y023352D01*
X008048Y023352D01*
X008048Y023448D01*
X008445Y023448D01*
X008436Y023505D01*
X008414Y023572D01*
X008382Y023634D01*
X008341Y023691D01*
X008332Y023700D01*
X008696Y023700D01*
X008638Y023642D01*
X008573Y023485D01*
X008573Y023315D01*
X008638Y023158D01*
X008758Y023038D01*
X008915Y022973D01*
X009085Y022973D01*
X009242Y023038D01*
X009362Y023158D01*
X009427Y023315D01*
X009427Y023485D01*
X009362Y023642D01*
X009304Y023700D01*
X009696Y023700D01*
X009638Y023642D01*
X009573Y023485D01*
X009573Y023315D01*
X009638Y023158D01*
X009758Y023038D01*
X009915Y022973D01*
X010085Y022973D01*
X010242Y023038D01*
X010362Y023158D01*
X010427Y023315D01*
X010427Y023485D01*
X010362Y023642D01*
X010304Y023700D01*
X010696Y023700D01*
X010638Y023642D01*
X010573Y023485D01*
X010573Y023315D01*
X010638Y023158D01*
X010758Y023038D01*
X010915Y022973D01*
X011085Y022973D01*
X011242Y023038D01*
X011362Y023158D01*
X011427Y023315D01*
X011427Y023485D01*
X011362Y023642D01*
X011304Y023700D01*
X011696Y023700D01*
X011638Y023642D01*
X011573Y023485D01*
X011573Y023315D01*
X011638Y023158D01*
X011758Y023038D01*
X011915Y022973D01*
X012085Y022973D01*
X012242Y023038D01*
X012362Y023158D01*
X012427Y023315D01*
X012427Y023485D01*
X012362Y023642D01*
X012304Y023700D01*
X012696Y023700D01*
X012638Y023642D01*
X012573Y023485D01*
X012573Y023315D01*
X012638Y023158D01*
X012758Y023038D01*
X012915Y022973D01*
X013085Y022973D01*
X013242Y023038D01*
X013362Y023158D01*
X013427Y023315D01*
X013427Y023485D01*
X013362Y023642D01*
X013304Y023700D01*
X013696Y023700D01*
X013638Y023642D01*
X013573Y023485D01*
X013573Y023315D01*
X013638Y023158D01*
X013758Y023038D01*
X013915Y022973D01*
X014085Y022973D01*
X014242Y023038D01*
X014362Y023158D01*
X014427Y023315D01*
X014427Y023485D01*
X014362Y023642D01*
X014304Y023700D01*
X014696Y023700D01*
X014638Y023642D01*
X014573Y023485D01*
X014573Y023315D01*
X014638Y023158D01*
X014758Y023038D01*
X014915Y022973D01*
X015085Y022973D01*
X015242Y023038D01*
X015362Y023158D01*
X015427Y023315D01*
X015427Y023485D01*
X015362Y023642D01*
X015304Y023700D01*
X015696Y023700D01*
X015638Y023642D01*
X015573Y023485D01*
X015573Y023315D01*
X015638Y023158D01*
X015758Y023038D01*
X015915Y022973D01*
X016085Y022973D01*
X016242Y023038D01*
X016362Y023158D01*
X016427Y023315D01*
X016427Y023485D01*
X016362Y023642D01*
X016304Y023700D01*
X016696Y023700D01*
X016638Y023642D01*
X016573Y023485D01*
X016573Y023315D01*
X016638Y023158D01*
X016758Y023038D01*
X016915Y022973D01*
X017085Y022973D01*
X017242Y023038D01*
X017362Y023158D01*
X017427Y023315D01*
X017427Y023485D01*
X017362Y023642D01*
X017304Y023700D01*
X017696Y023700D01*
X017638Y023642D01*
X017573Y023485D01*
X017573Y023315D01*
X017638Y023158D01*
X017758Y023038D01*
X017915Y022973D01*
X018085Y022973D01*
X018242Y023038D01*
X018362Y023158D01*
X018427Y023315D01*
X018427Y023485D01*
X018362Y023642D01*
X018304Y023700D01*
X018696Y023700D01*
X018638Y023642D01*
X018573Y023485D01*
X018573Y023315D01*
X018638Y023158D01*
X018758Y023038D01*
X018915Y022973D01*
X019085Y022973D01*
X019242Y023038D01*
X019362Y023158D01*
X019427Y023315D01*
X019427Y023485D01*
X019362Y023642D01*
X019304Y023700D01*
X019696Y023700D01*
X019638Y023642D01*
X019573Y023485D01*
X019573Y023315D01*
X019638Y023158D01*
X019758Y023038D01*
X019915Y022973D01*
X020085Y022973D01*
X020242Y023038D01*
X020362Y023158D01*
X020427Y023315D01*
X020427Y023485D01*
X020362Y023642D01*
X020304Y023700D01*
X020696Y023700D01*
X020638Y023642D01*
X020573Y023485D01*
X020573Y023315D01*
X020638Y023158D01*
X020758Y023038D01*
X020915Y022973D01*
X021085Y022973D01*
X021242Y023038D01*
X021362Y023158D01*
X021427Y023315D01*
X021427Y023485D01*
X021362Y023642D01*
X021304Y023700D01*
X021696Y023700D01*
X021638Y023642D01*
X021573Y023485D01*
X021573Y023315D01*
X021638Y023158D01*
X021758Y023038D01*
X021915Y022973D01*
X022085Y022973D01*
X022242Y023038D01*
X022362Y023158D01*
X022427Y023315D01*
X022427Y023485D01*
X022362Y023642D01*
X022304Y023700D01*
X022696Y023700D01*
X022638Y023642D01*
X022573Y023485D01*
X022573Y023315D01*
X022638Y023158D01*
X022758Y023038D01*
X022915Y022973D01*
X023085Y022973D01*
X023242Y023038D01*
X023362Y023158D01*
X023427Y023315D01*
X023427Y023485D01*
X023362Y023642D01*
X023304Y023700D01*
X023696Y023700D01*
X023638Y023642D01*
X023573Y023485D01*
X023573Y023315D01*
X023638Y023158D01*
X023758Y023038D01*
X023915Y022973D01*
X024085Y022973D01*
X024242Y023038D01*
X024362Y023158D01*
X024427Y023315D01*
X024427Y023485D01*
X024362Y023642D01*
X024304Y023700D01*
X024696Y023700D01*
X024638Y023642D01*
X024573Y023485D01*
X024573Y023315D01*
X024638Y023158D01*
X024758Y023038D01*
X024915Y022973D01*
X025085Y022973D01*
X025242Y023038D01*
X025362Y023158D01*
X025427Y023315D01*
X025427Y023485D01*
X025362Y023642D01*
X025304Y023700D01*
X025696Y023700D01*
X025638Y023642D01*
X025573Y023485D01*
X025573Y023315D01*
X025638Y023158D01*
X025758Y023038D01*
X025915Y022973D01*
X026085Y022973D01*
X026242Y023038D01*
X026362Y023158D01*
X026427Y023315D01*
X026427Y023485D01*
X026362Y023642D01*
X026304Y023700D01*
X026696Y023700D01*
X026638Y023642D01*
X026573Y023485D01*
X026573Y023315D01*
X026638Y023158D01*
X026758Y023038D01*
X026915Y022973D01*
X027085Y022973D01*
X027242Y023038D01*
X027362Y023158D01*
X027427Y023315D01*
X027427Y023485D01*
X027362Y023642D01*
X027304Y023700D01*
X027696Y023700D01*
X027638Y023642D01*
X027573Y023485D01*
X027573Y023315D01*
X027638Y023158D01*
X027758Y023038D01*
X027915Y022973D01*
X028085Y022973D01*
X028242Y023038D01*
X028362Y023158D01*
X028427Y023315D01*
X028427Y023485D01*
X028362Y023642D01*
X028304Y023700D01*
X028696Y023700D01*
X028638Y023642D01*
X028573Y023485D01*
X028573Y023315D01*
X028638Y023158D01*
X028758Y023038D01*
X028915Y022973D01*
X029085Y022973D01*
X029242Y023038D01*
X029362Y023158D01*
X029427Y023315D01*
X029427Y023485D01*
X029362Y023642D01*
X029304Y023700D01*
X029500Y023700D01*
X029689Y023693D01*
X029638Y023642D01*
X029573Y023485D01*
X029573Y023315D01*
X029638Y023158D01*
X029758Y023038D01*
X029915Y022973D01*
X030085Y022973D01*
X030242Y023038D01*
X030362Y023158D01*
X030427Y023315D01*
X030427Y023485D01*
X030378Y023603D01*
X030562Y023574D01*
X031241Y023354D01*
X031877Y023030D01*
X032208Y022789D01*
X032126Y022789D01*
X031836Y022711D01*
X031576Y022561D01*
X031364Y022349D01*
X031214Y022090D01*
X031137Y021800D01*
X031137Y021500D01*
X031214Y021210D01*
X031364Y020951D01*
X031576Y020739D01*
X031836Y020589D01*
X032126Y020511D01*
X032426Y020511D01*
X032715Y020589D01*
X032975Y020739D01*
X033187Y020951D01*
X033337Y021210D01*
X033407Y021473D01*
X033704Y020891D01*
X033924Y020212D01*
X034022Y019593D01*
X033847Y019665D01*
X033578Y019665D01*
X033329Y019562D01*
X033139Y019372D01*
X033036Y019124D01*
X033036Y018854D01*
X033139Y018606D01*
X033329Y018416D01*
X033578Y018313D01*
X033847Y018313D01*
X034050Y018397D01*
X034050Y018203D01*
X033847Y018287D01*
X033578Y018287D01*
X033329Y018184D01*
X033139Y017994D01*
X033036Y017746D01*
X033036Y017476D01*
X033139Y017228D01*
X033329Y017038D01*
X033578Y016935D01*
X033847Y016935D01*
X034050Y017019D01*
X034050Y015081D01*
X033847Y015165D01*
X033578Y015165D01*
X033329Y015062D01*
X033139Y014872D01*
X033036Y014624D01*
X033036Y014354D01*
X033139Y014106D01*
X033329Y013916D01*
X033578Y013813D01*
X033847Y013813D01*
X034050Y013897D01*
X034050Y013703D01*
X033847Y013787D01*
X033578Y013787D01*
X033329Y013684D01*
X033139Y013494D01*
X033036Y013246D01*
X033036Y012976D01*
X033139Y012728D01*
X033329Y012538D01*
X033578Y012435D01*
X033847Y012435D01*
X034050Y012519D01*
X034050Y007650D01*
X034036Y007293D01*
X033924Y006588D01*
X033704Y005909D01*
X033407Y005327D01*
X033337Y005590D01*
X033187Y005849D01*
X032975Y006061D01*
X032715Y006211D01*
X032426Y006289D01*
X032126Y006289D01*
X031836Y006211D01*
X031576Y006061D01*
X031364Y005849D01*
X031214Y005590D01*
X031137Y005300D01*
X031137Y005000D01*
X031214Y004710D01*
X031364Y004451D01*
X031576Y004239D01*
X031836Y004089D01*
X032126Y004011D01*
X032208Y004011D01*
X031877Y003770D01*
X031241Y003446D01*
X030562Y003226D01*
X030400Y003200D01*
X030414Y003228D01*
X030436Y003295D01*
X030445Y003352D01*
X030048Y003352D01*
X030048Y003448D01*
X029952Y003448D01*
X029952Y003352D01*
X029555Y003352D01*
X029564Y003295D01*
X029586Y003228D01*
X029618Y003166D01*
X029659Y003109D01*
X029662Y003106D01*
X029500Y003100D01*
X029332Y003100D01*
X029341Y003109D01*
X029382Y003166D01*
X029414Y003228D01*
X029436Y003295D01*
X029445Y003352D01*
X029048Y003352D01*
X029048Y003448D01*
X028952Y003448D01*
X028952Y003352D01*
X028555Y003352D01*
X028564Y003295D01*
X028586Y003228D01*
X028618Y003166D01*
X028659Y003109D01*
X028668Y003100D01*
X028304Y003100D01*
X028362Y003158D01*
X028427Y003315D01*
X028427Y003485D01*
X028362Y003642D01*
X028242Y003762D01*
X028085Y003827D01*
X027915Y003827D01*
X027758Y003762D01*
X027638Y003642D01*
X027573Y003485D01*
X027573Y003315D01*
X027638Y003158D01*
X027696Y003100D01*
X027304Y003100D01*
X027362Y003158D01*
X027427Y003315D01*
X027427Y003485D01*
X027362Y003642D01*
X027242Y003762D01*
X027085Y003827D01*
X026915Y003827D01*
X026758Y003762D01*
X026638Y003642D01*
X026573Y003485D01*
X026573Y003315D01*
X026638Y003158D01*
X026696Y003100D01*
X026304Y003100D01*
X026362Y003158D01*
X026427Y003315D01*
X026427Y003485D01*
X026362Y003642D01*
X026242Y003762D01*
X026085Y003827D01*
X025915Y003827D01*
X025758Y003762D01*
X025638Y003642D01*
X025573Y003485D01*
X025573Y003315D01*
X025638Y003158D01*
X025696Y003100D01*
X025304Y003100D01*
X025362Y003158D01*
X025427Y003315D01*
X025427Y003485D01*
X025362Y003642D01*
X025242Y003762D01*
X025085Y003827D01*
X024915Y003827D01*
X024758Y003762D01*
X024638Y003642D01*
X024573Y003485D01*
X024573Y003315D01*
X024638Y003158D01*
X024696Y003100D01*
X024304Y003100D01*
X024362Y003158D01*
X024427Y003315D01*
X024427Y003485D01*
X024362Y003642D01*
X024242Y003762D01*
X024085Y003827D01*
X023915Y003827D01*
X023758Y003762D01*
X023638Y003642D01*
X023573Y003485D01*
X023573Y003315D01*
X023638Y003158D01*
X023696Y003100D01*
X023304Y003100D01*
X023362Y003158D01*
X023427Y003315D01*
X023427Y003485D01*
X023362Y003642D01*
X023242Y003762D01*
X023085Y003827D01*
X022915Y003827D01*
X022758Y003762D01*
X022638Y003642D01*
X022573Y003485D01*
X022573Y003315D01*
X022638Y003158D01*
X022696Y003100D01*
X022304Y003100D01*
X022362Y003158D01*
X022427Y003315D01*
X022427Y003485D01*
X022362Y003642D01*
X022242Y003762D01*
X022085Y003827D01*
X021915Y003827D01*
X021758Y003762D01*
X021638Y003642D01*
X021573Y003485D01*
X021573Y003315D01*
X021638Y003158D01*
X021696Y003100D01*
X021304Y003100D01*
X021362Y003158D01*
X021427Y003315D01*
X021427Y003485D01*
X021362Y003642D01*
X021242Y003762D01*
X021085Y003827D01*
X020915Y003827D01*
X020758Y003762D01*
X020638Y003642D01*
X020573Y003485D01*
X020573Y003315D01*
X020638Y003158D01*
X020696Y003100D01*
X020304Y003100D01*
X020362Y003158D01*
X020427Y003315D01*
X020427Y003485D01*
X020362Y003642D01*
X020242Y003762D01*
X020085Y003827D01*
X019915Y003827D01*
X019758Y003762D01*
X019638Y003642D01*
X019573Y003485D01*
X019573Y003315D01*
X019638Y003158D01*
X019696Y003100D01*
X019304Y003100D01*
X019362Y003158D01*
X019427Y003315D01*
X019427Y003485D01*
X019362Y003642D01*
X019242Y003762D01*
X019085Y003827D01*
X018915Y003827D01*
X018758Y003762D01*
X018638Y003642D01*
X018573Y003485D01*
X018573Y003315D01*
X018638Y003158D01*
X018696Y003100D01*
X018304Y003100D01*
X018362Y003158D01*
X018427Y003315D01*
X018427Y003485D01*
X018362Y003642D01*
X018242Y003762D01*
X018085Y003827D01*
X017915Y003827D01*
X017758Y003762D01*
X017638Y003642D01*
X017573Y003485D01*
X017573Y003315D01*
X017638Y003158D01*
X017696Y003100D01*
X017304Y003100D01*
X017362Y003158D01*
X017427Y003315D01*
X017427Y003485D01*
X017362Y003642D01*
X017242Y003762D01*
X017085Y003827D01*
X016915Y003827D01*
X016758Y003762D01*
X016638Y003642D01*
X016573Y003485D01*
X016573Y003315D01*
X016638Y003158D01*
X016696Y003100D01*
X016304Y003100D01*
X016362Y003158D01*
X016427Y003315D01*
X016427Y003485D01*
X016362Y003642D01*
X016242Y003762D01*
X016085Y003827D01*
X015915Y003827D01*
X015758Y003762D01*
X015638Y003642D01*
X015573Y003485D01*
X015573Y003315D01*
X015638Y003158D01*
X015696Y003100D01*
X015304Y003100D01*
X015362Y003158D01*
X015427Y003315D01*
X015427Y003485D01*
X015362Y003642D01*
X015242Y003762D01*
X015085Y003827D01*
X014915Y003827D01*
X014758Y003762D01*
X014638Y003642D01*
X014573Y003485D01*
X014573Y003315D01*
X014638Y003158D01*
X014696Y003100D01*
X014304Y003100D01*
X014362Y003158D01*
X014427Y003315D01*
X014427Y003485D01*
X014362Y003642D01*
X014242Y003762D01*
X014085Y003827D01*
X013915Y003827D01*
X013758Y003762D01*
X013638Y003642D01*
X013573Y003485D01*
X013573Y003315D01*
X013638Y003158D01*
X013696Y003100D01*
X013304Y003100D01*
X013362Y003158D01*
X013427Y003315D01*
X013427Y003485D01*
X013362Y003642D01*
X013242Y003762D01*
X013085Y003827D01*
X012915Y003827D01*
X012758Y003762D01*
X012638Y003642D01*
X012573Y003485D01*
X012573Y003315D01*
X012638Y003158D01*
X012696Y003100D01*
X012304Y003100D01*
X012362Y003158D01*
X012427Y003315D01*
X012427Y003485D01*
X012362Y003642D01*
X012242Y003762D01*
X012085Y003827D01*
X011915Y003827D01*
X011758Y003762D01*
X011638Y003642D01*
X011573Y003485D01*
X011573Y003315D01*
X011638Y003158D01*
X011696Y003100D01*
X011304Y003100D01*
X011362Y003158D01*
X011427Y003315D01*
X011427Y003485D01*
X011362Y003642D01*
X011242Y003762D01*
X011085Y003827D01*
X010915Y003827D01*
X010758Y003762D01*
X010638Y003642D01*
X010573Y003485D01*
X010573Y003315D01*
X010638Y003158D01*
X010696Y003100D01*
X010304Y003100D01*
X010362Y003158D01*
X010427Y003315D01*
X010427Y003485D01*
X010362Y003642D01*
X010242Y003762D01*
X010085Y003827D01*
X009915Y003827D01*
X009758Y003762D01*
X009638Y003642D01*
X009573Y003485D01*
X009573Y003315D01*
X009638Y003158D01*
X009696Y003100D01*
X009304Y003100D01*
X009362Y003158D01*
X009427Y003315D01*
X009427Y003485D01*
X009401Y003547D01*
X009575Y003720D01*
X009680Y003825D01*
X009680Y004116D01*
X009758Y004038D01*
X009915Y003973D01*
X010085Y003973D01*
X010242Y004038D01*
X010362Y004158D01*
X010427Y004315D01*
X010427Y004485D01*
X010362Y004642D01*
X010242Y004762D01*
X010085Y004827D01*
X009915Y004827D01*
X009758Y004762D01*
X009680Y004684D01*
X009680Y004700D01*
X010575Y005595D01*
X015950Y005595D01*
X017821Y007467D01*
X017936Y007467D01*
X018050Y007514D01*
X018136Y007600D01*
X018183Y007714D01*
X018183Y007836D01*
X018136Y007950D01*
X018050Y008036D01*
X017936Y008083D01*
X017814Y008083D01*
X017700Y008036D01*
X017614Y007950D01*
X017567Y007836D01*
X017567Y007721D01*
X015800Y005955D01*
X010425Y005955D01*
X010320Y005850D01*
X009320Y004850D01*
X009320Y004684D01*
X009242Y004762D01*
X009085Y004827D01*
X008915Y004827D01*
X008758Y004762D01*
X008638Y004642D01*
X008573Y004485D01*
X008573Y004315D01*
X008638Y004158D01*
X008758Y004038D01*
X008915Y003973D01*
X009085Y003973D01*
X009242Y004038D01*
X009320Y004116D01*
X009320Y003975D01*
X009147Y003801D01*
X009085Y003827D01*
X008915Y003827D01*
X008758Y003762D01*
X008638Y003642D01*
X008573Y003485D01*
X008573Y003315D01*
X008638Y003158D01*
X008696Y003100D01*
X008447Y003100D01*
X008447Y003352D01*
X008048Y003352D01*
X008048Y003448D01*
X007952Y003448D01*
X007952Y003847D01*
X007700Y003847D01*
X007700Y004068D01*
X007709Y004059D01*
X007766Y004018D01*
X007828Y003986D01*
X007895Y003964D01*
X007952Y003955D01*
X007952Y004352D01*
X008048Y004352D01*
X008048Y004448D01*
X007952Y004448D01*
X007952Y004845D01*
X007895Y004836D01*
X007828Y004814D01*
X007766Y004782D01*
X007709Y004741D01*
X007700Y004732D01*
X007700Y007150D01*
X007704Y007203D01*
X007735Y007305D01*
X007794Y007393D01*
X007876Y007461D01*
X007923Y007485D01*
X008096Y007557D01*
X008384Y007794D01*
X008384Y007794D01*
X008384Y007794D01*
X008592Y008105D01*
X008700Y008463D01*
X008700Y018240D01*
X008700Y018337D01*
X008592Y018695D01*
X008384Y019006D01*
X008096Y019243D01*
X007923Y019315D01*
X007876Y019339D01*
X007794Y019407D01*
X007735Y019495D01*
X007704Y019597D01*
X007700Y019650D01*
X007708Y019585D02*
X025320Y019585D01*
X025320Y019486D02*
X007741Y019486D01*
X007817Y019388D02*
X025320Y019388D01*
X025320Y019289D02*
X007986Y019289D01*
X007923Y019315D02*
X007923Y019315D01*
X008096Y019243D02*
X008096Y019243D01*
X008160Y019191D02*
X025320Y019191D01*
X025320Y019092D02*
X008280Y019092D01*
X008384Y019006D02*
X008384Y019006D01*
X008392Y018994D02*
X025320Y018994D01*
X025320Y018895D02*
X008458Y018895D01*
X008524Y018797D02*
X025320Y018797D01*
X025320Y018698D02*
X008589Y018698D01*
X008592Y018695D02*
X008592Y018695D01*
X008620Y018600D02*
X025320Y018600D01*
X025320Y018501D02*
X008650Y018501D01*
X008680Y018403D02*
X025320Y018403D01*
X025320Y018304D02*
X008700Y018304D01*
X008700Y018337D02*
X008700Y018337D01*
X008700Y018206D02*
X025320Y018206D01*
X025320Y018107D02*
X008700Y018107D01*
X008700Y018009D02*
X025320Y018009D01*
X025320Y017910D02*
X008700Y017910D01*
X008700Y017812D02*
X025320Y017812D01*
X025320Y017713D02*
X008700Y017713D01*
X008700Y017615D02*
X025320Y017615D01*
X025320Y017516D02*
X008700Y017516D01*
X008700Y017418D02*
X025320Y017418D01*
X025320Y017319D02*
X008700Y017319D01*
X008700Y017221D02*
X025316Y017221D01*
X025217Y017122D02*
X008700Y017122D01*
X008700Y017024D02*
X025119Y017024D01*
X025020Y016925D02*
X008700Y016925D01*
X008700Y016827D02*
X024922Y016827D01*
X024823Y016728D02*
X008700Y016728D01*
X008700Y016630D02*
X024725Y016630D01*
X024626Y016531D02*
X008700Y016531D01*
X008700Y016433D02*
X024528Y016433D01*
X024429Y016334D02*
X008700Y016334D01*
X008700Y016236D02*
X024331Y016236D01*
X024232Y016137D02*
X008700Y016137D01*
X008700Y016039D02*
X024134Y016039D01*
X024035Y015940D02*
X008700Y015940D01*
X008700Y015842D02*
X023937Y015842D01*
X023838Y015743D02*
X008700Y015743D01*
X008700Y015645D02*
X023740Y015645D01*
X023641Y015546D02*
X008700Y015546D01*
X008700Y015448D02*
X023543Y015448D01*
X023444Y015349D02*
X008700Y015349D01*
X008700Y015251D02*
X023346Y015251D01*
X023320Y015152D02*
X008700Y015152D01*
X008700Y015054D02*
X023320Y015054D01*
X023320Y014955D02*
X008700Y014955D01*
X008700Y014857D02*
X023320Y014857D01*
X023320Y014758D02*
X008700Y014758D01*
X008700Y014660D02*
X023320Y014660D01*
X023320Y014561D02*
X022960Y014561D01*
X023011Y014540D02*
X022841Y014610D01*
X022658Y014610D01*
X022489Y014540D01*
X022360Y014411D01*
X022290Y014241D01*
X022290Y014058D01*
X022360Y013889D01*
X022489Y013760D01*
X022658Y013690D01*
X022841Y013690D01*
X023011Y013760D01*
X023140Y013889D01*
X023210Y014058D01*
X023210Y014241D01*
X023140Y014411D01*
X023011Y014540D01*
X023088Y014463D02*
X023320Y014463D01*
X023320Y014364D02*
X023159Y014364D01*
X023200Y014266D02*
X023320Y014266D01*
X023320Y014167D02*
X023210Y014167D01*
X023210Y014069D02*
X023320Y014069D01*
X023320Y013970D02*
X023173Y013970D01*
X023122Y013872D02*
X023320Y013872D01*
X023320Y013773D02*
X023024Y013773D01*
X022924Y013576D02*
X023320Y013576D01*
X023320Y013478D02*
X023073Y013478D01*
X023011Y013540D02*
X022841Y013610D01*
X022658Y013610D01*
X022489Y013540D01*
X022360Y013411D01*
X022290Y013241D01*
X022290Y013058D01*
X022360Y012889D01*
X022489Y012760D01*
X022658Y012690D01*
X022841Y012690D01*
X023011Y012760D01*
X023140Y012889D01*
X023210Y013058D01*
X023210Y013241D01*
X023140Y013411D01*
X023011Y013540D01*
X023153Y013379D02*
X023320Y013379D01*
X023320Y013281D02*
X023194Y013281D01*
X023210Y013182D02*
X023320Y013182D01*
X023320Y013084D02*
X023210Y013084D01*
X023180Y012985D02*
X023320Y012985D01*
X023320Y012887D02*
X023137Y012887D01*
X023039Y012788D02*
X023320Y012788D01*
X023320Y012690D02*
X008700Y012690D01*
X008700Y012788D02*
X021461Y012788D01*
X021489Y012760D02*
X021658Y012690D01*
X021841Y012690D01*
X022011Y012760D01*
X022140Y012889D01*
X022210Y013058D01*
X022210Y013241D01*
X022140Y013411D01*
X022011Y013540D01*
X021841Y013610D01*
X021658Y013610D01*
X021489Y013540D01*
X021360Y013411D01*
X021290Y013241D01*
X021290Y013058D01*
X021360Y012889D01*
X021489Y012760D01*
X021363Y012887D02*
X008700Y012887D01*
X008700Y012985D02*
X021320Y012985D01*
X021290Y013084D02*
X008700Y013084D01*
X008700Y013182D02*
X021290Y013182D01*
X021306Y013281D02*
X008700Y013281D01*
X008700Y013379D02*
X021347Y013379D01*
X021427Y013478D02*
X008700Y013478D01*
X008700Y013576D02*
X021576Y013576D01*
X021658Y013690D02*
X021841Y013690D01*
X022011Y013760D01*
X022140Y013889D01*
X022210Y014058D01*
X022210Y014241D01*
X022140Y014411D01*
X022011Y014540D01*
X021841Y014610D01*
X021658Y014610D01*
X021489Y014540D01*
X021360Y014411D01*
X021290Y014241D01*
X021290Y014058D01*
X021360Y013889D01*
X021489Y013760D01*
X021658Y013690D01*
X021476Y013773D02*
X008700Y013773D01*
X008700Y013675D02*
X023320Y013675D01*
X023680Y013675D02*
X023820Y013675D01*
X023820Y013773D02*
X023680Y013773D01*
X023680Y013872D02*
X023820Y013872D01*
X023820Y013970D02*
X023680Y013970D01*
X023680Y014069D02*
X023820Y014069D01*
X023820Y014167D02*
X023680Y014167D01*
X023680Y014266D02*
X023820Y014266D01*
X023820Y014364D02*
X023680Y014364D01*
X023680Y014463D02*
X023820Y014463D01*
X023820Y014561D02*
X023680Y014561D01*
X023680Y014660D02*
X023880Y014660D01*
X023925Y014705D02*
X023820Y014600D01*
X023820Y012075D01*
X024695Y011200D01*
X024695Y010100D01*
X024304Y009708D01*
X024189Y009708D01*
X024075Y009661D01*
X023989Y009575D01*
X023942Y009461D01*
X023942Y009339D01*
X023989Y009225D01*
X024075Y009139D01*
X024189Y009092D01*
X024311Y009092D01*
X024425Y009139D01*
X024511Y009225D01*
X024558Y009339D01*
X024558Y009454D01*
X024950Y009845D01*
X025055Y009950D01*
X025055Y011350D01*
X024950Y011455D01*
X024180Y012225D01*
X024180Y014450D01*
X025946Y016217D01*
X026061Y016217D01*
X026175Y016264D01*
X026261Y016350D01*
X026308Y016464D01*
X026308Y016586D01*
X026261Y016700D01*
X026175Y016786D01*
X026061Y016833D01*
X025939Y016833D01*
X025825Y016786D01*
X025739Y016700D01*
X025692Y016586D01*
X025692Y016471D01*
X023925Y014705D01*
X023925Y014705D01*
X023978Y014758D02*
X023680Y014758D01*
X023680Y014857D02*
X024077Y014857D01*
X024175Y014955D02*
X023680Y014955D01*
X023680Y015054D02*
X024274Y015054D01*
X024372Y015152D02*
X023757Y015152D01*
X023855Y015251D02*
X024471Y015251D01*
X024569Y015349D02*
X023954Y015349D01*
X024052Y015448D02*
X024668Y015448D01*
X024766Y015546D02*
X024151Y015546D01*
X024249Y015645D02*
X024865Y015645D01*
X024963Y015743D02*
X024348Y015743D01*
X024446Y015842D02*
X025062Y015842D01*
X025160Y015940D02*
X024545Y015940D01*
X024643Y016039D02*
X025259Y016039D01*
X025357Y016137D02*
X024742Y016137D01*
X024840Y016236D02*
X025456Y016236D01*
X025554Y016334D02*
X024939Y016334D01*
X025037Y016433D02*
X025653Y016433D01*
X025692Y016531D02*
X025136Y016531D01*
X025234Y016630D02*
X025709Y016630D01*
X025767Y016728D02*
X025333Y016728D01*
X025431Y016827D02*
X025922Y016827D01*
X026078Y016827D02*
X034050Y016827D01*
X034050Y016925D02*
X025530Y016925D01*
X025628Y017024D02*
X033363Y017024D01*
X033245Y017122D02*
X025680Y017122D01*
X025680Y017221D02*
X033147Y017221D01*
X033101Y017319D02*
X025680Y017319D01*
X025680Y017418D02*
X033061Y017418D01*
X033036Y017516D02*
X025680Y017516D01*
X025680Y017615D02*
X033036Y017615D01*
X033036Y017713D02*
X025680Y017713D01*
X025680Y017812D02*
X033064Y017812D01*
X033104Y017910D02*
X025680Y017910D01*
X025680Y018009D02*
X033154Y018009D01*
X033252Y018107D02*
X025680Y018107D01*
X025680Y018206D02*
X033380Y018206D01*
X033361Y018403D02*
X025680Y018403D01*
X025680Y018501D02*
X033244Y018501D01*
X033145Y018600D02*
X025680Y018600D01*
X025680Y018698D02*
X033101Y018698D01*
X033060Y018797D02*
X025680Y018797D01*
X025680Y018895D02*
X033036Y018895D01*
X033036Y018994D02*
X025680Y018994D01*
X025680Y019092D02*
X033036Y019092D01*
X033064Y019191D02*
X025680Y019191D01*
X025680Y019289D02*
X033105Y019289D01*
X033155Y019388D02*
X025680Y019388D01*
X025680Y019486D02*
X033253Y019486D01*
X033383Y019585D02*
X025680Y019585D01*
X025680Y019683D02*
X034008Y019683D01*
X033992Y019782D02*
X025761Y019782D01*
X025860Y019880D02*
X033977Y019880D01*
X033961Y019979D02*
X026090Y019979D01*
X026238Y020077D02*
X033946Y020077D01*
X033930Y020176D02*
X026293Y020176D01*
X026308Y020274D02*
X033904Y020274D01*
X033872Y020373D02*
X026293Y020373D01*
X026240Y020471D02*
X033840Y020471D01*
X033808Y020570D02*
X032644Y020570D01*
X032853Y020668D02*
X033776Y020668D01*
X033744Y020767D02*
X033003Y020767D01*
X033101Y020865D02*
X033712Y020865D01*
X033667Y020964D02*
X033194Y020964D01*
X033251Y021062D02*
X033617Y021062D01*
X033566Y021161D02*
X033308Y021161D01*
X033350Y021259D02*
X033516Y021259D01*
X033466Y021358D02*
X033376Y021358D01*
X033403Y021456D02*
X033416Y021456D01*
X031907Y020570D02*
X026095Y020570D01*
X025905Y020570D02*
X007700Y020570D01*
X007700Y020668D02*
X031698Y020668D01*
X031548Y020767D02*
X007700Y020767D01*
X007700Y020865D02*
X031450Y020865D01*
X031357Y020964D02*
X007700Y020964D01*
X007700Y021062D02*
X031300Y021062D01*
X031243Y021161D02*
X007700Y021161D01*
X007700Y021259D02*
X031201Y021259D01*
X031175Y021358D02*
X007700Y021358D01*
X007700Y021456D02*
X031148Y021456D01*
X031137Y021555D02*
X007700Y021555D01*
X007700Y021653D02*
X031137Y021653D01*
X031137Y021752D02*
X007700Y021752D01*
X007700Y021850D02*
X031150Y021850D01*
X031176Y021949D02*
X007700Y021949D01*
X007952Y022047D02*
X008048Y022047D01*
X008048Y021953D02*
X008317Y021953D01*
X008355Y021963D01*
X008389Y021983D01*
X008417Y022011D01*
X008437Y022045D01*
X008447Y022083D01*
X008447Y022352D01*
X008048Y022352D01*
X008048Y021953D01*
X008048Y022146D02*
X007952Y022146D01*
X007952Y022244D02*
X008048Y022244D01*
X008048Y022343D02*
X007952Y022343D01*
X008048Y022441D02*
X008573Y022441D01*
X008573Y022485D02*
X008573Y022315D01*
X008638Y022158D01*
X008758Y022038D01*
X008915Y021973D01*
X009085Y021973D01*
X009242Y022038D01*
X009362Y022158D01*
X009427Y022315D01*
X009427Y022485D01*
X009362Y022642D01*
X009242Y022762D01*
X009085Y022827D01*
X008915Y022827D01*
X008758Y022762D01*
X008638Y022642D01*
X008573Y022485D01*
X008596Y022540D02*
X008447Y022540D01*
X008447Y022448D02*
X008447Y022717D01*
X008437Y022755D01*
X008417Y022789D01*
X008389Y022817D01*
X008355Y022837D01*
X008317Y022847D01*
X008048Y022847D01*
X008048Y022448D01*
X008447Y022448D01*
X008447Y022343D02*
X008573Y022343D01*
X008603Y022244D02*
X008447Y022244D01*
X008447Y022146D02*
X008651Y022146D01*
X008749Y022047D02*
X008437Y022047D01*
X008447Y022638D02*
X008637Y022638D01*
X008733Y022737D02*
X008442Y022737D01*
X008357Y022835D02*
X032145Y022835D01*
X032009Y022934D02*
X007700Y022934D01*
X007700Y023032D02*
X007746Y023032D01*
X007952Y023032D02*
X008048Y023032D01*
X008048Y022955D02*
X008105Y022964D01*
X008172Y022986D01*
X008234Y023018D01*
X008291Y023059D01*
X008341Y023109D01*
X008382Y023166D01*
X008414Y023228D01*
X008436Y023295D01*
X008445Y023352D01*
X008048Y023352D01*
X008048Y022955D01*
X008048Y022835D02*
X007952Y022835D01*
X007952Y022737D02*
X008048Y022737D01*
X008048Y022638D02*
X007952Y022638D01*
X007952Y022540D02*
X008048Y022540D01*
X008254Y023032D02*
X008773Y023032D01*
X008666Y023131D02*
X008357Y023131D01*
X008414Y023229D02*
X008609Y023229D01*
X008573Y023328D02*
X008441Y023328D01*
X008573Y023426D02*
X008048Y023426D01*
X008048Y023328D02*
X007952Y023328D01*
X007952Y023229D02*
X008048Y023229D01*
X008048Y023131D02*
X007952Y023131D01*
X008429Y023525D02*
X008590Y023525D01*
X008630Y023623D02*
X008388Y023623D01*
X009370Y023623D02*
X009630Y023623D01*
X009590Y023525D02*
X009410Y023525D01*
X009427Y023426D02*
X009573Y023426D01*
X009573Y023328D02*
X009427Y023328D01*
X009391Y023229D02*
X009609Y023229D01*
X009666Y023131D02*
X009334Y023131D01*
X009227Y023032D02*
X009773Y023032D01*
X009915Y022827D02*
X009758Y022762D01*
X009638Y022642D01*
X009573Y022485D01*
X009573Y022315D01*
X009638Y022158D01*
X009758Y022038D01*
X009915Y021973D01*
X010085Y021973D01*
X010242Y022038D01*
X010362Y022158D01*
X010427Y022315D01*
X010427Y022485D01*
X010362Y022642D01*
X010242Y022762D01*
X010085Y022827D01*
X009915Y022827D01*
X009733Y022737D02*
X009267Y022737D01*
X009363Y022638D02*
X009637Y022638D01*
X009596Y022540D02*
X009404Y022540D01*
X009427Y022441D02*
X009573Y022441D01*
X009573Y022343D02*
X009427Y022343D01*
X009397Y022244D02*
X009603Y022244D01*
X009651Y022146D02*
X009349Y022146D01*
X009251Y022047D02*
X009749Y022047D01*
X010251Y022047D02*
X010749Y022047D01*
X010758Y022038D02*
X010915Y021973D01*
X011085Y021973D01*
X011242Y022038D01*
X011362Y022158D01*
X011427Y022315D01*
X011427Y022485D01*
X011362Y022642D01*
X011242Y022762D01*
X011085Y022827D01*
X010915Y022827D01*
X010758Y022762D01*
X010638Y022642D01*
X010573Y022485D01*
X010573Y022315D01*
X010638Y022158D01*
X010758Y022038D01*
X010651Y022146D02*
X010349Y022146D01*
X010397Y022244D02*
X010603Y022244D01*
X010573Y022343D02*
X010427Y022343D01*
X010427Y022441D02*
X010573Y022441D01*
X010596Y022540D02*
X010404Y022540D01*
X010363Y022638D02*
X010637Y022638D01*
X010733Y022737D02*
X010267Y022737D01*
X010227Y023032D02*
X010773Y023032D01*
X010666Y023131D02*
X010334Y023131D01*
X010391Y023229D02*
X010609Y023229D01*
X010573Y023328D02*
X010427Y023328D01*
X010427Y023426D02*
X010573Y023426D01*
X010590Y023525D02*
X010410Y023525D01*
X010370Y023623D02*
X010630Y023623D01*
X011370Y023623D02*
X011630Y023623D01*
X011590Y023525D02*
X011410Y023525D01*
X011427Y023426D02*
X011573Y023426D01*
X011573Y023328D02*
X011427Y023328D01*
X011391Y023229D02*
X011609Y023229D01*
X011666Y023131D02*
X011334Y023131D01*
X011227Y023032D02*
X011773Y023032D01*
X011915Y022827D02*
X011758Y022762D01*
X011638Y022642D01*
X011573Y022485D01*
X011573Y022315D01*
X011638Y022158D01*
X011758Y022038D01*
X011915Y021973D01*
X012085Y021973D01*
X012242Y022038D01*
X012362Y022158D01*
X012427Y022315D01*
X012427Y022485D01*
X012362Y022642D01*
X012242Y022762D01*
X012085Y022827D01*
X011915Y022827D01*
X011733Y022737D02*
X011267Y022737D01*
X011363Y022638D02*
X011637Y022638D01*
X011596Y022540D02*
X011404Y022540D01*
X011427Y022441D02*
X011573Y022441D01*
X011573Y022343D02*
X011427Y022343D01*
X011397Y022244D02*
X011603Y022244D01*
X011651Y022146D02*
X011349Y022146D01*
X011251Y022047D02*
X011749Y022047D01*
X012251Y022047D02*
X012749Y022047D01*
X012758Y022038D02*
X012915Y021973D01*
X013085Y021973D01*
X013242Y022038D01*
X013362Y022158D01*
X013427Y022315D01*
X013427Y022485D01*
X013362Y022642D01*
X013242Y022762D01*
X013085Y022827D01*
X012915Y022827D01*
X012758Y022762D01*
X012638Y022642D01*
X012573Y022485D01*
X012573Y022315D01*
X012638Y022158D01*
X012758Y022038D01*
X012651Y022146D02*
X012349Y022146D01*
X012397Y022244D02*
X012603Y022244D01*
X012573Y022343D02*
X012427Y022343D01*
X012427Y022441D02*
X012573Y022441D01*
X012596Y022540D02*
X012404Y022540D01*
X012363Y022638D02*
X012637Y022638D01*
X012733Y022737D02*
X012267Y022737D01*
X012227Y023032D02*
X012773Y023032D01*
X012666Y023131D02*
X012334Y023131D01*
X012391Y023229D02*
X012609Y023229D01*
X012573Y023328D02*
X012427Y023328D01*
X012427Y023426D02*
X012573Y023426D01*
X012590Y023525D02*
X012410Y023525D01*
X012370Y023623D02*
X012630Y023623D01*
X013370Y023623D02*
X013630Y023623D01*
X013590Y023525D02*
X013410Y023525D01*
X013427Y023426D02*
X013573Y023426D01*
X013573Y023328D02*
X013427Y023328D01*
X013391Y023229D02*
X013609Y023229D01*
X013666Y023131D02*
X013334Y023131D01*
X013227Y023032D02*
X013773Y023032D01*
X013915Y022827D02*
X013758Y022762D01*
X013638Y022642D01*
X013573Y022485D01*
X013573Y022315D01*
X013638Y022158D01*
X013758Y022038D01*
X013915Y021973D01*
X014085Y021973D01*
X014242Y022038D01*
X014362Y022158D01*
X014427Y022315D01*
X014427Y022485D01*
X014362Y022642D01*
X014242Y022762D01*
X014085Y022827D01*
X013915Y022827D01*
X013733Y022737D02*
X013267Y022737D01*
X013363Y022638D02*
X013637Y022638D01*
X013596Y022540D02*
X013404Y022540D01*
X013427Y022441D02*
X013573Y022441D01*
X013573Y022343D02*
X013427Y022343D01*
X013397Y022244D02*
X013603Y022244D01*
X013651Y022146D02*
X013349Y022146D01*
X013251Y022047D02*
X013749Y022047D01*
X014251Y022047D02*
X014749Y022047D01*
X014758Y022038D02*
X014915Y021973D01*
X015085Y021973D01*
X015242Y022038D01*
X015362Y022158D01*
X015427Y022315D01*
X015427Y022485D01*
X015362Y022642D01*
X015242Y022762D01*
X015085Y022827D01*
X014915Y022827D01*
X014758Y022762D01*
X014638Y022642D01*
X014573Y022485D01*
X014573Y022315D01*
X014638Y022158D01*
X014758Y022038D01*
X014651Y022146D02*
X014349Y022146D01*
X014397Y022244D02*
X014603Y022244D01*
X014573Y022343D02*
X014427Y022343D01*
X014427Y022441D02*
X014573Y022441D01*
X014596Y022540D02*
X014404Y022540D01*
X014363Y022638D02*
X014637Y022638D01*
X014733Y022737D02*
X014267Y022737D01*
X014227Y023032D02*
X014773Y023032D01*
X014666Y023131D02*
X014334Y023131D01*
X014391Y023229D02*
X014609Y023229D01*
X014573Y023328D02*
X014427Y023328D01*
X014427Y023426D02*
X014573Y023426D01*
X014590Y023525D02*
X014410Y023525D01*
X014370Y023623D02*
X014630Y023623D01*
X015370Y023623D02*
X015630Y023623D01*
X015590Y023525D02*
X015410Y023525D01*
X015427Y023426D02*
X015573Y023426D01*
X015573Y023328D02*
X015427Y023328D01*
X015391Y023229D02*
X015609Y023229D01*
X015666Y023131D02*
X015334Y023131D01*
X015227Y023032D02*
X015773Y023032D01*
X015915Y022827D02*
X015758Y022762D01*
X015638Y022642D01*
X015573Y022485D01*
X015573Y022315D01*
X015638Y022158D01*
X015758Y022038D01*
X015915Y021973D01*
X016085Y021973D01*
X016242Y022038D01*
X016362Y022158D01*
X016427Y022315D01*
X016427Y022485D01*
X016362Y022642D01*
X016242Y022762D01*
X016085Y022827D01*
X015915Y022827D01*
X015733Y022737D02*
X015267Y022737D01*
X015363Y022638D02*
X015637Y022638D01*
X015596Y022540D02*
X015404Y022540D01*
X015427Y022441D02*
X015573Y022441D01*
X015573Y022343D02*
X015427Y022343D01*
X015397Y022244D02*
X015603Y022244D01*
X015651Y022146D02*
X015349Y022146D01*
X015251Y022047D02*
X015749Y022047D01*
X016251Y022047D02*
X016749Y022047D01*
X016758Y022038D02*
X016915Y021973D01*
X017085Y021973D01*
X017242Y022038D01*
X017362Y022158D01*
X017427Y022315D01*
X017427Y022485D01*
X017362Y022642D01*
X017242Y022762D01*
X017085Y022827D01*
X016915Y022827D01*
X016758Y022762D01*
X016638Y022642D01*
X016573Y022485D01*
X016573Y022315D01*
X016638Y022158D01*
X016758Y022038D01*
X016651Y022146D02*
X016349Y022146D01*
X016397Y022244D02*
X016603Y022244D01*
X016573Y022343D02*
X016427Y022343D01*
X016427Y022441D02*
X016573Y022441D01*
X016596Y022540D02*
X016404Y022540D01*
X016363Y022638D02*
X016637Y022638D01*
X016733Y022737D02*
X016267Y022737D01*
X016227Y023032D02*
X016773Y023032D01*
X016666Y023131D02*
X016334Y023131D01*
X016391Y023229D02*
X016609Y023229D01*
X016573Y023328D02*
X016427Y023328D01*
X016427Y023426D02*
X016573Y023426D01*
X016590Y023525D02*
X016410Y023525D01*
X016370Y023623D02*
X016630Y023623D01*
X017370Y023623D02*
X017630Y023623D01*
X017590Y023525D02*
X017410Y023525D01*
X017427Y023426D02*
X017573Y023426D01*
X017573Y023328D02*
X017427Y023328D01*
X017391Y023229D02*
X017609Y023229D01*
X017666Y023131D02*
X017334Y023131D01*
X017227Y023032D02*
X017773Y023032D01*
X017915Y022827D02*
X017758Y022762D01*
X017638Y022642D01*
X017573Y022485D01*
X017573Y022315D01*
X017638Y022158D01*
X017758Y022038D01*
X017915Y021973D01*
X018085Y021973D01*
X018242Y022038D01*
X018362Y022158D01*
X018427Y022315D01*
X018427Y022485D01*
X018362Y022642D01*
X018242Y022762D01*
X018085Y022827D01*
X017915Y022827D01*
X017733Y022737D02*
X017267Y022737D01*
X017363Y022638D02*
X017637Y022638D01*
X017596Y022540D02*
X017404Y022540D01*
X017427Y022441D02*
X017573Y022441D01*
X017573Y022343D02*
X017427Y022343D01*
X017397Y022244D02*
X017603Y022244D01*
X017651Y022146D02*
X017349Y022146D01*
X017251Y022047D02*
X017749Y022047D01*
X018251Y022047D02*
X018749Y022047D01*
X018758Y022038D02*
X018915Y021973D01*
X019085Y021973D01*
X019242Y022038D01*
X019362Y022158D01*
X019427Y022315D01*
X019427Y022485D01*
X019362Y022642D01*
X019242Y022762D01*
X019085Y022827D01*
X018915Y022827D01*
X018758Y022762D01*
X018638Y022642D01*
X018573Y022485D01*
X018573Y022315D01*
X018638Y022158D01*
X018758Y022038D01*
X018651Y022146D02*
X018349Y022146D01*
X018397Y022244D02*
X018603Y022244D01*
X018573Y022343D02*
X018427Y022343D01*
X018427Y022441D02*
X018573Y022441D01*
X018596Y022540D02*
X018404Y022540D01*
X018363Y022638D02*
X018637Y022638D01*
X018733Y022737D02*
X018267Y022737D01*
X018227Y023032D02*
X018773Y023032D01*
X018666Y023131D02*
X018334Y023131D01*
X018391Y023229D02*
X018609Y023229D01*
X018573Y023328D02*
X018427Y023328D01*
X018427Y023426D02*
X018573Y023426D01*
X018590Y023525D02*
X018410Y023525D01*
X018370Y023623D02*
X018630Y023623D01*
X019370Y023623D02*
X019630Y023623D01*
X019590Y023525D02*
X019410Y023525D01*
X019427Y023426D02*
X019573Y023426D01*
X019573Y023328D02*
X019427Y023328D01*
X019391Y023229D02*
X019609Y023229D01*
X019666Y023131D02*
X019334Y023131D01*
X019227Y023032D02*
X019773Y023032D01*
X019915Y022827D02*
X019758Y022762D01*
X019638Y022642D01*
X019573Y022485D01*
X019573Y022315D01*
X019638Y022158D01*
X019758Y022038D01*
X019915Y021973D01*
X020085Y021973D01*
X020242Y022038D01*
X020362Y022158D01*
X020427Y022315D01*
X020427Y022485D01*
X020362Y022642D01*
X020242Y022762D01*
X020085Y022827D01*
X019915Y022827D01*
X019733Y022737D02*
X019267Y022737D01*
X019363Y022638D02*
X019637Y022638D01*
X019596Y022540D02*
X019404Y022540D01*
X019427Y022441D02*
X019573Y022441D01*
X019573Y022343D02*
X019427Y022343D01*
X019397Y022244D02*
X019603Y022244D01*
X019651Y022146D02*
X019349Y022146D01*
X019251Y022047D02*
X019749Y022047D01*
X020251Y022047D02*
X020749Y022047D01*
X020758Y022038D02*
X020915Y021973D01*
X021085Y021973D01*
X021242Y022038D01*
X021362Y022158D01*
X021427Y022315D01*
X021427Y022485D01*
X021362Y022642D01*
X021242Y022762D01*
X021085Y022827D01*
X020915Y022827D01*
X020758Y022762D01*
X020638Y022642D01*
X020573Y022485D01*
X020573Y022315D01*
X020638Y022158D01*
X020758Y022038D01*
X020651Y022146D02*
X020349Y022146D01*
X020397Y022244D02*
X020603Y022244D01*
X020573Y022343D02*
X020427Y022343D01*
X020427Y022441D02*
X020573Y022441D01*
X020596Y022540D02*
X020404Y022540D01*
X020363Y022638D02*
X020637Y022638D01*
X020733Y022737D02*
X020267Y022737D01*
X020227Y023032D02*
X020773Y023032D01*
X020666Y023131D02*
X020334Y023131D01*
X020391Y023229D02*
X020609Y023229D01*
X020573Y023328D02*
X020427Y023328D01*
X020427Y023426D02*
X020573Y023426D01*
X020590Y023525D02*
X020410Y023525D01*
X020370Y023623D02*
X020630Y023623D01*
X021370Y023623D02*
X021630Y023623D01*
X021590Y023525D02*
X021410Y023525D01*
X021427Y023426D02*
X021573Y023426D01*
X021573Y023328D02*
X021427Y023328D01*
X021391Y023229D02*
X021609Y023229D01*
X021666Y023131D02*
X021334Y023131D01*
X021227Y023032D02*
X021773Y023032D01*
X021915Y022827D02*
X021758Y022762D01*
X021638Y022642D01*
X021573Y022485D01*
X021573Y022315D01*
X021638Y022158D01*
X021758Y022038D01*
X021915Y021973D01*
X022085Y021973D01*
X022242Y022038D01*
X022362Y022158D01*
X022427Y022315D01*
X022427Y022485D01*
X022362Y022642D01*
X022242Y022762D01*
X022085Y022827D01*
X021915Y022827D01*
X021733Y022737D02*
X021267Y022737D01*
X021363Y022638D02*
X021637Y022638D01*
X021596Y022540D02*
X021404Y022540D01*
X021427Y022441D02*
X021573Y022441D01*
X021573Y022343D02*
X021427Y022343D01*
X021397Y022244D02*
X021603Y022244D01*
X021651Y022146D02*
X021349Y022146D01*
X021251Y022047D02*
X021749Y022047D01*
X022251Y022047D02*
X022749Y022047D01*
X022758Y022038D02*
X022915Y021973D01*
X023085Y021973D01*
X023242Y022038D01*
X023362Y022158D01*
X023427Y022315D01*
X023427Y022485D01*
X023362Y022642D01*
X023242Y022762D01*
X023085Y022827D01*
X022915Y022827D01*
X022758Y022762D01*
X022638Y022642D01*
X022573Y022485D01*
X022573Y022315D01*
X022638Y022158D01*
X022758Y022038D01*
X022651Y022146D02*
X022349Y022146D01*
X022397Y022244D02*
X022603Y022244D01*
X022573Y022343D02*
X022427Y022343D01*
X022427Y022441D02*
X022573Y022441D01*
X022596Y022540D02*
X022404Y022540D01*
X022363Y022638D02*
X022637Y022638D01*
X022733Y022737D02*
X022267Y022737D01*
X022227Y023032D02*
X022773Y023032D01*
X022666Y023131D02*
X022334Y023131D01*
X022391Y023229D02*
X022609Y023229D01*
X022573Y023328D02*
X022427Y023328D01*
X022427Y023426D02*
X022573Y023426D01*
X022590Y023525D02*
X022410Y023525D01*
X022370Y023623D02*
X022630Y023623D01*
X023370Y023623D02*
X023630Y023623D01*
X023590Y023525D02*
X023410Y023525D01*
X023427Y023426D02*
X023573Y023426D01*
X023573Y023328D02*
X023427Y023328D01*
X023391Y023229D02*
X023609Y023229D01*
X023666Y023131D02*
X023334Y023131D01*
X023227Y023032D02*
X023773Y023032D01*
X023915Y022827D02*
X023758Y022762D01*
X023638Y022642D01*
X023573Y022485D01*
X023573Y022315D01*
X023638Y022158D01*
X023758Y022038D01*
X023915Y021973D01*
X024085Y021973D01*
X024242Y022038D01*
X024362Y022158D01*
X024427Y022315D01*
X024427Y022485D01*
X024362Y022642D01*
X024242Y022762D01*
X024085Y022827D01*
X023915Y022827D01*
X023733Y022737D02*
X023267Y022737D01*
X023363Y022638D02*
X023637Y022638D01*
X023596Y022540D02*
X023404Y022540D01*
X023427Y022441D02*
X023573Y022441D01*
X023573Y022343D02*
X023427Y022343D01*
X023397Y022244D02*
X023603Y022244D01*
X023651Y022146D02*
X023349Y022146D01*
X023251Y022047D02*
X023749Y022047D01*
X024251Y022047D02*
X024749Y022047D01*
X024758Y022038D02*
X024915Y021973D01*
X025085Y021973D01*
X025242Y022038D01*
X025362Y022158D01*
X025427Y022315D01*
X025427Y022485D01*
X025362Y022642D01*
X025242Y022762D01*
X025085Y022827D01*
X024915Y022827D01*
X024758Y022762D01*
X024638Y022642D01*
X024573Y022485D01*
X024573Y022315D01*
X024638Y022158D01*
X024758Y022038D01*
X024651Y022146D02*
X024349Y022146D01*
X024397Y022244D02*
X024603Y022244D01*
X024573Y022343D02*
X024427Y022343D01*
X024427Y022441D02*
X024573Y022441D01*
X024596Y022540D02*
X024404Y022540D01*
X024363Y022638D02*
X024637Y022638D01*
X024733Y022737D02*
X024267Y022737D01*
X024227Y023032D02*
X024773Y023032D01*
X024666Y023131D02*
X024334Y023131D01*
X024391Y023229D02*
X024609Y023229D01*
X024573Y023328D02*
X024427Y023328D01*
X024427Y023426D02*
X024573Y023426D01*
X024590Y023525D02*
X024410Y023525D01*
X024370Y023623D02*
X024630Y023623D01*
X025370Y023623D02*
X025630Y023623D01*
X025590Y023525D02*
X025410Y023525D01*
X025427Y023426D02*
X025573Y023426D01*
X025573Y023328D02*
X025427Y023328D01*
X025391Y023229D02*
X025609Y023229D01*
X025666Y023131D02*
X025334Y023131D01*
X025227Y023032D02*
X025773Y023032D01*
X025915Y022827D02*
X025758Y022762D01*
X025638Y022642D01*
X025573Y022485D01*
X025573Y022315D01*
X025638Y022158D01*
X025758Y022038D01*
X025915Y021973D01*
X026085Y021973D01*
X026242Y022038D01*
X026362Y022158D01*
X026427Y022315D01*
X026427Y022485D01*
X026362Y022642D01*
X026242Y022762D01*
X026085Y022827D01*
X025915Y022827D01*
X025733Y022737D02*
X025267Y022737D01*
X025363Y022638D02*
X025637Y022638D01*
X025596Y022540D02*
X025404Y022540D01*
X025427Y022441D02*
X025573Y022441D01*
X025573Y022343D02*
X025427Y022343D01*
X025397Y022244D02*
X025603Y022244D01*
X025651Y022146D02*
X025349Y022146D01*
X025251Y022047D02*
X025749Y022047D01*
X026251Y022047D02*
X026749Y022047D01*
X026758Y022038D02*
X026638Y022158D01*
X026573Y022315D01*
X026573Y022485D01*
X026638Y022642D01*
X026758Y022762D01*
X026915Y022827D01*
X027085Y022827D01*
X027242Y022762D01*
X027362Y022642D01*
X027427Y022485D01*
X027427Y022315D01*
X027362Y022158D01*
X027242Y022038D01*
X027085Y021973D01*
X026915Y021973D01*
X026758Y022038D01*
X026651Y022146D02*
X026349Y022146D01*
X026397Y022244D02*
X026603Y022244D01*
X026573Y022343D02*
X026427Y022343D01*
X026427Y022441D02*
X026573Y022441D01*
X026596Y022540D02*
X026404Y022540D01*
X026363Y022638D02*
X026637Y022638D01*
X026733Y022737D02*
X026267Y022737D01*
X026227Y023032D02*
X026773Y023032D01*
X026666Y023131D02*
X026334Y023131D01*
X026391Y023229D02*
X026609Y023229D01*
X026573Y023328D02*
X026427Y023328D01*
X026427Y023426D02*
X026573Y023426D01*
X026590Y023525D02*
X026410Y023525D01*
X026370Y023623D02*
X026630Y023623D01*
X027370Y023623D02*
X027630Y023623D01*
X027590Y023525D02*
X027410Y023525D01*
X027427Y023426D02*
X027573Y023426D01*
X027573Y023328D02*
X027427Y023328D01*
X027391Y023229D02*
X027609Y023229D01*
X027666Y023131D02*
X027334Y023131D01*
X027227Y023032D02*
X027773Y023032D01*
X027915Y022827D02*
X027758Y022762D01*
X027638Y022642D01*
X027573Y022485D01*
X027573Y022315D01*
X027638Y022158D01*
X027758Y022038D01*
X027915Y021973D01*
X028085Y021973D01*
X028242Y022038D01*
X028362Y022158D01*
X028427Y022315D01*
X028427Y022485D01*
X028362Y022642D01*
X028242Y022762D01*
X028085Y022827D01*
X027915Y022827D01*
X027733Y022737D02*
X027267Y022737D01*
X027363Y022638D02*
X027637Y022638D01*
X027596Y022540D02*
X027404Y022540D01*
X027427Y022441D02*
X027573Y022441D01*
X027573Y022343D02*
X027427Y022343D01*
X027397Y022244D02*
X027603Y022244D01*
X027651Y022146D02*
X027349Y022146D01*
X027251Y022047D02*
X027749Y022047D01*
X028251Y022047D02*
X028749Y022047D01*
X028758Y022038D02*
X028915Y021973D01*
X029085Y021973D01*
X029242Y022038D01*
X029362Y022158D01*
X029427Y022315D01*
X029427Y022485D01*
X029362Y022642D01*
X029242Y022762D01*
X029085Y022827D01*
X028915Y022827D01*
X028758Y022762D01*
X028638Y022642D01*
X028573Y022485D01*
X028573Y022315D01*
X028638Y022158D01*
X028758Y022038D01*
X028651Y022146D02*
X028349Y022146D01*
X028397Y022244D02*
X028603Y022244D01*
X028573Y022343D02*
X028427Y022343D01*
X028427Y022441D02*
X028573Y022441D01*
X028596Y022540D02*
X028404Y022540D01*
X028363Y022638D02*
X028637Y022638D01*
X028733Y022737D02*
X028267Y022737D01*
X028227Y023032D02*
X028773Y023032D01*
X028666Y023131D02*
X028334Y023131D01*
X028391Y023229D02*
X028609Y023229D01*
X028573Y023328D02*
X028427Y023328D01*
X028427Y023426D02*
X028573Y023426D01*
X028590Y023525D02*
X028410Y023525D01*
X028370Y023623D02*
X028630Y023623D01*
X029370Y023623D02*
X029630Y023623D01*
X029590Y023525D02*
X029410Y023525D01*
X029427Y023426D02*
X029573Y023426D01*
X029573Y023328D02*
X029427Y023328D01*
X029391Y023229D02*
X029609Y023229D01*
X029666Y023131D02*
X029334Y023131D01*
X029227Y023032D02*
X029773Y023032D01*
X029915Y022827D02*
X029758Y022762D01*
X029638Y022642D01*
X029573Y022485D01*
X029573Y022315D01*
X029638Y022158D01*
X029758Y022038D01*
X029915Y021973D01*
X030085Y021973D01*
X030242Y022038D01*
X030362Y022158D01*
X030427Y022315D01*
X030427Y022485D01*
X030362Y022642D01*
X030242Y022762D01*
X030085Y022827D01*
X029915Y022827D01*
X029733Y022737D02*
X029267Y022737D01*
X029363Y022638D02*
X029637Y022638D01*
X029596Y022540D02*
X029404Y022540D01*
X029427Y022441D02*
X029573Y022441D01*
X029573Y022343D02*
X029427Y022343D01*
X029397Y022244D02*
X029603Y022244D01*
X029651Y022146D02*
X029349Y022146D01*
X029251Y022047D02*
X029749Y022047D01*
X030251Y022047D02*
X031203Y022047D01*
X031247Y022146D02*
X030349Y022146D01*
X030397Y022244D02*
X031303Y022244D01*
X031360Y022343D02*
X030427Y022343D01*
X030427Y022441D02*
X031456Y022441D01*
X031554Y022540D02*
X030404Y022540D01*
X030363Y022638D02*
X031709Y022638D01*
X031930Y022737D02*
X030267Y022737D01*
X030227Y023032D02*
X031872Y023032D01*
X031679Y023131D02*
X030334Y023131D01*
X030391Y023229D02*
X031486Y023229D01*
X031292Y023328D02*
X030427Y023328D01*
X030427Y023426D02*
X031018Y023426D01*
X030715Y023525D02*
X030410Y023525D01*
X026000Y020275D02*
X025500Y019775D01*
X025500Y017150D01*
X023500Y015150D01*
X023500Y011525D01*
X024250Y010775D01*
X024525Y010917D02*
X024695Y010917D01*
X024695Y011015D02*
X024446Y011015D01*
X024558Y010818D02*
X024695Y010818D01*
X024695Y010720D02*
X024558Y010720D01*
X024520Y010621D02*
X024695Y010621D01*
X024695Y010523D02*
X024434Y010523D01*
X024695Y010424D02*
X008700Y010424D01*
X008700Y010326D02*
X024695Y010326D01*
X024695Y010227D02*
X008700Y010227D01*
X008700Y010129D02*
X024695Y010129D01*
X024625Y010030D02*
X008700Y010030D01*
X008700Y009932D02*
X024527Y009932D01*
X024428Y009833D02*
X008700Y009833D01*
X008700Y009735D02*
X024330Y009735D01*
X024050Y009636D02*
X008700Y009636D01*
X008700Y009538D02*
X019453Y009538D01*
X019450Y009536D02*
X019364Y009450D01*
X019317Y009336D01*
X019317Y009214D01*
X019364Y009100D01*
X019450Y009014D01*
X019564Y008967D01*
X019679Y008967D01*
X019945Y008700D01*
X020050Y008595D01*
X023555Y008595D01*
X023564Y008592D01*
X023686Y008592D01*
X023800Y008639D01*
X023886Y008725D01*
X023933Y008839D01*
X023933Y008961D01*
X023886Y009075D01*
X023800Y009161D01*
X023686Y009208D01*
X023564Y009208D01*
X023450Y009161D01*
X023364Y009075D01*
X023317Y008961D01*
X023317Y008955D01*
X020200Y008955D01*
X019933Y009221D01*
X019933Y009336D01*
X019886Y009450D01*
X019800Y009536D01*
X019686Y009583D01*
X019564Y009583D01*
X019450Y009536D01*
X019359Y009439D02*
X008700Y009439D01*
X008700Y009341D02*
X019318Y009341D01*
X019317Y009242D02*
X008700Y009242D01*
X008700Y009144D02*
X019346Y009144D01*
X019419Y009045D02*
X008700Y009045D01*
X008700Y008947D02*
X019699Y008947D01*
X019797Y008848D02*
X008700Y008848D01*
X008700Y008750D02*
X019896Y008750D01*
X019994Y008651D02*
X008700Y008651D01*
X008700Y008553D02*
X034050Y008553D01*
X034050Y008651D02*
X023812Y008651D01*
X023897Y008750D02*
X034050Y008750D01*
X034050Y008848D02*
X023933Y008848D01*
X023933Y008947D02*
X034050Y008947D01*
X034050Y009045D02*
X023899Y009045D01*
X023818Y009144D02*
X024070Y009144D01*
X023982Y009242D02*
X019933Y009242D01*
X019932Y009341D02*
X023942Y009341D01*
X023942Y009439D02*
X019891Y009439D01*
X019797Y009538D02*
X023973Y009538D01*
X024250Y009400D02*
X024875Y010025D01*
X024875Y011275D01*
X024000Y012150D01*
X024000Y014525D01*
X026000Y016525D01*
X026308Y016531D02*
X034050Y016531D01*
X034050Y016433D02*
X026296Y016433D01*
X026245Y016334D02*
X034050Y016334D01*
X034050Y016236D02*
X026107Y016236D01*
X025867Y016137D02*
X034050Y016137D01*
X034050Y016039D02*
X025768Y016039D01*
X025670Y015940D02*
X034050Y015940D01*
X034050Y015842D02*
X025571Y015842D01*
X025473Y015743D02*
X034050Y015743D01*
X034050Y015645D02*
X025374Y015645D01*
X025276Y015546D02*
X034050Y015546D01*
X034050Y015448D02*
X025177Y015448D01*
X025079Y015349D02*
X034050Y015349D01*
X034050Y015251D02*
X024980Y015251D01*
X024882Y015152D02*
X033546Y015152D01*
X033321Y015054D02*
X024783Y015054D01*
X024685Y014955D02*
X033222Y014955D01*
X033133Y014857D02*
X024586Y014857D01*
X024488Y014758D02*
X033092Y014758D01*
X033051Y014660D02*
X024389Y014660D01*
X024291Y014561D02*
X033036Y014561D01*
X033036Y014463D02*
X024192Y014463D01*
X024180Y014364D02*
X026903Y014364D01*
X026864Y014325D02*
X026817Y014211D01*
X026817Y014096D01*
X025925Y013205D01*
X024756Y013205D01*
X024675Y013286D01*
X024561Y013333D01*
X024439Y013333D01*
X024325Y013286D01*
X024239Y013200D01*
X024192Y013086D01*
X024192Y012964D01*
X024239Y012850D01*
X024325Y012764D01*
X024439Y012717D01*
X024561Y012717D01*
X024675Y012764D01*
X024756Y012845D01*
X026075Y012845D01*
X026180Y012950D01*
X027071Y013842D01*
X027186Y013842D01*
X027300Y013889D01*
X027386Y013975D01*
X027433Y014089D01*
X027433Y014211D01*
X027386Y014325D01*
X027300Y014411D01*
X027186Y014458D01*
X027064Y014458D01*
X026950Y014411D01*
X026864Y014325D01*
X026839Y014266D02*
X024180Y014266D01*
X024180Y014167D02*
X026817Y014167D01*
X026789Y014069D02*
X024180Y014069D01*
X024180Y013970D02*
X026690Y013970D01*
X026592Y013872D02*
X024180Y013872D01*
X024180Y013773D02*
X026493Y013773D01*
X026395Y013675D02*
X024180Y013675D01*
X024180Y013576D02*
X026296Y013576D01*
X026198Y013478D02*
X024180Y013478D01*
X024180Y013379D02*
X026099Y013379D01*
X026001Y013281D02*
X024681Y013281D01*
X024500Y013025D02*
X026000Y013025D01*
X027125Y014150D01*
X027411Y014266D02*
X033073Y014266D01*
X033036Y014364D02*
X027347Y014364D01*
X027433Y014167D02*
X033114Y014167D01*
X033177Y014069D02*
X027425Y014069D01*
X027381Y013970D02*
X033275Y013970D01*
X033436Y013872D02*
X027259Y013872D01*
X027186Y013708D02*
X027064Y013708D01*
X026950Y013661D01*
X026864Y013575D01*
X026817Y013461D01*
X026817Y013346D01*
X026050Y012580D01*
X024756Y012580D01*
X024675Y012661D01*
X024561Y012708D01*
X024439Y012708D01*
X024325Y012661D01*
X024239Y012575D01*
X024192Y012461D01*
X024192Y012339D01*
X024239Y012225D01*
X024325Y012139D01*
X024439Y012092D01*
X024561Y012092D01*
X024675Y012139D01*
X024756Y012220D01*
X026200Y012220D01*
X026305Y012325D01*
X027071Y013092D01*
X027186Y013092D01*
X027300Y013139D01*
X027386Y013225D01*
X027433Y013339D01*
X027433Y013461D01*
X027386Y013575D01*
X027300Y013661D01*
X027186Y013708D01*
X027268Y013675D02*
X033320Y013675D01*
X033221Y013576D02*
X027385Y013576D01*
X027427Y013478D02*
X033132Y013478D01*
X033092Y013379D02*
X027433Y013379D01*
X027409Y013281D02*
X033051Y013281D01*
X033036Y013182D02*
X027343Y013182D01*
X027063Y013084D02*
X033036Y013084D01*
X033036Y012985D02*
X026965Y012985D01*
X026866Y012887D02*
X033073Y012887D01*
X033114Y012788D02*
X026768Y012788D01*
X026669Y012690D02*
X033178Y012690D01*
X033276Y012591D02*
X026571Y012591D01*
X026472Y012493D02*
X033438Y012493D01*
X033987Y012493D02*
X034050Y012493D01*
X034050Y012394D02*
X026374Y012394D01*
X026275Y012296D02*
X034050Y012296D01*
X034050Y012197D02*
X024733Y012197D01*
X024578Y012099D02*
X034050Y012099D01*
X034050Y012000D02*
X024405Y012000D01*
X024422Y012099D02*
X024306Y012099D01*
X024267Y012197D02*
X024208Y012197D01*
X024209Y012296D02*
X024180Y012296D01*
X024180Y012394D02*
X024192Y012394D01*
X024180Y012493D02*
X024204Y012493D01*
X024180Y012591D02*
X024255Y012591D01*
X024180Y012690D02*
X024393Y012690D01*
X024301Y012788D02*
X024180Y012788D01*
X024180Y012887D02*
X024224Y012887D01*
X024192Y012985D02*
X024180Y012985D01*
X024180Y013084D02*
X024192Y013084D01*
X024180Y013182D02*
X024231Y013182D01*
X024180Y013281D02*
X024319Y013281D01*
X023820Y013281D02*
X023680Y013281D01*
X023680Y013379D02*
X023820Y013379D01*
X023820Y013478D02*
X023680Y013478D01*
X023680Y013576D02*
X023820Y013576D01*
X023820Y013182D02*
X023680Y013182D01*
X023680Y013084D02*
X023820Y013084D01*
X023820Y012985D02*
X023680Y012985D01*
X023680Y012887D02*
X023820Y012887D01*
X023820Y012788D02*
X023680Y012788D01*
X023680Y012690D02*
X023820Y012690D01*
X023820Y012591D02*
X023680Y012591D01*
X023680Y012493D02*
X023820Y012493D01*
X023820Y012394D02*
X023680Y012394D01*
X023680Y012296D02*
X023820Y012296D01*
X023820Y012197D02*
X023680Y012197D01*
X023680Y012099D02*
X023820Y012099D01*
X023895Y012000D02*
X023680Y012000D01*
X023680Y011902D02*
X023994Y011902D01*
X024092Y011803D02*
X023680Y011803D01*
X023680Y011705D02*
X024191Y011705D01*
X024289Y011606D02*
X023680Y011606D01*
X023772Y011508D02*
X024388Y011508D01*
X024486Y011409D02*
X023871Y011409D01*
X023969Y011311D02*
X024585Y011311D01*
X024683Y011212D02*
X024068Y011212D01*
X024166Y011114D02*
X024695Y011114D01*
X025055Y011114D02*
X027688Y011114D01*
X027739Y011165D02*
X027610Y011036D01*
X027577Y010955D01*
X025631Y010955D01*
X025550Y011036D01*
X025436Y011083D01*
X025314Y011083D01*
X025200Y011036D01*
X025114Y010950D01*
X025067Y010836D01*
X025067Y010714D01*
X025114Y010600D01*
X025200Y010514D01*
X025314Y010467D01*
X025436Y010467D01*
X025550Y010514D01*
X025631Y010595D01*
X027577Y010595D01*
X027610Y010514D01*
X027739Y010385D01*
X027908Y010315D01*
X028091Y010315D01*
X028261Y010385D01*
X028390Y010514D01*
X028460Y010683D01*
X028460Y010866D01*
X028390Y011036D01*
X028261Y011165D01*
X028091Y011235D01*
X027908Y011235D01*
X027739Y011165D01*
X027853Y011212D02*
X025055Y011212D01*
X025055Y011311D02*
X034050Y011311D01*
X034050Y011409D02*
X024996Y011409D01*
X024897Y011508D02*
X034050Y011508D01*
X034050Y011606D02*
X024799Y011606D01*
X024700Y011705D02*
X034050Y011705D01*
X034050Y011803D02*
X024602Y011803D01*
X024503Y011902D02*
X034050Y011902D01*
X034050Y011212D02*
X028147Y011212D01*
X028312Y011114D02*
X034050Y011114D01*
X034050Y011015D02*
X028398Y011015D01*
X028439Y010917D02*
X034050Y010917D01*
X034050Y010818D02*
X028460Y010818D01*
X028460Y010720D02*
X034050Y010720D01*
X034050Y010621D02*
X028434Y010621D01*
X028393Y010523D02*
X034050Y010523D01*
X034050Y010424D02*
X028300Y010424D01*
X028117Y010326D02*
X034050Y010326D01*
X034050Y010227D02*
X028111Y010227D01*
X028091Y010235D02*
X027908Y010235D01*
X027739Y010165D01*
X027610Y010036D01*
X027540Y009866D01*
X027540Y009705D01*
X025631Y009705D01*
X025550Y009786D01*
X025436Y009833D01*
X025314Y009833D01*
X025200Y009786D01*
X025114Y009700D01*
X025067Y009586D01*
X025067Y009464D01*
X025114Y009350D01*
X025200Y009264D01*
X025314Y009217D01*
X025436Y009217D01*
X025550Y009264D01*
X025631Y009345D01*
X027825Y009345D01*
X027828Y009348D01*
X027908Y009315D01*
X028091Y009315D01*
X028261Y009385D01*
X028390Y009514D01*
X028460Y009683D01*
X028460Y009866D01*
X028390Y010036D01*
X028261Y010165D01*
X028091Y010235D01*
X027889Y010227D02*
X025055Y010227D01*
X025055Y010129D02*
X027703Y010129D01*
X027608Y010030D02*
X025055Y010030D01*
X025036Y009932D02*
X027567Y009932D01*
X027540Y009833D02*
X025437Y009833D01*
X025313Y009833D02*
X024938Y009833D01*
X024950Y009845D02*
X024950Y009845D01*
X024839Y009735D02*
X025148Y009735D01*
X025087Y009636D02*
X024741Y009636D01*
X024642Y009538D02*
X025067Y009538D01*
X025077Y009439D02*
X024558Y009439D01*
X024558Y009341D02*
X025123Y009341D01*
X025252Y009242D02*
X024518Y009242D01*
X024430Y009144D02*
X034050Y009144D01*
X034050Y009242D02*
X025498Y009242D01*
X025627Y009341D02*
X027847Y009341D01*
X027750Y009525D02*
X028000Y009775D01*
X027750Y009525D02*
X025375Y009525D01*
X025602Y009735D02*
X027540Y009735D01*
X028153Y009341D02*
X034050Y009341D01*
X034050Y009439D02*
X028315Y009439D01*
X028400Y009538D02*
X034050Y009538D01*
X034050Y009636D02*
X028440Y009636D01*
X028460Y009735D02*
X034050Y009735D01*
X034050Y009833D02*
X028460Y009833D01*
X028433Y009932D02*
X034050Y009932D01*
X034050Y010030D02*
X028392Y010030D01*
X028297Y010129D02*
X034050Y010129D01*
X034050Y008454D02*
X008697Y008454D01*
X008667Y008356D02*
X034050Y008356D01*
X034050Y008257D02*
X008638Y008257D01*
X008608Y008159D02*
X034050Y008159D01*
X034050Y008060D02*
X017993Y008060D01*
X018125Y007962D02*
X034050Y007962D01*
X034050Y007863D02*
X022098Y007863D01*
X022136Y007825D02*
X022050Y007911D01*
X021936Y007958D01*
X021814Y007958D01*
X021700Y007911D01*
X021614Y007825D01*
X021567Y007711D01*
X021567Y007589D01*
X021614Y007475D01*
X021695Y007394D01*
X021695Y006016D01*
X021675Y006036D01*
X021561Y006083D01*
X021439Y006083D01*
X021325Y006036D01*
X021244Y005955D01*
X019881Y005955D01*
X019800Y006036D01*
X019686Y006083D01*
X019564Y006083D01*
X019450Y006036D01*
X019364Y005950D01*
X019317Y005836D01*
X019317Y005714D01*
X019364Y005600D01*
X019450Y005514D01*
X019564Y005467D01*
X019686Y005467D01*
X019800Y005514D01*
X019881Y005595D01*
X021244Y005595D01*
X021325Y005514D01*
X021439Y005467D01*
X021561Y005467D01*
X021675Y005514D01*
X021695Y005534D01*
X021695Y005475D01*
X021425Y005205D01*
X012550Y005205D01*
X012147Y004801D01*
X012085Y004827D01*
X011915Y004827D01*
X011758Y004762D01*
X011638Y004642D01*
X011573Y004485D01*
X011573Y004315D01*
X011638Y004158D01*
X011758Y004038D01*
X011915Y003973D01*
X012085Y003973D01*
X012242Y004038D01*
X012362Y004158D01*
X012427Y004315D01*
X012427Y004485D01*
X012401Y004547D01*
X012700Y004845D01*
X021575Y004845D01*
X021680Y004950D01*
X021680Y004950D01*
X022055Y005325D01*
X022055Y007394D01*
X022136Y007475D01*
X022183Y007589D01*
X022183Y007711D01*
X022136Y007825D01*
X022161Y007765D02*
X034050Y007765D01*
X034050Y007666D02*
X022183Y007666D01*
X022175Y007568D02*
X034047Y007568D01*
X034043Y007469D02*
X024630Y007469D01*
X024591Y007485D02*
X024761Y007415D01*
X024890Y007286D01*
X024960Y007116D01*
X024960Y006933D01*
X024890Y006764D01*
X024761Y006635D01*
X024591Y006565D01*
X024408Y006565D01*
X024239Y006635D01*
X024110Y006764D01*
X024040Y006933D01*
X024040Y007116D01*
X024110Y007286D01*
X024239Y007415D01*
X024408Y007485D01*
X024591Y007485D01*
X024370Y007469D02*
X023630Y007469D01*
X023591Y007485D02*
X023761Y007415D01*
X023890Y007286D01*
X023960Y007116D01*
X023960Y006933D01*
X023890Y006764D01*
X023761Y006635D01*
X023591Y006565D01*
X023408Y006565D01*
X023239Y006635D01*
X023110Y006764D01*
X023040Y006933D01*
X023040Y007116D01*
X023110Y007286D01*
X023239Y007415D01*
X023408Y007485D01*
X023591Y007485D01*
X023370Y007469D02*
X022130Y007469D01*
X022055Y007371D02*
X023195Y007371D01*
X023104Y007272D02*
X022055Y007272D01*
X022055Y007174D02*
X023064Y007174D01*
X023040Y007075D02*
X022055Y007075D01*
X022055Y006977D02*
X023040Y006977D01*
X023063Y006878D02*
X022055Y006878D01*
X022055Y006780D02*
X023104Y006780D01*
X023193Y006681D02*
X022055Y006681D01*
X022055Y006583D02*
X023366Y006583D01*
X023406Y006484D02*
X022055Y006484D01*
X022055Y006386D02*
X023210Y006386D01*
X023239Y006415D02*
X023110Y006286D01*
X023040Y006116D01*
X023040Y005933D01*
X023110Y005764D01*
X023239Y005635D01*
X023408Y005565D01*
X023591Y005565D01*
X023761Y005635D01*
X023890Y005764D01*
X023960Y005933D01*
X023960Y006116D01*
X023890Y006286D01*
X023761Y006415D01*
X023591Y006485D01*
X023408Y006485D01*
X023239Y006415D01*
X023111Y006287D02*
X022055Y006287D01*
X022055Y006189D02*
X023070Y006189D01*
X023040Y006090D02*
X022055Y006090D01*
X022055Y005992D02*
X023040Y005992D01*
X023057Y005893D02*
X022055Y005893D01*
X022055Y005795D02*
X023098Y005795D01*
X023178Y005696D02*
X022055Y005696D01*
X022055Y005598D02*
X023330Y005598D01*
X023670Y005598D02*
X024330Y005598D01*
X024408Y005565D02*
X024591Y005565D01*
X024761Y005635D01*
X024890Y005764D01*
X024960Y005933D01*
X024960Y006116D01*
X024890Y006286D01*
X024761Y006415D01*
X024591Y006485D01*
X024408Y006485D01*
X024239Y006415D01*
X024110Y006286D01*
X024040Y006116D01*
X024040Y005933D01*
X024110Y005764D01*
X024239Y005635D01*
X024408Y005565D01*
X024670Y005598D02*
X031219Y005598D01*
X031190Y005499D02*
X022055Y005499D01*
X022055Y005401D02*
X031164Y005401D01*
X031137Y005302D02*
X022032Y005302D01*
X021933Y005204D02*
X031137Y005204D01*
X031137Y005105D02*
X021835Y005105D01*
X021736Y005007D02*
X031137Y005007D01*
X031161Y004908D02*
X021638Y004908D01*
X021500Y005025D02*
X012625Y005025D01*
X012000Y004400D01*
X011707Y004711D02*
X011293Y004711D01*
X011242Y004762D02*
X011085Y004827D01*
X010915Y004827D01*
X010758Y004762D01*
X010638Y004642D01*
X010573Y004485D01*
X010573Y004315D01*
X010638Y004158D01*
X010758Y004038D01*
X010915Y003973D01*
X011085Y003973D01*
X011242Y004038D01*
X011362Y004158D01*
X011427Y004315D01*
X011427Y004485D01*
X011362Y004642D01*
X011242Y004762D01*
X011127Y004810D02*
X011873Y004810D01*
X012127Y004810D02*
X012155Y004810D01*
X012253Y004908D02*
X009888Y004908D01*
X009873Y004810D02*
X009789Y004810D01*
X009707Y004711D02*
X009691Y004711D01*
X009500Y004775D02*
X010500Y005775D01*
X015875Y005775D01*
X017875Y007775D01*
X017757Y008060D02*
X008562Y008060D01*
X008592Y008105D02*
X008592Y008105D01*
X008496Y007962D02*
X017625Y007962D01*
X017578Y007863D02*
X008430Y007863D01*
X008348Y007765D02*
X017567Y007765D01*
X017511Y007666D02*
X008229Y007666D01*
X008109Y007568D02*
X017413Y007568D01*
X017314Y007469D02*
X007892Y007469D01*
X007923Y007485D02*
X007923Y007485D01*
X007779Y007371D02*
X017216Y007371D01*
X017117Y007272D02*
X007725Y007272D01*
X007702Y007174D02*
X017019Y007174D01*
X016920Y007075D02*
X007700Y007075D01*
X007700Y006977D02*
X016822Y006977D01*
X016723Y006878D02*
X007700Y006878D01*
X007700Y006780D02*
X016625Y006780D01*
X016526Y006681D02*
X007700Y006681D01*
X007700Y006583D02*
X016428Y006583D01*
X016329Y006484D02*
X007700Y006484D01*
X007700Y006386D02*
X016231Y006386D01*
X016132Y006287D02*
X007700Y006287D01*
X007700Y006189D02*
X016034Y006189D01*
X015935Y006090D02*
X007700Y006090D01*
X007700Y005992D02*
X015837Y005992D01*
X016051Y005696D02*
X019324Y005696D01*
X019317Y005795D02*
X016149Y005795D01*
X016248Y005893D02*
X019340Y005893D01*
X019405Y005992D02*
X016346Y005992D01*
X016445Y006090D02*
X021695Y006090D01*
X021695Y006189D02*
X016543Y006189D01*
X016642Y006287D02*
X021695Y006287D01*
X021695Y006386D02*
X016740Y006386D01*
X016839Y006484D02*
X021695Y006484D01*
X021695Y006583D02*
X016937Y006583D01*
X017036Y006681D02*
X021695Y006681D01*
X021695Y006780D02*
X017134Y006780D01*
X017233Y006878D02*
X021695Y006878D01*
X021695Y006977D02*
X017331Y006977D01*
X017430Y007075D02*
X021695Y007075D01*
X021695Y007174D02*
X017528Y007174D01*
X017627Y007272D02*
X021695Y007272D01*
X021695Y007371D02*
X017725Y007371D01*
X017942Y007469D02*
X021620Y007469D01*
X021575Y007568D02*
X018104Y007568D01*
X018164Y007666D02*
X021567Y007666D01*
X021589Y007765D02*
X018183Y007765D01*
X018172Y007863D02*
X021652Y007863D01*
X021875Y007650D02*
X021875Y005400D01*
X021500Y005025D01*
X021522Y005302D02*
X010282Y005302D01*
X010380Y005401D02*
X021621Y005401D01*
X021640Y005499D02*
X021695Y005499D01*
X021360Y005499D02*
X019765Y005499D01*
X019485Y005499D02*
X010479Y005499D01*
X010265Y005795D02*
X007700Y005795D01*
X007700Y005893D02*
X010363Y005893D01*
X010166Y005696D02*
X007700Y005696D01*
X007700Y005598D02*
X010068Y005598D01*
X009969Y005499D02*
X007700Y005499D01*
X007700Y005401D02*
X009871Y005401D01*
X009772Y005302D02*
X007700Y005302D01*
X007700Y005204D02*
X009674Y005204D01*
X009575Y005105D02*
X007700Y005105D01*
X007700Y005007D02*
X009477Y005007D01*
X009378Y004908D02*
X007700Y004908D01*
X007700Y004810D02*
X007819Y004810D01*
X007952Y004810D02*
X008048Y004810D01*
X008048Y004845D02*
X008048Y004448D01*
X008445Y004448D01*
X008436Y004505D01*
X008414Y004572D01*
X008382Y004634D01*
X008341Y004691D01*
X008291Y004741D01*
X008234Y004782D01*
X008172Y004814D01*
X008105Y004836D01*
X008048Y004845D01*
X008048Y004711D02*
X007952Y004711D01*
X007952Y004613D02*
X008048Y004613D01*
X008048Y004514D02*
X007952Y004514D01*
X008048Y004416D02*
X008573Y004416D01*
X008585Y004514D02*
X008433Y004514D01*
X008393Y004613D02*
X008626Y004613D01*
X008707Y004711D02*
X008321Y004711D01*
X008181Y004810D02*
X008873Y004810D01*
X009127Y004810D02*
X009320Y004810D01*
X009320Y004711D02*
X009293Y004711D01*
X009500Y004775D02*
X009500Y003900D01*
X009000Y003400D01*
X009393Y003234D02*
X009607Y003234D01*
X009573Y003332D02*
X009427Y003332D01*
X009427Y003431D02*
X009573Y003431D01*
X009591Y003529D02*
X009409Y003529D01*
X009482Y003628D02*
X009632Y003628D01*
X009581Y003726D02*
X009722Y003726D01*
X009679Y003825D02*
X009909Y003825D01*
X010091Y003825D02*
X010909Y003825D01*
X011091Y003825D02*
X011909Y003825D01*
X012091Y003825D02*
X012909Y003825D01*
X012915Y003973D02*
X013085Y003973D01*
X013242Y004038D01*
X013362Y004158D01*
X013427Y004315D01*
X013427Y004485D01*
X013362Y004642D01*
X013242Y004762D01*
X013085Y004827D01*
X012915Y004827D01*
X012758Y004762D01*
X012638Y004642D01*
X012573Y004485D01*
X012573Y004315D01*
X012638Y004158D01*
X012758Y004038D01*
X012915Y003973D01*
X012798Y004022D02*
X012202Y004022D01*
X012324Y004120D02*
X012676Y004120D01*
X012613Y004219D02*
X012387Y004219D01*
X012427Y004317D02*
X012573Y004317D01*
X012573Y004416D02*
X012427Y004416D01*
X012415Y004514D02*
X012585Y004514D01*
X012626Y004613D02*
X012467Y004613D01*
X012566Y004711D02*
X012707Y004711D01*
X012664Y004810D02*
X012873Y004810D01*
X013127Y004810D02*
X013873Y004810D01*
X013915Y004827D02*
X013758Y004762D01*
X013638Y004642D01*
X013573Y004485D01*
X013573Y004315D01*
X013638Y004158D01*
X013758Y004038D01*
X013915Y003973D01*
X014085Y003973D01*
X014242Y004038D01*
X014362Y004158D01*
X014427Y004315D01*
X014427Y004485D01*
X014362Y004642D01*
X014242Y004762D01*
X014085Y004827D01*
X013915Y004827D01*
X014127Y004810D02*
X014873Y004810D01*
X014915Y004827D02*
X014758Y004762D01*
X014638Y004642D01*
X014573Y004485D01*
X014573Y004315D01*
X014638Y004158D01*
X014758Y004038D01*
X014915Y003973D01*
X015085Y003973D01*
X015242Y004038D01*
X015362Y004158D01*
X015427Y004315D01*
X015427Y004485D01*
X015362Y004642D01*
X015242Y004762D01*
X015085Y004827D01*
X014915Y004827D01*
X015127Y004810D02*
X015873Y004810D01*
X015915Y004827D02*
X015758Y004762D01*
X015638Y004642D01*
X015573Y004485D01*
X015573Y004315D01*
X015638Y004158D01*
X015758Y004038D01*
X015915Y003973D01*
X016085Y003973D01*
X016242Y004038D01*
X016362Y004158D01*
X016427Y004315D01*
X016427Y004485D01*
X016362Y004642D01*
X016242Y004762D01*
X016085Y004827D01*
X015915Y004827D01*
X016127Y004810D02*
X016873Y004810D01*
X016915Y004827D02*
X016758Y004762D01*
X016638Y004642D01*
X016573Y004485D01*
X016573Y004315D01*
X016638Y004158D01*
X016758Y004038D01*
X016915Y003973D01*
X017085Y003973D01*
X017242Y004038D01*
X017362Y004158D01*
X017427Y004315D01*
X017427Y004485D01*
X017362Y004642D01*
X017242Y004762D01*
X017085Y004827D01*
X016915Y004827D01*
X017127Y004810D02*
X017873Y004810D01*
X017915Y004827D02*
X017758Y004762D01*
X017638Y004642D01*
X017573Y004485D01*
X017573Y004315D01*
X017638Y004158D01*
X017758Y004038D01*
X017915Y003973D01*
X018085Y003973D01*
X018242Y004038D01*
X018362Y004158D01*
X018427Y004315D01*
X018427Y004485D01*
X018362Y004642D01*
X018242Y004762D01*
X018085Y004827D01*
X017915Y004827D01*
X018127Y004810D02*
X018873Y004810D01*
X018915Y004827D02*
X018758Y004762D01*
X018638Y004642D01*
X018573Y004485D01*
X018573Y004315D01*
X018638Y004158D01*
X018758Y004038D01*
X018915Y003973D01*
X019085Y003973D01*
X019242Y004038D01*
X019362Y004158D01*
X019427Y004315D01*
X019427Y004485D01*
X019362Y004642D01*
X019242Y004762D01*
X019085Y004827D01*
X018915Y004827D01*
X019127Y004810D02*
X019873Y004810D01*
X019915Y004827D02*
X019758Y004762D01*
X019638Y004642D01*
X019573Y004485D01*
X019573Y004315D01*
X019638Y004158D01*
X019758Y004038D01*
X019915Y003973D01*
X020085Y003973D01*
X020242Y004038D01*
X020362Y004158D01*
X020427Y004315D01*
X020427Y004485D01*
X020362Y004642D01*
X020242Y004762D01*
X020085Y004827D01*
X019915Y004827D01*
X020127Y004810D02*
X020873Y004810D01*
X020915Y004827D02*
X020758Y004762D01*
X020638Y004642D01*
X020573Y004485D01*
X020573Y004315D01*
X020638Y004158D01*
X020758Y004038D01*
X020915Y003973D01*
X021085Y003973D01*
X021242Y004038D01*
X021362Y004158D01*
X021427Y004315D01*
X021427Y004485D01*
X021362Y004642D01*
X021242Y004762D01*
X021085Y004827D01*
X020915Y004827D01*
X021127Y004810D02*
X021873Y004810D01*
X021915Y004827D02*
X021758Y004762D01*
X021638Y004642D01*
X021573Y004485D01*
X021573Y004315D01*
X021638Y004158D01*
X021758Y004038D01*
X021915Y003973D01*
X022085Y003973D01*
X022242Y004038D01*
X022362Y004158D01*
X022427Y004315D01*
X022427Y004485D01*
X022362Y004642D01*
X022242Y004762D01*
X022085Y004827D01*
X021915Y004827D01*
X022127Y004810D02*
X022873Y004810D01*
X022915Y004827D02*
X022758Y004762D01*
X022638Y004642D01*
X022573Y004485D01*
X022573Y004315D01*
X022638Y004158D01*
X022758Y004038D01*
X022915Y003973D01*
X023085Y003973D01*
X023242Y004038D01*
X023362Y004158D01*
X023427Y004315D01*
X023427Y004485D01*
X023362Y004642D01*
X023242Y004762D01*
X023085Y004827D01*
X022915Y004827D01*
X023127Y004810D02*
X023873Y004810D01*
X023915Y004827D02*
X023758Y004762D01*
X023638Y004642D01*
X023573Y004485D01*
X023573Y004315D01*
X023638Y004158D01*
X023758Y004038D01*
X023915Y003973D01*
X024085Y003973D01*
X024242Y004038D01*
X024362Y004158D01*
X024427Y004315D01*
X024427Y004485D01*
X024362Y004642D01*
X024242Y004762D01*
X024085Y004827D01*
X023915Y004827D01*
X024127Y004810D02*
X024873Y004810D01*
X024915Y004827D02*
X024758Y004762D01*
X024638Y004642D01*
X024573Y004485D01*
X024573Y004315D01*
X024638Y004158D01*
X024758Y004038D01*
X024915Y003973D01*
X025085Y003973D01*
X025242Y004038D01*
X025362Y004158D01*
X025427Y004315D01*
X025427Y004485D01*
X025362Y004642D01*
X025242Y004762D01*
X025085Y004827D01*
X024915Y004827D01*
X025127Y004810D02*
X025873Y004810D01*
X025915Y004827D02*
X025758Y004762D01*
X025638Y004642D01*
X025573Y004485D01*
X025573Y004315D01*
X025638Y004158D01*
X025758Y004038D01*
X025915Y003973D01*
X026085Y003973D01*
X026242Y004038D01*
X026362Y004158D01*
X026427Y004315D01*
X026427Y004485D01*
X026362Y004642D01*
X026242Y004762D01*
X026085Y004827D01*
X025915Y004827D01*
X026127Y004810D02*
X026873Y004810D01*
X026915Y004827D02*
X026758Y004762D01*
X026638Y004642D01*
X026573Y004485D01*
X026573Y004315D01*
X026638Y004158D01*
X026758Y004038D01*
X026915Y003973D01*
X027085Y003973D01*
X027242Y004038D01*
X027362Y004158D01*
X027427Y004315D01*
X027427Y004485D01*
X027362Y004642D01*
X027242Y004762D01*
X027085Y004827D01*
X026915Y004827D01*
X027127Y004810D02*
X027873Y004810D01*
X027915Y004827D02*
X027758Y004762D01*
X027638Y004642D01*
X027573Y004485D01*
X027573Y004315D01*
X027638Y004158D01*
X027758Y004038D01*
X027915Y003973D01*
X028085Y003973D01*
X028242Y004038D01*
X028362Y004158D01*
X028427Y004315D01*
X028427Y004485D01*
X028362Y004642D01*
X028242Y004762D01*
X028085Y004827D01*
X027915Y004827D01*
X028127Y004810D02*
X028819Y004810D01*
X028828Y004814D02*
X028766Y004782D01*
X028709Y004741D01*
X028659Y004691D01*
X028618Y004634D01*
X028586Y004572D01*
X028564Y004505D01*
X028555Y004448D01*
X028952Y004448D01*
X028952Y004352D01*
X029048Y004352D01*
X029048Y004448D01*
X029445Y004448D01*
X029436Y004505D01*
X029414Y004572D01*
X029382Y004634D01*
X029341Y004691D01*
X029291Y004741D01*
X029234Y004782D01*
X029172Y004814D01*
X029105Y004836D01*
X029048Y004845D01*
X029048Y004448D01*
X028952Y004448D01*
X028952Y004845D01*
X028895Y004836D01*
X028828Y004814D01*
X028952Y004810D02*
X029048Y004810D01*
X029048Y004711D02*
X028952Y004711D01*
X028952Y004613D02*
X029048Y004613D01*
X029048Y004514D02*
X028952Y004514D01*
X028952Y004416D02*
X028427Y004416D01*
X028415Y004514D02*
X028567Y004514D01*
X028607Y004613D02*
X028374Y004613D01*
X028293Y004711D02*
X028679Y004711D01*
X029048Y004416D02*
X029952Y004416D01*
X029952Y004448D02*
X029952Y004352D01*
X030048Y004352D01*
X030048Y004448D01*
X030445Y004448D01*
X030436Y004505D01*
X030414Y004572D01*
X030382Y004634D01*
X030341Y004691D01*
X030291Y004741D01*
X030234Y004782D01*
X030172Y004814D01*
X030105Y004836D01*
X030048Y004845D01*
X030048Y004448D01*
X029952Y004448D01*
X029555Y004448D01*
X029564Y004505D01*
X029586Y004572D01*
X029618Y004634D01*
X029659Y004691D01*
X029709Y004741D01*
X029766Y004782D01*
X029828Y004814D01*
X029895Y004836D01*
X029952Y004845D01*
X029952Y004448D01*
X029952Y004514D02*
X030048Y004514D01*
X030048Y004416D02*
X031399Y004416D01*
X031328Y004514D02*
X030433Y004514D01*
X030393Y004613D02*
X031271Y004613D01*
X031214Y004711D02*
X030321Y004711D01*
X030181Y004810D02*
X031188Y004810D01*
X031498Y004317D02*
X030439Y004317D01*
X030436Y004295D02*
X030445Y004352D01*
X030048Y004352D01*
X030048Y003955D01*
X030105Y003964D01*
X030172Y003986D01*
X030234Y004018D01*
X030291Y004059D01*
X030341Y004109D01*
X030382Y004166D01*
X030414Y004228D01*
X030436Y004295D01*
X030409Y004219D02*
X031611Y004219D01*
X031782Y004120D02*
X030349Y004120D01*
X030239Y004022D02*
X032087Y004022D01*
X032087Y003923D02*
X009680Y003923D01*
X009680Y004022D02*
X009798Y004022D01*
X010202Y004022D02*
X010798Y004022D01*
X010676Y004120D02*
X010324Y004120D01*
X010387Y004219D02*
X010613Y004219D01*
X010573Y004317D02*
X010427Y004317D01*
X010427Y004416D02*
X010573Y004416D01*
X010585Y004514D02*
X010415Y004514D01*
X010374Y004613D02*
X010626Y004613D01*
X010707Y004711D02*
X010293Y004711D01*
X010127Y004810D02*
X010873Y004810D01*
X011374Y004613D02*
X011626Y004613D01*
X011585Y004514D02*
X011415Y004514D01*
X011427Y004416D02*
X011573Y004416D01*
X011573Y004317D02*
X011427Y004317D01*
X011387Y004219D02*
X011613Y004219D01*
X011676Y004120D02*
X011324Y004120D01*
X011202Y004022D02*
X011798Y004022D01*
X011722Y003726D02*
X011278Y003726D01*
X011368Y003628D02*
X011632Y003628D01*
X011591Y003529D02*
X011409Y003529D01*
X011427Y003431D02*
X011573Y003431D01*
X011573Y003332D02*
X011427Y003332D01*
X011393Y003234D02*
X011607Y003234D01*
X011661Y003135D02*
X011339Y003135D01*
X010661Y003135D02*
X010339Y003135D01*
X010393Y003234D02*
X010607Y003234D01*
X010573Y003332D02*
X010427Y003332D01*
X010427Y003431D02*
X010573Y003431D01*
X010591Y003529D02*
X010409Y003529D01*
X010368Y003628D02*
X010632Y003628D01*
X010722Y003726D02*
X010278Y003726D01*
X009661Y003135D02*
X009339Y003135D01*
X008661Y003135D02*
X008447Y003135D01*
X008447Y003234D02*
X008607Y003234D01*
X008573Y003332D02*
X008447Y003332D01*
X008447Y003448D02*
X008048Y003448D01*
X008048Y003847D01*
X008317Y003847D01*
X008355Y003837D01*
X008389Y003817D01*
X008417Y003789D01*
X008437Y003755D01*
X008447Y003717D01*
X008447Y003448D01*
X008447Y003529D02*
X008591Y003529D01*
X008573Y003431D02*
X008048Y003431D01*
X008048Y003529D02*
X007952Y003529D01*
X007952Y003628D02*
X008048Y003628D01*
X008048Y003726D02*
X007952Y003726D01*
X007952Y003825D02*
X008048Y003825D01*
X008048Y003955D02*
X008105Y003964D01*
X008172Y003986D01*
X008234Y004018D01*
X008291Y004059D01*
X008341Y004109D01*
X008382Y004166D01*
X008414Y004228D01*
X008436Y004295D01*
X008445Y004352D01*
X008048Y004352D01*
X008048Y003955D01*
X008048Y004022D02*
X007952Y004022D01*
X007952Y004120D02*
X008048Y004120D01*
X008048Y004219D02*
X007952Y004219D01*
X007952Y004317D02*
X008048Y004317D01*
X008239Y004022D02*
X008798Y004022D01*
X008676Y004120D02*
X008349Y004120D01*
X008409Y004219D02*
X008613Y004219D01*
X008573Y004317D02*
X008439Y004317D01*
X008376Y003825D02*
X008909Y003825D01*
X009091Y003825D02*
X009170Y003825D01*
X009268Y003923D02*
X007700Y003923D01*
X007700Y004022D02*
X007761Y004022D01*
X008444Y003726D02*
X008722Y003726D01*
X008632Y003628D02*
X008447Y003628D01*
X009202Y004022D02*
X009320Y004022D01*
X009986Y005007D02*
X012352Y005007D01*
X012450Y005105D02*
X010085Y005105D01*
X010183Y005204D02*
X012549Y005204D01*
X013293Y004711D02*
X013707Y004711D01*
X013626Y004613D02*
X013374Y004613D01*
X013415Y004514D02*
X013585Y004514D01*
X013573Y004416D02*
X013427Y004416D01*
X013427Y004317D02*
X013573Y004317D01*
X013613Y004219D02*
X013387Y004219D01*
X013324Y004120D02*
X013676Y004120D01*
X013798Y004022D02*
X013202Y004022D01*
X013091Y003825D02*
X013909Y003825D01*
X014091Y003825D02*
X014909Y003825D01*
X015091Y003825D02*
X015909Y003825D01*
X016091Y003825D02*
X016909Y003825D01*
X017091Y003825D02*
X017909Y003825D01*
X018091Y003825D02*
X018909Y003825D01*
X019091Y003825D02*
X019909Y003825D01*
X020091Y003825D02*
X020909Y003825D01*
X021091Y003825D02*
X021909Y003825D01*
X022091Y003825D02*
X022909Y003825D01*
X023091Y003825D02*
X023909Y003825D01*
X024091Y003825D02*
X024909Y003825D01*
X025091Y003825D02*
X025909Y003825D01*
X026091Y003825D02*
X026909Y003825D01*
X027091Y003825D02*
X027909Y003825D01*
X028091Y003825D02*
X028860Y003825D01*
X028828Y003814D02*
X028766Y003782D01*
X028709Y003741D01*
X028659Y003691D01*
X028618Y003634D01*
X028586Y003572D01*
X028564Y003505D01*
X028555Y003448D01*
X028952Y003448D01*
X028952Y003845D01*
X028895Y003836D01*
X028828Y003814D01*
X028952Y003825D02*
X029048Y003825D01*
X029048Y003845D02*
X029048Y003448D01*
X029445Y003448D01*
X029436Y003505D01*
X029414Y003572D01*
X029382Y003634D01*
X029341Y003691D01*
X029291Y003741D01*
X029234Y003782D01*
X029172Y003814D01*
X029105Y003836D01*
X029048Y003845D01*
X029140Y003825D02*
X029860Y003825D01*
X029828Y003814D02*
X029766Y003782D01*
X029709Y003741D01*
X029659Y003691D01*
X029618Y003634D01*
X029586Y003572D01*
X029564Y003505D01*
X029555Y003448D01*
X029952Y003448D01*
X029952Y003845D01*
X029895Y003836D01*
X029828Y003814D01*
X029952Y003825D02*
X030048Y003825D01*
X030048Y003845D02*
X030048Y003448D01*
X030445Y003448D01*
X030436Y003505D01*
X030414Y003572D01*
X030382Y003634D01*
X030341Y003691D01*
X030291Y003741D01*
X030234Y003782D01*
X030172Y003814D01*
X030105Y003836D01*
X030048Y003845D01*
X030140Y003825D02*
X031952Y003825D01*
X031790Y003726D02*
X030306Y003726D01*
X030386Y003628D02*
X031597Y003628D01*
X031403Y003529D02*
X030428Y003529D01*
X030442Y003332D02*
X030889Y003332D01*
X030586Y003234D02*
X030416Y003234D01*
X030048Y003431D02*
X031192Y003431D01*
X030048Y003529D02*
X029952Y003529D01*
X029952Y003431D02*
X029048Y003431D01*
X028952Y003431D02*
X028427Y003431D01*
X028427Y003332D02*
X028558Y003332D01*
X028584Y003234D02*
X028393Y003234D01*
X028339Y003135D02*
X028640Y003135D01*
X028572Y003529D02*
X028409Y003529D01*
X028368Y003628D02*
X028614Y003628D01*
X028694Y003726D02*
X028278Y003726D01*
X028202Y004022D02*
X028761Y004022D01*
X028766Y004018D02*
X028828Y003986D01*
X028895Y003964D01*
X028952Y003955D01*
X028952Y004352D01*
X028555Y004352D01*
X028564Y004295D01*
X028586Y004228D01*
X028618Y004166D01*
X028659Y004109D01*
X028709Y004059D01*
X028766Y004018D01*
X028651Y004120D02*
X028324Y004120D01*
X028387Y004219D02*
X028591Y004219D01*
X028561Y004317D02*
X028427Y004317D01*
X028952Y004317D02*
X029048Y004317D01*
X029048Y004352D02*
X029048Y003955D01*
X029105Y003964D01*
X029172Y003986D01*
X029234Y004018D01*
X029291Y004059D01*
X029341Y004109D01*
X029382Y004166D01*
X029414Y004228D01*
X029436Y004295D01*
X029445Y004352D01*
X029048Y004352D01*
X029048Y004219D02*
X028952Y004219D01*
X028952Y004120D02*
X029048Y004120D01*
X029048Y004022D02*
X028952Y004022D01*
X029239Y004022D02*
X029761Y004022D01*
X029766Y004018D02*
X029828Y003986D01*
X029895Y003964D01*
X029952Y003955D01*
X029952Y004352D01*
X029555Y004352D01*
X029564Y004295D01*
X029586Y004228D01*
X029618Y004166D01*
X029659Y004109D01*
X029709Y004059D01*
X029766Y004018D01*
X029651Y004120D02*
X029349Y004120D01*
X029409Y004219D02*
X029591Y004219D01*
X029561Y004317D02*
X029439Y004317D01*
X029433Y004514D02*
X029567Y004514D01*
X029607Y004613D02*
X029393Y004613D01*
X029321Y004711D02*
X029679Y004711D01*
X029819Y004810D02*
X029181Y004810D01*
X029952Y004810D02*
X030048Y004810D01*
X030048Y004711D02*
X029952Y004711D01*
X029952Y004613D02*
X030048Y004613D01*
X030048Y004317D02*
X029952Y004317D01*
X029952Y004219D02*
X030048Y004219D01*
X030048Y004120D02*
X029952Y004120D01*
X029952Y004022D02*
X030048Y004022D01*
X030048Y003726D02*
X029952Y003726D01*
X029952Y003628D02*
X030048Y003628D01*
X029694Y003726D02*
X029306Y003726D01*
X029386Y003628D02*
X029614Y003628D01*
X029572Y003529D02*
X029428Y003529D01*
X029442Y003332D02*
X029558Y003332D01*
X029584Y003234D02*
X029416Y003234D01*
X029360Y003135D02*
X029640Y003135D01*
X029048Y003529D02*
X028952Y003529D01*
X028952Y003628D02*
X029048Y003628D01*
X029048Y003726D02*
X028952Y003726D01*
X027798Y004022D02*
X027202Y004022D01*
X027324Y004120D02*
X027676Y004120D01*
X027613Y004219D02*
X027387Y004219D01*
X027427Y004317D02*
X027573Y004317D01*
X027573Y004416D02*
X027427Y004416D01*
X027415Y004514D02*
X027585Y004514D01*
X027626Y004613D02*
X027374Y004613D01*
X027293Y004711D02*
X027707Y004711D01*
X026707Y004711D02*
X026293Y004711D01*
X026374Y004613D02*
X026626Y004613D01*
X026585Y004514D02*
X026415Y004514D01*
X026427Y004416D02*
X026573Y004416D01*
X026573Y004317D02*
X026427Y004317D01*
X026387Y004219D02*
X026613Y004219D01*
X026676Y004120D02*
X026324Y004120D01*
X026202Y004022D02*
X026798Y004022D01*
X026722Y003726D02*
X026278Y003726D01*
X026368Y003628D02*
X026632Y003628D01*
X026591Y003529D02*
X026409Y003529D01*
X026427Y003431D02*
X026573Y003431D01*
X026573Y003332D02*
X026427Y003332D01*
X026393Y003234D02*
X026607Y003234D01*
X026661Y003135D02*
X026339Y003135D01*
X025661Y003135D02*
X025339Y003135D01*
X025393Y003234D02*
X025607Y003234D01*
X025573Y003332D02*
X025427Y003332D01*
X025427Y003431D02*
X025573Y003431D01*
X025591Y003529D02*
X025409Y003529D01*
X025368Y003628D02*
X025632Y003628D01*
X025722Y003726D02*
X025278Y003726D01*
X025202Y004022D02*
X025798Y004022D01*
X025676Y004120D02*
X025324Y004120D01*
X025387Y004219D02*
X025613Y004219D01*
X025573Y004317D02*
X025427Y004317D01*
X025427Y004416D02*
X025573Y004416D01*
X025585Y004514D02*
X025415Y004514D01*
X025374Y004613D02*
X025626Y004613D01*
X025707Y004711D02*
X025293Y004711D01*
X024707Y004711D02*
X024293Y004711D01*
X024374Y004613D02*
X024626Y004613D01*
X024585Y004514D02*
X024415Y004514D01*
X024427Y004416D02*
X024573Y004416D01*
X024573Y004317D02*
X024427Y004317D01*
X024387Y004219D02*
X024613Y004219D01*
X024676Y004120D02*
X024324Y004120D01*
X024202Y004022D02*
X024798Y004022D01*
X024722Y003726D02*
X024278Y003726D01*
X024368Y003628D02*
X024632Y003628D01*
X024591Y003529D02*
X024409Y003529D01*
X024427Y003431D02*
X024573Y003431D01*
X024573Y003332D02*
X024427Y003332D01*
X024393Y003234D02*
X024607Y003234D01*
X024661Y003135D02*
X024339Y003135D01*
X023661Y003135D02*
X023339Y003135D01*
X023393Y003234D02*
X023607Y003234D01*
X023573Y003332D02*
X023427Y003332D01*
X023427Y003431D02*
X023573Y003431D01*
X023591Y003529D02*
X023409Y003529D01*
X023368Y003628D02*
X023632Y003628D01*
X023722Y003726D02*
X023278Y003726D01*
X023202Y004022D02*
X023798Y004022D01*
X023676Y004120D02*
X023324Y004120D01*
X023387Y004219D02*
X023613Y004219D01*
X023573Y004317D02*
X023427Y004317D01*
X023427Y004416D02*
X023573Y004416D01*
X023585Y004514D02*
X023415Y004514D01*
X023374Y004613D02*
X023626Y004613D01*
X023707Y004711D02*
X023293Y004711D01*
X022707Y004711D02*
X022293Y004711D01*
X022374Y004613D02*
X022626Y004613D01*
X022585Y004514D02*
X022415Y004514D01*
X022427Y004416D02*
X022573Y004416D01*
X022573Y004317D02*
X022427Y004317D01*
X022387Y004219D02*
X022613Y004219D01*
X022676Y004120D02*
X022324Y004120D01*
X022202Y004022D02*
X022798Y004022D01*
X022722Y003726D02*
X022278Y003726D01*
X022368Y003628D02*
X022632Y003628D01*
X022591Y003529D02*
X022409Y003529D01*
X022427Y003431D02*
X022573Y003431D01*
X022573Y003332D02*
X022427Y003332D01*
X022393Y003234D02*
X022607Y003234D01*
X022661Y003135D02*
X022339Y003135D01*
X021661Y003135D02*
X021339Y003135D01*
X021393Y003234D02*
X021607Y003234D01*
X021573Y003332D02*
X021427Y003332D01*
X021427Y003431D02*
X021573Y003431D01*
X021591Y003529D02*
X021409Y003529D01*
X021368Y003628D02*
X021632Y003628D01*
X021722Y003726D02*
X021278Y003726D01*
X021202Y004022D02*
X021798Y004022D01*
X021676Y004120D02*
X021324Y004120D01*
X021387Y004219D02*
X021613Y004219D01*
X021573Y004317D02*
X021427Y004317D01*
X021427Y004416D02*
X021573Y004416D01*
X021585Y004514D02*
X021415Y004514D01*
X021374Y004613D02*
X021626Y004613D01*
X021707Y004711D02*
X021293Y004711D01*
X020707Y004711D02*
X020293Y004711D01*
X020374Y004613D02*
X020626Y004613D01*
X020585Y004514D02*
X020415Y004514D01*
X020427Y004416D02*
X020573Y004416D01*
X020573Y004317D02*
X020427Y004317D01*
X020387Y004219D02*
X020613Y004219D01*
X020676Y004120D02*
X020324Y004120D01*
X020202Y004022D02*
X020798Y004022D01*
X020722Y003726D02*
X020278Y003726D01*
X020368Y003628D02*
X020632Y003628D01*
X020591Y003529D02*
X020409Y003529D01*
X020427Y003431D02*
X020573Y003431D01*
X020573Y003332D02*
X020427Y003332D01*
X020393Y003234D02*
X020607Y003234D01*
X020661Y003135D02*
X020339Y003135D01*
X019661Y003135D02*
X019339Y003135D01*
X019393Y003234D02*
X019607Y003234D01*
X019573Y003332D02*
X019427Y003332D01*
X019427Y003431D02*
X019573Y003431D01*
X019591Y003529D02*
X019409Y003529D01*
X019368Y003628D02*
X019632Y003628D01*
X019722Y003726D02*
X019278Y003726D01*
X019202Y004022D02*
X019798Y004022D01*
X019676Y004120D02*
X019324Y004120D01*
X019387Y004219D02*
X019613Y004219D01*
X019573Y004317D02*
X019427Y004317D01*
X019427Y004416D02*
X019573Y004416D01*
X019585Y004514D02*
X019415Y004514D01*
X019374Y004613D02*
X019626Y004613D01*
X019707Y004711D02*
X019293Y004711D01*
X018707Y004711D02*
X018293Y004711D01*
X018374Y004613D02*
X018626Y004613D01*
X018585Y004514D02*
X018415Y004514D01*
X018427Y004416D02*
X018573Y004416D01*
X018573Y004317D02*
X018427Y004317D01*
X018387Y004219D02*
X018613Y004219D01*
X018676Y004120D02*
X018324Y004120D01*
X018202Y004022D02*
X018798Y004022D01*
X018722Y003726D02*
X018278Y003726D01*
X018368Y003628D02*
X018632Y003628D01*
X018591Y003529D02*
X018409Y003529D01*
X018427Y003431D02*
X018573Y003431D01*
X018573Y003332D02*
X018427Y003332D01*
X018393Y003234D02*
X018607Y003234D01*
X018661Y003135D02*
X018339Y003135D01*
X017661Y003135D02*
X017339Y003135D01*
X017393Y003234D02*
X017607Y003234D01*
X017573Y003332D02*
X017427Y003332D01*
X017427Y003431D02*
X017573Y003431D01*
X017591Y003529D02*
X017409Y003529D01*
X017368Y003628D02*
X017632Y003628D01*
X017722Y003726D02*
X017278Y003726D01*
X017202Y004022D02*
X017798Y004022D01*
X017676Y004120D02*
X017324Y004120D01*
X017387Y004219D02*
X017613Y004219D01*
X017573Y004317D02*
X017427Y004317D01*
X017427Y004416D02*
X017573Y004416D01*
X017585Y004514D02*
X017415Y004514D01*
X017374Y004613D02*
X017626Y004613D01*
X017707Y004711D02*
X017293Y004711D01*
X016707Y004711D02*
X016293Y004711D01*
X016374Y004613D02*
X016626Y004613D01*
X016585Y004514D02*
X016415Y004514D01*
X016427Y004416D02*
X016573Y004416D01*
X016573Y004317D02*
X016427Y004317D01*
X016387Y004219D02*
X016613Y004219D01*
X016676Y004120D02*
X016324Y004120D01*
X016202Y004022D02*
X016798Y004022D01*
X016722Y003726D02*
X016278Y003726D01*
X016368Y003628D02*
X016632Y003628D01*
X016591Y003529D02*
X016409Y003529D01*
X016427Y003431D02*
X016573Y003431D01*
X016573Y003332D02*
X016427Y003332D01*
X016393Y003234D02*
X016607Y003234D01*
X016661Y003135D02*
X016339Y003135D01*
X015661Y003135D02*
X015339Y003135D01*
X015393Y003234D02*
X015607Y003234D01*
X015573Y003332D02*
X015427Y003332D01*
X015427Y003431D02*
X015573Y003431D01*
X015591Y003529D02*
X015409Y003529D01*
X015368Y003628D02*
X015632Y003628D01*
X015722Y003726D02*
X015278Y003726D01*
X015202Y004022D02*
X015798Y004022D01*
X015676Y004120D02*
X015324Y004120D01*
X015387Y004219D02*
X015613Y004219D01*
X015573Y004317D02*
X015427Y004317D01*
X015427Y004416D02*
X015573Y004416D01*
X015585Y004514D02*
X015415Y004514D01*
X015374Y004613D02*
X015626Y004613D01*
X015707Y004711D02*
X015293Y004711D01*
X014707Y004711D02*
X014293Y004711D01*
X014374Y004613D02*
X014626Y004613D01*
X014585Y004514D02*
X014415Y004514D01*
X014427Y004416D02*
X014573Y004416D01*
X014573Y004317D02*
X014427Y004317D01*
X014387Y004219D02*
X014613Y004219D01*
X014676Y004120D02*
X014324Y004120D01*
X014202Y004022D02*
X014798Y004022D01*
X014722Y003726D02*
X014278Y003726D01*
X014368Y003628D02*
X014632Y003628D01*
X014591Y003529D02*
X014409Y003529D01*
X014427Y003431D02*
X014573Y003431D01*
X014573Y003332D02*
X014427Y003332D01*
X014393Y003234D02*
X014607Y003234D01*
X014661Y003135D02*
X014339Y003135D01*
X013661Y003135D02*
X013339Y003135D01*
X013393Y003234D02*
X013607Y003234D01*
X013573Y003332D02*
X013427Y003332D01*
X013427Y003431D02*
X013573Y003431D01*
X013591Y003529D02*
X013409Y003529D01*
X013368Y003628D02*
X013632Y003628D01*
X013722Y003726D02*
X013278Y003726D01*
X012722Y003726D02*
X012278Y003726D01*
X012368Y003628D02*
X012632Y003628D01*
X012591Y003529D02*
X012409Y003529D01*
X012427Y003431D02*
X012573Y003431D01*
X012573Y003332D02*
X012427Y003332D01*
X012393Y003234D02*
X012607Y003234D01*
X012661Y003135D02*
X012339Y003135D01*
X015952Y005598D02*
X019366Y005598D01*
X019625Y005775D02*
X021500Y005775D01*
X021280Y005992D02*
X019845Y005992D01*
X020125Y008775D02*
X023500Y008775D01*
X023625Y008900D01*
X023351Y009045D02*
X020110Y009045D01*
X020011Y009144D02*
X023432Y009144D01*
X024066Y010523D02*
X008700Y010523D01*
X008700Y010621D02*
X023980Y010621D01*
X023942Y010720D02*
X008700Y010720D01*
X008700Y010818D02*
X023942Y010818D01*
X023854Y010917D02*
X008700Y010917D01*
X008700Y011015D02*
X023755Y011015D01*
X023657Y011114D02*
X008700Y011114D01*
X008700Y011212D02*
X023558Y011212D01*
X023460Y011311D02*
X008700Y011311D01*
X008700Y011409D02*
X023361Y011409D01*
X023320Y011508D02*
X008700Y011508D01*
X008700Y011606D02*
X023320Y011606D01*
X023320Y011705D02*
X008700Y011705D01*
X008700Y011803D02*
X023320Y011803D01*
X023320Y011902D02*
X008700Y011902D01*
X008700Y012000D02*
X023320Y012000D01*
X023320Y012099D02*
X008700Y012099D01*
X008700Y012197D02*
X023320Y012197D01*
X023320Y012296D02*
X008700Y012296D01*
X008700Y012394D02*
X023320Y012394D01*
X023320Y012493D02*
X008700Y012493D01*
X008700Y012591D02*
X023320Y012591D01*
X022461Y012788D02*
X022039Y012788D01*
X022137Y012887D02*
X022363Y012887D01*
X022320Y012985D02*
X022180Y012985D01*
X022210Y013084D02*
X022290Y013084D01*
X022290Y013182D02*
X022210Y013182D01*
X022194Y013281D02*
X022306Y013281D01*
X022347Y013379D02*
X022153Y013379D01*
X022073Y013478D02*
X022427Y013478D01*
X022576Y013576D02*
X021924Y013576D01*
X022024Y013773D02*
X022476Y013773D01*
X022378Y013872D02*
X022122Y013872D01*
X022173Y013970D02*
X022327Y013970D01*
X022290Y014069D02*
X022210Y014069D01*
X022210Y014167D02*
X022290Y014167D01*
X022300Y014266D02*
X022200Y014266D01*
X022159Y014364D02*
X022341Y014364D01*
X022412Y014463D02*
X022088Y014463D01*
X021960Y014561D02*
X022540Y014561D01*
X021540Y014561D02*
X008700Y014561D01*
X008700Y014463D02*
X021412Y014463D01*
X021341Y014364D02*
X008700Y014364D01*
X008700Y014266D02*
X021300Y014266D01*
X021290Y014167D02*
X008700Y014167D01*
X008700Y014069D02*
X021290Y014069D01*
X021327Y013970D02*
X008700Y013970D01*
X008700Y013872D02*
X021378Y013872D01*
X024500Y012400D02*
X026125Y012400D01*
X027125Y013400D01*
X026817Y013379D02*
X026609Y013379D01*
X026707Y013478D02*
X026823Y013478D01*
X026806Y013576D02*
X026865Y013576D01*
X026904Y013675D02*
X026982Y013675D01*
X027003Y013773D02*
X033543Y013773D01*
X033882Y013773D02*
X034050Y013773D01*
X034050Y013872D02*
X033989Y013872D01*
X034050Y015152D02*
X033879Y015152D01*
X034050Y016630D02*
X026291Y016630D01*
X026233Y016728D02*
X034050Y016728D01*
X034045Y018206D02*
X034050Y018206D01*
X034050Y018304D02*
X025680Y018304D01*
X026510Y013281D02*
X026751Y013281D01*
X026652Y013182D02*
X026412Y013182D01*
X026313Y013084D02*
X026554Y013084D01*
X026455Y012985D02*
X026215Y012985D01*
X026116Y012887D02*
X026357Y012887D01*
X026258Y012788D02*
X024699Y012788D01*
X024607Y012690D02*
X026160Y012690D01*
X026061Y012591D02*
X024745Y012591D01*
X025055Y011015D02*
X025179Y011015D01*
X025100Y010917D02*
X025055Y010917D01*
X025055Y010818D02*
X025067Y010818D01*
X025055Y010720D02*
X025067Y010720D01*
X025055Y010621D02*
X025105Y010621D01*
X025055Y010523D02*
X025191Y010523D01*
X025055Y010424D02*
X027700Y010424D01*
X027607Y010523D02*
X025559Y010523D01*
X025375Y010775D02*
X028000Y010775D01*
X027883Y010326D02*
X025055Y010326D01*
X025571Y011015D02*
X027602Y011015D01*
X024805Y007371D02*
X034039Y007371D01*
X034033Y007272D02*
X024896Y007272D01*
X024936Y007174D02*
X034017Y007174D01*
X034001Y007075D02*
X024960Y007075D01*
X024960Y006977D02*
X033986Y006977D01*
X033970Y006878D02*
X024937Y006878D01*
X024896Y006780D02*
X033955Y006780D01*
X033939Y006681D02*
X024807Y006681D01*
X024634Y006583D02*
X033923Y006583D01*
X033891Y006484D02*
X024594Y006484D01*
X024406Y006484D02*
X023594Y006484D01*
X023634Y006583D02*
X024366Y006583D01*
X024193Y006681D02*
X023807Y006681D01*
X023896Y006780D02*
X024104Y006780D01*
X024063Y006878D02*
X023937Y006878D01*
X023960Y006977D02*
X024040Y006977D01*
X024040Y007075D02*
X023960Y007075D01*
X023936Y007174D02*
X024064Y007174D01*
X024104Y007272D02*
X023896Y007272D01*
X023805Y007371D02*
X024195Y007371D01*
X024210Y006386D02*
X023790Y006386D01*
X023889Y006287D02*
X024111Y006287D01*
X024070Y006189D02*
X023930Y006189D01*
X023960Y006090D02*
X024040Y006090D01*
X024040Y005992D02*
X023960Y005992D01*
X023943Y005893D02*
X024057Y005893D01*
X024098Y005795D02*
X023902Y005795D01*
X023822Y005696D02*
X024178Y005696D01*
X024822Y005696D02*
X031276Y005696D01*
X031333Y005795D02*
X024902Y005795D01*
X024943Y005893D02*
X031408Y005893D01*
X031506Y005992D02*
X024960Y005992D01*
X024960Y006090D02*
X031626Y006090D01*
X031796Y006189D02*
X024930Y006189D01*
X024889Y006287D02*
X032118Y006287D01*
X032433Y006287D02*
X033827Y006287D01*
X033859Y006386D02*
X024790Y006386D01*
X027278Y003726D02*
X027722Y003726D01*
X027632Y003628D02*
X027368Y003628D01*
X027409Y003529D02*
X027591Y003529D01*
X027573Y003431D02*
X027427Y003431D01*
X027427Y003332D02*
X027573Y003332D01*
X027607Y003234D02*
X027393Y003234D01*
X027339Y003135D02*
X027661Y003135D01*
X032755Y006189D02*
X033795Y006189D01*
X033763Y006090D02*
X032925Y006090D01*
X033045Y005992D02*
X033731Y005992D01*
X033696Y005893D02*
X033143Y005893D01*
X033219Y005795D02*
X033645Y005795D01*
X033595Y005696D02*
X033276Y005696D01*
X033332Y005598D02*
X033545Y005598D01*
X033495Y005499D02*
X033361Y005499D01*
X033388Y005401D02*
X033445Y005401D01*
X020125Y008775D02*
X019625Y009275D01*
X008096Y007557D02*
X008096Y007557D01*
M02*
