%
M48
M72
T01C0.0197
T02C0.0394
T03C0.0453
T04C0.1378
%
T01
X26000Y16525
X24250Y9400
X26000Y20275
X24250Y10775
X25375Y10150
X17875Y5775
X19625Y9900
X22250Y5775
X24375Y13650
X21375Y11900
X25750Y7775
X25750Y5525
X25750Y6650
X24625Y17275
X24625Y21150
X24625Y19275
X19875Y11900
X18125Y11900
X16625Y10400
X16625Y8775
X16625Y7275
X16625Y5775
X17875Y7775
X19625Y9275
X23625Y8900
X27125Y13400
X24500Y12400
X27125Y14150
X24500Y13025
X21500Y5775
X19625Y5775
X21875Y7650
X25375Y10775
X25375Y9525
T02
X8000Y22400
X8000Y23400
X9000Y22400
X9000Y23400
X10000Y22400
X10000Y23400
X11000Y22400
X11000Y23400
X12000Y22400
X12000Y23400
X13000Y22400
X13000Y23400
X14000Y22400
X14000Y23400
X15000Y22400
X15000Y23400
X16000Y22400
X16000Y23400
X17000Y22400
X17000Y23400
X18000Y22400
X18000Y23400
X19000Y22400
X19000Y23400
X20000Y22400
X20000Y23400
X21000Y22400
X21000Y23400
X22000Y22400
X22000Y23400
X23000Y22400
X23000Y23400
X24000Y22400
X24000Y23400
X25000Y22400
X25000Y23400
X26000Y22400
X26000Y23400
X27000Y22400
X27000Y23400
X28000Y22400
X28000Y23400
X29000Y22400
X29000Y23400
X30000Y22400
X30000Y23400
X8000Y3400
X8000Y4400
X9000Y3400
X9000Y4400
X10000Y3400
X10000Y4400
X11000Y3400
X11000Y4400
X12000Y3400
X12000Y4400
X13000Y3400
X13000Y4400
X14000Y3400
X14000Y4400
X15000Y3400
X15000Y4400
X16000Y3400
X16000Y4400
X17000Y3400
X17000Y4400
X18000Y3400
X18000Y4400
X19000Y3400
X19000Y4400
X20000Y3400
X20000Y4400
X21000Y3400
X21000Y4400
X22000Y3400
X22000Y4400
X23000Y3400
X23000Y4400
X24000Y3400
X24000Y4400
X25000Y3400
X25000Y4400
X26000Y3400
X26000Y4400
X27000Y3400
X27000Y4400
X28000Y3400
X28000Y4400
X29000Y3400
X29000Y4400
X30000Y3400
X30000Y4400
X23500Y6025
X23500Y7025
X24500Y6025
X24500Y7025
X22750Y13150
X22750Y14150
X21750Y13150
X21750Y14150
X28000Y10775
X28000Y9775
T03
X33713Y17611
X33713Y18989
X33713Y13111
X33713Y14489
T04
X32276Y21650
X32276Y5150
M30
