G75*
G70*
%OFA0B0*%
%FSLAX24Y24*%
%IPPOS*%
%LPD*%
%AMOC8*
5,1,8,0,0,1.08239X$1,22.5*
%
%ADD10C,0.0060*%
%ADD11C,0.0000*%
%ADD12C,0.0080*%
%ADD13R,0.0050X0.0010*%
%ADD14R,0.0040X0.0010*%
%ADD15R,0.0130X0.0010*%
%ADD16R,0.0070X0.0010*%
%ADD17R,0.0180X0.0010*%
%ADD18R,0.0080X0.0010*%
%ADD19R,0.0210X0.0010*%
%ADD20R,0.0090X0.0010*%
%ADD21R,0.0060X0.0010*%
%ADD22R,0.0010X0.0010*%
%ADD23R,0.0030X0.0010*%
%ADD24R,0.0020X0.0010*%
%ADD25R,0.0220X0.0010*%
%ADD26R,0.0100X0.0010*%
%ADD27R,0.0110X0.0010*%
%ADD28R,0.0120X0.0010*%
%ADD29R,0.0140X0.0010*%
%ADD30R,0.0150X0.0010*%
%ADD31R,0.0200X0.0010*%
%ADD32R,0.0170X0.0010*%
%ADD33R,0.0190X0.0010*%
%ADD34R,0.0160X0.0010*%
%ADD35R,0.0003X0.0003*%
%ADD36R,0.0008X0.0003*%
%ADD37R,0.0005X0.0003*%
%ADD38R,0.0015X0.0003*%
%ADD39R,0.0020X0.0003*%
%ADD40R,0.0010X0.0003*%
%ADD41R,0.0018X0.0003*%
%ADD42R,0.0067X0.0003*%
%ADD43R,0.0013X0.0003*%
%ADD44R,0.0045X0.0003*%
%ADD45R,0.0077X0.0003*%
%ADD46R,0.0030X0.0003*%
%ADD47R,0.0032X0.0003*%
%ADD48R,0.0022X0.0003*%
%ADD49R,0.0127X0.0003*%
%ADD50R,0.0140X0.0003*%
%ADD51R,0.0025X0.0003*%
%ADD52R,0.0043X0.0003*%
%ADD53R,0.0053X0.0003*%
%ADD54R,0.0088X0.0003*%
%ADD55R,0.0035X0.0003*%
%ADD56R,0.0055X0.0003*%
%ADD57R,0.0040X0.0003*%
%ADD58R,0.0080X0.0003*%
%ADD59R,0.0065X0.0003*%
%ADD60R,0.0090X0.0003*%
%ADD61R,0.0143X0.0003*%
%ADD62R,0.0248X0.0003*%
%ADD63R,0.0293X0.0003*%
%ADD64R,0.0257X0.0003*%
%ADD65R,0.0037X0.0003*%
%ADD66R,0.0262X0.0003*%
%ADD67R,0.0027X0.0003*%
%ADD68R,0.0280X0.0003*%
%ADD69R,0.0070X0.0003*%
%ADD70R,0.0440X0.0003*%
%ADD71R,0.0315X0.0003*%
%ADD72R,0.0085X0.0003*%
%ADD73R,0.0330X0.0003*%
%ADD74R,0.0323X0.0003*%
%ADD75R,0.0107X0.0003*%
%ADD76R,0.0057X0.0003*%
%ADD77R,0.0490X0.0003*%
%ADD78R,0.0360X0.0003*%
%ADD79R,0.0512X0.0003*%
%ADD80R,0.0390X0.0003*%
%ADD81R,0.0565X0.0003*%
%ADD82R,0.0325X0.0003*%
%ADD83R,0.0168X0.0003*%
%ADD84R,0.0307X0.0003*%
%ADD85R,0.0152X0.0003*%
%ADD86R,0.0272X0.0003*%
%ADD87R,0.0132X0.0003*%
%ADD88R,0.0147X0.0003*%
%ADD89R,0.0243X0.0003*%
%ADD90R,0.0125X0.0003*%
%ADD91R,0.0240X0.0003*%
%ADD92R,0.0130X0.0003*%
%ADD93R,0.0225X0.0003*%
%ADD94R,0.0083X0.0003*%
%ADD95R,0.0222X0.0003*%
%ADD96R,0.0217X0.0003*%
%ADD97R,0.0120X0.0003*%
%ADD98R,0.0215X0.0003*%
%ADD99R,0.0118X0.0003*%
%ADD100R,0.0205X0.0003*%
%ADD101R,0.0103X0.0003*%
%ADD102R,0.0210X0.0003*%
%ADD103R,0.0097X0.0003*%
%ADD104R,0.0198X0.0003*%
%ADD105R,0.0100X0.0003*%
%ADD106R,0.0190X0.0003*%
%ADD107R,0.0187X0.0003*%
%ADD108R,0.0192X0.0003*%
%ADD109R,0.0170X0.0003*%
%ADD110R,0.0173X0.0003*%
%ADD111R,0.0182X0.0003*%
%ADD112R,0.0180X0.0003*%
%ADD113R,0.0047X0.0003*%
%ADD114R,0.0165X0.0003*%
%ADD115R,0.0163X0.0003*%
%ADD116R,0.0160X0.0003*%
%ADD117R,0.0158X0.0003*%
%ADD118R,0.0155X0.0003*%
%ADD119R,0.0092X0.0003*%
%ADD120R,0.0150X0.0003*%
%ADD121R,0.0105X0.0003*%
%ADD122R,0.0115X0.0003*%
%ADD123R,0.0145X0.0003*%
%ADD124R,0.0138X0.0003*%
%ADD125R,0.0135X0.0003*%
%ADD126R,0.0075X0.0003*%
%ADD127R,0.0063X0.0003*%
%ADD128R,0.0060X0.0003*%
%ADD129R,0.0050X0.0003*%
%ADD130R,0.0123X0.0003*%
%ADD131R,0.0112X0.0003*%
%ADD132R,0.0110X0.0003*%
%ADD133R,0.0073X0.0003*%
%ADD134R,0.0095X0.0003*%
%ADD135R,0.0185X0.0003*%
%ADD136R,0.0208X0.0003*%
%ADD137R,0.0235X0.0003*%
%ADD138R,0.0260X0.0003*%
%ADD139R,0.0267X0.0003*%
%ADD140R,0.0283X0.0003*%
%ADD141R,0.0295X0.0003*%
%ADD142R,0.0302X0.0003*%
%ADD143R,0.0320X0.0003*%
%ADD144R,0.0333X0.0003*%
%ADD145R,0.0338X0.0003*%
%ADD146R,0.0343X0.0003*%
%ADD147R,0.0350X0.0003*%
%ADD148R,0.0355X0.0003*%
%ADD149R,0.0365X0.0003*%
%ADD150R,0.0370X0.0003*%
%ADD151R,0.0375X0.0003*%
%ADD152R,0.0380X0.0003*%
%ADD153R,0.0382X0.0003*%
%ADD154R,0.0393X0.0003*%
%ADD155R,0.0398X0.0003*%
%ADD156R,0.0403X0.0003*%
%ADD157R,0.0405X0.0003*%
%ADD158R,0.0415X0.0003*%
%ADD159R,0.0177X0.0003*%
%ADD160R,0.0175X0.0003*%
%ADD161R,0.0195X0.0003*%
%ADD162R,0.0200X0.0003*%
%ADD163R,0.0203X0.0003*%
%ADD164R,0.0213X0.0003*%
%ADD165R,0.0220X0.0003*%
%ADD166R,0.0227X0.0003*%
%ADD167R,0.0230X0.0003*%
%ADD168R,0.0232X0.0003*%
%ADD169R,0.0238X0.0003*%
%ADD170R,0.0245X0.0003*%
%ADD171R,0.0250X0.0003*%
%ADD172R,0.0253X0.0003*%
%ADD173R,0.0255X0.0003*%
%ADD174R,0.0305X0.0003*%
%ADD175R,0.0318X0.0003*%
%ADD176R,0.0328X0.0003*%
%ADD177R,0.0335X0.0003*%
%ADD178R,0.0340X0.0003*%
%ADD179R,0.0352X0.0003*%
%ADD180R,0.0387X0.0003*%
%ADD181R,0.0410X0.0003*%
%ADD182R,0.0413X0.0003*%
%ADD183R,0.0430X0.0003*%
%ADD184R,0.0432X0.0003*%
%ADD185R,0.0428X0.0003*%
%ADD186R,0.0420X0.0003*%
%ADD187R,0.0435X0.0003*%
%ADD188R,0.0425X0.0003*%
%ADD189R,0.0423X0.0003*%
%ADD190R,0.0418X0.0003*%
%ADD191R,0.0372X0.0003*%
%ADD192R,0.0362X0.0003*%
%ADD193R,0.0348X0.0003*%
%ADD194R,0.0345X0.0003*%
%ADD195R,0.0310X0.0003*%
%ADD196R,0.0300X0.0003*%
%ADD197R,0.0297X0.0003*%
%ADD198R,0.0285X0.0003*%
%ADD199R,0.0278X0.0003*%
%ADD200R,0.0265X0.0003*%
D10*
X021615Y014775D02*
X021615Y014905D01*
X021658Y014948D01*
X021832Y014948D01*
X021875Y014905D01*
X021875Y014775D01*
X021615Y014775D01*
X021615Y015070D02*
X021615Y015156D01*
X021615Y015113D02*
X021875Y015113D01*
X021875Y015070D02*
X021875Y015156D01*
X021875Y015266D02*
X021615Y015266D01*
X021875Y015440D01*
X021615Y015440D01*
X021918Y015561D02*
X021918Y015734D01*
X021875Y015855D02*
X021615Y015855D01*
X021875Y015855D02*
X021875Y016029D01*
X022615Y015986D02*
X022658Y016029D01*
X022745Y016029D01*
X022788Y015986D01*
X022788Y015855D01*
X022875Y015855D02*
X022615Y015855D01*
X022615Y015986D01*
X022788Y015942D02*
X022875Y016029D01*
X022918Y015734D02*
X022918Y015561D01*
X022875Y015440D02*
X022615Y015440D01*
X022615Y015266D02*
X022875Y015440D01*
X022875Y015266D02*
X022615Y015266D01*
X022615Y015156D02*
X022615Y015070D01*
X022615Y015113D02*
X022875Y015113D01*
X022875Y015070D02*
X022875Y015156D01*
X022832Y014948D02*
X022658Y014948D01*
X022615Y014905D01*
X022615Y014775D01*
X022875Y014775D01*
X022875Y014905D01*
X022832Y014948D01*
X027865Y013591D02*
X028125Y013591D01*
X028125Y013418D02*
X027865Y013418D01*
X027952Y013505D01*
X027865Y013591D01*
X027908Y013297D02*
X027865Y013253D01*
X027865Y013167D01*
X027908Y013123D01*
X028082Y013123D01*
X028125Y013167D01*
X028125Y013253D01*
X028082Y013297D01*
X027908Y013297D01*
X027908Y013002D02*
X027865Y012959D01*
X027865Y012872D01*
X027908Y012829D01*
X028082Y012829D01*
X028125Y012872D01*
X028125Y012959D01*
X028082Y013002D01*
X028168Y012707D02*
X028168Y012534D01*
X028125Y012326D02*
X027865Y012326D01*
X027865Y012239D02*
X027865Y012413D01*
X027865Y012118D02*
X028082Y012118D01*
X028125Y012075D01*
X028125Y011988D01*
X028082Y011945D01*
X027865Y011945D01*
X027908Y011823D02*
X027865Y011780D01*
X027865Y011693D01*
X027908Y011650D01*
X028082Y011650D01*
X028125Y011693D01*
X028125Y011780D01*
X028082Y011823D01*
X027908Y011823D01*
X031280Y013430D02*
X031494Y013430D01*
X031387Y013430D02*
X031387Y014071D01*
X031280Y014071D02*
X031494Y014071D01*
X031710Y013857D02*
X032030Y013857D01*
X032137Y013750D01*
X032137Y013430D01*
X031710Y013430D02*
X031710Y013857D01*
X031600Y017930D02*
X031387Y017930D01*
X031280Y018037D01*
X031280Y018464D01*
X031387Y018571D01*
X031600Y018571D01*
X031707Y018464D01*
X031707Y018037D01*
X031600Y017930D01*
X031925Y018037D02*
X032031Y017930D01*
X032352Y017930D01*
X032352Y018357D01*
X032569Y018357D02*
X032783Y018357D01*
X032676Y018464D02*
X032676Y018037D01*
X032783Y017930D01*
X031925Y018037D02*
X031925Y018357D01*
X024625Y009297D02*
X024625Y009123D01*
X024365Y009123D01*
X024668Y009002D02*
X024668Y008829D01*
X024625Y008621D02*
X024365Y008621D01*
X024365Y008707D02*
X024365Y008534D01*
X024365Y008413D02*
X024582Y008413D01*
X024625Y008369D01*
X024625Y008283D01*
X024582Y008239D01*
X024365Y008239D01*
X024408Y008118D02*
X024365Y008075D01*
X024365Y007988D01*
X024408Y007945D01*
X024582Y007945D01*
X024625Y007988D01*
X024625Y008075D01*
X024582Y008118D01*
X024408Y008118D01*
X024408Y007823D02*
X024365Y007780D01*
X024365Y007650D01*
X024625Y007650D01*
X024625Y007780D01*
X024582Y007823D01*
X024408Y007823D01*
X023625Y007780D02*
X023625Y007650D01*
X023365Y007650D01*
X023365Y007780D01*
X023408Y007823D01*
X023582Y007823D01*
X023625Y007780D01*
X023582Y007945D02*
X023625Y007988D01*
X023625Y008075D01*
X023582Y008118D01*
X023408Y008118D01*
X023365Y008075D01*
X023365Y007988D01*
X023408Y007945D01*
X023582Y007945D01*
X023582Y008239D02*
X023365Y008239D01*
X023365Y008413D02*
X023582Y008413D01*
X023625Y008369D01*
X023625Y008283D01*
X023582Y008239D01*
X023365Y008534D02*
X023365Y008707D01*
X023365Y008621D02*
X023625Y008621D01*
X023668Y008829D02*
X023668Y009002D01*
X023625Y009123D02*
X023365Y009123D01*
X023365Y009253D01*
X023408Y009297D01*
X023495Y009297D01*
X023538Y009253D01*
X023538Y009123D01*
X023538Y009210D02*
X023625Y009297D01*
X009375Y020240D02*
X009285Y020150D01*
X009165Y020230D01*
X009105Y020200D01*
X009015Y020430D01*
X009075Y020400D02*
X009125Y020250D01*
X009175Y020250D01*
X009275Y020200D01*
X009325Y020250D01*
X009275Y020350D01*
X009275Y020500D01*
X009425Y020550D01*
X009475Y020650D01*
X009325Y020650D01*
X009275Y020800D01*
X009325Y020950D01*
X009275Y021000D01*
X009175Y020900D01*
X009025Y020950D01*
X008975Y021100D01*
X008875Y021100D01*
X008875Y021000D01*
X008725Y020900D01*
X008575Y021000D01*
X008525Y020950D01*
X008625Y020800D01*
X008575Y020650D01*
X008425Y020650D01*
X008425Y020550D01*
X008525Y020550D01*
X008625Y020400D01*
X008525Y020250D01*
X008575Y020200D01*
X008725Y020250D01*
X008825Y020400D01*
X008775Y020450D01*
X008725Y020600D01*
X008775Y020750D01*
X008925Y020800D01*
X009075Y020750D01*
X009175Y020600D01*
X009075Y020400D01*
X009076Y020402D02*
X009275Y020402D01*
X009285Y020370D02*
X009345Y020500D01*
X009485Y020530D01*
X009485Y020660D01*
X009335Y020690D01*
X009285Y020810D01*
X009375Y020940D01*
X009285Y021030D01*
X009145Y020940D01*
X009025Y020990D01*
X008995Y021150D01*
X008865Y021150D01*
X008835Y020990D01*
X008715Y020940D01*
X008585Y021030D01*
X008495Y020940D01*
X008585Y020810D01*
X008525Y020680D01*
X008375Y020660D01*
X008375Y020530D01*
X008525Y020500D01*
X008575Y020370D01*
X008495Y020240D01*
X008585Y020150D01*
X008705Y020230D01*
X008755Y020200D01*
X008855Y020430D01*
X008823Y020402D02*
X008624Y020402D01*
X008587Y020344D02*
X008787Y020344D01*
X008748Y020285D02*
X008548Y020285D01*
X008548Y020227D02*
X008655Y020227D01*
X008585Y020461D02*
X008771Y020461D01*
X008752Y020519D02*
X008546Y020519D01*
X008425Y020578D02*
X008732Y020578D01*
X008737Y020636D02*
X008425Y020636D01*
X008590Y020695D02*
X008757Y020695D01*
X008784Y020753D02*
X008609Y020753D01*
X008617Y020812D02*
X009279Y020812D01*
X009291Y020753D02*
X009066Y020753D01*
X009112Y020695D02*
X009310Y020695D01*
X009468Y020636D02*
X009151Y020636D01*
X009164Y020578D02*
X009439Y020578D01*
X009332Y020519D02*
X009135Y020519D01*
X009105Y020461D02*
X009275Y020461D01*
X009285Y020370D02*
X009375Y020240D01*
X009302Y020227D02*
X009222Y020227D01*
X009307Y020285D02*
X009113Y020285D01*
X009094Y020344D02*
X009278Y020344D01*
X009015Y020430D02*
X009037Y020443D01*
X009057Y020459D01*
X009075Y020478D01*
X009090Y020500D01*
X009101Y020523D01*
X009109Y020548D01*
X009113Y020573D01*
X009114Y020599D01*
X009111Y020625D01*
X009104Y020650D01*
X009093Y020673D01*
X009080Y020695D01*
X009063Y020715D01*
X009044Y020732D01*
X009022Y020747D01*
X008998Y020757D01*
X008974Y020765D01*
X008948Y020769D01*
X008922Y020769D01*
X008896Y020765D01*
X008872Y020757D01*
X008848Y020747D01*
X008826Y020732D01*
X008807Y020715D01*
X008790Y020695D01*
X008777Y020673D01*
X008766Y020650D01*
X008759Y020625D01*
X008756Y020599D01*
X008757Y020573D01*
X008761Y020548D01*
X008769Y020523D01*
X008780Y020500D01*
X008795Y020478D01*
X008813Y020459D01*
X008833Y020443D01*
X008855Y020430D01*
X008578Y020870D02*
X009298Y020870D01*
X009318Y020929D02*
X009204Y020929D01*
X009262Y020987D02*
X009288Y020987D01*
X009089Y020929D02*
X008768Y020929D01*
X008682Y020929D02*
X008539Y020929D01*
X008562Y020987D02*
X008594Y020987D01*
X008856Y020987D02*
X009013Y020987D01*
X008993Y021046D02*
X008875Y021046D01*
D11*
X007250Y007150D02*
X007250Y003400D01*
X007252Y003346D01*
X007258Y003293D01*
X007267Y003241D01*
X007280Y003189D01*
X007297Y003138D01*
X007318Y003088D01*
X007342Y003041D01*
X007369Y002995D01*
X007400Y002951D01*
X007433Y002909D01*
X007470Y002870D01*
X007509Y002833D01*
X007551Y002800D01*
X007595Y002769D01*
X007641Y002742D01*
X007688Y002718D01*
X007738Y002697D01*
X007789Y002680D01*
X007841Y002667D01*
X007893Y002658D01*
X007946Y002652D01*
X008000Y002650D01*
X029500Y002650D01*
X031587Y005150D02*
X031589Y005202D01*
X031595Y005254D01*
X031605Y005305D01*
X031618Y005355D01*
X031636Y005405D01*
X031657Y005452D01*
X031681Y005498D01*
X031710Y005542D01*
X031741Y005584D01*
X031775Y005623D01*
X031812Y005660D01*
X031852Y005693D01*
X031895Y005724D01*
X031939Y005751D01*
X031985Y005775D01*
X032034Y005795D01*
X032083Y005811D01*
X032134Y005824D01*
X032185Y005833D01*
X032237Y005838D01*
X032289Y005839D01*
X032341Y005836D01*
X032393Y005829D01*
X032444Y005818D01*
X032494Y005804D01*
X032543Y005785D01*
X032590Y005763D01*
X032635Y005738D01*
X032679Y005709D01*
X032720Y005677D01*
X032759Y005642D01*
X032794Y005604D01*
X032827Y005563D01*
X032857Y005521D01*
X032883Y005476D01*
X032906Y005429D01*
X032925Y005380D01*
X032941Y005330D01*
X032953Y005280D01*
X032961Y005228D01*
X032965Y005176D01*
X032965Y005124D01*
X032961Y005072D01*
X032953Y005020D01*
X032941Y004970D01*
X032925Y004920D01*
X032906Y004871D01*
X032883Y004824D01*
X032857Y004779D01*
X032827Y004737D01*
X032794Y004696D01*
X032759Y004658D01*
X032720Y004623D01*
X032679Y004591D01*
X032635Y004562D01*
X032590Y004537D01*
X032543Y004515D01*
X032494Y004496D01*
X032444Y004482D01*
X032393Y004471D01*
X032341Y004464D01*
X032289Y004461D01*
X032237Y004462D01*
X032185Y004467D01*
X032134Y004476D01*
X032083Y004489D01*
X032034Y004505D01*
X031985Y004525D01*
X031939Y004549D01*
X031895Y004576D01*
X031852Y004607D01*
X031812Y004640D01*
X031775Y004677D01*
X031741Y004716D01*
X031710Y004758D01*
X031681Y004802D01*
X031657Y004848D01*
X031636Y004895D01*
X031618Y004945D01*
X031605Y004995D01*
X031595Y005046D01*
X031589Y005098D01*
X031587Y005150D01*
X029500Y002650D02*
X029738Y002656D01*
X029975Y002673D01*
X030212Y002701D01*
X030446Y002740D01*
X030679Y002791D01*
X030909Y002853D01*
X031135Y002925D01*
X031358Y003008D01*
X031577Y003102D01*
X031791Y003206D01*
X032000Y003320D01*
X032203Y003444D01*
X032400Y003577D01*
X032591Y003720D01*
X032774Y003871D01*
X032950Y004031D01*
X033119Y004200D01*
X033279Y004376D01*
X033430Y004559D01*
X033573Y004750D01*
X033706Y004947D01*
X033830Y005150D01*
X033944Y005359D01*
X034048Y005573D01*
X034142Y005792D01*
X034225Y006015D01*
X034297Y006241D01*
X034359Y006471D01*
X034410Y006704D01*
X034449Y006938D01*
X034477Y007175D01*
X034494Y007412D01*
X034500Y007650D01*
X034500Y019150D01*
X033487Y018989D02*
X033489Y019018D01*
X033495Y019047D01*
X033504Y019075D01*
X033517Y019102D01*
X033534Y019127D01*
X033553Y019149D01*
X033575Y019168D01*
X033600Y019185D01*
X033627Y019198D01*
X033655Y019207D01*
X033684Y019213D01*
X033713Y019215D01*
X033742Y019213D01*
X033771Y019207D01*
X033799Y019198D01*
X033826Y019185D01*
X033851Y019168D01*
X033873Y019149D01*
X033892Y019127D01*
X033909Y019102D01*
X033922Y019075D01*
X033931Y019047D01*
X033937Y019018D01*
X033939Y018989D01*
X033937Y018960D01*
X033931Y018931D01*
X033922Y018903D01*
X033909Y018876D01*
X033892Y018851D01*
X033873Y018829D01*
X033851Y018810D01*
X033826Y018793D01*
X033799Y018780D01*
X033771Y018771D01*
X033742Y018765D01*
X033713Y018763D01*
X033684Y018765D01*
X033655Y018771D01*
X033627Y018780D01*
X033600Y018793D01*
X033575Y018810D01*
X033553Y018829D01*
X033534Y018851D01*
X033517Y018876D01*
X033504Y018903D01*
X033495Y018931D01*
X033489Y018960D01*
X033487Y018989D01*
X033487Y017611D02*
X033489Y017640D01*
X033495Y017669D01*
X033504Y017697D01*
X033517Y017724D01*
X033534Y017749D01*
X033553Y017771D01*
X033575Y017790D01*
X033600Y017807D01*
X033627Y017820D01*
X033655Y017829D01*
X033684Y017835D01*
X033713Y017837D01*
X033742Y017835D01*
X033771Y017829D01*
X033799Y017820D01*
X033826Y017807D01*
X033851Y017790D01*
X033873Y017771D01*
X033892Y017749D01*
X033909Y017724D01*
X033922Y017697D01*
X033931Y017669D01*
X033937Y017640D01*
X033939Y017611D01*
X033937Y017582D01*
X033931Y017553D01*
X033922Y017525D01*
X033909Y017498D01*
X033892Y017473D01*
X033873Y017451D01*
X033851Y017432D01*
X033826Y017415D01*
X033799Y017402D01*
X033771Y017393D01*
X033742Y017387D01*
X033713Y017385D01*
X033684Y017387D01*
X033655Y017393D01*
X033627Y017402D01*
X033600Y017415D01*
X033575Y017432D01*
X033553Y017451D01*
X033534Y017473D01*
X033517Y017498D01*
X033504Y017525D01*
X033495Y017553D01*
X033489Y017582D01*
X033487Y017611D01*
X034500Y019150D02*
X034494Y019388D01*
X034477Y019625D01*
X034449Y019862D01*
X034410Y020096D01*
X034359Y020329D01*
X034297Y020559D01*
X034225Y020785D01*
X034142Y021008D01*
X034048Y021227D01*
X033944Y021441D01*
X033830Y021650D01*
X033706Y021853D01*
X033573Y022050D01*
X033430Y022241D01*
X033279Y022424D01*
X033119Y022600D01*
X032950Y022769D01*
X032774Y022929D01*
X032591Y023080D01*
X032400Y023223D01*
X032203Y023356D01*
X032000Y023480D01*
X031791Y023594D01*
X031577Y023698D01*
X031358Y023792D01*
X031135Y023875D01*
X030909Y023947D01*
X030679Y024009D01*
X030446Y024060D01*
X030212Y024099D01*
X029975Y024127D01*
X029738Y024144D01*
X029500Y024150D01*
X008000Y024150D01*
X007946Y024148D01*
X007893Y024142D01*
X007841Y024133D01*
X007789Y024120D01*
X007738Y024103D01*
X007688Y024082D01*
X007641Y024058D01*
X007595Y024031D01*
X007551Y024000D01*
X007509Y023967D01*
X007470Y023930D01*
X007433Y023891D01*
X007400Y023849D01*
X007369Y023805D01*
X007342Y023759D01*
X007318Y023712D01*
X007297Y023662D01*
X007280Y023611D01*
X007267Y023559D01*
X007258Y023507D01*
X007252Y023454D01*
X007250Y023400D01*
X007250Y019650D01*
X007252Y019594D01*
X007258Y019538D01*
X007267Y019482D01*
X007281Y019428D01*
X007298Y019374D01*
X007319Y019322D01*
X007343Y019272D01*
X007371Y019223D01*
X007403Y019176D01*
X007437Y019131D01*
X007474Y019089D01*
X007514Y019050D01*
X007557Y019014D01*
X007602Y018980D01*
X007650Y018950D01*
X007699Y018923D01*
X007750Y018900D01*
X007801Y018877D01*
X007850Y018850D01*
X007898Y018820D01*
X007943Y018786D01*
X007986Y018750D01*
X008026Y018711D01*
X008063Y018669D01*
X008097Y018624D01*
X008129Y018577D01*
X008157Y018528D01*
X008181Y018478D01*
X008202Y018426D01*
X008219Y018372D01*
X008233Y018318D01*
X008242Y018262D01*
X008248Y018206D01*
X008250Y018150D01*
X008250Y008650D01*
X008248Y008594D01*
X008242Y008538D01*
X008233Y008482D01*
X008219Y008428D01*
X008202Y008374D01*
X008181Y008322D01*
X008157Y008272D01*
X008129Y008223D01*
X008097Y008176D01*
X008063Y008131D01*
X008026Y008089D01*
X007986Y008050D01*
X007943Y008014D01*
X007898Y007980D01*
X007850Y007950D01*
X007801Y007923D01*
X007750Y007900D01*
X007699Y007877D01*
X007650Y007850D01*
X007602Y007820D01*
X007557Y007786D01*
X007514Y007750D01*
X007474Y007711D01*
X007437Y007669D01*
X007403Y007624D01*
X007371Y007577D01*
X007343Y007528D01*
X007319Y007478D01*
X007298Y007426D01*
X007281Y007372D01*
X007267Y007318D01*
X007258Y007262D01*
X007252Y007206D01*
X007250Y007150D01*
X031587Y021650D02*
X031589Y021702D01*
X031595Y021754D01*
X031605Y021805D01*
X031618Y021855D01*
X031636Y021905D01*
X031657Y021952D01*
X031681Y021998D01*
X031710Y022042D01*
X031741Y022084D01*
X031775Y022123D01*
X031812Y022160D01*
X031852Y022193D01*
X031895Y022224D01*
X031939Y022251D01*
X031985Y022275D01*
X032034Y022295D01*
X032083Y022311D01*
X032134Y022324D01*
X032185Y022333D01*
X032237Y022338D01*
X032289Y022339D01*
X032341Y022336D01*
X032393Y022329D01*
X032444Y022318D01*
X032494Y022304D01*
X032543Y022285D01*
X032590Y022263D01*
X032635Y022238D01*
X032679Y022209D01*
X032720Y022177D01*
X032759Y022142D01*
X032794Y022104D01*
X032827Y022063D01*
X032857Y022021D01*
X032883Y021976D01*
X032906Y021929D01*
X032925Y021880D01*
X032941Y021830D01*
X032953Y021780D01*
X032961Y021728D01*
X032965Y021676D01*
X032965Y021624D01*
X032961Y021572D01*
X032953Y021520D01*
X032941Y021470D01*
X032925Y021420D01*
X032906Y021371D01*
X032883Y021324D01*
X032857Y021279D01*
X032827Y021237D01*
X032794Y021196D01*
X032759Y021158D01*
X032720Y021123D01*
X032679Y021091D01*
X032635Y021062D01*
X032590Y021037D01*
X032543Y021015D01*
X032494Y020996D01*
X032444Y020982D01*
X032393Y020971D01*
X032341Y020964D01*
X032289Y020961D01*
X032237Y020962D01*
X032185Y020967D01*
X032134Y020976D01*
X032083Y020989D01*
X032034Y021005D01*
X031985Y021025D01*
X031939Y021049D01*
X031895Y021076D01*
X031852Y021107D01*
X031812Y021140D01*
X031775Y021177D01*
X031741Y021216D01*
X031710Y021258D01*
X031681Y021302D01*
X031657Y021348D01*
X031636Y021395D01*
X031618Y021445D01*
X031605Y021495D01*
X031595Y021546D01*
X031589Y021598D01*
X031587Y021650D01*
X033487Y014489D02*
X033489Y014518D01*
X033495Y014547D01*
X033504Y014575D01*
X033517Y014602D01*
X033534Y014627D01*
X033553Y014649D01*
X033575Y014668D01*
X033600Y014685D01*
X033627Y014698D01*
X033655Y014707D01*
X033684Y014713D01*
X033713Y014715D01*
X033742Y014713D01*
X033771Y014707D01*
X033799Y014698D01*
X033826Y014685D01*
X033851Y014668D01*
X033873Y014649D01*
X033892Y014627D01*
X033909Y014602D01*
X033922Y014575D01*
X033931Y014547D01*
X033937Y014518D01*
X033939Y014489D01*
X033937Y014460D01*
X033931Y014431D01*
X033922Y014403D01*
X033909Y014376D01*
X033892Y014351D01*
X033873Y014329D01*
X033851Y014310D01*
X033826Y014293D01*
X033799Y014280D01*
X033771Y014271D01*
X033742Y014265D01*
X033713Y014263D01*
X033684Y014265D01*
X033655Y014271D01*
X033627Y014280D01*
X033600Y014293D01*
X033575Y014310D01*
X033553Y014329D01*
X033534Y014351D01*
X033517Y014376D01*
X033504Y014403D01*
X033495Y014431D01*
X033489Y014460D01*
X033487Y014489D01*
X033487Y013111D02*
X033489Y013140D01*
X033495Y013169D01*
X033504Y013197D01*
X033517Y013224D01*
X033534Y013249D01*
X033553Y013271D01*
X033575Y013290D01*
X033600Y013307D01*
X033627Y013320D01*
X033655Y013329D01*
X033684Y013335D01*
X033713Y013337D01*
X033742Y013335D01*
X033771Y013329D01*
X033799Y013320D01*
X033826Y013307D01*
X033851Y013290D01*
X033873Y013271D01*
X033892Y013249D01*
X033909Y013224D01*
X033922Y013197D01*
X033931Y013169D01*
X033937Y013140D01*
X033939Y013111D01*
X033937Y013082D01*
X033931Y013053D01*
X033922Y013025D01*
X033909Y012998D01*
X033892Y012973D01*
X033873Y012951D01*
X033851Y012932D01*
X033826Y012915D01*
X033799Y012902D01*
X033771Y012893D01*
X033742Y012887D01*
X033713Y012885D01*
X033684Y012887D01*
X033655Y012893D01*
X033627Y012902D01*
X033600Y012915D01*
X033575Y012932D01*
X033553Y012951D01*
X033534Y012973D01*
X033517Y012998D01*
X033504Y013025D01*
X033495Y013053D01*
X033489Y013082D01*
X033487Y013111D01*
D12*
X030250Y004900D02*
X029750Y004900D01*
X029500Y004650D01*
X029500Y003150D01*
X029750Y002900D01*
X030250Y002900D01*
X030500Y003150D01*
X030500Y004650D01*
X030250Y004900D01*
X029500Y004650D02*
X029250Y004900D01*
X028750Y004900D01*
X028500Y004650D01*
X028500Y003150D01*
X028750Y002900D01*
X029250Y002900D01*
X029500Y003150D01*
X028500Y003150D02*
X028250Y002900D01*
X027750Y002900D01*
X027500Y003150D01*
X027500Y004650D01*
X027750Y004900D01*
X028250Y004900D01*
X028500Y004650D01*
X027500Y004650D02*
X027250Y004900D01*
X026750Y004900D01*
X026500Y004650D01*
X026500Y003150D01*
X026750Y002900D01*
X027250Y002900D01*
X027500Y003150D01*
X026500Y003150D02*
X026250Y002900D01*
X025750Y002900D01*
X025500Y003150D01*
X025500Y004650D01*
X025750Y004900D01*
X026250Y004900D01*
X026500Y004650D01*
X025500Y004650D02*
X025250Y004900D01*
X024750Y004900D01*
X024500Y004650D01*
X024500Y003150D01*
X024750Y002900D01*
X025250Y002900D01*
X025500Y003150D01*
X024500Y003150D02*
X024250Y002900D01*
X023750Y002900D01*
X023500Y003150D01*
X023500Y004650D01*
X023750Y004900D01*
X024250Y004900D01*
X024500Y004650D01*
X023500Y004650D02*
X023250Y004900D01*
X022750Y004900D01*
X022500Y004650D01*
X022500Y003150D01*
X022250Y002900D01*
X021750Y002900D01*
X021500Y003150D01*
X021500Y004650D01*
X021750Y004900D01*
X022250Y004900D01*
X022500Y004650D01*
X021500Y004650D02*
X021250Y004900D01*
X020750Y004900D01*
X020500Y004650D01*
X020500Y003150D01*
X020250Y002900D01*
X019750Y002900D01*
X019500Y003150D01*
X019500Y004650D01*
X019750Y004900D01*
X020250Y004900D01*
X020500Y004650D01*
X019500Y004650D02*
X019250Y004900D01*
X018750Y004900D01*
X018500Y004650D01*
X018500Y003150D01*
X018250Y002900D01*
X017750Y002900D01*
X017500Y003150D01*
X017500Y004650D01*
X017750Y004900D01*
X018250Y004900D01*
X018500Y004650D01*
X017500Y004650D02*
X017250Y004900D01*
X016750Y004900D01*
X016500Y004650D01*
X016500Y003150D01*
X016250Y002900D01*
X015750Y002900D01*
X015500Y003150D01*
X015500Y004650D01*
X015750Y004900D01*
X016250Y004900D01*
X016500Y004650D01*
X015500Y004650D02*
X015250Y004900D01*
X014750Y004900D01*
X014500Y004650D01*
X014500Y003150D01*
X014250Y002900D01*
X013750Y002900D01*
X013500Y003150D01*
X013500Y004650D01*
X013750Y004900D01*
X014250Y004900D01*
X014500Y004650D01*
X013500Y004650D02*
X013250Y004900D01*
X012750Y004900D01*
X012500Y004650D01*
X012500Y003150D01*
X012750Y002900D01*
X013250Y002900D01*
X013500Y003150D01*
X014500Y003150D02*
X014750Y002900D01*
X015250Y002900D01*
X015500Y003150D01*
X016500Y003150D02*
X016750Y002900D01*
X017250Y002900D01*
X017500Y003150D01*
X018500Y003150D02*
X018750Y002900D01*
X019250Y002900D01*
X019500Y003150D01*
X020500Y003150D02*
X020750Y002900D01*
X021250Y002900D01*
X021500Y003150D01*
X022500Y003150D02*
X022750Y002900D01*
X023250Y002900D01*
X023500Y003150D01*
X012500Y003150D02*
X012250Y002900D01*
X011750Y002900D01*
X011500Y003150D01*
X011500Y004650D01*
X011750Y004900D01*
X012250Y004900D01*
X012500Y004650D01*
X011500Y004650D02*
X011250Y004900D01*
X010750Y004900D01*
X010500Y004650D01*
X010500Y003150D01*
X010750Y002900D01*
X011250Y002900D01*
X011500Y003150D01*
X010500Y003150D02*
X010250Y002900D01*
X009750Y002900D01*
X009500Y003150D01*
X009500Y004650D01*
X009750Y004900D01*
X010250Y004900D01*
X010500Y004650D01*
X009500Y004650D02*
X009250Y004900D01*
X008750Y004900D01*
X008500Y004650D01*
X008500Y003150D01*
X008750Y002900D01*
X009250Y002900D01*
X009500Y003150D01*
X008500Y003150D02*
X008250Y002900D01*
X007750Y002900D01*
X007500Y003150D01*
X007500Y004650D01*
X007750Y004900D01*
X008250Y004900D01*
X008500Y004650D01*
X008250Y021900D02*
X007750Y021900D01*
X007500Y022150D01*
X007500Y023650D01*
X007750Y023900D01*
X008250Y023900D01*
X008500Y023650D01*
X008500Y022150D01*
X008750Y021900D01*
X009250Y021900D01*
X009500Y022150D01*
X009500Y023650D01*
X009750Y023900D01*
X010250Y023900D01*
X010500Y023650D01*
X010500Y022150D01*
X010750Y021900D01*
X011250Y021900D01*
X011500Y022150D01*
X011500Y023650D01*
X011750Y023900D01*
X012250Y023900D01*
X012500Y023650D01*
X012500Y022150D01*
X012750Y021900D01*
X013250Y021900D01*
X013500Y022150D01*
X013500Y023650D01*
X013750Y023900D01*
X014250Y023900D01*
X014500Y023650D01*
X014500Y022150D01*
X014250Y021900D01*
X013750Y021900D01*
X013500Y022150D01*
X014500Y022150D02*
X014750Y021900D01*
X015250Y021900D01*
X015500Y022150D01*
X015500Y023650D01*
X015750Y023900D01*
X016250Y023900D01*
X016500Y023650D01*
X016500Y022150D01*
X016250Y021900D01*
X015750Y021900D01*
X015500Y022150D01*
X016500Y022150D02*
X016750Y021900D01*
X017250Y021900D01*
X017500Y022150D01*
X017500Y023650D01*
X017750Y023900D01*
X018250Y023900D01*
X018500Y023650D01*
X018500Y022150D01*
X018250Y021900D01*
X017750Y021900D01*
X017500Y022150D01*
X018500Y022150D02*
X018750Y021900D01*
X019250Y021900D01*
X019500Y022150D01*
X019500Y023650D01*
X019750Y023900D01*
X020250Y023900D01*
X020500Y023650D01*
X020500Y022150D01*
X020250Y021900D01*
X019750Y021900D01*
X019500Y022150D01*
X020500Y022150D02*
X020750Y021900D01*
X021250Y021900D01*
X021500Y022150D01*
X021500Y023650D01*
X021750Y023900D01*
X022250Y023900D01*
X022500Y023650D01*
X022500Y022150D01*
X022250Y021900D01*
X021750Y021900D01*
X021500Y022150D01*
X022500Y022150D02*
X022750Y021900D01*
X023250Y021900D01*
X023500Y022150D01*
X023750Y021900D01*
X024250Y021900D01*
X024500Y022150D01*
X024750Y021900D01*
X025250Y021900D01*
X025500Y022150D01*
X025750Y021900D01*
X026250Y021900D01*
X026500Y022150D01*
X026750Y021900D01*
X027250Y021900D01*
X027500Y022150D01*
X027750Y021900D01*
X028250Y021900D01*
X028500Y022150D01*
X028750Y021900D01*
X029250Y021900D01*
X029500Y022150D01*
X029750Y021900D01*
X030250Y021900D01*
X030500Y022150D01*
X030500Y023650D01*
X030250Y023900D01*
X029750Y023900D01*
X029500Y023650D01*
X029500Y022150D01*
X028500Y022150D02*
X028500Y023650D01*
X028750Y023900D01*
X029250Y023900D01*
X029500Y023650D01*
X028500Y023650D02*
X028250Y023900D01*
X027750Y023900D01*
X027500Y023650D01*
X027500Y022150D01*
X026500Y022150D02*
X026500Y023650D01*
X026750Y023900D01*
X027250Y023900D01*
X027500Y023650D01*
X026500Y023650D02*
X026250Y023900D01*
X025750Y023900D01*
X025500Y023650D01*
X025500Y022150D01*
X024500Y022150D02*
X024500Y023650D01*
X024750Y023900D01*
X025250Y023900D01*
X025500Y023650D01*
X024500Y023650D02*
X024250Y023900D01*
X023750Y023900D01*
X023500Y023650D01*
X023500Y022150D01*
X023500Y023650D02*
X023250Y023900D01*
X022750Y023900D01*
X022500Y023650D01*
X021500Y023650D02*
X021250Y023900D01*
X020750Y023900D01*
X020500Y023650D01*
X019500Y023650D02*
X019250Y023900D01*
X018750Y023900D01*
X018500Y023650D01*
X017500Y023650D02*
X017250Y023900D01*
X016750Y023900D01*
X016500Y023650D01*
X015500Y023650D02*
X015250Y023900D01*
X014750Y023900D01*
X014500Y023650D01*
X013500Y023650D02*
X013250Y023900D01*
X012750Y023900D01*
X012500Y023650D01*
X011500Y023650D02*
X011250Y023900D01*
X010750Y023900D01*
X010500Y023650D01*
X009500Y023650D02*
X009250Y023900D01*
X008750Y023900D01*
X008500Y023650D01*
X008500Y022150D02*
X008250Y021900D01*
X009500Y022150D02*
X009750Y021900D01*
X010250Y021900D01*
X010500Y022150D01*
X011500Y022150D02*
X011750Y021900D01*
X012250Y021900D01*
X012500Y022150D01*
D13*
X012535Y020870D03*
X012535Y020860D03*
X012535Y020850D03*
X012535Y020840D03*
X012535Y020830D03*
X012535Y020820D03*
X012535Y020810D03*
X012535Y020800D03*
X012535Y020790D03*
X012535Y020780D03*
X012535Y020770D03*
X012535Y020760D03*
X012535Y020750D03*
X012535Y020740D03*
X012535Y020730D03*
X012535Y020720D03*
X012535Y020710D03*
X012535Y020700D03*
X012535Y020670D03*
X012535Y020660D03*
X012535Y020650D03*
X012535Y020640D03*
X012535Y020630D03*
X012535Y020620D03*
X012535Y020610D03*
X012535Y020600D03*
X012535Y020590D03*
X012535Y020580D03*
X012535Y020570D03*
X012535Y020560D03*
X012535Y020550D03*
X012535Y020540D03*
X012535Y020530D03*
X012535Y020520D03*
X012535Y020510D03*
X012535Y020500D03*
X012535Y020490D03*
X012535Y020480D03*
X012535Y020470D03*
X012535Y020460D03*
X012535Y020450D03*
X012535Y020440D03*
X012725Y020440D03*
X012725Y020450D03*
X012725Y020460D03*
X012725Y020470D03*
X012725Y020480D03*
X012725Y020490D03*
X012725Y020500D03*
X012725Y020510D03*
X012725Y020520D03*
X012725Y020530D03*
X012725Y020540D03*
X012725Y020550D03*
X012725Y020560D03*
X012725Y020570D03*
X012725Y020580D03*
X012725Y020590D03*
X012725Y020600D03*
X012725Y020610D03*
X012725Y020620D03*
X012725Y020630D03*
X012725Y020640D03*
X012725Y020650D03*
X012725Y020660D03*
X012715Y020680D03*
X012715Y020690D03*
X012865Y020690D03*
X012865Y020700D03*
X012865Y020710D03*
X012865Y020720D03*
X012865Y020730D03*
X012865Y020680D03*
X012865Y020670D03*
X012865Y020660D03*
X012865Y020650D03*
X012865Y020640D03*
X012865Y020630D03*
X012865Y020620D03*
X012865Y020610D03*
X012865Y020600D03*
X012865Y020590D03*
X012865Y020580D03*
X012865Y020570D03*
X012865Y020560D03*
X012865Y020550D03*
X012865Y020540D03*
X012865Y020530D03*
X012865Y020520D03*
X012875Y020500D03*
X012875Y020490D03*
X013065Y020510D03*
X013065Y020520D03*
X013065Y020530D03*
X013065Y020540D03*
X013065Y020550D03*
X013065Y020560D03*
X013065Y020570D03*
X013065Y020580D03*
X013065Y020590D03*
X013065Y020600D03*
X013065Y020610D03*
X013065Y020620D03*
X013065Y020630D03*
X013065Y020640D03*
X013065Y020650D03*
X013065Y020660D03*
X013065Y020670D03*
X013065Y020680D03*
X013065Y020690D03*
X013065Y020700D03*
X013065Y020710D03*
X013065Y020720D03*
X013065Y020730D03*
X013205Y020730D03*
X013205Y020740D03*
X013205Y020750D03*
X013205Y020760D03*
X013205Y020770D03*
X013205Y020780D03*
X013205Y020790D03*
X013205Y020800D03*
X013205Y020810D03*
X013205Y020820D03*
X013205Y020830D03*
X013205Y020840D03*
X013205Y020850D03*
X013205Y020860D03*
X013205Y020870D03*
X013205Y020720D03*
X013205Y020710D03*
X013205Y020700D03*
X013205Y020670D03*
X013205Y020660D03*
X013205Y020650D03*
X013205Y020640D03*
X013205Y020630D03*
X013205Y020620D03*
X013205Y020610D03*
X013205Y020600D03*
X013205Y020590D03*
X013205Y020580D03*
X013205Y020570D03*
X013205Y020560D03*
X013205Y020550D03*
X013205Y020540D03*
X013205Y020530D03*
X013205Y020520D03*
X013205Y020510D03*
X013205Y020500D03*
X013385Y020490D03*
X013395Y020500D03*
X013405Y020520D03*
X013415Y020550D03*
X013415Y020560D03*
X013415Y020570D03*
X013415Y020580D03*
X013415Y020590D03*
X013415Y020600D03*
X013415Y020610D03*
X013415Y020620D03*
X013415Y020630D03*
X013415Y020640D03*
X013405Y020660D03*
X013405Y020670D03*
X013395Y020680D03*
X013525Y020490D03*
X013525Y020450D03*
X013655Y020510D03*
X013645Y020530D03*
X013635Y020580D03*
X013635Y020590D03*
X013635Y020600D03*
X013645Y020650D03*
X013655Y020670D03*
X013665Y020680D03*
X013815Y020700D03*
X013925Y020650D03*
X013925Y020640D03*
X013935Y020670D03*
X013945Y020680D03*
X013955Y020690D03*
X013915Y020600D03*
X013915Y020590D03*
X013915Y020580D03*
X013925Y020540D03*
X013925Y020530D03*
X013935Y020510D03*
X013945Y020500D03*
X013955Y020490D03*
X013815Y020480D03*
X014115Y020490D03*
X014125Y020500D03*
X014135Y020510D03*
X014145Y020530D03*
X014145Y020540D03*
X014155Y020580D03*
X014155Y020590D03*
X014155Y020600D03*
X014145Y020640D03*
X014145Y020650D03*
X014135Y020670D03*
X014125Y020680D03*
X014115Y020690D03*
X014285Y020670D03*
X014285Y020660D03*
X014285Y020650D03*
X014285Y020640D03*
X014285Y020630D03*
X014285Y020620D03*
X014285Y020610D03*
X014285Y020600D03*
X014285Y020590D03*
X014285Y020580D03*
X014285Y020570D03*
X014285Y020560D03*
X014285Y020550D03*
X014285Y020540D03*
X014285Y020530D03*
X014285Y020520D03*
X014285Y020510D03*
X014285Y020500D03*
X014285Y020490D03*
X014285Y020480D03*
X014285Y020470D03*
X014285Y020460D03*
X014285Y020450D03*
X014285Y020440D03*
X014455Y020440D03*
X014455Y020450D03*
X014455Y020460D03*
X014455Y020470D03*
X014455Y020480D03*
X014455Y020490D03*
X014455Y020500D03*
X014455Y020510D03*
X014455Y020520D03*
X014455Y020530D03*
X014455Y020540D03*
X014455Y020550D03*
X014455Y020560D03*
X014455Y020570D03*
X014455Y020580D03*
X014455Y020590D03*
X014455Y020600D03*
X014455Y020610D03*
X014455Y020620D03*
X014455Y020630D03*
X014455Y020640D03*
X014455Y020650D03*
X014455Y020660D03*
X014625Y020680D03*
X014625Y020690D03*
X014635Y020660D03*
X014635Y020650D03*
X014635Y020640D03*
X014635Y020630D03*
X014635Y020620D03*
X014635Y020610D03*
X014635Y020600D03*
X014635Y020590D03*
X014635Y020580D03*
X014635Y020570D03*
X014635Y020560D03*
X014635Y020550D03*
X014635Y020540D03*
X014635Y020530D03*
X014635Y020520D03*
X014635Y020510D03*
X014635Y020500D03*
X014635Y020490D03*
X014635Y020480D03*
X014635Y020470D03*
X014635Y020460D03*
X014635Y020450D03*
X014635Y020440D03*
X014985Y020380D03*
X014995Y020400D03*
X014995Y020410D03*
X014995Y020420D03*
X014995Y020430D03*
X014995Y020440D03*
X014995Y020450D03*
X014995Y020460D03*
X014995Y020470D03*
X014995Y020480D03*
X014995Y020490D03*
X014995Y020500D03*
X014995Y020510D03*
X014995Y020520D03*
X014995Y020530D03*
X014995Y020540D03*
X014995Y020550D03*
X014995Y020560D03*
X014995Y020570D03*
X014995Y020580D03*
X014995Y020590D03*
X014995Y020600D03*
X014995Y020610D03*
X014995Y020620D03*
X014995Y020630D03*
X014995Y020640D03*
X014995Y020650D03*
X014995Y020660D03*
X014995Y020670D03*
X014995Y020680D03*
X014995Y020690D03*
X014995Y020700D03*
X014995Y020710D03*
X014995Y020720D03*
X014995Y020730D03*
X014995Y020810D03*
X014995Y020850D03*
X015145Y020690D03*
X015155Y020560D03*
X015125Y020520D03*
X015125Y020510D03*
X015125Y020500D03*
X015135Y020480D03*
X015245Y020470D03*
X015315Y020510D03*
X015315Y020520D03*
X015315Y020530D03*
X015315Y020540D03*
X015315Y020550D03*
X015315Y020560D03*
X015315Y020570D03*
X015315Y020610D03*
X015315Y020620D03*
X015315Y020630D03*
X015315Y020640D03*
X015305Y020680D03*
X015295Y020690D03*
X015455Y020670D03*
X015455Y020660D03*
X015455Y020650D03*
X015455Y020640D03*
X015455Y020630D03*
X015455Y020620D03*
X015455Y020610D03*
X015455Y020600D03*
X015455Y020590D03*
X015455Y020580D03*
X015455Y020570D03*
X015455Y020560D03*
X015455Y020550D03*
X015455Y020540D03*
X015455Y020530D03*
X015455Y020520D03*
X015455Y020510D03*
X015455Y020500D03*
X015455Y020490D03*
X015455Y020480D03*
X015455Y020470D03*
X015455Y020460D03*
X015455Y020450D03*
X015455Y020440D03*
X015645Y020440D03*
X015645Y020450D03*
X015645Y020460D03*
X015645Y020470D03*
X015645Y020480D03*
X015645Y020490D03*
X015645Y020500D03*
X015645Y020510D03*
X015645Y020520D03*
X015645Y020530D03*
X015645Y020540D03*
X015645Y020550D03*
X015645Y020560D03*
X015645Y020570D03*
X015645Y020580D03*
X015645Y020590D03*
X015645Y020600D03*
X015645Y020610D03*
X015645Y020620D03*
X015645Y020630D03*
X015645Y020640D03*
X015645Y020650D03*
X015645Y020660D03*
X015635Y020680D03*
X015635Y020690D03*
X015805Y020750D03*
X015815Y020760D03*
X015825Y020770D03*
X015915Y020770D03*
X015915Y020780D03*
X015915Y020790D03*
X015915Y020760D03*
X015915Y020750D03*
X015915Y020740D03*
X015915Y020730D03*
X015915Y020720D03*
X015915Y020710D03*
X015915Y020700D03*
X015915Y020690D03*
X015915Y020680D03*
X015915Y020670D03*
X015915Y020660D03*
X015915Y020650D03*
X015915Y020640D03*
X015915Y020630D03*
X015915Y020620D03*
X015915Y020610D03*
X015915Y020600D03*
X015915Y020590D03*
X015915Y020580D03*
X015915Y020570D03*
X015915Y020560D03*
X015915Y020550D03*
X015915Y020540D03*
X015915Y020530D03*
X015915Y020520D03*
X015915Y020510D03*
X015915Y020500D03*
X015915Y020490D03*
X015915Y020480D03*
X016125Y020630D03*
X016115Y020650D03*
X016115Y020660D03*
X016135Y020700D03*
X016255Y020550D03*
X016265Y020540D03*
X016265Y020530D03*
X016255Y020490D03*
X016245Y020480D03*
X015915Y020850D03*
X012325Y020690D03*
X012325Y020680D03*
X012325Y020670D03*
X012325Y020660D03*
X012325Y020650D03*
X012325Y020640D03*
X012325Y020630D03*
X012325Y020620D03*
X012325Y020610D03*
X012325Y020600D03*
X012325Y020590D03*
X012325Y020580D03*
X012325Y020570D03*
X012325Y020560D03*
X012325Y020550D03*
X012325Y020540D03*
X012325Y020530D03*
X012325Y020520D03*
X012325Y020510D03*
X012335Y020480D03*
X012155Y020480D03*
X012155Y020490D03*
X012155Y020500D03*
X012155Y020510D03*
X012155Y020520D03*
X012155Y020530D03*
X012155Y020540D03*
X012155Y020550D03*
X012155Y020560D03*
X012155Y020570D03*
X012155Y020580D03*
X012155Y020590D03*
X012155Y020600D03*
X012155Y020610D03*
X012155Y020620D03*
X012155Y020630D03*
X012155Y020640D03*
X012155Y020650D03*
X012155Y020660D03*
X012155Y020670D03*
X012155Y020680D03*
X012155Y020690D03*
X012155Y020700D03*
X012155Y020710D03*
X012155Y020720D03*
X012155Y020730D03*
X012155Y020810D03*
X012155Y020850D03*
X012005Y020690D03*
X011855Y020700D03*
X011835Y020650D03*
X011835Y020640D03*
X011845Y020510D03*
X011825Y020390D03*
X011925Y020340D03*
X012015Y020380D03*
X012045Y020430D03*
X012045Y020440D03*
X012035Y020450D03*
X012155Y020450D03*
X012155Y020460D03*
X012155Y020470D03*
X012155Y020440D03*
X011335Y020450D03*
X011335Y020490D03*
X011205Y020530D03*
X011205Y020540D03*
X011195Y020550D03*
X011195Y020490D03*
X011185Y020480D03*
X011065Y020630D03*
X011055Y020650D03*
X011055Y020660D03*
X011075Y020700D03*
X010945Y020660D03*
X010945Y020650D03*
X010935Y020680D03*
X010925Y020690D03*
X010955Y020610D03*
X010955Y020600D03*
X010955Y020590D03*
X010955Y020580D03*
X010945Y020540D03*
X010945Y020530D03*
X010935Y020510D03*
X010925Y020500D03*
X010745Y020500D03*
X010745Y020510D03*
X010745Y020520D03*
X010745Y020530D03*
X010745Y020540D03*
X010745Y020550D03*
X010745Y020560D03*
X010745Y020570D03*
X010745Y020580D03*
X010745Y020590D03*
X010745Y020600D03*
X010745Y020610D03*
X010745Y020620D03*
X010745Y020630D03*
X010745Y020640D03*
X010745Y020650D03*
X010745Y020660D03*
X010745Y020670D03*
X010745Y020470D03*
X010745Y020460D03*
X010745Y020450D03*
X010745Y020440D03*
X010745Y020430D03*
X010745Y020420D03*
X010745Y020410D03*
X010745Y020400D03*
X010745Y020390D03*
X010745Y020380D03*
X010745Y020370D03*
X010745Y020360D03*
X010745Y020350D03*
X010745Y020340D03*
X010545Y020480D03*
X010535Y020510D03*
X010535Y020520D03*
X010535Y020530D03*
X010535Y020540D03*
X010535Y020550D03*
X010535Y020560D03*
X010535Y020570D03*
X010535Y020580D03*
X010535Y020590D03*
X010535Y020600D03*
X010535Y020610D03*
X010535Y020620D03*
X010535Y020630D03*
X010535Y020640D03*
X010535Y020650D03*
X010535Y020660D03*
X010535Y020670D03*
X010535Y020680D03*
X010535Y020690D03*
X010305Y020690D03*
X010305Y020680D03*
X010305Y020670D03*
X010305Y020660D03*
X010305Y020650D03*
X010305Y020640D03*
X010305Y020630D03*
X010305Y020620D03*
X010305Y020610D03*
X010305Y020600D03*
X010305Y020590D03*
X010305Y020580D03*
X010305Y020570D03*
X010305Y020560D03*
X010305Y020550D03*
X010305Y020540D03*
X010305Y020530D03*
X010305Y020520D03*
X010305Y020510D03*
X010315Y020480D03*
X010155Y020480D03*
X010155Y020490D03*
X010155Y020500D03*
X010155Y020510D03*
X010155Y020520D03*
X010155Y020530D03*
X010155Y020540D03*
X010155Y020550D03*
X010155Y020560D03*
X010155Y020570D03*
X010155Y020580D03*
X010155Y020590D03*
X010155Y020600D03*
X010155Y020610D03*
X010155Y020620D03*
X010155Y020630D03*
X010155Y020640D03*
X010155Y020650D03*
X010155Y020660D03*
X010145Y020680D03*
X010145Y020690D03*
X009965Y020700D03*
X009965Y020710D03*
X009965Y020720D03*
X009965Y020730D03*
X009965Y020740D03*
X009965Y020750D03*
X009965Y020760D03*
X009965Y020770D03*
X009965Y020780D03*
X009965Y020790D03*
X009965Y020800D03*
X009965Y020810D03*
X009965Y020820D03*
X009965Y020830D03*
X009965Y020840D03*
X009965Y020850D03*
X009965Y020860D03*
X009965Y020870D03*
X009965Y020670D03*
X009965Y020660D03*
X009965Y020650D03*
X009965Y020640D03*
X009965Y020630D03*
X009965Y020620D03*
X009965Y020610D03*
X009965Y020600D03*
X009965Y020590D03*
X009965Y020580D03*
X009965Y020570D03*
X009965Y020560D03*
X009965Y020550D03*
X009965Y020540D03*
X009965Y020530D03*
X009965Y020520D03*
X009965Y020510D03*
X009965Y020500D03*
X009965Y020490D03*
X009965Y020480D03*
X009965Y020470D03*
X009965Y020460D03*
X009965Y020450D03*
X009965Y020440D03*
X010155Y020440D03*
X010155Y020450D03*
X010155Y020460D03*
X010155Y020470D03*
X011335Y020670D03*
X011335Y020710D03*
D14*
X011530Y020650D03*
X011540Y020680D03*
X011550Y020700D03*
X011560Y020730D03*
X011570Y020750D03*
X011580Y020780D03*
X011600Y020830D03*
X011760Y020780D03*
X011750Y020750D03*
X011740Y020730D03*
X011730Y020700D03*
X011720Y020680D03*
X011710Y020650D03*
X011690Y020600D03*
X011670Y020550D03*
X011650Y020500D03*
X011630Y020450D03*
X011470Y020500D03*
X011490Y020550D03*
X011510Y020600D03*
X011450Y020450D03*
X011200Y020500D03*
X011200Y020510D03*
X011200Y020520D03*
X011050Y020480D03*
X010940Y020520D03*
X010950Y020550D03*
X010950Y020560D03*
X010950Y020570D03*
X010950Y020620D03*
X010950Y020630D03*
X010950Y020640D03*
X010940Y020670D03*
X011060Y020670D03*
X011060Y020680D03*
X011060Y020690D03*
X011060Y020640D03*
X010740Y020700D03*
X010740Y020710D03*
X010740Y020720D03*
X010740Y020730D03*
X010540Y020730D03*
X010540Y020740D03*
X010540Y020750D03*
X010540Y020760D03*
X010540Y020770D03*
X010540Y020780D03*
X010540Y020790D03*
X010540Y020800D03*
X010310Y020800D03*
X010310Y020790D03*
X010310Y020780D03*
X010310Y020770D03*
X010310Y020760D03*
X010310Y020750D03*
X010310Y020740D03*
X010310Y020730D03*
X010150Y020670D03*
X010310Y020500D03*
X010310Y020490D03*
X010540Y020490D03*
X010540Y020500D03*
X011820Y020430D03*
X011820Y020420D03*
X011820Y020410D03*
X011820Y020400D03*
X011830Y020450D03*
X011840Y020520D03*
X011860Y020590D03*
X011850Y020600D03*
X011840Y020610D03*
X011840Y020620D03*
X011840Y020630D03*
X011840Y020660D03*
X011840Y020670D03*
X011840Y020680D03*
X011850Y020690D03*
X011780Y020830D03*
X012010Y020680D03*
X012010Y020670D03*
X012020Y020650D03*
X012020Y020640D03*
X012010Y020620D03*
X012010Y020610D03*
X012000Y020600D03*
X011990Y020590D03*
X012040Y020420D03*
X012040Y020410D03*
X012040Y020400D03*
X012030Y020390D03*
X012330Y020490D03*
X012330Y020500D03*
X012330Y020730D03*
X012330Y020740D03*
X012330Y020750D03*
X012330Y020760D03*
X012330Y020770D03*
X012330Y020780D03*
X012330Y020790D03*
X012330Y020800D03*
X012720Y020670D03*
X012870Y020510D03*
X013010Y020480D03*
X013070Y020480D03*
X013070Y020470D03*
X013070Y020460D03*
X013070Y020450D03*
X013200Y020450D03*
X013200Y020460D03*
X013200Y020470D03*
X013400Y020510D03*
X013410Y020530D03*
X013410Y020540D03*
X013410Y020650D03*
X013520Y020500D03*
X013640Y020540D03*
X013640Y020550D03*
X013640Y020560D03*
X013640Y020570D03*
X013640Y020610D03*
X013640Y020620D03*
X013640Y020630D03*
X013640Y020640D03*
X013650Y020660D03*
X013750Y020740D03*
X013930Y020660D03*
X013920Y020630D03*
X013920Y020620D03*
X013920Y020610D03*
X013920Y020570D03*
X013920Y020560D03*
X013920Y020550D03*
X013930Y020520D03*
X014140Y020520D03*
X014150Y020550D03*
X014150Y020560D03*
X014150Y020570D03*
X014150Y020610D03*
X014150Y020620D03*
X014150Y020630D03*
X014140Y020660D03*
X014280Y020700D03*
X014280Y020710D03*
X014280Y020720D03*
X014280Y020730D03*
X014430Y020700D03*
X014440Y020690D03*
X014440Y020680D03*
X014500Y020700D03*
X014630Y020670D03*
X014800Y020600D03*
X014780Y020550D03*
X014760Y020500D03*
X014740Y020450D03*
X014820Y020650D03*
X014830Y020680D03*
X014840Y020700D03*
X014850Y020730D03*
X014860Y020750D03*
X014870Y020780D03*
X014890Y020830D03*
X015140Y020550D03*
X015130Y020540D03*
X015130Y020530D03*
X015130Y020490D03*
X014990Y020390D03*
X014930Y020340D03*
X015320Y020450D03*
X015320Y020460D03*
X015320Y020470D03*
X015320Y020480D03*
X015310Y020650D03*
X015310Y020660D03*
X015310Y020670D03*
X015450Y020700D03*
X015450Y020710D03*
X015450Y020720D03*
X015450Y020730D03*
X015640Y020670D03*
X015920Y020860D03*
X016120Y020690D03*
X016120Y020680D03*
X016120Y020670D03*
X016120Y020640D03*
X016110Y020480D03*
X016260Y020500D03*
X016260Y020510D03*
X016260Y020520D03*
X013660Y020500D03*
X013650Y020520D03*
D15*
X013315Y020460D03*
X013325Y020720D03*
X012945Y020460D03*
X012375Y020470D03*
X012005Y020710D03*
X011925Y020570D03*
X011925Y020350D03*
X011135Y020720D03*
X010865Y020720D03*
X010855Y020460D03*
X010585Y020470D03*
X010355Y020470D03*
X014385Y020710D03*
X015195Y020460D03*
X016195Y020720D03*
D16*
X016235Y020570D03*
X015905Y020830D03*
X015465Y020690D03*
X015305Y020600D03*
X015305Y020490D03*
X015155Y020700D03*
X014995Y020830D03*
X014945Y020350D03*
X014295Y020690D03*
X013525Y020470D03*
X012545Y020690D03*
X012155Y020830D03*
X011875Y020710D03*
X012025Y020460D03*
X011335Y020470D03*
X011175Y020570D03*
X011335Y020690D03*
X010755Y020690D03*
X009975Y020690D03*
D17*
X010330Y020700D03*
X010330Y020710D03*
X010330Y020720D03*
X010560Y020720D03*
X010560Y020710D03*
X010560Y020700D03*
X011920Y020360D03*
X012350Y020700D03*
X012350Y020710D03*
X012350Y020720D03*
X013750Y020710D03*
X015250Y020580D03*
D18*
X014950Y020360D03*
X014390Y020730D03*
X013220Y020690D03*
X013220Y020480D03*
X013050Y020490D03*
X011070Y020470D03*
X010760Y020480D03*
X015900Y020820D03*
X016130Y020470D03*
D19*
X011925Y020370D03*
D20*
X011875Y020500D03*
X012375Y020450D03*
X012655Y020730D03*
X013315Y020450D03*
X014955Y020370D03*
X015185Y020570D03*
X015575Y020730D03*
X016155Y020610D03*
X016215Y020580D03*
X016195Y020730D03*
X011155Y020580D03*
X011095Y020610D03*
X011135Y020730D03*
X010865Y020730D03*
X010585Y020450D03*
X010355Y020450D03*
X010085Y020730D03*
D21*
X010130Y020700D03*
X009970Y020680D03*
X010750Y020680D03*
X010920Y020700D03*
X011080Y020620D03*
X011190Y020560D03*
X011170Y020470D03*
X011340Y020480D03*
X011340Y020460D03*
X011340Y020680D03*
X011340Y020700D03*
X010920Y020490D03*
X010910Y020480D03*
X010750Y020490D03*
X011840Y020380D03*
X012160Y020820D03*
X012160Y020840D03*
X012540Y020680D03*
X012700Y020700D03*
X012890Y020480D03*
X013060Y020500D03*
X013210Y020490D03*
X013370Y020480D03*
X013520Y020480D03*
X013520Y020460D03*
X013670Y020490D03*
X013680Y020480D03*
X013670Y020690D03*
X013680Y020700D03*
X013960Y020700D03*
X014110Y020700D03*
X014290Y020680D03*
X014460Y020670D03*
X014610Y020700D03*
X015000Y020820D03*
X015000Y020840D03*
X015290Y020700D03*
X015460Y020680D03*
X015620Y020700D03*
X015840Y020780D03*
X015850Y020790D03*
X015910Y020840D03*
X016140Y020620D03*
X016250Y020560D03*
X016230Y020470D03*
X015310Y020500D03*
X015150Y020470D03*
X014110Y020480D03*
X013960Y020480D03*
X013390Y020690D03*
X013380Y020700D03*
X013210Y020680D03*
D22*
X013525Y020440D03*
X013825Y020500D03*
X014715Y020410D03*
X014995Y020800D03*
X014915Y020870D03*
X015805Y020730D03*
X016265Y020690D03*
X012155Y020800D03*
X011925Y020740D03*
X011805Y020870D03*
X011625Y020870D03*
X011335Y020660D03*
X011205Y020690D03*
X011335Y020440D03*
X011425Y020410D03*
X011605Y020410D03*
D23*
X011615Y020420D03*
X011625Y020430D03*
X011625Y020440D03*
X011635Y020460D03*
X011635Y020470D03*
X011645Y020480D03*
X011645Y020490D03*
X011655Y020510D03*
X011655Y020520D03*
X011665Y020530D03*
X011665Y020540D03*
X011675Y020560D03*
X011675Y020570D03*
X011685Y020580D03*
X011685Y020590D03*
X011695Y020610D03*
X011695Y020620D03*
X011705Y020630D03*
X011705Y020640D03*
X011715Y020660D03*
X011715Y020670D03*
X011725Y020690D03*
X011735Y020710D03*
X011735Y020720D03*
X011745Y020740D03*
X011755Y020760D03*
X011755Y020770D03*
X011765Y020790D03*
X011765Y020800D03*
X011775Y020810D03*
X011775Y020820D03*
X011785Y020840D03*
X011785Y020850D03*
X011795Y020860D03*
X011615Y020860D03*
X011605Y020850D03*
X011605Y020840D03*
X011595Y020820D03*
X011595Y020810D03*
X011585Y020800D03*
X011585Y020790D03*
X011575Y020770D03*
X011575Y020760D03*
X011565Y020740D03*
X011555Y020720D03*
X011555Y020710D03*
X011545Y020690D03*
X011535Y020670D03*
X011535Y020660D03*
X011525Y020640D03*
X011525Y020630D03*
X011515Y020620D03*
X011515Y020610D03*
X011505Y020590D03*
X011505Y020580D03*
X011495Y020570D03*
X011495Y020560D03*
X011485Y020540D03*
X011485Y020530D03*
X011475Y020520D03*
X011475Y020510D03*
X011465Y020490D03*
X011465Y020480D03*
X011455Y020470D03*
X011455Y020460D03*
X011445Y020440D03*
X011445Y020430D03*
X011435Y020420D03*
X011335Y020500D03*
X011335Y020720D03*
X011195Y020700D03*
X011135Y020740D03*
X010865Y020740D03*
X010795Y020700D03*
X010545Y020810D03*
X010545Y020820D03*
X010545Y020830D03*
X010315Y020830D03*
X010315Y020820D03*
X010315Y020810D03*
X010085Y020740D03*
X010015Y020700D03*
X010355Y020440D03*
X010585Y020440D03*
X011825Y020440D03*
X011845Y020460D03*
X011845Y020530D03*
X011845Y020540D03*
X011855Y020550D03*
X012015Y020630D03*
X012015Y020660D03*
X012155Y020860D03*
X012335Y020830D03*
X012335Y020820D03*
X012335Y020810D03*
X012585Y020700D03*
X012655Y020740D03*
X012375Y020440D03*
X012935Y020440D03*
X013075Y020440D03*
X013195Y020440D03*
X013315Y020440D03*
X013255Y020700D03*
X013745Y020440D03*
X013825Y020490D03*
X014035Y020440D03*
X014035Y020740D03*
X014325Y020700D03*
X014485Y020690D03*
X014565Y020740D03*
X014805Y020620D03*
X014805Y020610D03*
X014815Y020630D03*
X014815Y020640D03*
X014825Y020660D03*
X014825Y020670D03*
X014835Y020690D03*
X014845Y020710D03*
X014845Y020720D03*
X014855Y020740D03*
X014865Y020760D03*
X014865Y020770D03*
X014875Y020790D03*
X014875Y020800D03*
X014885Y020810D03*
X014885Y020820D03*
X014895Y020840D03*
X014895Y020850D03*
X014905Y020860D03*
X014995Y020860D03*
X015235Y020740D03*
X015265Y020480D03*
X015325Y020440D03*
X015185Y020440D03*
X015505Y020700D03*
X015575Y020740D03*
X015805Y020740D03*
X016195Y020740D03*
X016255Y020700D03*
X014795Y020590D03*
X014795Y020580D03*
X014785Y020570D03*
X014785Y020560D03*
X014775Y020540D03*
X014775Y020530D03*
X014765Y020520D03*
X014765Y020510D03*
X014755Y020490D03*
X014755Y020480D03*
X014745Y020470D03*
X014745Y020460D03*
X014735Y020440D03*
X014735Y020430D03*
X014725Y020420D03*
D24*
X014480Y020680D03*
X014390Y020740D03*
X013820Y020690D03*
X013330Y020740D03*
X012420Y020480D03*
X011120Y020440D03*
X011050Y020490D03*
X010850Y020440D03*
X010630Y020480D03*
X010400Y020480D03*
X014980Y020740D03*
X015140Y020680D03*
X016110Y020490D03*
X016180Y020440D03*
D25*
X015910Y020440D03*
X015910Y020450D03*
X015910Y020460D03*
X015910Y020470D03*
X011960Y020720D03*
D26*
X012020Y020700D03*
X011910Y020560D03*
X011120Y020600D03*
X011120Y020450D03*
X010850Y020450D03*
X012940Y020450D03*
X013330Y020730D03*
X014390Y020720D03*
X014560Y020730D03*
X015190Y020450D03*
X015890Y020810D03*
X016180Y020600D03*
X016180Y020450D03*
D27*
X016195Y020590D03*
X015885Y020800D03*
X015225Y020730D03*
X014035Y020730D03*
X014035Y020450D03*
X013745Y020450D03*
X013745Y020730D03*
X011925Y020730D03*
X011135Y020590D03*
D28*
X010590Y020460D03*
X010360Y020460D03*
X010080Y020720D03*
X012380Y020460D03*
X012650Y020720D03*
X014560Y020720D03*
X015570Y020720D03*
D29*
X015570Y020710D03*
X015270Y020590D03*
X014560Y020710D03*
X013750Y020720D03*
X012650Y020710D03*
X011120Y020460D03*
X010080Y020710D03*
X016180Y020460D03*
D30*
X015225Y020720D03*
X014035Y020720D03*
X014035Y020460D03*
X013745Y020460D03*
X013315Y020470D03*
X013325Y020710D03*
X012945Y020470D03*
X011925Y020580D03*
X010865Y020710D03*
X010855Y020470D03*
D31*
X011950Y020470D03*
D32*
X013745Y020470D03*
X015225Y020710D03*
D33*
X014035Y020710D03*
X014035Y020470D03*
X011945Y020480D03*
X011925Y020490D03*
D34*
X011140Y020710D03*
X016200Y020710D03*
D35*
X012828Y008428D03*
X012760Y008428D03*
X012700Y008420D03*
X012528Y008385D03*
X012385Y008273D03*
X012315Y008255D03*
X012663Y008020D03*
X011948Y007863D03*
X011745Y008108D03*
X011163Y007963D03*
X011138Y007953D03*
X010888Y007935D03*
X010548Y008030D03*
X010498Y007300D03*
X010408Y007310D03*
X010978Y007348D03*
X012085Y007560D03*
X009980Y006483D03*
X009975Y006473D03*
X009973Y006468D03*
X009970Y006465D03*
X009970Y006463D03*
X009963Y006463D03*
X009955Y006440D03*
X009955Y006438D03*
X009958Y006435D03*
X009958Y006433D03*
X009948Y006418D03*
X009943Y006418D03*
X009943Y006413D03*
X009935Y006410D03*
X009935Y006403D03*
X009935Y006400D03*
X009930Y006398D03*
X009925Y006393D03*
X009920Y006395D03*
X009920Y006385D03*
X009918Y006383D03*
X009913Y006380D03*
X009920Y006375D03*
X009918Y006370D03*
X009918Y006368D03*
X009925Y006385D03*
X009933Y006390D03*
X009940Y006425D03*
X009880Y006400D03*
X009863Y006408D03*
X009858Y006370D03*
X009883Y006365D03*
X009888Y006365D03*
X009898Y006373D03*
X009903Y006353D03*
X009905Y006350D03*
X009905Y006348D03*
X009898Y006348D03*
X009898Y006340D03*
X009895Y006338D03*
X009900Y006335D03*
X009903Y006338D03*
X009898Y006333D03*
X009900Y006330D03*
X009893Y006325D03*
X009890Y006320D03*
X009880Y006323D03*
X009878Y006320D03*
X009873Y006318D03*
X009873Y006325D03*
X009883Y006328D03*
X009888Y006333D03*
X009885Y006335D03*
X009885Y006343D03*
X009888Y006345D03*
X009880Y006345D03*
X009880Y006343D03*
X009868Y006345D03*
X009865Y006338D03*
X009863Y006313D03*
X009865Y006303D03*
X009870Y006303D03*
X009875Y006303D03*
X009878Y006310D03*
X009865Y006298D03*
X009870Y006290D03*
X009870Y006285D03*
X009870Y006283D03*
X009863Y006285D03*
X009860Y006283D03*
X009863Y006280D03*
X009860Y006275D03*
X009858Y006273D03*
X009853Y006275D03*
X009848Y006273D03*
X009843Y006273D03*
X009850Y006268D03*
X009860Y006265D03*
X009853Y006255D03*
X009845Y006258D03*
X009840Y006255D03*
X009838Y006253D03*
X009838Y006250D03*
X009843Y006250D03*
X009838Y006245D03*
X009835Y006243D03*
X009838Y006240D03*
X009840Y006238D03*
X009845Y006238D03*
X009850Y006240D03*
X009835Y006238D03*
X009835Y006235D03*
X009825Y006235D03*
X009820Y006235D03*
X009820Y006238D03*
X009815Y006238D03*
X009813Y006235D03*
X009818Y006233D03*
X009820Y006228D03*
X009823Y006225D03*
X009820Y006220D03*
X009818Y006215D03*
X009813Y006215D03*
X009810Y006218D03*
X009803Y006220D03*
X009803Y006225D03*
X009798Y006220D03*
X009793Y006220D03*
X009793Y006223D03*
X009803Y006215D03*
X009810Y006210D03*
X009810Y006208D03*
X009805Y006198D03*
X009798Y006203D03*
X009785Y006198D03*
X009780Y006198D03*
X009775Y006200D03*
X009778Y006193D03*
X009778Y006185D03*
X009783Y006185D03*
X009788Y006180D03*
X009790Y006183D03*
X009795Y006180D03*
X009813Y006190D03*
X009813Y006193D03*
X009815Y006185D03*
X009825Y006210D03*
X009808Y006235D03*
X009813Y006243D03*
X009835Y006255D03*
X009855Y006283D03*
X009813Y006323D03*
X009765Y006240D03*
X009763Y006233D03*
X009753Y006223D03*
X009753Y006213D03*
X009748Y006213D03*
X009743Y006210D03*
X009743Y006198D03*
X009738Y006198D03*
X009738Y006195D03*
X009743Y006188D03*
X009755Y006190D03*
X009760Y006190D03*
X009760Y006188D03*
X009758Y006183D03*
X009768Y006178D03*
X009770Y006173D03*
X009773Y006170D03*
X009770Y006168D03*
X009773Y006165D03*
X009780Y006158D03*
X009765Y006143D03*
X009760Y006145D03*
X009755Y006148D03*
X009750Y006150D03*
X009748Y006155D03*
X009758Y006155D03*
X009753Y006165D03*
X009758Y006170D03*
X009750Y006175D03*
X009745Y006173D03*
X009740Y006173D03*
X009735Y006173D03*
X009743Y006168D03*
X009738Y006153D03*
X009733Y006155D03*
X009728Y006155D03*
X009728Y006150D03*
X009735Y006140D03*
X009733Y006135D03*
X009728Y006135D03*
X009725Y006130D03*
X009725Y006125D03*
X009730Y006125D03*
X009730Y006115D03*
X009735Y006108D03*
X009728Y006098D03*
X009733Y006093D03*
X009715Y006085D03*
X009708Y006088D03*
X009705Y006083D03*
X009705Y006078D03*
X009708Y006075D03*
X009703Y006075D03*
X009703Y006073D03*
X009705Y006070D03*
X009708Y006063D03*
X009705Y006060D03*
X009698Y006063D03*
X009698Y006058D03*
X009698Y006053D03*
X009690Y006063D03*
X009690Y006065D03*
X009685Y006068D03*
X009685Y006063D03*
X009685Y006060D03*
X009685Y006050D03*
X009688Y006045D03*
X009688Y006043D03*
X009683Y006045D03*
X009680Y006038D03*
X009675Y006038D03*
X009675Y006030D03*
X009675Y006028D03*
X009678Y006025D03*
X009675Y006023D03*
X009675Y006018D03*
X009678Y006015D03*
X009685Y006015D03*
X009688Y006023D03*
X009688Y006025D03*
X009685Y006028D03*
X009680Y006030D03*
X009665Y006028D03*
X009670Y006015D03*
X009668Y006008D03*
X009663Y006010D03*
X009675Y006005D03*
X009650Y006005D03*
X009648Y005998D03*
X009648Y005995D03*
X009648Y005993D03*
X009653Y005990D03*
X009650Y005985D03*
X009645Y005988D03*
X009643Y005990D03*
X009635Y005995D03*
X009630Y005995D03*
X009630Y005993D03*
X009625Y005995D03*
X009625Y005990D03*
X009615Y005988D03*
X009613Y005978D03*
X009613Y005973D03*
X009618Y005973D03*
X009625Y005973D03*
X009625Y005975D03*
X009630Y005975D03*
X009635Y005978D03*
X009643Y005973D03*
X009645Y005975D03*
X009625Y005960D03*
X009623Y005963D03*
X009615Y005963D03*
X009615Y005960D03*
X009613Y005965D03*
X009608Y005965D03*
X009608Y005970D03*
X009608Y005973D03*
X009595Y005965D03*
X009600Y005960D03*
X009605Y005955D03*
X009608Y005950D03*
X009598Y005943D03*
X009590Y005943D03*
X009590Y005945D03*
X009590Y005948D03*
X009588Y005953D03*
X009588Y005963D03*
X009588Y005965D03*
X009588Y005968D03*
X009588Y005970D03*
X009585Y005973D03*
X009580Y005973D03*
X009573Y005970D03*
X009568Y005978D03*
X009568Y005980D03*
X009573Y005980D03*
X009568Y005985D03*
X009560Y005970D03*
X009568Y005963D03*
X009578Y005955D03*
X009578Y005948D03*
X009583Y005943D03*
X009588Y005935D03*
X009593Y005935D03*
X009585Y005928D03*
X009588Y005923D03*
X009598Y005918D03*
X009570Y005925D03*
X009565Y005923D03*
X009558Y005920D03*
X009558Y005915D03*
X009560Y005913D03*
X009555Y005908D03*
X009558Y005905D03*
X009553Y005905D03*
X009553Y005903D03*
X009548Y005905D03*
X009545Y005915D03*
X009553Y005918D03*
X009558Y005928D03*
X009553Y005933D03*
X009545Y005933D03*
X009548Y005950D03*
X009550Y005953D03*
X009550Y005955D03*
X009553Y005950D03*
X009558Y005950D03*
X009563Y005945D03*
X009568Y005945D03*
X009568Y005943D03*
X009565Y005940D03*
X009573Y005933D03*
X009583Y005965D03*
X009595Y005988D03*
X009598Y006005D03*
X009638Y006000D03*
X009645Y006013D03*
X009645Y006020D03*
X009648Y006030D03*
X009675Y006048D03*
X009695Y006078D03*
X009695Y006083D03*
X009698Y006088D03*
X009683Y006098D03*
X009678Y006098D03*
X009695Y006110D03*
X009700Y006120D03*
X009700Y006123D03*
X009705Y006123D03*
X009710Y006125D03*
X009713Y006128D03*
X009718Y006135D03*
X009720Y006138D03*
X009740Y006135D03*
X009740Y006130D03*
X009745Y006138D03*
X009753Y006135D03*
X009748Y006113D03*
X009720Y006113D03*
X009720Y006118D03*
X009718Y006108D03*
X009710Y006103D03*
X009720Y006078D03*
X009715Y006075D03*
X009713Y006058D03*
X009643Y006070D03*
X009685Y006125D03*
X009695Y006135D03*
X009720Y006160D03*
X009713Y006168D03*
X009720Y006173D03*
X009728Y006183D03*
X009730Y006190D03*
X009773Y006185D03*
X009773Y006183D03*
X009778Y006213D03*
X009770Y006215D03*
X009883Y006458D03*
X009553Y005963D03*
X009548Y005963D03*
X009523Y005938D03*
X009525Y005895D03*
X009530Y005895D03*
X009535Y005895D03*
X009528Y005890D03*
X009538Y005880D03*
X009538Y005878D03*
X009540Y005883D03*
X009543Y005875D03*
X009545Y005865D03*
X009535Y005860D03*
X009535Y005858D03*
X009533Y005855D03*
X009533Y005868D03*
X009520Y005873D03*
X009518Y005858D03*
X009513Y005858D03*
X009518Y005853D03*
X009520Y005850D03*
X009515Y005845D03*
X009515Y005840D03*
X009510Y005840D03*
X009508Y005835D03*
X009505Y005830D03*
X009500Y005830D03*
X009495Y005833D03*
X009490Y005840D03*
X009485Y005815D03*
X009480Y005815D03*
X009475Y005803D03*
X009465Y005803D03*
X009460Y005803D03*
X009463Y005798D03*
X009460Y005795D03*
X009450Y005790D03*
X009440Y005795D03*
X009448Y005803D03*
X009425Y005780D03*
X009420Y005780D03*
X009415Y005780D03*
X009415Y005775D03*
X009413Y005773D03*
X009408Y005770D03*
X009408Y005768D03*
X009410Y005763D03*
X009400Y005765D03*
X009395Y005768D03*
X009398Y005773D03*
X009393Y005775D03*
X009395Y005783D03*
X009403Y005783D03*
X009408Y005780D03*
X009410Y005783D03*
X009388Y005788D03*
X009380Y005790D03*
X009360Y005798D03*
X009353Y005798D03*
X009340Y005800D03*
X009330Y005798D03*
X009320Y005788D03*
X009315Y005788D03*
X009305Y005783D03*
X009305Y005780D03*
X009300Y005780D03*
X009288Y005775D03*
X009285Y005773D03*
X009273Y005768D03*
X009308Y005763D03*
X009313Y005768D03*
X009315Y005760D03*
X009315Y005753D03*
X009320Y005753D03*
X009325Y005750D03*
X009325Y005748D03*
X009323Y005745D03*
X009320Y005743D03*
X009315Y005740D03*
X009310Y005740D03*
X009308Y005738D03*
X009303Y005733D03*
X009310Y005730D03*
X009315Y005725D03*
X009318Y005728D03*
X009323Y005738D03*
X009328Y005740D03*
X009328Y005743D03*
X009330Y005745D03*
X009330Y005750D03*
X009333Y005755D03*
X009333Y005758D03*
X009333Y005760D03*
X009343Y005763D03*
X009345Y005760D03*
X009350Y005760D03*
X009350Y005765D03*
X009355Y005765D03*
X009360Y005765D03*
X009365Y005758D03*
X009370Y005755D03*
X009368Y005753D03*
X009375Y005755D03*
X009375Y005758D03*
X009375Y005760D03*
X009370Y005768D03*
X009383Y005768D03*
X009383Y005765D03*
X009390Y005758D03*
X009390Y005755D03*
X009385Y005753D03*
X009385Y005750D03*
X009380Y005753D03*
X009390Y005748D03*
X009365Y005738D03*
X009343Y005743D03*
X009338Y005740D03*
X009333Y005740D03*
X009330Y005738D03*
X009333Y005723D03*
X009343Y005728D03*
X009308Y005718D03*
X009303Y005718D03*
X009300Y005720D03*
X009298Y005718D03*
X009295Y005715D03*
X009295Y005713D03*
X009295Y005705D03*
X009285Y005703D03*
X009280Y005703D03*
X009278Y005705D03*
X009275Y005703D03*
X009275Y005700D03*
X009278Y005698D03*
X009273Y005698D03*
X009270Y005695D03*
X009268Y005693D03*
X009263Y005690D03*
X009263Y005688D03*
X009255Y005690D03*
X009250Y005690D03*
X009248Y005688D03*
X009248Y005685D03*
X009253Y005685D03*
X009250Y005678D03*
X009248Y005673D03*
X009240Y005683D03*
X009240Y005693D03*
X009250Y005698D03*
X009253Y005713D03*
X009265Y005703D03*
X009273Y005720D03*
X009275Y005723D03*
X009310Y005753D03*
X009325Y005770D03*
X009345Y005788D03*
X009373Y005813D03*
X009545Y005893D03*
X009550Y005893D03*
X009550Y005890D03*
X009553Y005895D03*
X009558Y005895D03*
X009558Y005898D03*
X009563Y005898D03*
X009553Y005885D03*
X009235Y005670D03*
X009230Y005673D03*
X009228Y005670D03*
X009218Y005668D03*
X009215Y005665D03*
X009208Y005668D03*
X009208Y005670D03*
X009208Y005675D03*
X009203Y005675D03*
X009200Y005670D03*
X009195Y005668D03*
X009198Y005665D03*
X009203Y005663D03*
X009205Y005665D03*
X009195Y005660D03*
X009193Y005658D03*
X009185Y005663D03*
X009178Y005663D03*
X009178Y005670D03*
X009173Y005673D03*
X009165Y005670D03*
X009163Y005668D03*
X009163Y005663D03*
X009168Y005658D03*
X009170Y005660D03*
X009153Y005663D03*
X009145Y005663D03*
X009140Y005665D03*
X009135Y005668D03*
X009133Y005670D03*
X009128Y005670D03*
X009125Y005675D03*
X009118Y005663D03*
X009110Y005668D03*
X009108Y005658D03*
X009113Y005655D03*
X009115Y005653D03*
X009108Y005645D03*
X009120Y005643D03*
X009133Y005653D03*
X009138Y005658D03*
X009138Y005660D03*
X009140Y005648D03*
X009153Y005673D03*
X009155Y005680D03*
X009190Y005673D03*
X009195Y005678D03*
X009215Y005678D03*
X009220Y005680D03*
X009103Y005658D03*
X009095Y005663D03*
X009088Y005663D03*
X009083Y005668D03*
X009090Y005670D03*
X009075Y005668D03*
X009075Y005665D03*
X009068Y005663D03*
X009073Y005658D03*
X009070Y005655D03*
X009063Y005655D03*
X009058Y005655D03*
X009053Y005655D03*
X009058Y005648D03*
X009055Y005643D03*
X009048Y005643D03*
X009043Y005650D03*
X009040Y005655D03*
X009035Y005653D03*
X009030Y005655D03*
X009030Y005658D03*
X009025Y005648D03*
X009025Y005645D03*
X009020Y005645D03*
X009018Y005643D03*
X009018Y005640D03*
X009015Y005633D03*
X009003Y005648D03*
X009005Y005653D03*
X009008Y005655D03*
X009013Y005653D03*
X009000Y005653D03*
X008995Y005655D03*
X008988Y005648D03*
X008985Y005645D03*
X008980Y005643D03*
X008983Y005633D03*
X008975Y005633D03*
X008975Y005630D03*
X008975Y005628D03*
X008968Y005628D03*
X008968Y005625D03*
X008968Y005623D03*
X008968Y005633D03*
X008968Y005638D03*
X008963Y005645D03*
X008965Y005650D03*
X008965Y005653D03*
X008970Y005653D03*
X008970Y005648D03*
X008960Y005650D03*
X008960Y005653D03*
X008958Y005643D03*
X008953Y005638D03*
X008958Y005635D03*
X008945Y005633D03*
X008940Y005635D03*
X008935Y005643D03*
X008930Y005638D03*
X008930Y005635D03*
X008928Y005640D03*
X008923Y005633D03*
X008915Y005635D03*
X008910Y005635D03*
X008908Y005633D03*
X008915Y005628D03*
X008928Y005623D03*
X008898Y005633D03*
X008893Y005635D03*
X008890Y005633D03*
X008888Y005638D03*
X008883Y005635D03*
X008880Y005638D03*
X008878Y005635D03*
X008878Y005628D03*
X008885Y005630D03*
X008868Y005643D03*
X008863Y005643D03*
X008855Y005640D03*
X008848Y005643D03*
X008843Y005643D03*
X008835Y005648D03*
X008835Y005653D03*
X008830Y005648D03*
X008823Y005648D03*
X008818Y005650D03*
X008813Y005653D03*
X008815Y005660D03*
X008800Y005663D03*
X008778Y005665D03*
X008778Y005668D03*
X008770Y005673D03*
X008765Y005680D03*
X008758Y005680D03*
X008758Y005678D03*
X008745Y005693D03*
X008748Y005695D03*
X008745Y005698D03*
X008720Y005695D03*
X008870Y005668D03*
X008863Y005633D03*
X008995Y005638D03*
X008998Y005643D03*
X009045Y005663D03*
X009050Y005665D03*
X009055Y005665D03*
X009075Y005678D03*
X009075Y005680D03*
X009080Y005710D03*
X009088Y005713D03*
X009103Y005715D03*
X009045Y005713D03*
X009033Y005713D03*
X009083Y005650D03*
X009083Y005645D03*
X009080Y005643D03*
X009078Y005645D03*
X009088Y005645D03*
X009088Y005648D03*
X009068Y005640D03*
D36*
X009060Y005658D03*
X009063Y005673D03*
X009075Y005673D03*
X009083Y005678D03*
X009075Y005685D03*
X009078Y005660D03*
X009098Y005670D03*
X009108Y005665D03*
X009108Y005663D03*
X009108Y005660D03*
X009120Y005670D03*
X009143Y005683D03*
X009165Y005683D03*
X009180Y005673D03*
X009185Y005670D03*
X009208Y005690D03*
X009223Y005685D03*
X009228Y005680D03*
X009230Y005675D03*
X009220Y005675D03*
X009240Y005690D03*
X009253Y005695D03*
X009253Y005703D03*
X009268Y005705D03*
X009280Y005708D03*
X009300Y005725D03*
X009310Y005735D03*
X009308Y005745D03*
X009303Y005753D03*
X009318Y005770D03*
X009328Y005778D03*
X009333Y005770D03*
X009333Y005765D03*
X009343Y005765D03*
X009343Y005770D03*
X009365Y005773D03*
X009398Y005785D03*
X009408Y005778D03*
X009408Y005775D03*
X009400Y005770D03*
X009435Y005783D03*
X009440Y005790D03*
X009453Y005793D03*
X009495Y005823D03*
X009500Y005835D03*
X009513Y005863D03*
X009535Y005888D03*
X009538Y005885D03*
X009543Y005903D03*
X009553Y005913D03*
X009535Y005915D03*
X009530Y005920D03*
X009538Y005923D03*
X009538Y005928D03*
X009545Y005930D03*
X009525Y005928D03*
X009560Y005963D03*
X009558Y005968D03*
X009575Y005958D03*
X009580Y005968D03*
X009580Y005970D03*
X009580Y005980D03*
X009595Y005970D03*
X009598Y005963D03*
X009610Y005975D03*
X009613Y005983D03*
X009623Y005983D03*
X009625Y005978D03*
X009618Y005970D03*
X009603Y005998D03*
X009605Y006005D03*
X009590Y006003D03*
X009638Y006020D03*
X009655Y006030D03*
X009663Y006025D03*
X009663Y006023D03*
X009663Y006015D03*
X009683Y006055D03*
X009680Y006065D03*
X009708Y006098D03*
X009705Y006100D03*
X009688Y006108D03*
X009680Y006113D03*
X009678Y006110D03*
X009693Y006123D03*
X009693Y006125D03*
X009695Y006128D03*
X009703Y006125D03*
X009705Y006128D03*
X009705Y006130D03*
X009708Y006135D03*
X009713Y006138D03*
X009713Y006145D03*
X009725Y006140D03*
X009733Y006130D03*
X009730Y006128D03*
X009728Y006160D03*
X009723Y006165D03*
X009720Y006168D03*
X009725Y006170D03*
X009738Y006170D03*
X009743Y006175D03*
X009750Y006170D03*
X009758Y006175D03*
X009775Y006195D03*
X009785Y006193D03*
X009785Y006203D03*
X009790Y006208D03*
X009790Y006210D03*
X009788Y006215D03*
X009793Y006218D03*
X009800Y006223D03*
X009788Y006233D03*
X009778Y006215D03*
X009830Y006240D03*
X009828Y006255D03*
X009853Y006285D03*
X009863Y006290D03*
X009865Y006293D03*
X009873Y006305D03*
X009870Y006310D03*
X009873Y006338D03*
X009878Y006340D03*
X009895Y006343D03*
X009895Y006345D03*
X009895Y006353D03*
X009900Y006363D03*
X009905Y006370D03*
X009905Y006373D03*
X009913Y006375D03*
X009913Y006378D03*
X009895Y006370D03*
X009888Y006373D03*
X009878Y006360D03*
X009838Y006365D03*
X009920Y006400D03*
X009928Y006403D03*
X009928Y006405D03*
X009368Y005818D03*
X009333Y005795D03*
X009315Y005783D03*
X009338Y005748D03*
X009080Y005713D03*
X009038Y005668D03*
X009015Y005655D03*
X009008Y005643D03*
X008995Y005648D03*
X008993Y005650D03*
X008990Y005658D03*
X009000Y005658D03*
X008963Y005648D03*
X008955Y005645D03*
X008958Y005640D03*
X008948Y005635D03*
X008945Y005648D03*
X008960Y005668D03*
X008923Y005635D03*
X008915Y005625D03*
X008903Y005635D03*
X008855Y005635D03*
X008853Y005638D03*
X008855Y005643D03*
X008850Y005648D03*
X008790Y005660D03*
X008790Y005663D03*
X008778Y005663D03*
X009015Y007320D03*
X009015Y007323D03*
X009015Y007325D03*
X009020Y007333D03*
X009023Y007340D03*
X010515Y007383D03*
X010888Y007933D03*
X012100Y007560D03*
D37*
X012116Y007560D03*
X011989Y007865D03*
X011829Y008130D03*
X011734Y008218D03*
X011941Y008258D03*
X012581Y008398D03*
X012786Y008430D03*
X012709Y008020D03*
X012691Y008023D03*
X012681Y007930D03*
X011476Y007830D03*
X011406Y007415D03*
X011369Y007400D03*
X011011Y007340D03*
X010976Y007350D03*
X010516Y008033D03*
X009019Y007330D03*
X009016Y007328D03*
X009986Y006500D03*
X009961Y006448D03*
X009951Y006435D03*
X009946Y006425D03*
X009941Y006415D03*
X009939Y006408D03*
X009936Y006405D03*
X009931Y006408D03*
X009929Y006400D03*
X009929Y006388D03*
X009916Y006390D03*
X009914Y006385D03*
X009914Y006373D03*
X009899Y006360D03*
X009894Y006350D03*
X009874Y006343D03*
X009879Y006325D03*
X009869Y006315D03*
X009871Y006313D03*
X009859Y006305D03*
X009854Y006298D03*
X009856Y006295D03*
X009851Y006278D03*
X009861Y006278D03*
X009849Y006263D03*
X009844Y006260D03*
X009831Y006250D03*
X009824Y006243D03*
X009829Y006238D03*
X009824Y006233D03*
X009821Y006230D03*
X009814Y006228D03*
X009814Y006225D03*
X009811Y006223D03*
X009804Y006228D03*
X009794Y006228D03*
X009786Y006220D03*
X009781Y006210D03*
X009779Y006205D03*
X009776Y006203D03*
X009771Y006198D03*
X009769Y006200D03*
X009769Y006188D03*
X009779Y006188D03*
X009766Y006175D03*
X009756Y006185D03*
X009751Y006173D03*
X009739Y006155D03*
X009734Y006150D03*
X009731Y006153D03*
X009726Y006145D03*
X009726Y006138D03*
X009719Y006130D03*
X009711Y006133D03*
X009704Y006145D03*
X009711Y006148D03*
X009711Y006155D03*
X009716Y006158D03*
X009721Y006163D03*
X009726Y006173D03*
X009724Y006180D03*
X009739Y006193D03*
X009744Y006195D03*
X009741Y006203D03*
X009751Y006215D03*
X009796Y006215D03*
X009799Y006208D03*
X009799Y006205D03*
X009814Y006240D03*
X009819Y006333D03*
X009849Y006373D03*
X009849Y006388D03*
X009866Y006368D03*
X009886Y006308D03*
X009931Y006430D03*
X009719Y006120D03*
X009711Y006115D03*
X009696Y006108D03*
X009689Y006105D03*
X009686Y006110D03*
X009686Y006118D03*
X009691Y006098D03*
X009699Y006098D03*
X009706Y006085D03*
X009714Y006088D03*
X009714Y006095D03*
X009719Y006083D03*
X009706Y006068D03*
X009684Y006070D03*
X009681Y006048D03*
X009676Y006043D03*
X009674Y006035D03*
X009664Y006030D03*
X009654Y006023D03*
X009651Y006018D03*
X009651Y006015D03*
X009654Y006013D03*
X009654Y006010D03*
X009654Y006008D03*
X009661Y006008D03*
X009656Y006000D03*
X009646Y006000D03*
X009641Y005998D03*
X009631Y006000D03*
X009631Y005990D03*
X009631Y005985D03*
X009634Y005983D03*
X009634Y005970D03*
X009626Y005968D03*
X009616Y005968D03*
X009606Y005960D03*
X009604Y005978D03*
X009596Y005975D03*
X009581Y005963D03*
X009576Y005960D03*
X009584Y005958D03*
X009581Y005950D03*
X009581Y005940D03*
X009581Y005938D03*
X009589Y005940D03*
X009591Y005950D03*
X009571Y005948D03*
X009566Y005938D03*
X009561Y005933D03*
X009556Y005930D03*
X009556Y005923D03*
X009549Y005925D03*
X009546Y005928D03*
X009546Y005923D03*
X009546Y005920D03*
X009546Y005918D03*
X009551Y005915D03*
X009554Y005910D03*
X009566Y005918D03*
X009556Y005938D03*
X009544Y005953D03*
X009544Y005955D03*
X009541Y005950D03*
X009529Y005940D03*
X009529Y005923D03*
X009539Y005920D03*
X009539Y005898D03*
X009544Y005895D03*
X009544Y005888D03*
X009529Y005885D03*
X009534Y005875D03*
X009529Y005873D03*
X009521Y005863D03*
X009511Y005853D03*
X009509Y005855D03*
X009504Y005850D03*
X009506Y005845D03*
X009494Y005825D03*
X009486Y005825D03*
X009474Y005815D03*
X009469Y005808D03*
X009454Y005803D03*
X009454Y005795D03*
X009446Y005795D03*
X009431Y005775D03*
X009406Y005785D03*
X009399Y005780D03*
X009394Y005788D03*
X009396Y005795D03*
X009386Y005785D03*
X009389Y005783D03*
X009386Y005775D03*
X009379Y005775D03*
X009379Y005773D03*
X009376Y005778D03*
X009379Y005788D03*
X009364Y005783D03*
X009369Y005765D03*
X009376Y005765D03*
X009376Y005768D03*
X009379Y005763D03*
X009351Y005755D03*
X009349Y005750D03*
X009339Y005755D03*
X009334Y005763D03*
X009324Y005765D03*
X009326Y005755D03*
X009316Y005745D03*
X009336Y005743D03*
X009344Y005773D03*
X009319Y005778D03*
X009296Y005775D03*
X009301Y005763D03*
X009301Y005728D03*
X009301Y005723D03*
X009289Y005718D03*
X009279Y005718D03*
X009266Y005720D03*
X009269Y005708D03*
X009269Y005700D03*
X009259Y005693D03*
X009256Y005680D03*
X009241Y005680D03*
X009236Y005678D03*
X009229Y005678D03*
X009231Y005685D03*
X009234Y005693D03*
X009226Y005693D03*
X009241Y005688D03*
X009244Y005698D03*
X009221Y005678D03*
X009221Y005673D03*
X009201Y005673D03*
X009196Y005675D03*
X009194Y005670D03*
X009186Y005665D03*
X009179Y005665D03*
X009176Y005668D03*
X009171Y005670D03*
X009171Y005663D03*
X009176Y005660D03*
X009159Y005665D03*
X009159Y005670D03*
X009154Y005668D03*
X009149Y005670D03*
X009146Y005673D03*
X009141Y005670D03*
X009141Y005668D03*
X009136Y005663D03*
X009131Y005665D03*
X009129Y005658D03*
X009144Y005660D03*
X009149Y005665D03*
X009156Y005683D03*
X009174Y005690D03*
X009129Y005678D03*
X009106Y005670D03*
X009089Y005658D03*
X009071Y005650D03*
X009056Y005650D03*
X009056Y005653D03*
X009051Y005658D03*
X009051Y005663D03*
X009046Y005668D03*
X009039Y005663D03*
X009041Y005658D03*
X009031Y005663D03*
X009036Y005670D03*
X009019Y005653D03*
X009021Y005650D03*
X009014Y005650D03*
X009001Y005655D03*
X008989Y005653D03*
X008976Y005648D03*
X008974Y005645D03*
X008974Y005643D03*
X008976Y005635D03*
X008969Y005655D03*
X008954Y005650D03*
X008954Y005648D03*
X008949Y005643D03*
X008949Y005640D03*
X008941Y005643D03*
X008941Y005638D03*
X008904Y005638D03*
X008896Y005638D03*
X008886Y005648D03*
X008879Y005640D03*
X008874Y005638D03*
X008866Y005635D03*
X008864Y005640D03*
X008861Y005648D03*
X008841Y005648D03*
X008841Y005645D03*
X008829Y005653D03*
X008826Y005658D03*
X008834Y005658D03*
X008819Y005655D03*
X008811Y005655D03*
X008806Y005658D03*
X008809Y005660D03*
X008801Y005660D03*
X008789Y005665D03*
X008784Y005668D03*
X008766Y005683D03*
X008751Y005680D03*
X008686Y005720D03*
X008881Y005633D03*
X009001Y005638D03*
X009284Y005700D03*
X009289Y005698D03*
X009289Y005705D03*
X009291Y005708D03*
X009511Y005925D03*
X009516Y005928D03*
X009556Y005965D03*
X009561Y005973D03*
X009561Y005978D03*
X009566Y005970D03*
X009566Y005968D03*
X009566Y005960D03*
X009579Y005995D03*
X009611Y005998D03*
X009639Y006013D03*
X009644Y006015D03*
X009644Y006018D03*
X009636Y006018D03*
X009641Y006028D03*
X009686Y006038D03*
X009694Y006045D03*
X009694Y006048D03*
X009734Y006100D03*
D38*
X009699Y006133D03*
X009671Y006045D03*
X009619Y006005D03*
X009619Y005985D03*
X009569Y005950D03*
X009561Y005958D03*
X009536Y005925D03*
X009534Y005910D03*
X009534Y005905D03*
X009449Y005798D03*
X009436Y005800D03*
X009391Y005790D03*
X009369Y005790D03*
X009356Y005768D03*
X009314Y005773D03*
X009306Y005778D03*
X009296Y005773D03*
X009286Y005768D03*
X009286Y005723D03*
X009161Y005678D03*
X009141Y005678D03*
X009059Y005675D03*
X009059Y005668D03*
X009009Y005645D03*
X009006Y005640D03*
X008976Y005650D03*
X008921Y005643D03*
X008919Y005638D03*
X008874Y005648D03*
X008849Y005650D03*
X008756Y005690D03*
X008656Y005753D03*
X009754Y006210D03*
X009766Y006213D03*
X009774Y006233D03*
X009824Y006253D03*
X009881Y006350D03*
X009874Y006355D03*
X009884Y006363D03*
X009904Y006365D03*
X009904Y006390D03*
X009914Y006403D03*
X009944Y006430D03*
X009034Y007270D03*
X009034Y007273D03*
X009036Y007278D03*
X009039Y007280D03*
X009029Y007268D03*
X009054Y007300D03*
X011474Y007828D03*
D39*
X009896Y006378D03*
X009871Y006370D03*
X009856Y006385D03*
X009866Y006400D03*
X009834Y006263D03*
X009779Y006243D03*
X009756Y006203D03*
X009756Y006198D03*
X009759Y006195D03*
X009741Y006183D03*
X009696Y006113D03*
X009659Y006035D03*
X009624Y006013D03*
X009609Y006018D03*
X009601Y006013D03*
X009596Y005980D03*
X009564Y005955D03*
X009526Y005933D03*
X009514Y005923D03*
X009514Y005920D03*
X009409Y005788D03*
X009319Y005780D03*
X009301Y005770D03*
X009249Y005705D03*
X009224Y005690D03*
X009181Y005678D03*
X009059Y005685D03*
X009046Y005673D03*
X009054Y005660D03*
X008901Y005643D03*
X008901Y005640D03*
X008851Y005653D03*
X008734Y005695D03*
X008731Y005693D03*
X009009Y007248D03*
X009011Y007250D03*
X009016Y007258D03*
X009049Y007293D03*
D40*
X009841Y006368D03*
X009846Y006370D03*
X009859Y006350D03*
X009871Y006348D03*
X009886Y006348D03*
X009889Y006360D03*
X009876Y006368D03*
X009916Y006405D03*
X009926Y006410D03*
X009854Y006293D03*
X009854Y006288D03*
X009841Y006288D03*
X009786Y006270D03*
X009796Y006235D03*
X009804Y006233D03*
X009789Y006205D03*
X009779Y006208D03*
X009771Y006210D03*
X009761Y006215D03*
X009751Y006188D03*
X009746Y006178D03*
X009751Y006168D03*
X009761Y006173D03*
X009759Y006178D03*
X009734Y006188D03*
X009731Y006168D03*
X009734Y006163D03*
X009724Y006148D03*
X009711Y006150D03*
X009701Y006138D03*
X009709Y006120D03*
X009701Y006115D03*
X009704Y006110D03*
X009706Y006108D03*
X009689Y006115D03*
X009686Y006120D03*
X009676Y006108D03*
X009676Y006103D03*
X009669Y006098D03*
X009669Y006020D03*
X009656Y006020D03*
X009641Y006003D03*
X009634Y006005D03*
X009626Y006018D03*
X009626Y006020D03*
X009589Y006005D03*
X009594Y005973D03*
X009571Y005973D03*
X009561Y005948D03*
X009546Y005958D03*
X009521Y005925D03*
X009536Y005918D03*
X009536Y005893D03*
X009536Y005890D03*
X009519Y005855D03*
X009451Y005800D03*
X009419Y005798D03*
X009419Y005778D03*
X009419Y005770D03*
X009384Y005780D03*
X009379Y005783D03*
X009354Y005773D03*
X009346Y005803D03*
X009324Y005760D03*
X009284Y005770D03*
X009264Y005718D03*
X009244Y005700D03*
X009249Y005693D03*
X009216Y005693D03*
X009206Y005680D03*
X009204Y005678D03*
X009211Y005673D03*
X009216Y005670D03*
X009186Y005668D03*
X009161Y005673D03*
X009096Y005665D03*
X009094Y005668D03*
X009084Y005665D03*
X009074Y005675D03*
X009066Y005680D03*
X009054Y005680D03*
X009059Y005670D03*
X009046Y005670D03*
X009041Y005665D03*
X009041Y005683D03*
X009066Y005653D03*
X009014Y005648D03*
X008979Y005653D03*
X008944Y005650D03*
X008919Y005640D03*
X008854Y005645D03*
X008816Y005658D03*
X008809Y005663D03*
X008749Y005683D03*
X008654Y005755D03*
X010859Y007938D03*
X011351Y007400D03*
D41*
X010585Y007898D03*
X009050Y007298D03*
X009050Y007295D03*
X009040Y007288D03*
X009040Y007285D03*
X009040Y007283D03*
X009035Y007275D03*
X009023Y007260D03*
X009945Y006433D03*
X009905Y006368D03*
X009800Y006243D03*
X009808Y006230D03*
X009743Y006190D03*
X009730Y006178D03*
X009728Y006175D03*
X009738Y006165D03*
X009708Y006140D03*
X009693Y006103D03*
X009685Y006088D03*
X009683Y006083D03*
X009663Y006083D03*
X009668Y006033D03*
X009648Y006033D03*
X009625Y005998D03*
X009628Y005980D03*
X009588Y005998D03*
X009585Y005993D03*
X009570Y005965D03*
X009565Y005935D03*
X009525Y005880D03*
X009373Y005785D03*
X009360Y005775D03*
X009358Y005770D03*
X009333Y005788D03*
X009320Y005763D03*
X009285Y005720D03*
X009198Y005688D03*
X009140Y005680D03*
X009140Y005675D03*
X009088Y005680D03*
X008983Y005655D03*
X008880Y005643D03*
X008880Y005673D03*
X008803Y005665D03*
X008748Y005685D03*
X008738Y005690D03*
X012688Y008020D03*
X012730Y008423D03*
X012823Y008430D03*
D42*
X010858Y007928D03*
X010583Y007915D03*
X011005Y007353D03*
X009880Y006383D03*
X009430Y005808D03*
X008998Y005670D03*
X008895Y005645D03*
X009433Y009175D03*
D43*
X010588Y007895D03*
X011008Y007343D03*
X009945Y006420D03*
X009878Y006378D03*
X009855Y006368D03*
X009868Y006335D03*
X009863Y006308D03*
X009845Y006280D03*
X009825Y006245D03*
X009800Y006270D03*
X009780Y006218D03*
X009793Y006213D03*
X009785Y006200D03*
X009773Y006190D03*
X009743Y006160D03*
X009718Y006153D03*
X009730Y006133D03*
X009693Y006130D03*
X009700Y006105D03*
X009678Y006105D03*
X009668Y006088D03*
X009670Y006068D03*
X009655Y006028D03*
X009650Y006025D03*
X009643Y006023D03*
X009628Y006015D03*
X009620Y006000D03*
X009625Y005988D03*
X009605Y005988D03*
X009575Y005953D03*
X009560Y005953D03*
X009555Y005960D03*
X009498Y005913D03*
X009528Y005878D03*
X009500Y005840D03*
X009485Y005818D03*
X009433Y005798D03*
X009428Y005790D03*
X009420Y005783D03*
X009413Y005790D03*
X009395Y005778D03*
X009368Y005805D03*
X009363Y005813D03*
X009353Y005805D03*
X009343Y005798D03*
X009340Y005775D03*
X009340Y005768D03*
X009343Y005758D03*
X009330Y005773D03*
X009323Y005768D03*
X009320Y005758D03*
X009303Y005768D03*
X009180Y005688D03*
X009133Y005673D03*
X009125Y005668D03*
X009073Y005670D03*
X009035Y005680D03*
X009018Y005658D03*
X008975Y005658D03*
X008943Y005645D03*
X009070Y005710D03*
X008735Y005698D03*
X008720Y005698D03*
X009665Y006018D03*
X009895Y006355D03*
X009028Y007263D03*
X009028Y007265D03*
X009043Y007290D03*
X009023Y007335D03*
X009023Y007338D03*
D44*
X008999Y007310D03*
X008996Y007308D03*
X008996Y007305D03*
X008969Y007268D03*
X009871Y006390D03*
X009846Y006343D03*
X009811Y006280D03*
X009794Y006245D03*
X009789Y006238D03*
X009679Y006085D03*
X009671Y006073D03*
X009656Y006060D03*
X009249Y005748D03*
X008914Y005648D03*
X011011Y007348D03*
X010514Y008030D03*
X009429Y009180D03*
D45*
X010855Y007920D03*
X011470Y007818D03*
X011353Y007410D03*
X012090Y007568D03*
X011968Y007853D03*
X012690Y008013D03*
X009925Y006465D03*
X009925Y006460D03*
X008920Y005665D03*
X008898Y005650D03*
X008828Y005668D03*
D46*
X008881Y005653D03*
X009106Y005678D03*
X009114Y005680D03*
X009186Y005683D03*
X009306Y005750D03*
X009426Y005785D03*
X009431Y005793D03*
X009506Y005910D03*
X009511Y005915D03*
X009514Y005918D03*
X009586Y005985D03*
X009596Y006000D03*
X009611Y005993D03*
X009629Y006035D03*
X009759Y006193D03*
X009811Y006290D03*
X009899Y006400D03*
D47*
X009910Y006398D03*
X009923Y006413D03*
X009780Y006230D03*
X009765Y006220D03*
X009683Y006100D03*
X009663Y006070D03*
X009620Y006028D03*
X009585Y005983D03*
X009523Y005913D03*
X009280Y005763D03*
X009273Y005713D03*
X009108Y005673D03*
X009105Y005675D03*
X008915Y005653D03*
X008725Y005700D03*
X011015Y007345D03*
X011473Y007825D03*
D48*
X011985Y007863D03*
X010585Y007900D03*
X009015Y007255D03*
X009013Y007253D03*
X009910Y006393D03*
X009895Y006375D03*
X009843Y006305D03*
X009845Y006290D03*
X009835Y006278D03*
X009760Y006218D03*
X009738Y006185D03*
X009735Y006158D03*
X009703Y006118D03*
X009650Y006068D03*
X009608Y006020D03*
X009580Y005988D03*
X009543Y005948D03*
X009540Y005938D03*
X009470Y005883D03*
X009500Y005838D03*
X009350Y005795D03*
X009233Y005703D03*
X009190Y005690D03*
X009165Y005685D03*
X009038Y005675D03*
X008945Y005653D03*
X009435Y009183D03*
D49*
X009435Y009165D03*
X009625Y009003D03*
X009628Y009000D03*
X009633Y008995D03*
X009635Y008993D03*
X009638Y008990D03*
X009643Y008985D03*
X009648Y008980D03*
X009650Y008975D03*
X010430Y007930D03*
X010855Y007723D03*
X010855Y007720D03*
X010855Y007718D03*
X010855Y007715D03*
X010855Y007713D03*
X010740Y007468D03*
X010738Y007463D03*
X010735Y007460D03*
X010963Y007405D03*
X010965Y007403D03*
X010968Y007400D03*
X010975Y007390D03*
X011255Y007538D03*
X011253Y007543D03*
X011253Y007545D03*
X011245Y007560D03*
X011245Y007563D03*
X011245Y007565D03*
X011468Y007785D03*
X011170Y007895D03*
X011170Y007898D03*
X011165Y007918D03*
X011165Y007920D03*
X011165Y007923D03*
X011165Y007925D03*
X011165Y007928D03*
X011955Y007713D03*
X011963Y007698D03*
X011965Y007693D03*
X011965Y007690D03*
X012085Y007575D03*
X012668Y007993D03*
X012893Y007523D03*
X012893Y007520D03*
X012895Y007518D03*
X012895Y007515D03*
X012900Y007465D03*
X009170Y005700D03*
X009145Y005693D03*
X008903Y005658D03*
X008900Y005655D03*
X008628Y005885D03*
X008628Y005888D03*
X008625Y005890D03*
X008625Y005893D03*
X008623Y005898D03*
X008620Y005903D03*
X008618Y005908D03*
X008610Y005923D03*
X008610Y005925D03*
D50*
X008651Y005845D03*
X008651Y005843D03*
X008654Y005838D03*
X008889Y005660D03*
X009224Y005725D03*
X010361Y007403D03*
X010676Y007408D03*
X010684Y007410D03*
X010696Y007423D03*
X010854Y007668D03*
X010854Y007670D03*
X010854Y007673D03*
X010854Y007675D03*
X010854Y007678D03*
X010854Y007680D03*
X010854Y007683D03*
X011274Y007513D03*
X011559Y007538D03*
X011561Y007533D03*
X011571Y007518D03*
X011574Y007515D03*
X011576Y007513D03*
X011469Y007760D03*
X011749Y008130D03*
X011984Y007665D03*
X012079Y007580D03*
X012879Y007543D03*
X012884Y007450D03*
X012871Y007430D03*
X009591Y009038D03*
X009589Y009040D03*
X009439Y009160D03*
D51*
X010854Y007935D03*
X009931Y006423D03*
X009859Y006380D03*
X009856Y006378D03*
X009839Y006350D03*
X009816Y006305D03*
X009836Y006275D03*
X009791Y006268D03*
X009776Y006235D03*
X009719Y006143D03*
X009624Y006033D03*
X009606Y006015D03*
X009584Y005978D03*
X009546Y005940D03*
X009541Y005945D03*
X009376Y005795D03*
X009361Y005788D03*
X009314Y005775D03*
X009221Y005688D03*
X009014Y005663D03*
X008979Y005665D03*
X008974Y005660D03*
D52*
X009010Y005660D03*
X009265Y005715D03*
X009275Y005728D03*
X009353Y005780D03*
X009365Y005800D03*
X009613Y006010D03*
X009658Y006063D03*
X009670Y006078D03*
X009670Y006080D03*
X009800Y006263D03*
X009830Y006270D03*
X009838Y006335D03*
X009840Y006338D03*
X009883Y006413D03*
X008968Y007265D03*
X008980Y007280D03*
X008980Y007283D03*
X008980Y007285D03*
X009000Y007313D03*
X012878Y007405D03*
D53*
X011353Y007405D03*
X009843Y006323D03*
X009835Y006315D03*
X009650Y006050D03*
X009645Y006043D03*
X009615Y006008D03*
X009263Y005750D03*
X008845Y005663D03*
X008993Y007300D03*
D54*
X010120Y007220D03*
X010120Y007218D03*
X010120Y007205D03*
X010118Y007188D03*
X010118Y007185D03*
X010115Y007150D03*
X010115Y007148D03*
X010115Y007145D03*
X010115Y007143D03*
X010108Y007103D03*
X010108Y007100D03*
X010108Y007098D03*
X010108Y007095D03*
X010108Y007093D03*
X010108Y007090D03*
X010108Y007088D03*
X010105Y007065D03*
X010105Y007063D03*
X010105Y007060D03*
X010103Y007058D03*
X010103Y007048D03*
X010103Y007045D03*
X010103Y007043D03*
X010103Y007040D03*
X010103Y007038D03*
X010103Y007035D03*
X010103Y007033D03*
X010093Y006988D03*
X010093Y006985D03*
X010093Y006983D03*
X010090Y006975D03*
X010090Y006973D03*
X010090Y006970D03*
X010088Y006968D03*
X010090Y006960D03*
X010085Y006935D03*
X010083Y006933D03*
X010083Y006930D03*
X010083Y006928D03*
X010078Y006910D03*
X010078Y006908D03*
X010078Y006905D03*
X010078Y006903D03*
X010078Y006900D03*
X010070Y006870D03*
X010065Y006858D03*
X010065Y006848D03*
X010065Y006845D03*
X010063Y006840D03*
X010058Y006818D03*
X010055Y006815D03*
X010055Y006813D03*
X010055Y006810D03*
X010055Y006808D03*
X010053Y006805D03*
X010053Y006803D03*
X010050Y006798D03*
X010050Y006795D03*
X010050Y006793D03*
X010050Y006790D03*
X010050Y006788D03*
X010048Y006783D03*
X010045Y006780D03*
X010045Y006778D03*
X010045Y006775D03*
X010045Y006773D03*
X010045Y006770D03*
X010040Y006763D03*
X010040Y006760D03*
X010038Y006755D03*
X010038Y006753D03*
X010038Y006750D03*
X010038Y006748D03*
X010038Y006745D03*
X010030Y006725D03*
X010030Y006723D03*
X010030Y006720D03*
X010030Y006718D03*
X010023Y006705D03*
X010023Y006703D03*
X010018Y006688D03*
X010018Y006685D03*
X010015Y006678D03*
X010013Y006673D03*
X010010Y006668D03*
X010010Y006665D03*
X010010Y006663D03*
X010010Y006660D03*
X010003Y006648D03*
X010000Y006638D03*
X010000Y006635D03*
X009995Y006620D03*
X009990Y006613D03*
X009988Y006608D03*
X009985Y006600D03*
X009985Y006598D03*
X009985Y006595D03*
X009985Y006593D03*
X009973Y006565D03*
X009970Y006563D03*
X009968Y006555D03*
X009968Y006553D03*
X009958Y006528D03*
X009948Y006505D03*
X009945Y006503D03*
X009943Y006498D03*
X009943Y006495D03*
X009940Y006493D03*
X009938Y006488D03*
X009933Y006478D03*
X009928Y006470D03*
X009463Y005853D03*
X009443Y005840D03*
X009440Y005838D03*
X009093Y005683D03*
X008918Y005670D03*
X008918Y005663D03*
X010123Y007240D03*
X010125Y007245D03*
X010125Y007248D03*
X010125Y007250D03*
X010125Y007253D03*
X010125Y007255D03*
X010125Y007258D03*
X010125Y007260D03*
X010125Y007265D03*
X010125Y007268D03*
X010125Y007273D03*
X010125Y007275D03*
X010125Y007278D03*
X010125Y007295D03*
X010125Y007298D03*
X010125Y007300D03*
X010125Y007303D03*
X010128Y007318D03*
X010128Y007320D03*
X010128Y007330D03*
X010128Y007333D03*
X010128Y007335D03*
X010128Y007338D03*
X010128Y007348D03*
X010128Y007350D03*
X010128Y007353D03*
X010128Y007368D03*
X010130Y007393D03*
X010130Y007395D03*
X010130Y007398D03*
X010128Y007403D03*
X010128Y007405D03*
X010128Y007408D03*
X010130Y007413D03*
X010130Y007415D03*
X010130Y007418D03*
X010130Y007420D03*
X010130Y007423D03*
X010130Y007425D03*
X010130Y007428D03*
X010130Y007430D03*
X010130Y007433D03*
X010130Y007435D03*
X010130Y007438D03*
X010130Y007450D03*
X010130Y007453D03*
X010130Y007455D03*
X010130Y007458D03*
X010130Y007460D03*
X010130Y007463D03*
X010130Y007465D03*
X010130Y007483D03*
X010130Y007485D03*
X010130Y007495D03*
X010130Y007498D03*
X010130Y007500D03*
X010125Y007513D03*
X010125Y007515D03*
X010128Y007518D03*
X010128Y007523D03*
X010128Y007525D03*
X010128Y007528D03*
X010128Y007530D03*
X010128Y007533D03*
X010128Y007535D03*
X010128Y007538D03*
X010128Y007540D03*
X010128Y007545D03*
X010128Y007548D03*
X010128Y007550D03*
X010128Y007553D03*
X010128Y007555D03*
X010128Y007558D03*
X010128Y007560D03*
X010128Y007563D03*
X010125Y007575D03*
X010125Y007578D03*
X010125Y007580D03*
X010125Y007595D03*
X010123Y007603D03*
X010125Y007625D03*
X010125Y007628D03*
X010125Y007630D03*
X010125Y007633D03*
X010125Y007635D03*
X010123Y007660D03*
X010120Y007668D03*
X010120Y007678D03*
X010120Y007690D03*
X010120Y007693D03*
X010120Y007695D03*
X010118Y007708D03*
X010118Y007710D03*
X010118Y007713D03*
X010118Y007715D03*
X010118Y007718D03*
X010115Y007723D03*
X010115Y007725D03*
X010115Y007740D03*
X010115Y007743D03*
X010115Y007745D03*
X010115Y007748D03*
X010115Y007750D03*
X010110Y007793D03*
X010110Y007795D03*
X010108Y007800D03*
X010108Y007803D03*
X010108Y007805D03*
X010108Y007818D03*
X010108Y007820D03*
X010100Y007863D03*
X010100Y007865D03*
X010100Y007868D03*
X010098Y007885D03*
X010098Y007888D03*
X010095Y007903D03*
X010095Y007905D03*
X010095Y007908D03*
X010095Y007910D03*
X010095Y007913D03*
X010093Y007918D03*
X010093Y007920D03*
X010093Y007923D03*
X010093Y007925D03*
X010093Y007928D03*
X010090Y007933D03*
X010090Y007935D03*
X010088Y007950D03*
X010088Y007953D03*
X010088Y007955D03*
X010085Y007968D03*
X010083Y007983D03*
X010080Y007990D03*
X010078Y008003D03*
X010078Y008005D03*
X010075Y008020D03*
X010073Y008043D03*
X010070Y008050D03*
X010070Y008053D03*
X010070Y008055D03*
X010068Y008065D03*
X010065Y008073D03*
X010065Y008075D03*
X010065Y008078D03*
X010060Y008095D03*
X010043Y008170D03*
X010035Y008200D03*
X010033Y008208D03*
X010008Y008290D03*
X010005Y008300D03*
X010005Y008303D03*
X010005Y008305D03*
X009998Y008325D03*
X010520Y008023D03*
X011170Y007948D03*
X011965Y007848D03*
X011965Y007845D03*
D55*
X012801Y008428D03*
X011179Y007960D03*
X010856Y007933D03*
X009891Y006380D03*
X009861Y006365D03*
X009804Y006278D03*
X009794Y006253D03*
X009756Y006205D03*
X009616Y006023D03*
X009614Y006003D03*
X009536Y005935D03*
X009419Y005795D03*
X009351Y005778D03*
X009169Y005675D03*
X009044Y005710D03*
X008981Y005663D03*
D56*
X008849Y005665D03*
X009269Y005753D03*
X009496Y005890D03*
X009499Y005893D03*
X009506Y005903D03*
X009641Y006038D03*
X009691Y006090D03*
X009689Y006093D03*
X009799Y006250D03*
X009809Y006273D03*
X009819Y006285D03*
X009824Y006295D03*
X009836Y006318D03*
X008959Y007253D03*
X010589Y007908D03*
X010864Y007930D03*
X011179Y007958D03*
X012774Y008423D03*
D57*
X011354Y007403D03*
X009889Y006385D03*
X009861Y006375D03*
X009854Y006363D03*
X009851Y006360D03*
X009844Y006348D03*
X009826Y006268D03*
X009789Y006240D03*
X009621Y006025D03*
X009394Y005793D03*
X009374Y005808D03*
X009294Y005748D03*
X009014Y005665D03*
X008979Y007278D03*
X008981Y007288D03*
X008984Y007290D03*
X008986Y007295D03*
X008986Y007298D03*
D58*
X010096Y007000D03*
X010056Y006828D03*
X010056Y006825D03*
X009954Y006520D03*
X009951Y006518D03*
X009941Y006500D03*
X009921Y006450D03*
X009916Y006443D03*
X009911Y006438D03*
X008914Y005668D03*
X010124Y007473D03*
X010124Y007475D03*
X010124Y007478D03*
X010126Y007480D03*
X010576Y007918D03*
X011734Y008118D03*
X011711Y007383D03*
D59*
X011179Y007953D03*
X010519Y008028D03*
X011729Y008113D03*
X012694Y008018D03*
X009901Y006425D03*
X009884Y006395D03*
X009886Y006388D03*
X009509Y005900D03*
X009491Y005885D03*
X009481Y005878D03*
X009279Y005755D03*
X008999Y005668D03*
D60*
X008826Y005670D03*
X008824Y005673D03*
X009399Y005803D03*
X009936Y006485D03*
X009939Y006490D03*
X009986Y006603D03*
X009986Y006605D03*
X009989Y006610D03*
X010001Y006640D03*
X010001Y006643D03*
X010001Y006645D03*
X010011Y006670D03*
X010014Y006675D03*
X010016Y006680D03*
X010016Y006683D03*
X010019Y006690D03*
X010019Y006693D03*
X010021Y006700D03*
X010039Y006758D03*
X010041Y006765D03*
X010064Y006843D03*
X010109Y007105D03*
X010109Y007108D03*
X010109Y007110D03*
X010111Y007118D03*
X010111Y007120D03*
X010111Y007123D03*
X010111Y007128D03*
X010111Y007130D03*
X010111Y007133D03*
X010111Y007135D03*
X010114Y007140D03*
X010114Y007165D03*
X010114Y007168D03*
X010114Y007170D03*
X010116Y007178D03*
X010116Y007180D03*
X010116Y007183D03*
X010121Y007223D03*
X010121Y007225D03*
X010121Y007228D03*
X010121Y007230D03*
X010121Y007233D03*
X010121Y007235D03*
X010121Y007238D03*
X010126Y007263D03*
X010124Y007270D03*
X010124Y007280D03*
X010126Y007305D03*
X010126Y007308D03*
X010126Y007310D03*
X010126Y007313D03*
X010126Y007315D03*
X010126Y007340D03*
X010129Y007355D03*
X010126Y007358D03*
X010126Y007360D03*
X010126Y007363D03*
X010129Y007410D03*
X010129Y007440D03*
X010129Y007443D03*
X010129Y007445D03*
X010129Y007448D03*
X010129Y007488D03*
X010129Y007490D03*
X010129Y007493D03*
X010129Y007520D03*
X010129Y007543D03*
X010126Y007565D03*
X010126Y007568D03*
X010126Y007570D03*
X010126Y007573D03*
X010124Y007598D03*
X010124Y007600D03*
X010124Y007638D03*
X010121Y007670D03*
X010121Y007673D03*
X010119Y007680D03*
X010119Y007683D03*
X010119Y007685D03*
X010119Y007688D03*
X010119Y007698D03*
X010119Y007700D03*
X010114Y007738D03*
X010114Y007753D03*
X010114Y007755D03*
X010111Y007770D03*
X010111Y007773D03*
X010111Y007775D03*
X010109Y007780D03*
X010109Y007783D03*
X010109Y007785D03*
X010109Y007790D03*
X010109Y007808D03*
X010109Y007810D03*
X010106Y007813D03*
X010106Y007815D03*
X010104Y007835D03*
X010104Y007838D03*
X010101Y007845D03*
X010101Y007848D03*
X010101Y007850D03*
X010101Y007853D03*
X010101Y007855D03*
X010101Y007858D03*
X010101Y007860D03*
X010099Y007870D03*
X010099Y007873D03*
X010099Y007875D03*
X010099Y007878D03*
X010099Y007880D03*
X010099Y007883D03*
X010096Y007890D03*
X010096Y007893D03*
X010096Y007895D03*
X010096Y007898D03*
X010096Y007900D03*
X010094Y007915D03*
X010091Y007930D03*
X010089Y007938D03*
X010089Y007940D03*
X010089Y007943D03*
X010089Y007945D03*
X010089Y007948D03*
X010086Y007958D03*
X010086Y007960D03*
X010086Y007963D03*
X010086Y007965D03*
X010084Y007970D03*
X010084Y007973D03*
X010084Y007975D03*
X010084Y007978D03*
X010084Y007980D03*
X010081Y007985D03*
X010081Y007988D03*
X010079Y007993D03*
X010079Y007995D03*
X010079Y007998D03*
X010079Y008000D03*
X010076Y008008D03*
X010076Y008010D03*
X010076Y008013D03*
X010076Y008015D03*
X010076Y008018D03*
X010074Y008023D03*
X010074Y008025D03*
X010074Y008028D03*
X010071Y008033D03*
X010071Y008035D03*
X010071Y008038D03*
X010071Y008040D03*
X010069Y008058D03*
X010069Y008060D03*
X010069Y008063D03*
X010066Y008068D03*
X010066Y008070D03*
X010064Y008080D03*
X010064Y008083D03*
X010064Y008085D03*
X010061Y008090D03*
X010061Y008093D03*
X010059Y008098D03*
X010059Y008100D03*
X010056Y008108D03*
X010056Y008110D03*
X010056Y008113D03*
X010056Y008115D03*
X010056Y008118D03*
X010054Y008120D03*
X010054Y008123D03*
X010051Y008125D03*
X010051Y008128D03*
X010051Y008130D03*
X010049Y008145D03*
X010049Y008148D03*
X010049Y008150D03*
X010046Y008153D03*
X010046Y008155D03*
X010044Y008158D03*
X010044Y008160D03*
X010044Y008163D03*
X010044Y008165D03*
X010044Y008168D03*
X010041Y008173D03*
X010039Y008180D03*
X010036Y008193D03*
X010036Y008195D03*
X010036Y008198D03*
X010034Y008203D03*
X010034Y008205D03*
X010031Y008210D03*
X010029Y008218D03*
X010029Y008220D03*
X010026Y008225D03*
X010021Y008243D03*
X010021Y008245D03*
X010021Y008248D03*
X010021Y008250D03*
X010016Y008260D03*
X010016Y008263D03*
X010016Y008265D03*
X010014Y008270D03*
X010011Y008273D03*
X010011Y008275D03*
X010011Y008278D03*
X010009Y008285D03*
X010009Y008288D03*
X010006Y008293D03*
X010006Y008295D03*
X010006Y008298D03*
X010004Y008308D03*
X009999Y008320D03*
X009999Y008323D03*
X009996Y008328D03*
X009996Y008330D03*
X009996Y008333D03*
X009994Y008338D03*
X009976Y008385D03*
X009976Y008388D03*
X009976Y008390D03*
X009974Y008393D03*
X009974Y008395D03*
X009429Y009173D03*
X010859Y007918D03*
X011169Y007945D03*
X011469Y007813D03*
X012684Y008010D03*
D61*
X011983Y007668D03*
X011583Y007505D03*
X011580Y007508D03*
X011578Y007510D03*
X011468Y007755D03*
X011468Y007758D03*
X010668Y007400D03*
X009165Y005705D03*
X008963Y005673D03*
X008658Y005835D03*
X009588Y009043D03*
X009585Y009045D03*
D62*
X010498Y007940D03*
X010495Y007325D03*
X011338Y007493D03*
X008900Y005675D03*
D63*
X008923Y005678D03*
X012415Y008325D03*
X012470Y008338D03*
X012510Y008348D03*
D64*
X008898Y005680D03*
D65*
X009178Y005680D03*
X009198Y005685D03*
X009340Y005783D03*
X009340Y005790D03*
X009408Y005800D03*
X009503Y005905D03*
X009603Y005995D03*
X009625Y006030D03*
X009643Y006045D03*
X009655Y006065D03*
X009778Y006225D03*
X009803Y006275D03*
X009815Y006288D03*
X009843Y006345D03*
X009845Y006355D03*
X009873Y006398D03*
X008985Y007293D03*
D66*
X008818Y005718D03*
X008903Y005683D03*
X011335Y007510D03*
D67*
X011720Y007378D03*
X010585Y007903D03*
X009013Y007318D03*
X009010Y007315D03*
X009868Y006373D03*
X009773Y006228D03*
X009773Y006223D03*
X009755Y006208D03*
X009750Y006200D03*
X009745Y006180D03*
X009578Y005975D03*
X009543Y005943D03*
X009525Y005930D03*
X009435Y005788D03*
X009270Y005710D03*
X009218Y005683D03*
D68*
X008906Y005685D03*
X011796Y008163D03*
X012539Y008355D03*
D69*
X011971Y007858D03*
X012089Y007565D03*
X011731Y008115D03*
X010856Y007925D03*
X010519Y008025D03*
X012874Y007410D03*
X009814Y006265D03*
X009481Y005873D03*
X009116Y005685D03*
D70*
X008951Y005688D03*
D71*
X008924Y005690D03*
X012304Y008295D03*
D72*
X012754Y008420D03*
X011964Y007850D03*
X011469Y007815D03*
X010576Y007923D03*
X010124Y007623D03*
X010124Y007620D03*
X010124Y007618D03*
X010124Y007615D03*
X010124Y007613D03*
X010124Y007610D03*
X010124Y007608D03*
X010124Y007605D03*
X010124Y007593D03*
X010124Y007590D03*
X010126Y007585D03*
X010126Y007583D03*
X010121Y007640D03*
X010121Y007643D03*
X010121Y007645D03*
X010121Y007648D03*
X010121Y007650D03*
X010121Y007653D03*
X010121Y007655D03*
X010121Y007658D03*
X010121Y007663D03*
X010121Y007665D03*
X010116Y007720D03*
X010116Y007728D03*
X010116Y007730D03*
X010116Y007733D03*
X010116Y007735D03*
X010109Y007798D03*
X010106Y007823D03*
X010106Y007825D03*
X010104Y007828D03*
X010104Y007830D03*
X010104Y007833D03*
X010071Y008045D03*
X010071Y008048D03*
X010126Y007510D03*
X010126Y007508D03*
X010126Y007505D03*
X010126Y007470D03*
X010129Y007468D03*
X010129Y007400D03*
X010131Y007390D03*
X010131Y007388D03*
X010129Y007383D03*
X010131Y007378D03*
X010129Y007370D03*
X010129Y007328D03*
X010129Y007325D03*
X010129Y007323D03*
X010126Y007293D03*
X010126Y007290D03*
X010126Y007288D03*
X010124Y007243D03*
X010119Y007215D03*
X010119Y007213D03*
X010119Y007210D03*
X010119Y007208D03*
X010119Y007203D03*
X010119Y007200D03*
X010116Y007190D03*
X010114Y007160D03*
X010114Y007158D03*
X010114Y007155D03*
X010114Y007153D03*
X010109Y007085D03*
X010106Y007075D03*
X010106Y007073D03*
X010106Y007070D03*
X010106Y007068D03*
X010101Y007055D03*
X010101Y007053D03*
X010101Y007050D03*
X010101Y007030D03*
X010099Y007023D03*
X010099Y007020D03*
X010099Y007018D03*
X010099Y007015D03*
X010099Y007013D03*
X010094Y006990D03*
X010091Y006980D03*
X010091Y006978D03*
X010089Y006965D03*
X010089Y006963D03*
X010089Y006958D03*
X010089Y006955D03*
X010086Y006943D03*
X010086Y006940D03*
X010086Y006938D03*
X010081Y006925D03*
X010081Y006923D03*
X010081Y006920D03*
X010079Y006918D03*
X010079Y006915D03*
X010079Y006913D03*
X010076Y006898D03*
X010076Y006895D03*
X010076Y006893D03*
X010076Y006890D03*
X010074Y006888D03*
X010074Y006885D03*
X010074Y006883D03*
X010071Y006875D03*
X010071Y006873D03*
X010069Y006868D03*
X010069Y006865D03*
X010069Y006863D03*
X010069Y006860D03*
X010066Y006855D03*
X010066Y006853D03*
X010066Y006850D03*
X010061Y006838D03*
X010061Y006835D03*
X010061Y006833D03*
X010056Y006820D03*
X010051Y006800D03*
X010049Y006785D03*
X010036Y006743D03*
X010036Y006740D03*
X010034Y006733D03*
X010031Y006728D03*
X010029Y006715D03*
X010026Y006713D03*
X010026Y006710D03*
X010024Y006708D03*
X010009Y006658D03*
X010006Y006655D03*
X010004Y006653D03*
X010004Y006650D03*
X009999Y006633D03*
X009996Y006630D03*
X009996Y006628D03*
X009996Y006625D03*
X009996Y006623D03*
X009991Y006615D03*
X009984Y006590D03*
X009981Y006588D03*
X009979Y006585D03*
X009979Y006583D03*
X009979Y006580D03*
X009979Y006578D03*
X009969Y006560D03*
X009969Y006558D03*
X009966Y006550D03*
X009966Y006548D03*
X009964Y006545D03*
X009964Y006543D03*
X009964Y006540D03*
X009961Y006538D03*
X009961Y006535D03*
X009961Y006533D03*
X009959Y006530D03*
X009956Y006525D03*
X009956Y006523D03*
X009954Y006515D03*
X009951Y006510D03*
X009934Y006483D03*
X009931Y006480D03*
X009929Y006473D03*
X009921Y006455D03*
X009921Y006453D03*
X009481Y005868D03*
X009479Y005865D03*
X009456Y005850D03*
X009126Y005690D03*
D73*
X008914Y005693D03*
D74*
X008913Y005695D03*
D75*
X009130Y005695D03*
X009435Y005828D03*
X009440Y005830D03*
X008563Y006330D03*
X008568Y006363D03*
X008568Y006365D03*
X008568Y006368D03*
X008573Y006423D03*
X008580Y006458D03*
X008580Y006460D03*
X008580Y006463D03*
X008595Y006535D03*
X008600Y006550D03*
X008610Y006578D03*
X008610Y006580D03*
X008610Y006583D03*
X008620Y006610D03*
X008620Y006618D03*
X008620Y006620D03*
X008620Y006623D03*
X008623Y006625D03*
X008630Y006650D03*
X008633Y006658D03*
X008633Y006660D03*
X008658Y006718D03*
X008690Y006795D03*
X008690Y006798D03*
X008693Y006800D03*
X008700Y006820D03*
X008708Y006840D03*
X008710Y006845D03*
X008725Y006870D03*
X008725Y006873D03*
X008733Y006883D03*
X008733Y006885D03*
X008750Y006920D03*
X008753Y006923D03*
X008798Y007010D03*
X008800Y007013D03*
X008835Y007065D03*
X008838Y007070D03*
X008843Y007078D03*
X008853Y007093D03*
X008855Y007095D03*
X008860Y007100D03*
X010328Y007453D03*
X010325Y007468D03*
X010325Y007470D03*
X010325Y007473D03*
X010325Y007475D03*
X010323Y007478D03*
X010323Y007480D03*
X010323Y007483D03*
X010323Y007485D03*
X010320Y007510D03*
X010320Y007553D03*
X010320Y007555D03*
X010350Y007745D03*
X010350Y007748D03*
X010365Y007795D03*
X010370Y007805D03*
X010370Y007808D03*
X010370Y007810D03*
X010370Y007813D03*
X010373Y007818D03*
X010375Y007820D03*
X010375Y007823D03*
X010378Y007828D03*
X010568Y007935D03*
X010898Y007515D03*
X010898Y007513D03*
X010900Y007508D03*
X010900Y007505D03*
X010905Y007490D03*
X010910Y007480D03*
X010910Y007478D03*
X010910Y007475D03*
X010918Y007463D03*
X010918Y007460D03*
X010920Y007458D03*
X010925Y007450D03*
X010928Y007448D03*
X011415Y007523D03*
X011415Y007525D03*
X011418Y007530D03*
X012675Y008000D03*
X012870Y007420D03*
X012870Y007418D03*
X009833Y008703D03*
X009830Y008708D03*
X009828Y008710D03*
X009828Y008713D03*
X009825Y008715D03*
X009823Y008720D03*
X009820Y008725D03*
X009818Y008728D03*
X009818Y008730D03*
X009815Y008733D03*
X009815Y008735D03*
X009805Y008748D03*
X009805Y008750D03*
X009795Y008763D03*
X009793Y008768D03*
X009790Y008775D03*
X009788Y008778D03*
X009785Y008783D03*
X009783Y008785D03*
X009780Y008790D03*
X009778Y008795D03*
X009775Y008798D03*
X009770Y008805D03*
X009768Y008813D03*
D76*
X009435Y009178D03*
X010588Y007910D03*
X011475Y007823D03*
X011975Y007860D03*
X012875Y007408D03*
X009898Y006430D03*
X009890Y006410D03*
X009895Y006408D03*
X009855Y006353D03*
X009848Y006330D03*
X009843Y006328D03*
X009830Y006303D03*
X009830Y006300D03*
X009645Y006040D03*
X009505Y005898D03*
X009280Y005758D03*
X009215Y005695D03*
X008958Y007248D03*
X008958Y007250D03*
D77*
X008994Y005698D03*
D78*
X008924Y005700D03*
X012174Y008265D03*
X012191Y008270D03*
D79*
X008963Y005703D03*
D80*
X008896Y005705D03*
X011866Y008190D03*
D81*
X008981Y005708D03*
D82*
X008861Y005710D03*
X012276Y008288D03*
D83*
X012488Y007830D03*
X012755Y007653D03*
X012770Y007638D03*
X012775Y007635D03*
X012778Y007633D03*
X012810Y007608D03*
X012815Y007605D03*
X012825Y007598D03*
X012010Y007648D03*
X011618Y007473D03*
X011473Y007673D03*
X011473Y007675D03*
X011473Y007678D03*
X011473Y007680D03*
X011475Y007690D03*
X011475Y007693D03*
X011350Y007435D03*
X010848Y007608D03*
X009443Y009153D03*
X009168Y005710D03*
X008710Y005778D03*
D84*
X008845Y005713D03*
X010503Y007340D03*
X012340Y008305D03*
X012390Y008318D03*
D85*
X012660Y007985D03*
X012473Y007845D03*
X012465Y007850D03*
X012078Y007585D03*
X012000Y007653D03*
X011998Y007655D03*
X011600Y007485D03*
X011348Y007428D03*
X011470Y007730D03*
X011470Y007733D03*
X011470Y007735D03*
X010850Y007638D03*
X010658Y007393D03*
X010368Y007398D03*
X009173Y005713D03*
X008683Y005805D03*
X008683Y005808D03*
X008675Y005813D03*
X008668Y005820D03*
X012868Y007560D03*
X009565Y009060D03*
X009563Y009063D03*
X009543Y009078D03*
D86*
X011793Y008160D03*
X008825Y005715D03*
D87*
X008640Y005860D03*
X008640Y005863D03*
X008638Y005865D03*
X008638Y005868D03*
X008633Y005875D03*
X009175Y005715D03*
X009235Y005730D03*
X010355Y007408D03*
X010700Y007425D03*
X010708Y007433D03*
X010710Y007435D03*
X010723Y007445D03*
X010725Y007448D03*
X010728Y007453D03*
X010858Y007693D03*
X010858Y007695D03*
X010858Y007698D03*
X010855Y007703D03*
X010855Y007705D03*
X011168Y007903D03*
X011168Y007905D03*
X011168Y007908D03*
X011168Y007910D03*
X011465Y007780D03*
X011263Y007528D03*
X011263Y007525D03*
X011265Y007523D03*
X011973Y007680D03*
X012890Y007525D03*
X012898Y007463D03*
X012893Y007458D03*
X012870Y007428D03*
X010435Y007935D03*
X009618Y009008D03*
X009615Y009013D03*
X009613Y009015D03*
X009608Y009020D03*
X009605Y009023D03*
D88*
X009575Y009053D03*
X009573Y009055D03*
X010853Y007658D03*
X010853Y007655D03*
X010853Y007653D03*
X011993Y007658D03*
X012460Y007858D03*
X012460Y007860D03*
X012460Y007863D03*
X012463Y007855D03*
X012463Y007853D03*
X012663Y007988D03*
X012875Y007550D03*
X012875Y007548D03*
X012875Y007545D03*
X012878Y007443D03*
X012873Y007438D03*
X012873Y007435D03*
X009183Y005718D03*
X008673Y005815D03*
X008668Y005823D03*
X008665Y005825D03*
X008665Y005828D03*
X008663Y005830D03*
D89*
X008813Y005720D03*
X011338Y007488D03*
X011493Y007558D03*
X010498Y007948D03*
X010498Y007950D03*
D90*
X010426Y007928D03*
X010761Y007495D03*
X010749Y007478D03*
X010746Y007475D03*
X010744Y007473D03*
X010741Y007470D03*
X010739Y007465D03*
X010961Y007408D03*
X010971Y007395D03*
X010971Y007393D03*
X010974Y007388D03*
X011249Y007548D03*
X011246Y007558D03*
X011244Y007568D03*
X011234Y007590D03*
X011259Y007533D03*
X011184Y007838D03*
X011184Y007840D03*
X011179Y007860D03*
X011179Y007863D03*
X011179Y007865D03*
X011179Y007868D03*
X011176Y007873D03*
X011176Y007875D03*
X011174Y007878D03*
X011174Y007880D03*
X011174Y007883D03*
X011174Y007885D03*
X011174Y007888D03*
X011174Y007890D03*
X011466Y007788D03*
X010856Y007753D03*
X010856Y007750D03*
X010856Y007748D03*
X010856Y007745D03*
X010856Y007730D03*
X010856Y007728D03*
X010856Y007725D03*
X010351Y007413D03*
X010349Y007415D03*
X011701Y007393D03*
X011961Y007700D03*
X011959Y007703D03*
X011959Y007705D03*
X011956Y007708D03*
X011956Y007710D03*
X011954Y007715D03*
X012871Y007425D03*
X012901Y007468D03*
X012901Y007470D03*
X012904Y007485D03*
X012904Y007488D03*
X012904Y007490D03*
X012901Y007505D03*
X012901Y007508D03*
X012896Y007513D03*
X009664Y008958D03*
X009659Y008963D03*
X009654Y008970D03*
X009651Y008973D03*
X009649Y008978D03*
X009644Y008983D03*
X009631Y008998D03*
X008589Y005980D03*
X008596Y005958D03*
X008606Y005935D03*
X008606Y005933D03*
X008606Y005930D03*
X008611Y005920D03*
X008614Y005918D03*
X008614Y005915D03*
X008616Y005910D03*
X008619Y005905D03*
X009196Y005720D03*
X009431Y005820D03*
D91*
X008801Y005723D03*
X011339Y007485D03*
X011491Y007560D03*
X011491Y007563D03*
X010496Y007953D03*
D92*
X010431Y007933D03*
X010854Y007710D03*
X010854Y007708D03*
X010856Y007700D03*
X010731Y007458D03*
X010729Y007455D03*
X010726Y007450D03*
X010719Y007443D03*
X010714Y007440D03*
X010714Y007438D03*
X010496Y007308D03*
X010354Y007410D03*
X010969Y007398D03*
X011254Y007540D03*
X011256Y007535D03*
X011261Y007530D03*
X011266Y007520D03*
X011351Y007420D03*
X011466Y007783D03*
X011171Y007893D03*
X011169Y007900D03*
X011166Y007913D03*
X011166Y007915D03*
X011964Y007695D03*
X011966Y007688D03*
X011969Y007685D03*
X011971Y007683D03*
X012894Y007460D03*
X012731Y008415D03*
X009641Y008988D03*
X009621Y009005D03*
X008621Y005900D03*
X008624Y005895D03*
X008629Y005883D03*
X008629Y005880D03*
X008631Y005878D03*
X009206Y005723D03*
D93*
X008794Y005725D03*
X008789Y005728D03*
X010836Y007525D03*
X010836Y007528D03*
X010504Y007970D03*
X011489Y007580D03*
X011776Y008148D03*
D94*
X011173Y007950D03*
X010578Y007920D03*
X010125Y007588D03*
X010128Y007503D03*
X010130Y007385D03*
X010130Y007380D03*
X010130Y007375D03*
X010130Y007373D03*
X010118Y007198D03*
X010118Y007195D03*
X010118Y007193D03*
X010108Y007083D03*
X010108Y007080D03*
X010108Y007078D03*
X010100Y007028D03*
X010100Y007025D03*
X010098Y007010D03*
X010098Y007008D03*
X010098Y007005D03*
X010098Y007003D03*
X010095Y006998D03*
X010095Y006995D03*
X010095Y006993D03*
X010088Y006953D03*
X010088Y006950D03*
X010088Y006948D03*
X010088Y006945D03*
X010073Y006880D03*
X010073Y006878D03*
X010060Y006830D03*
X010055Y006823D03*
X010035Y006738D03*
X010035Y006735D03*
X010033Y006730D03*
X009993Y006618D03*
X009978Y006575D03*
X009975Y006573D03*
X009975Y006570D03*
X009973Y006568D03*
X009950Y006513D03*
X009948Y006508D03*
X009930Y006475D03*
X009925Y006468D03*
X009910Y006428D03*
X009488Y005875D03*
X009473Y005860D03*
X009468Y005858D03*
X009463Y005855D03*
X009260Y005745D03*
X009210Y005728D03*
X010495Y007303D03*
X012868Y007413D03*
D95*
X012610Y008378D03*
X011488Y007590D03*
X011488Y007588D03*
X011488Y007585D03*
X011488Y007583D03*
X011340Y007470D03*
X010498Y007320D03*
X010505Y007973D03*
X008785Y005730D03*
D96*
X008780Y005733D03*
X010838Y007533D03*
X010505Y007975D03*
X011343Y007465D03*
X011665Y007448D03*
X011668Y007443D03*
X009485Y009105D03*
D97*
X009679Y008938D03*
X009686Y008928D03*
X009689Y008923D03*
X009716Y008888D03*
X009719Y008885D03*
X010421Y007918D03*
X010416Y007910D03*
X010416Y007908D03*
X010411Y007900D03*
X010851Y007878D03*
X010851Y007875D03*
X010851Y007873D03*
X010851Y007870D03*
X010854Y007883D03*
X010854Y007885D03*
X010854Y007888D03*
X010854Y007890D03*
X010851Y007853D03*
X010851Y007835D03*
X010854Y007833D03*
X010854Y007830D03*
X010854Y007828D03*
X010854Y007825D03*
X010854Y007823D03*
X010854Y007820D03*
X010854Y007805D03*
X010854Y007803D03*
X010854Y007800D03*
X010854Y007798D03*
X010856Y007785D03*
X010856Y007783D03*
X010856Y007780D03*
X010856Y007768D03*
X010856Y007765D03*
X010856Y007740D03*
X010856Y007738D03*
X010946Y007420D03*
X010976Y007383D03*
X011239Y007573D03*
X011239Y007575D03*
X011239Y007578D03*
X011239Y007580D03*
X011236Y007583D03*
X011236Y007585D03*
X011236Y007588D03*
X011234Y007595D03*
X011234Y007598D03*
X011229Y007605D03*
X011224Y007625D03*
X011224Y007628D03*
X011224Y007630D03*
X011224Y007633D03*
X011201Y007748D03*
X011199Y007760D03*
X011199Y007763D03*
X011199Y007765D03*
X011199Y007768D03*
X011196Y007770D03*
X011196Y007773D03*
X011194Y007778D03*
X011194Y007780D03*
X011194Y007783D03*
X011194Y007785D03*
X011194Y007788D03*
X011194Y007790D03*
X011194Y007793D03*
X011191Y007798D03*
X011189Y007808D03*
X011186Y007820D03*
X011186Y007823D03*
X011181Y007850D03*
X011181Y007853D03*
X011166Y007930D03*
X011466Y007793D03*
X011351Y007418D03*
X011951Y007720D03*
X011949Y007728D03*
X011949Y007730D03*
X011949Y007733D03*
X011949Y007745D03*
X011949Y007748D03*
X011949Y007750D03*
X011949Y007753D03*
X011954Y007795D03*
X011954Y007798D03*
X011959Y007810D03*
X011959Y007813D03*
X011959Y007815D03*
X012086Y007573D03*
X012669Y007995D03*
X012904Y007498D03*
X012904Y007495D03*
X012901Y007478D03*
X009414Y005810D03*
X009234Y005733D03*
X008604Y005943D03*
X008601Y005948D03*
X008591Y005970D03*
X008591Y005973D03*
X008591Y005975D03*
X008591Y005978D03*
X008589Y005985D03*
X008589Y005988D03*
X008586Y005995D03*
X008584Y005998D03*
X008584Y006000D03*
X008584Y006003D03*
X008584Y006005D03*
X008581Y006010D03*
X008576Y006035D03*
X008574Y006038D03*
X008574Y006040D03*
X008571Y006050D03*
X008569Y006085D03*
X008569Y006088D03*
X008566Y006090D03*
X008566Y006093D03*
X008564Y006095D03*
X008564Y006108D03*
D98*
X008774Y005735D03*
X010836Y007535D03*
X010504Y007978D03*
X011486Y007600D03*
X011486Y007598D03*
X011486Y007595D03*
X011661Y007450D03*
X011666Y007445D03*
X009491Y009100D03*
X009486Y009103D03*
X009479Y009110D03*
X009474Y009113D03*
D99*
X009683Y008933D03*
X009695Y008915D03*
X009703Y008908D03*
X009708Y008900D03*
X009710Y008898D03*
X009713Y008895D03*
X009713Y008893D03*
X009715Y008890D03*
X009720Y008883D03*
X010510Y008018D03*
X010420Y007915D03*
X010415Y007905D03*
X010413Y007903D03*
X010410Y007898D03*
X010408Y007895D03*
X010408Y007893D03*
X010400Y007883D03*
X010773Y007510D03*
X010935Y007435D03*
X010938Y007430D03*
X010980Y007380D03*
X010980Y007378D03*
X010983Y007375D03*
X010988Y007373D03*
X011230Y007608D03*
X011230Y007610D03*
X011225Y007620D03*
X011225Y007623D03*
X011223Y007635D03*
X011223Y007638D03*
X011220Y007645D03*
X011220Y007648D03*
X011220Y007650D03*
X011220Y007653D03*
X011220Y007655D03*
X011215Y007673D03*
X011215Y007675D03*
X011213Y007683D03*
X011213Y007685D03*
X011210Y007690D03*
X011210Y007693D03*
X011210Y007695D03*
X011208Y007708D03*
X011205Y007715D03*
X011205Y007718D03*
X011205Y007720D03*
X011205Y007723D03*
X011205Y007725D03*
X011205Y007728D03*
X011205Y007730D03*
X011205Y007733D03*
X011203Y007735D03*
X011203Y007738D03*
X011203Y007740D03*
X011203Y007743D03*
X011203Y007745D03*
X011200Y007750D03*
X011200Y007753D03*
X011200Y007755D03*
X011200Y007758D03*
X011468Y007795D03*
X010855Y007795D03*
X010855Y007793D03*
X010855Y007790D03*
X010855Y007788D03*
X010855Y007778D03*
X010855Y007775D03*
X010855Y007773D03*
X010855Y007770D03*
X010853Y007808D03*
X010853Y007810D03*
X010853Y007813D03*
X010853Y007815D03*
X010853Y007818D03*
X010853Y007838D03*
X010853Y007840D03*
X010853Y007843D03*
X010853Y007845D03*
X010853Y007848D03*
X010853Y007850D03*
X010853Y007860D03*
X010853Y007863D03*
X010853Y007865D03*
X010853Y007868D03*
X010853Y007880D03*
X010853Y007893D03*
X010853Y007895D03*
X010853Y007898D03*
X011705Y007390D03*
X011950Y007723D03*
X011950Y007725D03*
X011948Y007735D03*
X011948Y007738D03*
X011948Y007740D03*
X011948Y007743D03*
X011948Y007755D03*
X011948Y007758D03*
X011948Y007760D03*
X011948Y007763D03*
X011948Y007765D03*
X011950Y007770D03*
X011950Y007773D03*
X011950Y007775D03*
X011950Y007778D03*
X011950Y007780D03*
X011950Y007783D03*
X011953Y007785D03*
X011953Y007788D03*
X011953Y007790D03*
X011953Y007793D03*
X011955Y007800D03*
X011955Y007803D03*
X011958Y007808D03*
X011960Y007818D03*
X011960Y007820D03*
X011960Y007823D03*
X011960Y007825D03*
X009243Y005735D03*
X008603Y005945D03*
X008583Y006008D03*
X008580Y006013D03*
X008580Y006015D03*
X008580Y006018D03*
X008580Y006020D03*
X008580Y006023D03*
X008578Y006030D03*
X008578Y006033D03*
X008573Y006043D03*
X008573Y006045D03*
X008573Y006048D03*
X008573Y006053D03*
X008573Y006055D03*
X008573Y006058D03*
X008570Y006063D03*
X008570Y006065D03*
X008570Y006068D03*
X008570Y006070D03*
X008568Y006075D03*
X008568Y006078D03*
X008568Y006080D03*
X008568Y006083D03*
X008565Y006098D03*
X008565Y006100D03*
X008565Y006103D03*
X008565Y006105D03*
X008565Y006110D03*
X008565Y006113D03*
X008565Y006115D03*
X008560Y006158D03*
X008558Y006195D03*
X008558Y006198D03*
X008558Y006200D03*
X008580Y006473D03*
X008580Y006475D03*
X008580Y006478D03*
X008580Y006480D03*
D100*
X008771Y005738D03*
X010839Y007545D03*
X010504Y007983D03*
X011484Y007613D03*
X011484Y007610D03*
X011676Y007430D03*
X012041Y007633D03*
X012044Y007630D03*
X012584Y007933D03*
X012589Y007938D03*
X012599Y007943D03*
X009459Y009128D03*
D101*
X009835Y008698D03*
X009838Y008693D03*
X009840Y008685D03*
X009843Y008683D03*
X009845Y008680D03*
X009845Y008678D03*
X009848Y008673D03*
X009850Y008670D03*
X009853Y008665D03*
X009853Y008663D03*
X009855Y008660D03*
X009858Y008655D03*
X009860Y008650D03*
X009873Y008625D03*
X009875Y008623D03*
X009878Y008618D03*
X009913Y008543D03*
X010360Y007785D03*
X010360Y007783D03*
X010358Y007775D03*
X010358Y007773D03*
X010358Y007770D03*
X010355Y007763D03*
X010355Y007760D03*
X010353Y007755D03*
X010353Y007753D03*
X010348Y007740D03*
X010348Y007738D03*
X010348Y007735D03*
X010348Y007733D03*
X010345Y007728D03*
X010345Y007725D03*
X010343Y007720D03*
X010343Y007718D03*
X010338Y007695D03*
X010338Y007693D03*
X010338Y007690D03*
X010338Y007688D03*
X010335Y007683D03*
X010335Y007680D03*
X010335Y007678D03*
X010335Y007675D03*
X010335Y007673D03*
X010333Y007665D03*
X010333Y007663D03*
X010330Y007653D03*
X010328Y007628D03*
X010328Y007610D03*
X010328Y007608D03*
X010323Y007605D03*
X010323Y007603D03*
X010323Y007600D03*
X010323Y007598D03*
X010323Y007595D03*
X010323Y007583D03*
X010323Y007580D03*
X010320Y007568D03*
X010320Y007565D03*
X010323Y007548D03*
X010323Y007525D03*
X010323Y007523D03*
X010323Y007520D03*
X010323Y007518D03*
X010323Y007515D03*
X010323Y007513D03*
X010323Y007503D03*
X010323Y007500D03*
X010323Y007498D03*
X010323Y007495D03*
X010323Y007493D03*
X010570Y007930D03*
X010995Y007363D03*
X011420Y007533D03*
X011420Y007535D03*
X011423Y007545D03*
X011423Y007548D03*
X011423Y007550D03*
X011423Y007553D03*
X011963Y007835D03*
X009440Y005833D03*
X009425Y005818D03*
X009245Y005738D03*
X008593Y006515D03*
X008595Y006518D03*
X008618Y006600D03*
X008618Y006603D03*
X008618Y006605D03*
X008630Y006643D03*
X008655Y006710D03*
X008678Y006763D03*
X008695Y006805D03*
X008695Y006808D03*
X008698Y006813D03*
X008698Y006815D03*
X008715Y006848D03*
X008715Y006850D03*
X008718Y006855D03*
X008720Y006858D03*
X008720Y006860D03*
X008723Y006863D03*
X008723Y006865D03*
X008730Y006878D03*
X008735Y006890D03*
X008738Y006895D03*
X008750Y006915D03*
X008755Y006928D03*
X008760Y006933D03*
X008760Y006935D03*
X008763Y006940D03*
X008775Y006965D03*
X008778Y006968D03*
X008778Y006970D03*
X008780Y006973D03*
X008798Y007005D03*
X008808Y007020D03*
X008825Y007048D03*
X008830Y007058D03*
X008833Y007060D03*
X008840Y007073D03*
X008863Y007103D03*
X008865Y007108D03*
X008868Y007110D03*
X008870Y007113D03*
X008875Y007120D03*
X008878Y007123D03*
X008880Y007125D03*
X008893Y007140D03*
X008893Y007143D03*
X008898Y007148D03*
X008900Y007153D03*
X008915Y007173D03*
X008935Y007200D03*
X008950Y007220D03*
D102*
X008766Y005740D03*
X010839Y007540D03*
X010839Y007543D03*
X010504Y007980D03*
X011486Y007605D03*
X011486Y007603D03*
X011671Y007438D03*
X012596Y007940D03*
X012614Y007950D03*
X012616Y007953D03*
X012641Y008385D03*
X011769Y008145D03*
X009496Y009098D03*
X009469Y009120D03*
X009464Y009123D03*
D103*
X009863Y008645D03*
X009865Y008640D03*
X009868Y008635D03*
X009883Y008603D03*
X009885Y008600D03*
X009893Y008585D03*
X009895Y008580D03*
X009898Y008578D03*
X009898Y008575D03*
X009900Y008570D03*
X009900Y008568D03*
X009903Y008565D03*
X009905Y008560D03*
X009905Y008558D03*
X009905Y008555D03*
X009908Y008553D03*
X009910Y008548D03*
X009910Y008545D03*
X009915Y008533D03*
X009920Y008525D03*
X009920Y008523D03*
X009923Y008518D03*
X009928Y008505D03*
X009930Y008500D03*
X009935Y008488D03*
X009938Y008483D03*
X009940Y008480D03*
X009940Y008478D03*
X009943Y008473D03*
X009950Y008460D03*
X009950Y008458D03*
X009955Y008445D03*
X009955Y008443D03*
X009955Y008440D03*
X010330Y007643D03*
X010330Y007640D03*
X010330Y007638D03*
X010328Y007623D03*
X010328Y007620D03*
X010323Y007543D03*
X010323Y007540D03*
X010858Y007915D03*
X011000Y007360D03*
X011708Y007385D03*
X012090Y007570D03*
X011963Y007840D03*
X009460Y005848D03*
X009250Y005740D03*
X008748Y006910D03*
X008783Y006975D03*
X008790Y006988D03*
X008798Y007000D03*
X008815Y007028D03*
X008815Y007030D03*
X008905Y007158D03*
X008905Y007160D03*
X008910Y007165D03*
X008918Y007175D03*
X008923Y007183D03*
X008938Y007205D03*
X008940Y007208D03*
X008960Y007228D03*
X008960Y007230D03*
D104*
X010840Y007553D03*
X010840Y007555D03*
X010840Y007558D03*
X011480Y007623D03*
X011480Y007625D03*
X011480Y007628D03*
X012570Y007928D03*
X008763Y005743D03*
D105*
X009264Y005743D03*
X009441Y005835D03*
X008676Y006760D03*
X008736Y006893D03*
X008741Y006898D03*
X008744Y006900D03*
X008744Y006903D03*
X008744Y006905D03*
X008746Y006908D03*
X008749Y006913D03*
X008759Y006930D03*
X008799Y007003D03*
X008804Y007015D03*
X008824Y007045D03*
X008874Y007118D03*
X008899Y007150D03*
X008904Y007155D03*
X008906Y007163D03*
X008911Y007168D03*
X008911Y007170D03*
X008919Y007178D03*
X008921Y007180D03*
X008924Y007185D03*
X008926Y007188D03*
X008929Y007190D03*
X008936Y007203D03*
X008944Y007210D03*
X008946Y007213D03*
X008946Y007215D03*
X008949Y007218D03*
X008961Y007233D03*
X008964Y007235D03*
X008966Y007238D03*
X008966Y007240D03*
X008969Y007243D03*
X010321Y007528D03*
X010321Y007530D03*
X010321Y007533D03*
X010321Y007535D03*
X010321Y007538D03*
X010324Y007545D03*
X010326Y007613D03*
X010326Y007615D03*
X010326Y007618D03*
X010329Y007625D03*
X010329Y007630D03*
X010329Y007633D03*
X010329Y007635D03*
X010331Y007645D03*
X010331Y007648D03*
X010331Y007650D03*
X010334Y007668D03*
X010334Y007670D03*
X010339Y007698D03*
X010339Y007700D03*
X010341Y007703D03*
X010341Y007705D03*
X010344Y007708D03*
X010344Y007710D03*
X010344Y007713D03*
X010344Y007715D03*
X010354Y007758D03*
X010856Y007910D03*
X010856Y007913D03*
X011474Y007805D03*
X011346Y007415D03*
X011961Y007838D03*
X009919Y008528D03*
X009916Y008530D03*
X009914Y008535D03*
X009914Y008538D03*
X009914Y008540D03*
X009909Y008550D03*
X009904Y008563D03*
X009899Y008573D03*
X009894Y008583D03*
X009891Y008588D03*
X009889Y008590D03*
X009889Y008593D03*
X009889Y008595D03*
X009886Y008598D03*
X009881Y008605D03*
X009881Y008608D03*
X009879Y008610D03*
X009879Y008613D03*
X009879Y008615D03*
X009876Y008620D03*
X009871Y008628D03*
X009871Y008630D03*
X009869Y008633D03*
X009866Y008638D03*
X009864Y008643D03*
X009861Y008648D03*
X009859Y008653D03*
X009856Y008658D03*
X009851Y008668D03*
X009846Y008675D03*
D106*
X010504Y007990D03*
X010841Y007565D03*
X010499Y007315D03*
X011479Y007643D03*
X011689Y007415D03*
X012049Y007618D03*
X012054Y007613D03*
X012521Y007908D03*
X012526Y007910D03*
X012531Y007913D03*
X011764Y008138D03*
X008756Y005745D03*
D107*
X008755Y005748D03*
X010625Y007383D03*
X010843Y007568D03*
X010843Y007570D03*
X010843Y007573D03*
X010505Y007993D03*
X011348Y007445D03*
X011478Y007645D03*
X012028Y007640D03*
X012060Y007608D03*
X012553Y007783D03*
X012555Y007780D03*
X012560Y007778D03*
X012543Y007918D03*
X012555Y007923D03*
X012640Y007968D03*
X009450Y009140D03*
D108*
X009455Y009138D03*
X010503Y007988D03*
X010840Y007563D03*
X010400Y007383D03*
X011348Y007448D03*
X011480Y007638D03*
X011480Y007640D03*
X011640Y007458D03*
X011643Y007455D03*
X012030Y007638D03*
X012055Y007610D03*
X012538Y007915D03*
X012563Y007925D03*
X008750Y005750D03*
D109*
X008751Y005753D03*
X008714Y005775D03*
X008709Y005780D03*
X010644Y007388D03*
X010846Y007603D03*
X010846Y007605D03*
X011474Y007683D03*
X011474Y007685D03*
X011474Y007688D03*
X011614Y007475D03*
X011619Y007470D03*
X012014Y007645D03*
X012071Y007593D03*
X012491Y007828D03*
X012496Y007823D03*
X012474Y007878D03*
X012476Y007880D03*
X012486Y007885D03*
X012649Y007978D03*
X012741Y007660D03*
X012746Y007658D03*
X012749Y007655D03*
X012761Y007645D03*
X012764Y007643D03*
X012786Y007628D03*
X012789Y007625D03*
X012794Y007623D03*
X012794Y007620D03*
X012799Y007618D03*
X010504Y008000D03*
X009526Y009088D03*
D110*
X009523Y009090D03*
X009445Y009150D03*
X010845Y007600D03*
X010845Y007598D03*
X011623Y007468D03*
X011695Y007405D03*
X012495Y007825D03*
X012500Y007820D03*
X012483Y007883D03*
X012760Y007648D03*
X012783Y007630D03*
X012680Y008398D03*
X008748Y005755D03*
X008718Y005770D03*
X008718Y005773D03*
D111*
X008730Y005765D03*
X008738Y005758D03*
X010843Y007578D03*
X010505Y007995D03*
X011478Y007653D03*
X011690Y007413D03*
X012063Y007600D03*
X012063Y007603D03*
X012518Y007808D03*
X012528Y007798D03*
X012535Y007793D03*
X012540Y007790D03*
X012543Y007788D03*
X012565Y007775D03*
X012580Y007765D03*
X012590Y007760D03*
X012595Y007758D03*
X012618Y007743D03*
X012633Y007733D03*
X012650Y007723D03*
X012653Y007720D03*
X012655Y007718D03*
X012658Y007715D03*
X012678Y007703D03*
X012695Y007693D03*
X012645Y007973D03*
D112*
X012509Y007900D03*
X012504Y007898D03*
X012506Y007815D03*
X012509Y007813D03*
X012519Y007805D03*
X012524Y007803D03*
X012526Y007800D03*
X012576Y007768D03*
X012601Y007753D03*
X012606Y007750D03*
X012611Y007748D03*
X012614Y007745D03*
X012661Y007713D03*
X012671Y007708D03*
X012674Y007705D03*
X012686Y007698D03*
X012689Y007695D03*
X012699Y007690D03*
X012701Y007688D03*
X012064Y007598D03*
X011631Y007460D03*
X011476Y007655D03*
X011476Y007658D03*
X011476Y007660D03*
X011476Y007663D03*
X011476Y007665D03*
X011346Y007440D03*
X010844Y007580D03*
X010844Y007583D03*
X009514Y009095D03*
X009446Y009145D03*
X008724Y005768D03*
X008731Y005763D03*
X008734Y005760D03*
D113*
X009283Y005760D03*
X009295Y005765D03*
X009338Y005785D03*
X009348Y005793D03*
X009388Y005798D03*
X009498Y005895D03*
X009508Y005883D03*
X009598Y005990D03*
X009653Y006055D03*
X009655Y006058D03*
X009673Y006075D03*
X009685Y006095D03*
X009798Y006255D03*
X009873Y006393D03*
X009880Y006403D03*
X008965Y007260D03*
X008965Y007263D03*
X008970Y007270D03*
X008970Y007273D03*
X008973Y007275D03*
X010588Y007905D03*
X011735Y008110D03*
X012098Y007563D03*
D114*
X012074Y007590D03*
X011699Y007403D03*
X011474Y007695D03*
X011474Y007698D03*
X010651Y007390D03*
X010384Y007388D03*
X010504Y008003D03*
X012471Y007875D03*
X012651Y007980D03*
X012756Y007650D03*
X012769Y007640D03*
X012801Y007615D03*
X012806Y007613D03*
X012809Y007610D03*
X012831Y007593D03*
X012834Y007590D03*
X012851Y007575D03*
X012854Y007573D03*
X012686Y008400D03*
X012689Y008403D03*
X012709Y008408D03*
X008706Y005783D03*
X008704Y005785D03*
X008696Y005790D03*
D115*
X008700Y005788D03*
X010380Y007390D03*
X010848Y007610D03*
X010848Y007613D03*
X010848Y007615D03*
X010848Y007618D03*
X010848Y007620D03*
X010848Y007623D03*
X011350Y007433D03*
X011473Y007700D03*
X011473Y007703D03*
X011473Y007705D03*
X012005Y007650D03*
X012485Y007833D03*
X012470Y007873D03*
X012820Y007603D03*
X012823Y007600D03*
X012830Y007595D03*
X012835Y007588D03*
X010503Y008005D03*
X009533Y009083D03*
X009530Y009085D03*
D116*
X011471Y007708D03*
X011609Y007478D03*
X011701Y007400D03*
X011349Y007430D03*
X012076Y007588D03*
X012481Y007835D03*
X012466Y007870D03*
X012839Y007585D03*
X012841Y007583D03*
X012844Y007580D03*
X012846Y007578D03*
X010496Y007310D03*
X008694Y005793D03*
D117*
X008693Y005795D03*
X008690Y005798D03*
X008688Y005800D03*
X010375Y007393D03*
X010503Y008008D03*
X011470Y007710D03*
X011603Y007483D03*
X011605Y007480D03*
X012465Y007868D03*
X012478Y007840D03*
X012858Y007570D03*
X012863Y007565D03*
X012705Y008405D03*
X011758Y008133D03*
X009550Y009073D03*
X009548Y009075D03*
X009538Y009080D03*
X009440Y009155D03*
D118*
X009554Y009070D03*
X009556Y009068D03*
X009559Y009065D03*
X010851Y007635D03*
X010849Y007633D03*
X010849Y007630D03*
X010849Y007628D03*
X010849Y007625D03*
X011469Y007725D03*
X011469Y007728D03*
X011471Y007723D03*
X011471Y007720D03*
X011471Y007718D03*
X011471Y007715D03*
X011471Y007713D03*
X012464Y007865D03*
X012476Y007843D03*
X012479Y007838D03*
X012656Y007983D03*
X012859Y007568D03*
X012864Y007563D03*
X010371Y007395D03*
X008686Y005803D03*
D119*
X009423Y005805D03*
X009455Y005845D03*
X010020Y006695D03*
X010020Y006698D03*
X010043Y006768D03*
X010110Y007113D03*
X010110Y007115D03*
X010110Y007125D03*
X010113Y007138D03*
X010115Y007163D03*
X010115Y007173D03*
X010115Y007175D03*
X010125Y007283D03*
X010125Y007285D03*
X010128Y007343D03*
X010128Y007345D03*
X010128Y007365D03*
X010118Y007703D03*
X010118Y007705D03*
X010113Y007758D03*
X010113Y007760D03*
X010113Y007763D03*
X010113Y007765D03*
X010113Y007768D03*
X010110Y007778D03*
X010110Y007788D03*
X010103Y007840D03*
X010103Y007843D03*
X010073Y008030D03*
X010063Y008088D03*
X010058Y008103D03*
X010058Y008105D03*
X010050Y008133D03*
X010050Y008135D03*
X010050Y008138D03*
X010050Y008140D03*
X010050Y008143D03*
X010040Y008175D03*
X010040Y008178D03*
X010038Y008183D03*
X010038Y008185D03*
X010038Y008188D03*
X010038Y008190D03*
X010030Y008213D03*
X010030Y008215D03*
X010028Y008223D03*
X010025Y008228D03*
X010025Y008230D03*
X010025Y008233D03*
X010025Y008235D03*
X010023Y008238D03*
X010023Y008240D03*
X010020Y008253D03*
X010018Y008255D03*
X010018Y008258D03*
X010015Y008268D03*
X010010Y008280D03*
X010010Y008283D03*
X010003Y008310D03*
X010000Y008315D03*
X010000Y008318D03*
X009995Y008335D03*
X009993Y008340D03*
X009988Y008350D03*
X009988Y008353D03*
X009985Y008355D03*
X009985Y008358D03*
X009985Y008360D03*
X009983Y008363D03*
X009983Y008365D03*
X009983Y008368D03*
X009983Y008370D03*
X009983Y008373D03*
X009980Y008375D03*
X009980Y008378D03*
X009978Y008380D03*
X009978Y008383D03*
X009973Y008398D03*
X009970Y008403D03*
X009968Y008408D03*
X009965Y008415D03*
X009960Y008430D03*
X009960Y008433D03*
X009958Y008435D03*
X009958Y008438D03*
X009953Y008448D03*
X010575Y007925D03*
X011170Y007943D03*
X011470Y007810D03*
X012683Y008008D03*
X012870Y007415D03*
X008973Y007245D03*
X008958Y007223D03*
X008823Y007038D03*
X008795Y006995D03*
X008788Y006983D03*
X008788Y006980D03*
X008788Y006978D03*
D120*
X008671Y005818D03*
X008679Y005810D03*
X010851Y007640D03*
X010851Y007643D03*
X010851Y007645D03*
X010851Y007648D03*
X010851Y007650D03*
X011469Y007738D03*
X011469Y007740D03*
X011469Y007743D03*
X011599Y007488D03*
X011701Y007398D03*
X012469Y007848D03*
X012869Y007558D03*
X012869Y007555D03*
X012871Y007553D03*
X012879Y007445D03*
X012874Y007440D03*
X009569Y009058D03*
X009439Y009158D03*
D121*
X009431Y009170D03*
X009771Y008803D03*
X009774Y008800D03*
X009779Y008793D03*
X009781Y008788D03*
X009786Y008780D03*
X009791Y008773D03*
X009791Y008770D03*
X009794Y008765D03*
X009806Y008745D03*
X009811Y008743D03*
X009811Y008740D03*
X009814Y008738D03*
X009821Y008723D03*
X009831Y008705D03*
X009834Y008700D03*
X009836Y008695D03*
X009839Y008690D03*
X009839Y008688D03*
X010371Y007815D03*
X010366Y007803D03*
X010366Y007800D03*
X010366Y007798D03*
X010364Y007793D03*
X010364Y007790D03*
X010361Y007788D03*
X010359Y007780D03*
X010359Y007778D03*
X010356Y007768D03*
X010354Y007765D03*
X010351Y007750D03*
X010349Y007743D03*
X010346Y007730D03*
X010344Y007723D03*
X010336Y007685D03*
X010331Y007660D03*
X010331Y007658D03*
X010331Y007655D03*
X010324Y007593D03*
X010324Y007590D03*
X010324Y007588D03*
X010324Y007585D03*
X010321Y007578D03*
X010321Y007575D03*
X010321Y007573D03*
X010321Y007570D03*
X010319Y007563D03*
X010319Y007560D03*
X010319Y007558D03*
X010321Y007550D03*
X010321Y007508D03*
X010321Y007505D03*
X010569Y007933D03*
X010854Y007908D03*
X011166Y007940D03*
X011474Y007803D03*
X011421Y007543D03*
X011421Y007540D03*
X011421Y007538D03*
X011416Y007528D03*
X010994Y007365D03*
X010916Y007465D03*
X010914Y007468D03*
X010914Y007470D03*
X010911Y007473D03*
X010906Y007488D03*
X012676Y008003D03*
X012744Y008418D03*
X009459Y005843D03*
X009429Y005825D03*
X009429Y005813D03*
X009416Y005815D03*
X008596Y006520D03*
X008596Y006523D03*
X008596Y006528D03*
X008596Y006530D03*
X008596Y006533D03*
X008619Y006608D03*
X008631Y006645D03*
X008631Y006648D03*
X008654Y006708D03*
X008656Y006713D03*
X008656Y006715D03*
X008679Y006765D03*
X008679Y006768D03*
X008679Y006770D03*
X008679Y006773D03*
X008679Y006775D03*
X008681Y006778D03*
X008681Y006780D03*
X008684Y006783D03*
X008686Y006785D03*
X008686Y006788D03*
X008686Y006790D03*
X008689Y006793D03*
X008694Y006803D03*
X008696Y006810D03*
X008699Y006818D03*
X008706Y006835D03*
X008706Y006838D03*
X008716Y006853D03*
X008724Y006868D03*
X008729Y006875D03*
X008731Y006880D03*
X008734Y006888D03*
X008749Y006918D03*
X008754Y006925D03*
X008761Y006938D03*
X008766Y006943D03*
X008766Y006945D03*
X008766Y006948D03*
X008774Y006963D03*
X008796Y007008D03*
X008806Y007018D03*
X008809Y007023D03*
X008826Y007050D03*
X008826Y007053D03*
X008826Y007055D03*
X008834Y007063D03*
X008841Y007075D03*
X008864Y007105D03*
X008871Y007115D03*
X008881Y007128D03*
X008881Y007130D03*
X008896Y007145D03*
X008931Y007193D03*
X008931Y007195D03*
X008931Y007198D03*
D122*
X008846Y007088D03*
X008666Y006755D03*
X008666Y006753D03*
X008664Y006745D03*
X008664Y006743D03*
X008649Y006705D03*
X008636Y006668D03*
X008584Y006493D03*
X008581Y006485D03*
X008581Y006483D03*
X008579Y006470D03*
X008571Y006415D03*
X008571Y006413D03*
X008571Y006410D03*
X008569Y006400D03*
X008566Y006380D03*
X008561Y006343D03*
X008561Y006340D03*
X008559Y006315D03*
X008559Y006295D03*
X008559Y006293D03*
X008559Y006290D03*
X008556Y006268D03*
X008556Y006258D03*
X008556Y006245D03*
X008556Y006243D03*
X008556Y006240D03*
X008556Y006238D03*
X008556Y006235D03*
X008556Y006233D03*
X008556Y006230D03*
X008556Y006228D03*
X008556Y006225D03*
X008556Y006223D03*
X008559Y006208D03*
X008559Y006205D03*
X008559Y006203D03*
X008559Y006193D03*
X008559Y006190D03*
X008559Y006165D03*
X008559Y006163D03*
X008559Y006160D03*
X008561Y006155D03*
X008561Y006153D03*
X008561Y006150D03*
X008561Y006148D03*
X008561Y006138D03*
X008561Y006135D03*
X008561Y006133D03*
X008561Y006130D03*
X008569Y006073D03*
X008571Y006060D03*
X008579Y006028D03*
X008579Y006025D03*
X009431Y005823D03*
X010336Y007430D03*
X010334Y007435D03*
X010334Y007438D03*
X010769Y007505D03*
X010771Y007508D03*
X010774Y007513D03*
X010774Y007515D03*
X010776Y007518D03*
X010931Y007440D03*
X010934Y007438D03*
X010936Y007433D03*
X010941Y007428D03*
X010944Y007423D03*
X011229Y007613D03*
X011229Y007615D03*
X011226Y007618D03*
X011221Y007640D03*
X011221Y007643D03*
X011219Y007658D03*
X011219Y007660D03*
X011216Y007670D03*
X011214Y007678D03*
X011214Y007680D03*
X011211Y007688D03*
X011209Y007698D03*
X011209Y007700D03*
X011209Y007703D03*
X011209Y007705D03*
X011206Y007710D03*
X011206Y007713D03*
X011166Y007933D03*
X010851Y007903D03*
X010851Y007900D03*
X010419Y007913D03*
X010404Y007890D03*
X010401Y007888D03*
X010401Y007885D03*
X010399Y007880D03*
X010396Y007878D03*
X010396Y007875D03*
X010391Y007863D03*
X009749Y008840D03*
X009744Y008848D03*
X009741Y008850D03*
X009739Y008855D03*
X009736Y008858D03*
X009734Y008863D03*
X009731Y008865D03*
X009729Y008868D03*
X009729Y008870D03*
X009726Y008873D03*
X009724Y008875D03*
X009724Y008878D03*
X009721Y008880D03*
X009704Y008903D03*
X009704Y008905D03*
X009696Y008910D03*
X009696Y008913D03*
X009694Y008918D03*
X011956Y007805D03*
X011949Y007768D03*
X012869Y007423D03*
D123*
X012874Y007433D03*
X012881Y007448D03*
X012664Y007990D03*
X012079Y007583D03*
X011991Y007660D03*
X011989Y007663D03*
X011594Y007493D03*
X011594Y007490D03*
X011591Y007495D03*
X011586Y007498D03*
X011586Y007500D03*
X011586Y007503D03*
X011469Y007745D03*
X011469Y007748D03*
X011469Y007750D03*
X011469Y007753D03*
X010854Y007665D03*
X010854Y007663D03*
X010854Y007660D03*
X010674Y007405D03*
X010671Y007403D03*
X010666Y007398D03*
X010661Y007395D03*
X010364Y007400D03*
X010506Y008010D03*
X009581Y009048D03*
X009579Y009050D03*
X008661Y005833D03*
D124*
X008653Y005840D03*
X008650Y005848D03*
X008645Y005850D03*
X008645Y005853D03*
X008645Y005855D03*
X010685Y007413D03*
X010690Y007418D03*
X010693Y007420D03*
X010855Y007685D03*
X010855Y007688D03*
X010855Y007690D03*
X011270Y007518D03*
X011270Y007515D03*
X011350Y007425D03*
X011560Y007535D03*
X011565Y007528D03*
X011570Y007520D03*
X011703Y007395D03*
X011980Y007670D03*
X011975Y007678D03*
X012080Y007578D03*
X011468Y007763D03*
X011468Y007765D03*
X011748Y008128D03*
X012725Y008410D03*
X012728Y008413D03*
X012883Y007540D03*
X012885Y007538D03*
X012888Y007535D03*
X012888Y007533D03*
X012890Y007455D03*
X012890Y007453D03*
X009595Y009033D03*
X009593Y009035D03*
D125*
X009599Y009030D03*
X009599Y009028D03*
X009601Y009025D03*
X009611Y009018D03*
X009616Y009010D03*
X009436Y009163D03*
X010509Y008013D03*
X011466Y007778D03*
X011466Y007775D03*
X011466Y007773D03*
X011466Y007770D03*
X011466Y007768D03*
X011549Y007553D03*
X011551Y007550D03*
X011551Y007548D03*
X011551Y007545D03*
X011554Y007543D03*
X011556Y007540D03*
X011564Y007530D03*
X011566Y007525D03*
X011569Y007523D03*
X011349Y007423D03*
X010704Y007430D03*
X010701Y007428D03*
X010686Y007415D03*
X010359Y007405D03*
X011976Y007675D03*
X011979Y007673D03*
X012889Y007530D03*
X012889Y007528D03*
X008644Y005858D03*
X008634Y005870D03*
X008634Y005873D03*
D126*
X009469Y005863D03*
X009481Y005870D03*
X009899Y006415D03*
X009901Y006418D03*
X009909Y006435D03*
X009914Y006440D03*
X009919Y006445D03*
X009919Y006448D03*
X009924Y006458D03*
X011001Y007355D03*
X010856Y007923D03*
X011969Y007855D03*
X012689Y008015D03*
D127*
X012783Y008425D03*
X011718Y007380D03*
X009903Y006433D03*
X009808Y006258D03*
X009803Y006248D03*
X009483Y005880D03*
D128*
X009494Y005888D03*
X009809Y006260D03*
X009821Y006283D03*
X009834Y006310D03*
X009841Y006320D03*
X011354Y007408D03*
X011476Y007820D03*
X011179Y007955D03*
X010586Y007913D03*
D129*
X011011Y007350D03*
X009891Y006423D03*
X009884Y006405D03*
X009846Y006340D03*
X009849Y006333D03*
X009839Y006325D03*
X009831Y006313D03*
X009829Y006308D03*
X009824Y006298D03*
X009821Y006293D03*
X009654Y006053D03*
X009646Y006048D03*
X009514Y005908D03*
X008961Y007255D03*
X008964Y007258D03*
X008994Y007303D03*
D130*
X010340Y007425D03*
X010340Y007428D03*
X010343Y007423D03*
X010345Y007420D03*
X010348Y007418D03*
X010750Y007480D03*
X010753Y007483D03*
X010755Y007485D03*
X010755Y007488D03*
X010758Y007490D03*
X010760Y007493D03*
X010763Y007498D03*
X010763Y007500D03*
X010765Y007503D03*
X010950Y007418D03*
X010953Y007415D03*
X010953Y007413D03*
X010958Y007410D03*
X010975Y007385D03*
X011248Y007550D03*
X011248Y007553D03*
X011248Y007555D03*
X011243Y007570D03*
X011235Y007593D03*
X011233Y007600D03*
X011233Y007603D03*
X011195Y007775D03*
X011193Y007795D03*
X011190Y007800D03*
X011190Y007803D03*
X011190Y007805D03*
X011188Y007810D03*
X011188Y007813D03*
X011188Y007815D03*
X011188Y007818D03*
X011185Y007825D03*
X011185Y007828D03*
X011185Y007830D03*
X011185Y007833D03*
X011185Y007835D03*
X011183Y007843D03*
X011183Y007845D03*
X011183Y007848D03*
X011180Y007855D03*
X011180Y007858D03*
X011178Y007870D03*
X011468Y007790D03*
X011743Y008125D03*
X011953Y007718D03*
X012898Y007510D03*
X012903Y007503D03*
X012903Y007500D03*
X012905Y007493D03*
X012903Y007483D03*
X012903Y007480D03*
X012900Y007475D03*
X012900Y007473D03*
X010858Y007743D03*
X010855Y007735D03*
X010855Y007733D03*
X010855Y007755D03*
X010855Y007758D03*
X010855Y007760D03*
X010855Y007763D03*
X010853Y007855D03*
X010853Y007858D03*
X010510Y008015D03*
X010425Y007925D03*
X010423Y007923D03*
X010423Y007920D03*
X009690Y008920D03*
X009688Y008925D03*
X009685Y008930D03*
X009680Y008935D03*
X009678Y008940D03*
X009675Y008943D03*
X009675Y008945D03*
X009673Y008948D03*
X009670Y008950D03*
X009668Y008953D03*
X009665Y008955D03*
X009663Y008960D03*
X009658Y008965D03*
X009655Y008968D03*
X008588Y005993D03*
X008588Y005990D03*
X008588Y005983D03*
X008593Y005968D03*
X008593Y005965D03*
X008593Y005963D03*
X008595Y005960D03*
X008598Y005955D03*
X008598Y005953D03*
X008598Y005950D03*
X008605Y005940D03*
X008605Y005938D03*
X008608Y005928D03*
X008615Y005913D03*
D131*
X008565Y006118D03*
X008565Y006120D03*
X008563Y006128D03*
X008563Y006140D03*
X008563Y006143D03*
X008563Y006145D03*
X008560Y006168D03*
X008560Y006188D03*
X008560Y006210D03*
X008558Y006218D03*
X008558Y006220D03*
X008558Y006248D03*
X008558Y006250D03*
X008558Y006253D03*
X008558Y006255D03*
X008558Y006260D03*
X008558Y006263D03*
X008558Y006265D03*
X008560Y006283D03*
X008560Y006285D03*
X008560Y006288D03*
X008558Y006298D03*
X008558Y006300D03*
X008558Y006303D03*
X008558Y006305D03*
X008560Y006308D03*
X008560Y006310D03*
X008560Y006313D03*
X008560Y006318D03*
X008560Y006320D03*
X008560Y006323D03*
X008560Y006325D03*
X008563Y006345D03*
X008563Y006348D03*
X008563Y006350D03*
X008563Y006353D03*
X008568Y006383D03*
X008568Y006385D03*
X008568Y006388D03*
X008570Y006398D03*
X008570Y006403D03*
X008570Y006405D03*
X008570Y006408D03*
X008570Y006418D03*
X008573Y006425D03*
X008573Y006428D03*
X008573Y006430D03*
X008573Y006433D03*
X008573Y006435D03*
X008575Y006440D03*
X008578Y006443D03*
X008578Y006445D03*
X008578Y006448D03*
X008578Y006450D03*
X008578Y006453D03*
X008580Y006465D03*
X008580Y006468D03*
X008583Y006488D03*
X008583Y006490D03*
X008585Y006495D03*
X008585Y006498D03*
X008588Y006508D03*
X008603Y006560D03*
X008608Y006575D03*
X008610Y006590D03*
X008610Y006593D03*
X008610Y006595D03*
X008610Y006598D03*
X008618Y006615D03*
X008625Y006640D03*
X008635Y006665D03*
X008638Y006670D03*
X008638Y006673D03*
X008638Y006675D03*
X008638Y006678D03*
X008638Y006680D03*
X008643Y006685D03*
X008643Y006688D03*
X008645Y006690D03*
X008648Y006703D03*
X008658Y006723D03*
X008658Y006725D03*
X008660Y006730D03*
X008660Y006733D03*
X008660Y006735D03*
X008660Y006738D03*
X008660Y006740D03*
X008665Y006748D03*
X008665Y006750D03*
X008670Y006758D03*
X008700Y006825D03*
X008700Y006828D03*
X008703Y006830D03*
X008768Y006955D03*
X008768Y006958D03*
X008843Y007080D03*
X008845Y007085D03*
X008885Y007135D03*
X010330Y007448D03*
X010333Y007443D03*
X010333Y007440D03*
X010335Y007433D03*
X010500Y007305D03*
X010903Y007495D03*
X010903Y007498D03*
X010903Y007500D03*
X010910Y007483D03*
X010930Y007445D03*
X010930Y007443D03*
X010943Y007425D03*
X010990Y007370D03*
X011218Y007663D03*
X011218Y007665D03*
X011218Y007668D03*
X011413Y007520D03*
X011470Y007798D03*
X010853Y007905D03*
X010395Y007873D03*
X010395Y007870D03*
X010395Y007868D03*
X010393Y007865D03*
X010390Y007860D03*
X010390Y007858D03*
X010388Y007855D03*
X010380Y007833D03*
X009758Y008828D03*
X009755Y008830D03*
X009753Y008833D03*
X009750Y008838D03*
X009748Y008843D03*
X009745Y008845D03*
X009740Y008853D03*
X009735Y008860D03*
X009433Y009168D03*
X011960Y007830D03*
X011960Y007828D03*
D132*
X011961Y007833D03*
X011739Y008123D03*
X011471Y007800D03*
X011411Y007518D03*
X011411Y007515D03*
X011411Y007513D03*
X011706Y007388D03*
X010991Y007368D03*
X010924Y007453D03*
X010921Y007455D03*
X010909Y007485D03*
X010904Y007493D03*
X010901Y007503D03*
X010899Y007510D03*
X010896Y007518D03*
X011166Y007935D03*
X011166Y007938D03*
X010511Y008020D03*
X010386Y007853D03*
X010386Y007850D03*
X010384Y007848D03*
X010381Y007845D03*
X010381Y007843D03*
X010381Y007840D03*
X010381Y007838D03*
X010381Y007835D03*
X010379Y007830D03*
X010376Y007825D03*
X010321Y007490D03*
X010321Y007488D03*
X010326Y007465D03*
X010326Y007463D03*
X010326Y007460D03*
X010326Y007458D03*
X010326Y007455D03*
X010329Y007450D03*
X010331Y007445D03*
X008886Y007138D03*
X008884Y007133D03*
X008856Y007098D03*
X008849Y007090D03*
X008844Y007083D03*
X008836Y007068D03*
X008769Y006960D03*
X008766Y006953D03*
X008766Y006950D03*
X008709Y006843D03*
X008704Y006833D03*
X008699Y006823D03*
X008659Y006728D03*
X008656Y006720D03*
X008646Y006700D03*
X008646Y006698D03*
X008646Y006695D03*
X008646Y006693D03*
X008641Y006683D03*
X008634Y006663D03*
X008631Y006655D03*
X008631Y006653D03*
X008624Y006638D03*
X008624Y006635D03*
X008624Y006633D03*
X008624Y006630D03*
X008624Y006628D03*
X008619Y006613D03*
X008609Y006588D03*
X008609Y006585D03*
X008606Y006573D03*
X008606Y006570D03*
X008604Y006568D03*
X008604Y006565D03*
X008604Y006563D03*
X008601Y006558D03*
X008601Y006555D03*
X008601Y006553D03*
X008599Y006548D03*
X008596Y006545D03*
X008596Y006543D03*
X008596Y006540D03*
X008596Y006538D03*
X008594Y006525D03*
X008589Y006513D03*
X008589Y006510D03*
X008586Y006505D03*
X008586Y006503D03*
X008586Y006500D03*
X008579Y006455D03*
X008574Y006438D03*
X008571Y006420D03*
X008569Y006395D03*
X008569Y006393D03*
X008569Y006390D03*
X008566Y006378D03*
X008566Y006375D03*
X008566Y006373D03*
X008566Y006370D03*
X008566Y006360D03*
X008564Y006358D03*
X008564Y006355D03*
X008564Y006338D03*
X008564Y006335D03*
X008564Y006333D03*
X008561Y006328D03*
X008561Y006280D03*
X008561Y006278D03*
X008561Y006275D03*
X008559Y006273D03*
X008559Y006270D03*
X008559Y006215D03*
X008559Y006213D03*
X008561Y006185D03*
X008561Y006183D03*
X008561Y006180D03*
X008561Y006178D03*
X008561Y006175D03*
X008561Y006173D03*
X008561Y006170D03*
X008564Y006125D03*
X008564Y006123D03*
X009824Y008718D03*
X009804Y008753D03*
X009804Y008755D03*
X009801Y008758D03*
X009799Y008760D03*
X009769Y008808D03*
X009769Y008810D03*
X009766Y008815D03*
X009764Y008818D03*
X009764Y008820D03*
X009761Y008823D03*
X009759Y008825D03*
X009751Y008835D03*
X012674Y007998D03*
D133*
X009923Y006463D03*
X009900Y006420D03*
X009865Y006358D03*
D134*
X008821Y007035D03*
X008819Y007033D03*
X008824Y007040D03*
X008824Y007043D03*
X008814Y007025D03*
X008796Y006998D03*
X008794Y006993D03*
X008791Y006990D03*
X008789Y006985D03*
X008959Y007225D03*
X010124Y007675D03*
X010574Y007928D03*
X010001Y008313D03*
X009989Y008343D03*
X009989Y008345D03*
X009989Y008348D03*
X009971Y008400D03*
X009969Y008405D03*
X009966Y008410D03*
X009966Y008413D03*
X009964Y008418D03*
X009964Y008420D03*
X009964Y008423D03*
X009961Y008425D03*
X009961Y008428D03*
X009951Y008450D03*
X009951Y008453D03*
X009951Y008455D03*
X009949Y008463D03*
X009946Y008465D03*
X009944Y008468D03*
X009944Y008470D03*
X009941Y008475D03*
X009936Y008485D03*
X009934Y008490D03*
X009934Y008493D03*
X009934Y008495D03*
X009934Y008498D03*
X009929Y008503D03*
X009926Y008508D03*
X009926Y008510D03*
X009924Y008513D03*
X009924Y008515D03*
X009921Y008520D03*
X011471Y007808D03*
X011736Y008120D03*
X011964Y007843D03*
X012681Y008005D03*
X011349Y007413D03*
X011001Y007358D03*
D135*
X010844Y007575D03*
X010496Y007313D03*
X011346Y007443D03*
X011479Y007648D03*
X011479Y007650D03*
X012061Y007605D03*
X012534Y007795D03*
X012546Y007785D03*
X012569Y007773D03*
X012571Y007770D03*
X012584Y007763D03*
X012596Y007755D03*
X012519Y007905D03*
X012514Y007903D03*
X012549Y007920D03*
X012641Y007970D03*
X009449Y009143D03*
D136*
X009463Y009125D03*
X011485Y007608D03*
X011343Y007460D03*
X011343Y007458D03*
X011673Y007435D03*
X011673Y007433D03*
X012588Y007935D03*
X012628Y007960D03*
X012650Y008390D03*
X010498Y007318D03*
D137*
X010496Y007323D03*
X010499Y007958D03*
X011339Y007480D03*
D138*
X011336Y007508D03*
X010499Y007328D03*
D139*
X010500Y007330D03*
D140*
X010500Y007333D03*
X012525Y008353D03*
X012545Y008358D03*
X012568Y008363D03*
D141*
X012464Y008335D03*
X010501Y007335D03*
D142*
X010503Y007338D03*
X012328Y008303D03*
X012368Y008313D03*
D143*
X012299Y008293D03*
X010501Y007343D03*
D144*
X010505Y007345D03*
X012255Y008283D03*
D145*
X012260Y008285D03*
X010505Y007348D03*
D146*
X010505Y007350D03*
X012203Y008273D03*
D147*
X010506Y007353D03*
D148*
X010506Y007355D03*
D149*
X010509Y007358D03*
D150*
X010509Y007360D03*
X011849Y008183D03*
X012166Y008263D03*
D151*
X012139Y008258D03*
X010509Y007363D03*
D152*
X010509Y007365D03*
X011856Y008185D03*
D153*
X010510Y007368D03*
D154*
X010508Y007370D03*
D155*
X010508Y007373D03*
D156*
X010510Y007375D03*
X012095Y008250D03*
D157*
X010511Y007378D03*
D158*
X010511Y007380D03*
X011896Y008200D03*
D159*
X012020Y007643D03*
X012065Y007595D03*
X011693Y007410D03*
X011475Y007668D03*
X011475Y007670D03*
X010845Y007593D03*
X010845Y007590D03*
X010845Y007588D03*
X010845Y007585D03*
X010508Y007998D03*
X010393Y007385D03*
X012490Y007888D03*
X012500Y007895D03*
X012513Y007810D03*
X012630Y007735D03*
X012638Y007730D03*
X012643Y007728D03*
X012645Y007725D03*
X012668Y007710D03*
X012680Y007700D03*
X012703Y007685D03*
X009445Y009148D03*
D160*
X009519Y009093D03*
X010844Y007595D03*
X010636Y007385D03*
X011346Y007438D03*
X011626Y007465D03*
X011629Y007463D03*
X011694Y007408D03*
X012504Y007818D03*
X012496Y007890D03*
X012499Y007893D03*
X012646Y007975D03*
X012621Y007740D03*
X012626Y007738D03*
X012706Y007683D03*
X012711Y007680D03*
X012714Y007678D03*
X012716Y007675D03*
X012724Y007673D03*
X012726Y007670D03*
X012729Y007668D03*
X012734Y007665D03*
X012736Y007663D03*
X011759Y008135D03*
D161*
X011766Y008140D03*
X011481Y007635D03*
X011481Y007633D03*
X011481Y007630D03*
X011346Y007450D03*
X011681Y007423D03*
X011684Y007420D03*
X011686Y007418D03*
X012046Y007620D03*
X012046Y007623D03*
X012051Y007615D03*
X012571Y007930D03*
X010839Y007560D03*
X009456Y009133D03*
X009456Y009135D03*
D162*
X010504Y007985D03*
X011344Y007453D03*
X011481Y007620D03*
X011651Y007453D03*
X011679Y007425D03*
X012036Y007635D03*
X012044Y007625D03*
X012606Y007948D03*
X012634Y007963D03*
X012634Y007965D03*
X012659Y008393D03*
X012666Y008395D03*
X011766Y008143D03*
D163*
X012045Y007628D03*
X011678Y007428D03*
X011483Y007615D03*
X011483Y007618D03*
X011343Y007455D03*
X010840Y007548D03*
X010840Y007550D03*
X012603Y007945D03*
X012623Y007955D03*
X012625Y007958D03*
X009458Y009130D03*
D164*
X009470Y009118D03*
X009473Y009115D03*
X010838Y007538D03*
X011343Y007463D03*
X011670Y007440D03*
X012630Y008383D03*
X012648Y008388D03*
D165*
X012621Y008380D03*
X012606Y008375D03*
X011486Y007593D03*
X011341Y007468D03*
X010836Y007530D03*
X009481Y009108D03*
D166*
X010503Y007968D03*
X010835Y007523D03*
X010835Y007520D03*
X011340Y007473D03*
X011490Y007573D03*
X011490Y007575D03*
X011490Y007578D03*
D167*
X011489Y007570D03*
X011489Y007568D03*
X011339Y007475D03*
X010501Y007963D03*
X010501Y007965D03*
X011779Y008150D03*
D168*
X011780Y008153D03*
X012600Y008373D03*
X011340Y007478D03*
X010500Y007960D03*
D169*
X010498Y007955D03*
X011340Y007483D03*
X011490Y007565D03*
D170*
X011494Y007555D03*
X011339Y007490D03*
X011781Y008155D03*
X012594Y008370D03*
X010496Y007945D03*
X010496Y007943D03*
D171*
X011336Y007495D03*
D172*
X011338Y007498D03*
X011785Y008158D03*
X010495Y007938D03*
D173*
X011336Y007505D03*
X011336Y007503D03*
X011336Y007500D03*
D174*
X011809Y008165D03*
X011811Y008168D03*
X012319Y008300D03*
X012361Y008310D03*
X012401Y008320D03*
D175*
X011818Y008170D03*
D176*
X011823Y008173D03*
D177*
X011826Y008175D03*
D178*
X011831Y008178D03*
X012246Y008280D03*
D179*
X011838Y008180D03*
D180*
X011860Y008188D03*
X012110Y008253D03*
D181*
X011876Y008193D03*
D182*
X011880Y008195D03*
X011890Y008198D03*
X012055Y008243D03*
D183*
X012001Y008230D03*
X011981Y008225D03*
X011959Y008220D03*
X011941Y008215D03*
X011929Y008210D03*
X011906Y008203D03*
D184*
X011910Y008205D03*
D185*
X011925Y008208D03*
X011930Y008213D03*
X012020Y008235D03*
D186*
X012069Y008245D03*
X011954Y008218D03*
D187*
X011974Y008223D03*
X012009Y008233D03*
D188*
X011989Y008228D03*
D189*
X012030Y008238D03*
D190*
X012035Y008240D03*
X012080Y008248D03*
D191*
X012120Y008255D03*
X012155Y008260D03*
D192*
X012188Y008268D03*
D193*
X012223Y008275D03*
D194*
X012234Y008278D03*
D195*
X012286Y008290D03*
X012311Y008298D03*
D196*
X012346Y008308D03*
X012374Y008315D03*
X012459Y008333D03*
D197*
X012428Y008328D03*
X012413Y008323D03*
D198*
X012439Y008330D03*
X012484Y008340D03*
X012491Y008343D03*
X012496Y008345D03*
X012516Y008350D03*
D199*
X012555Y008360D03*
X012578Y008365D03*
D200*
X012584Y008368D03*
M02*
