G75*
G70*
%OFA0B0*%
%FSLAX24Y24*%
%IPPOS*%
%LPD*%
%AMOC8*
5,1,8,0,0,1.08239X$1,22.5*
%
%ADD10R,0.0433X0.0394*%
%ADD11R,0.0472X0.0217*%
%ADD12R,0.0315X0.0112*%
%ADD13R,0.0112X0.0315*%
%ADD14R,0.1240X0.1240*%
%ADD15C,0.0000*%
%ADD16R,0.0787X0.0984*%
%ADD17R,0.1024X0.0787*%
%ADD18R,0.0594X0.0594*%
%ADD19C,0.0594*%
%ADD20R,0.0394X0.0433*%
%ADD21R,0.0709X0.0630*%
%ADD22C,0.0660*%
%ADD23C,0.0100*%
%ADD24C,0.0357*%
D10*
X018415Y005775D03*
X019085Y005775D03*
X021540Y006275D03*
X022210Y006275D03*
X022210Y007025D03*
X021540Y007025D03*
X019085Y007775D03*
X018415Y007775D03*
X018415Y008525D03*
X019085Y008525D03*
X019085Y009275D03*
X018415Y009275D03*
X024915Y013650D03*
X025585Y013650D03*
X027665Y013400D03*
X028335Y013400D03*
X028335Y012650D03*
X027665Y012650D03*
X027665Y011900D03*
X028335Y011900D03*
X026710Y011400D03*
X026040Y011400D03*
X026040Y010650D03*
X026710Y010650D03*
X026710Y009900D03*
X026040Y009900D03*
X026040Y009150D03*
X026710Y009150D03*
X027665Y014150D03*
X028335Y014150D03*
X028335Y014900D03*
X027665Y014900D03*
X027665Y015650D03*
X028335Y015650D03*
X028335Y016525D03*
X027665Y016525D03*
X027665Y017275D03*
X028335Y017275D03*
X028335Y019525D03*
X027665Y019525D03*
X027665Y020275D03*
X028335Y020275D03*
D11*
X019262Y007149D03*
X019262Y006401D03*
X018238Y006401D03*
X018238Y006775D03*
X018238Y007149D03*
D12*
X021516Y009586D03*
X021516Y009783D03*
X021516Y009980D03*
X021516Y010177D03*
X021516Y010373D03*
X021516Y010570D03*
X021516Y010767D03*
X021516Y010964D03*
X023484Y010964D03*
X023484Y010767D03*
X023484Y010570D03*
X023484Y010373D03*
X023484Y010177D03*
X023484Y009980D03*
X023484Y009783D03*
X023484Y009586D03*
D13*
X023189Y009291D03*
X022992Y009291D03*
X022795Y009291D03*
X022598Y009291D03*
X022402Y009291D03*
X022205Y009291D03*
X022008Y009291D03*
X021811Y009291D03*
X021811Y011259D03*
X022008Y011259D03*
X022205Y011259D03*
X022402Y011259D03*
X022598Y011259D03*
X022795Y011259D03*
X022992Y011259D03*
X023189Y011259D03*
D14*
X022500Y010275D03*
D15*
X007250Y007150D02*
X007250Y003400D01*
X007252Y003346D01*
X007258Y003293D01*
X007267Y003241D01*
X007280Y003189D01*
X007297Y003138D01*
X007318Y003088D01*
X007342Y003041D01*
X007369Y002995D01*
X007400Y002951D01*
X007433Y002909D01*
X007470Y002870D01*
X007509Y002833D01*
X007551Y002800D01*
X007595Y002769D01*
X007641Y002742D01*
X007688Y002718D01*
X007738Y002697D01*
X007789Y002680D01*
X007841Y002667D01*
X007893Y002658D01*
X007946Y002652D01*
X008000Y002650D01*
X029500Y002650D01*
X031587Y005150D02*
X031589Y005202D01*
X031595Y005254D01*
X031605Y005305D01*
X031618Y005355D01*
X031636Y005405D01*
X031657Y005452D01*
X031681Y005498D01*
X031710Y005542D01*
X031741Y005584D01*
X031775Y005623D01*
X031812Y005660D01*
X031852Y005693D01*
X031895Y005724D01*
X031939Y005751D01*
X031985Y005775D01*
X032034Y005795D01*
X032083Y005811D01*
X032134Y005824D01*
X032185Y005833D01*
X032237Y005838D01*
X032289Y005839D01*
X032341Y005836D01*
X032393Y005829D01*
X032444Y005818D01*
X032494Y005804D01*
X032543Y005785D01*
X032590Y005763D01*
X032635Y005738D01*
X032679Y005709D01*
X032720Y005677D01*
X032759Y005642D01*
X032794Y005604D01*
X032827Y005563D01*
X032857Y005521D01*
X032883Y005476D01*
X032906Y005429D01*
X032925Y005380D01*
X032941Y005330D01*
X032953Y005280D01*
X032961Y005228D01*
X032965Y005176D01*
X032965Y005124D01*
X032961Y005072D01*
X032953Y005020D01*
X032941Y004970D01*
X032925Y004920D01*
X032906Y004871D01*
X032883Y004824D01*
X032857Y004779D01*
X032827Y004737D01*
X032794Y004696D01*
X032759Y004658D01*
X032720Y004623D01*
X032679Y004591D01*
X032635Y004562D01*
X032590Y004537D01*
X032543Y004515D01*
X032494Y004496D01*
X032444Y004482D01*
X032393Y004471D01*
X032341Y004464D01*
X032289Y004461D01*
X032237Y004462D01*
X032185Y004467D01*
X032134Y004476D01*
X032083Y004489D01*
X032034Y004505D01*
X031985Y004525D01*
X031939Y004549D01*
X031895Y004576D01*
X031852Y004607D01*
X031812Y004640D01*
X031775Y004677D01*
X031741Y004716D01*
X031710Y004758D01*
X031681Y004802D01*
X031657Y004848D01*
X031636Y004895D01*
X031618Y004945D01*
X031605Y004995D01*
X031595Y005046D01*
X031589Y005098D01*
X031587Y005150D01*
X029500Y002650D02*
X029738Y002656D01*
X029975Y002673D01*
X030212Y002701D01*
X030446Y002740D01*
X030679Y002791D01*
X030909Y002853D01*
X031135Y002925D01*
X031358Y003008D01*
X031577Y003102D01*
X031791Y003206D01*
X032000Y003320D01*
X032203Y003444D01*
X032400Y003577D01*
X032591Y003720D01*
X032774Y003871D01*
X032950Y004031D01*
X033119Y004200D01*
X033279Y004376D01*
X033430Y004559D01*
X033573Y004750D01*
X033706Y004947D01*
X033830Y005150D01*
X033944Y005359D01*
X034048Y005573D01*
X034142Y005792D01*
X034225Y006015D01*
X034297Y006241D01*
X034359Y006471D01*
X034410Y006704D01*
X034449Y006938D01*
X034477Y007175D01*
X034494Y007412D01*
X034500Y007650D01*
X034500Y019150D01*
X033487Y018989D02*
X033489Y019018D01*
X033495Y019047D01*
X033504Y019075D01*
X033517Y019102D01*
X033534Y019127D01*
X033553Y019149D01*
X033575Y019168D01*
X033600Y019185D01*
X033627Y019198D01*
X033655Y019207D01*
X033684Y019213D01*
X033713Y019215D01*
X033742Y019213D01*
X033771Y019207D01*
X033799Y019198D01*
X033826Y019185D01*
X033851Y019168D01*
X033873Y019149D01*
X033892Y019127D01*
X033909Y019102D01*
X033922Y019075D01*
X033931Y019047D01*
X033937Y019018D01*
X033939Y018989D01*
X033937Y018960D01*
X033931Y018931D01*
X033922Y018903D01*
X033909Y018876D01*
X033892Y018851D01*
X033873Y018829D01*
X033851Y018810D01*
X033826Y018793D01*
X033799Y018780D01*
X033771Y018771D01*
X033742Y018765D01*
X033713Y018763D01*
X033684Y018765D01*
X033655Y018771D01*
X033627Y018780D01*
X033600Y018793D01*
X033575Y018810D01*
X033553Y018829D01*
X033534Y018851D01*
X033517Y018876D01*
X033504Y018903D01*
X033495Y018931D01*
X033489Y018960D01*
X033487Y018989D01*
X033487Y017611D02*
X033489Y017640D01*
X033495Y017669D01*
X033504Y017697D01*
X033517Y017724D01*
X033534Y017749D01*
X033553Y017771D01*
X033575Y017790D01*
X033600Y017807D01*
X033627Y017820D01*
X033655Y017829D01*
X033684Y017835D01*
X033713Y017837D01*
X033742Y017835D01*
X033771Y017829D01*
X033799Y017820D01*
X033826Y017807D01*
X033851Y017790D01*
X033873Y017771D01*
X033892Y017749D01*
X033909Y017724D01*
X033922Y017697D01*
X033931Y017669D01*
X033937Y017640D01*
X033939Y017611D01*
X033937Y017582D01*
X033931Y017553D01*
X033922Y017525D01*
X033909Y017498D01*
X033892Y017473D01*
X033873Y017451D01*
X033851Y017432D01*
X033826Y017415D01*
X033799Y017402D01*
X033771Y017393D01*
X033742Y017387D01*
X033713Y017385D01*
X033684Y017387D01*
X033655Y017393D01*
X033627Y017402D01*
X033600Y017415D01*
X033575Y017432D01*
X033553Y017451D01*
X033534Y017473D01*
X033517Y017498D01*
X033504Y017525D01*
X033495Y017553D01*
X033489Y017582D01*
X033487Y017611D01*
X034500Y019150D02*
X034494Y019388D01*
X034477Y019625D01*
X034449Y019862D01*
X034410Y020096D01*
X034359Y020329D01*
X034297Y020559D01*
X034225Y020785D01*
X034142Y021008D01*
X034048Y021227D01*
X033944Y021441D01*
X033830Y021650D01*
X033706Y021853D01*
X033573Y022050D01*
X033430Y022241D01*
X033279Y022424D01*
X033119Y022600D01*
X032950Y022769D01*
X032774Y022929D01*
X032591Y023080D01*
X032400Y023223D01*
X032203Y023356D01*
X032000Y023480D01*
X031791Y023594D01*
X031577Y023698D01*
X031358Y023792D01*
X031135Y023875D01*
X030909Y023947D01*
X030679Y024009D01*
X030446Y024060D01*
X030212Y024099D01*
X029975Y024127D01*
X029738Y024144D01*
X029500Y024150D01*
X008000Y024150D01*
X007946Y024148D01*
X007893Y024142D01*
X007841Y024133D01*
X007789Y024120D01*
X007738Y024103D01*
X007688Y024082D01*
X007641Y024058D01*
X007595Y024031D01*
X007551Y024000D01*
X007509Y023967D01*
X007470Y023930D01*
X007433Y023891D01*
X007400Y023849D01*
X007369Y023805D01*
X007342Y023759D01*
X007318Y023712D01*
X007297Y023662D01*
X007280Y023611D01*
X007267Y023559D01*
X007258Y023507D01*
X007252Y023454D01*
X007250Y023400D01*
X007250Y019650D01*
X007252Y019594D01*
X007258Y019538D01*
X007267Y019482D01*
X007281Y019428D01*
X007298Y019374D01*
X007319Y019322D01*
X007343Y019272D01*
X007371Y019223D01*
X007403Y019176D01*
X007437Y019131D01*
X007474Y019089D01*
X007514Y019050D01*
X007557Y019014D01*
X007602Y018980D01*
X007650Y018950D01*
X007699Y018923D01*
X007750Y018900D01*
X007801Y018877D01*
X007850Y018850D01*
X007898Y018820D01*
X007943Y018786D01*
X007986Y018750D01*
X008026Y018711D01*
X008063Y018669D01*
X008097Y018624D01*
X008129Y018577D01*
X008157Y018528D01*
X008181Y018478D01*
X008202Y018426D01*
X008219Y018372D01*
X008233Y018318D01*
X008242Y018262D01*
X008248Y018206D01*
X008250Y018150D01*
X008250Y008650D01*
X008248Y008594D01*
X008242Y008538D01*
X008233Y008482D01*
X008219Y008428D01*
X008202Y008374D01*
X008181Y008322D01*
X008157Y008272D01*
X008129Y008223D01*
X008097Y008176D01*
X008063Y008131D01*
X008026Y008089D01*
X007986Y008050D01*
X007943Y008014D01*
X007898Y007980D01*
X007850Y007950D01*
X007801Y007923D01*
X007750Y007900D01*
X007699Y007877D01*
X007650Y007850D01*
X007602Y007820D01*
X007557Y007786D01*
X007514Y007750D01*
X007474Y007711D01*
X007437Y007669D01*
X007403Y007624D01*
X007371Y007577D01*
X007343Y007528D01*
X007319Y007478D01*
X007298Y007426D01*
X007281Y007372D01*
X007267Y007318D01*
X007258Y007262D01*
X007252Y007206D01*
X007250Y007150D01*
X031587Y021650D02*
X031589Y021702D01*
X031595Y021754D01*
X031605Y021805D01*
X031618Y021855D01*
X031636Y021905D01*
X031657Y021952D01*
X031681Y021998D01*
X031710Y022042D01*
X031741Y022084D01*
X031775Y022123D01*
X031812Y022160D01*
X031852Y022193D01*
X031895Y022224D01*
X031939Y022251D01*
X031985Y022275D01*
X032034Y022295D01*
X032083Y022311D01*
X032134Y022324D01*
X032185Y022333D01*
X032237Y022338D01*
X032289Y022339D01*
X032341Y022336D01*
X032393Y022329D01*
X032444Y022318D01*
X032494Y022304D01*
X032543Y022285D01*
X032590Y022263D01*
X032635Y022238D01*
X032679Y022209D01*
X032720Y022177D01*
X032759Y022142D01*
X032794Y022104D01*
X032827Y022063D01*
X032857Y022021D01*
X032883Y021976D01*
X032906Y021929D01*
X032925Y021880D01*
X032941Y021830D01*
X032953Y021780D01*
X032961Y021728D01*
X032965Y021676D01*
X032965Y021624D01*
X032961Y021572D01*
X032953Y021520D01*
X032941Y021470D01*
X032925Y021420D01*
X032906Y021371D01*
X032883Y021324D01*
X032857Y021279D01*
X032827Y021237D01*
X032794Y021196D01*
X032759Y021158D01*
X032720Y021123D01*
X032679Y021091D01*
X032635Y021062D01*
X032590Y021037D01*
X032543Y021015D01*
X032494Y020996D01*
X032444Y020982D01*
X032393Y020971D01*
X032341Y020964D01*
X032289Y020961D01*
X032237Y020962D01*
X032185Y020967D01*
X032134Y020976D01*
X032083Y020989D01*
X032034Y021005D01*
X031985Y021025D01*
X031939Y021049D01*
X031895Y021076D01*
X031852Y021107D01*
X031812Y021140D01*
X031775Y021177D01*
X031741Y021216D01*
X031710Y021258D01*
X031681Y021302D01*
X031657Y021348D01*
X031636Y021395D01*
X031618Y021445D01*
X031605Y021495D01*
X031595Y021546D01*
X031589Y021598D01*
X031587Y021650D01*
X033487Y014489D02*
X033489Y014518D01*
X033495Y014547D01*
X033504Y014575D01*
X033517Y014602D01*
X033534Y014627D01*
X033553Y014649D01*
X033575Y014668D01*
X033600Y014685D01*
X033627Y014698D01*
X033655Y014707D01*
X033684Y014713D01*
X033713Y014715D01*
X033742Y014713D01*
X033771Y014707D01*
X033799Y014698D01*
X033826Y014685D01*
X033851Y014668D01*
X033873Y014649D01*
X033892Y014627D01*
X033909Y014602D01*
X033922Y014575D01*
X033931Y014547D01*
X033937Y014518D01*
X033939Y014489D01*
X033937Y014460D01*
X033931Y014431D01*
X033922Y014403D01*
X033909Y014376D01*
X033892Y014351D01*
X033873Y014329D01*
X033851Y014310D01*
X033826Y014293D01*
X033799Y014280D01*
X033771Y014271D01*
X033742Y014265D01*
X033713Y014263D01*
X033684Y014265D01*
X033655Y014271D01*
X033627Y014280D01*
X033600Y014293D01*
X033575Y014310D01*
X033553Y014329D01*
X033534Y014351D01*
X033517Y014376D01*
X033504Y014403D01*
X033495Y014431D01*
X033489Y014460D01*
X033487Y014489D01*
X033487Y013111D02*
X033489Y013140D01*
X033495Y013169D01*
X033504Y013197D01*
X033517Y013224D01*
X033534Y013249D01*
X033553Y013271D01*
X033575Y013290D01*
X033600Y013307D01*
X033627Y013320D01*
X033655Y013329D01*
X033684Y013335D01*
X033713Y013337D01*
X033742Y013335D01*
X033771Y013329D01*
X033799Y013320D01*
X033826Y013307D01*
X033851Y013290D01*
X033873Y013271D01*
X033892Y013249D01*
X033909Y013224D01*
X033922Y013197D01*
X033931Y013169D01*
X033937Y013140D01*
X033939Y013111D01*
X033937Y013082D01*
X033931Y013053D01*
X033922Y013025D01*
X033909Y012998D01*
X033892Y012973D01*
X033873Y012951D01*
X033851Y012932D01*
X033826Y012915D01*
X033799Y012902D01*
X033771Y012893D01*
X033742Y012887D01*
X033713Y012885D01*
X033684Y012887D01*
X033655Y012893D01*
X033627Y012902D01*
X033600Y012915D01*
X033575Y012932D01*
X033553Y012951D01*
X033534Y012973D01*
X033517Y012998D01*
X033504Y013025D01*
X033495Y013053D01*
X033489Y013082D01*
X033487Y013111D01*
D16*
X033240Y012206D03*
X029500Y012422D03*
X029500Y015178D03*
X029500Y016922D03*
X033240Y016706D03*
X033240Y015394D03*
X029500Y019678D03*
X033240Y019894D03*
D17*
X029500Y018300D03*
X029500Y013800D03*
D18*
X008000Y022400D03*
X008000Y003400D03*
D19*
X009000Y003400D03*
X010000Y003400D03*
X011000Y003400D03*
X012000Y003400D03*
X013000Y003400D03*
X014000Y003400D03*
X015000Y003400D03*
X016000Y003400D03*
X017000Y003400D03*
X018000Y003400D03*
X019000Y003400D03*
X020000Y003400D03*
X021000Y003400D03*
X022000Y003400D03*
X023000Y003400D03*
X024000Y003400D03*
X025000Y003400D03*
X026000Y003400D03*
X027000Y003400D03*
X028000Y003400D03*
X029000Y003400D03*
X030000Y003400D03*
X030000Y004400D03*
X029000Y004400D03*
X028000Y004400D03*
X027000Y004400D03*
X026000Y004400D03*
X025000Y004400D03*
X024000Y004400D03*
X023000Y004400D03*
X022000Y004400D03*
X021000Y004400D03*
X020000Y004400D03*
X019000Y004400D03*
X018000Y004400D03*
X017000Y004400D03*
X016000Y004400D03*
X015000Y004400D03*
X014000Y004400D03*
X013000Y004400D03*
X012000Y004400D03*
X011000Y004400D03*
X010000Y004400D03*
X009000Y004400D03*
X008000Y004400D03*
X009000Y022400D03*
X010000Y022400D03*
X011000Y022400D03*
X012000Y022400D03*
X013000Y022400D03*
X014000Y022400D03*
X015000Y022400D03*
X016000Y022400D03*
X017000Y022400D03*
X018000Y022400D03*
X019000Y022400D03*
X020000Y022400D03*
X021000Y022400D03*
X022000Y022400D03*
X023000Y022400D03*
X024000Y022400D03*
X025000Y022400D03*
X026000Y022400D03*
X027000Y022400D03*
X028000Y022400D03*
X029000Y022400D03*
X030000Y022400D03*
X030000Y023400D03*
X029000Y023400D03*
X028000Y023400D03*
X027000Y023400D03*
X026000Y023400D03*
X025000Y023400D03*
X024000Y023400D03*
X023000Y023400D03*
X022000Y023400D03*
X021000Y023400D03*
X020000Y023400D03*
X019000Y023400D03*
X018000Y023400D03*
X017000Y023400D03*
X016000Y023400D03*
X015000Y023400D03*
X014000Y023400D03*
X013000Y023400D03*
X012000Y023400D03*
X011000Y023400D03*
X010000Y023400D03*
X009000Y023400D03*
X008000Y023400D03*
D20*
X018375Y010610D03*
X019125Y010610D03*
X019125Y009940D03*
X018375Y009940D03*
X026165Y018025D03*
X026835Y018025D03*
X027665Y018025D03*
X028335Y018025D03*
X028335Y018775D03*
X027665Y018775D03*
X026835Y018775D03*
X026165Y018775D03*
D21*
X026750Y019724D03*
X026750Y020826D03*
X026750Y017076D03*
X026750Y015974D03*
D22*
X022750Y014150D03*
X021750Y014150D03*
X021750Y013150D03*
X022750Y013150D03*
X028000Y010775D03*
X028000Y009775D03*
X024500Y007025D03*
X023500Y007025D03*
X023500Y006025D03*
X024500Y006025D03*
D23*
X024000Y006525D01*
X024000Y007275D01*
X023750Y007525D01*
X023500Y007525D01*
X022598Y008427D01*
X022598Y009291D01*
X022402Y009291D02*
X022402Y008248D01*
X023500Y007150D01*
X023500Y007025D01*
X023820Y006694D02*
X023820Y006450D01*
X024073Y006197D01*
X024040Y006116D01*
X024040Y005933D01*
X024110Y005764D01*
X024239Y005635D01*
X024408Y005565D01*
X024591Y005565D01*
X024761Y005635D01*
X024890Y005764D01*
X024960Y005933D01*
X024960Y006116D01*
X024890Y006286D01*
X024761Y006415D01*
X024591Y006485D01*
X024408Y006485D01*
X024328Y006452D01*
X024180Y006600D01*
X024180Y006694D01*
X024239Y006635D01*
X024408Y006565D01*
X024591Y006565D01*
X024761Y006635D01*
X024890Y006764D01*
X024960Y006933D01*
X024960Y007116D01*
X024890Y007286D01*
X024761Y007415D01*
X024591Y007485D01*
X024420Y007485D01*
X023950Y007955D01*
X023700Y007955D01*
X023560Y008095D01*
X026125Y008095D01*
X026125Y004810D01*
X026085Y004827D01*
X025915Y004827D01*
X025758Y004762D01*
X025638Y004642D01*
X025573Y004485D01*
X025573Y004315D01*
X025638Y004158D01*
X025758Y004038D01*
X025915Y003973D01*
X026085Y003973D01*
X026242Y004038D01*
X026362Y004158D01*
X026427Y004315D01*
X026427Y004485D01*
X026362Y004642D01*
X026242Y004762D01*
X026085Y004827D01*
X025915Y004827D01*
X025758Y004762D01*
X025638Y004642D01*
X025573Y004485D01*
X025573Y004315D01*
X025638Y004158D01*
X025758Y004038D01*
X025915Y003973D01*
X026085Y003973D01*
X026125Y003990D01*
X026125Y003810D01*
X026085Y003827D01*
X025915Y003827D01*
X025758Y003762D01*
X025638Y003642D01*
X025573Y003485D01*
X025573Y003315D01*
X025638Y003158D01*
X025696Y003100D01*
X025304Y003100D01*
X025362Y003158D01*
X025427Y003315D01*
X025427Y003485D01*
X025362Y003642D01*
X025242Y003762D01*
X025085Y003827D01*
X024915Y003827D01*
X024758Y003762D01*
X024638Y003642D01*
X024625Y003610D01*
X024625Y004190D01*
X024638Y004158D01*
X024758Y004038D01*
X024915Y003973D01*
X025085Y003973D01*
X025242Y004038D01*
X025362Y004158D01*
X025427Y004315D01*
X025427Y004485D01*
X025362Y004642D01*
X025242Y004762D01*
X025085Y004827D01*
X024915Y004827D01*
X024758Y004762D01*
X024638Y004642D01*
X024625Y004610D01*
X024625Y005150D01*
X031137Y005150D01*
X031137Y005000D01*
X031214Y004710D01*
X031364Y004451D01*
X031576Y004239D01*
X031836Y004089D01*
X032126Y004011D01*
X032208Y004011D01*
X031877Y003770D01*
X031241Y003446D01*
X030562Y003226D01*
X030400Y003200D01*
X030414Y003228D01*
X030436Y003295D01*
X030445Y003352D01*
X030048Y003352D01*
X030048Y003448D01*
X030445Y003448D01*
X030436Y003505D01*
X030414Y003572D01*
X030382Y003634D01*
X030341Y003691D01*
X030291Y003741D01*
X030234Y003782D01*
X030172Y003814D01*
X030105Y003836D01*
X030048Y003845D01*
X030048Y003448D01*
X029952Y003448D01*
X029952Y003352D01*
X029555Y003352D01*
X029564Y003295D01*
X029586Y003228D01*
X029618Y003166D01*
X029659Y003109D01*
X029662Y003106D01*
X029500Y003100D01*
X029332Y003100D01*
X029341Y003109D01*
X029382Y003166D01*
X029414Y003228D01*
X029436Y003295D01*
X029445Y003352D01*
X029048Y003352D01*
X029048Y003448D01*
X028952Y003448D01*
X028952Y003352D01*
X028555Y003352D01*
X028564Y003295D01*
X028586Y003228D01*
X028618Y003166D01*
X028659Y003109D01*
X028668Y003100D01*
X028304Y003100D01*
X028362Y003158D01*
X028427Y003315D01*
X028427Y003485D01*
X028362Y003642D01*
X028242Y003762D01*
X028085Y003827D01*
X027915Y003827D01*
X027758Y003762D01*
X027638Y003642D01*
X027573Y003485D01*
X027573Y003315D01*
X027638Y003158D01*
X027696Y003100D01*
X027304Y003100D01*
X027362Y003158D01*
X027427Y003315D01*
X027427Y003485D01*
X027362Y003642D01*
X027242Y003762D01*
X027085Y003827D01*
X026915Y003827D01*
X026758Y003762D01*
X026638Y003642D01*
X026573Y003485D01*
X026573Y003315D01*
X026638Y003158D01*
X026696Y003100D01*
X026304Y003100D01*
X026362Y003158D01*
X026427Y003315D01*
X026427Y003485D01*
X026362Y003642D01*
X026242Y003762D01*
X026085Y003827D01*
X025915Y003827D01*
X025758Y003762D01*
X025638Y003642D01*
X025573Y003485D01*
X025573Y003315D01*
X025638Y003158D01*
X025696Y003100D01*
X025304Y003100D01*
X025362Y003158D01*
X025427Y003315D01*
X025427Y003485D01*
X025362Y003642D01*
X025242Y003762D01*
X025085Y003827D01*
X024915Y003827D01*
X024758Y003762D01*
X024638Y003642D01*
X024573Y003485D01*
X024573Y003315D01*
X024638Y003158D01*
X024696Y003100D01*
X024304Y003100D01*
X024362Y003158D01*
X024427Y003315D01*
X024427Y003485D01*
X024362Y003642D01*
X024242Y003762D01*
X024085Y003827D01*
X023915Y003827D01*
X023758Y003762D01*
X023680Y003684D01*
X023680Y004116D01*
X023758Y004038D01*
X023915Y003973D01*
X024085Y003973D01*
X024242Y004038D01*
X024362Y004158D01*
X024427Y004315D01*
X024427Y004485D01*
X024362Y004642D01*
X024242Y004762D01*
X024085Y004827D01*
X023915Y004827D01*
X023758Y004762D01*
X023680Y004684D01*
X023680Y004725D01*
X023575Y004830D01*
X022825Y005580D01*
X021741Y005580D01*
X021761Y005600D01*
X021808Y005714D01*
X021808Y005836D01*
X021762Y005948D01*
X021811Y005948D01*
X021864Y006002D01*
X021873Y005986D01*
X021901Y005958D01*
X021935Y005938D01*
X021973Y005928D01*
X022161Y005928D01*
X022161Y006227D01*
X022258Y006227D01*
X022258Y006323D01*
X022576Y006323D01*
X022576Y006492D01*
X022566Y006530D01*
X022546Y006564D01*
X022518Y006592D01*
X022484Y006612D01*
X022446Y006622D01*
X022258Y006622D01*
X022258Y006323D01*
X022161Y006323D01*
X022161Y006622D01*
X021973Y006622D01*
X021935Y006612D01*
X021901Y006592D01*
X021873Y006564D01*
X021864Y006548D01*
X021811Y006602D01*
X021680Y006602D01*
X021680Y006698D01*
X021811Y006698D01*
X021864Y006752D01*
X021873Y006736D01*
X021901Y006708D01*
X021935Y006688D01*
X021973Y006678D01*
X022161Y006678D01*
X022161Y006977D01*
X022258Y006977D01*
X022258Y007073D01*
X022576Y007073D01*
X022576Y007242D01*
X022566Y007280D01*
X022546Y007314D01*
X022518Y007342D01*
X022484Y007362D01*
X022446Y007372D01*
X022258Y007372D01*
X022258Y007073D01*
X022161Y007073D01*
X022161Y007372D01*
X022009Y007372D01*
X022050Y007389D01*
X022136Y007475D01*
X022183Y007589D01*
X022183Y007711D01*
X022136Y007825D01*
X022055Y007906D01*
X022055Y007965D01*
X022820Y007200D01*
X022820Y006450D01*
X023073Y006197D01*
X023040Y006116D01*
X023040Y005933D01*
X023110Y005764D01*
X023239Y005635D01*
X023408Y005565D01*
X023591Y005565D01*
X023761Y005635D01*
X023890Y005764D01*
X023960Y005933D01*
X023960Y006116D01*
X023890Y006286D01*
X023761Y006415D01*
X023591Y006485D01*
X023408Y006485D01*
X023328Y006452D01*
X023180Y006600D01*
X023180Y006694D01*
X023239Y006635D01*
X023408Y006565D01*
X023591Y006565D01*
X023761Y006635D01*
X023820Y006694D01*
X023820Y006681D02*
X023807Y006681D01*
X023820Y006583D02*
X023634Y006583D01*
X023594Y006484D02*
X023820Y006484D01*
X023790Y006386D02*
X023885Y006386D01*
X023889Y006287D02*
X023983Y006287D01*
X023930Y006189D02*
X024070Y006189D01*
X024040Y006090D02*
X023960Y006090D01*
X023960Y005992D02*
X024040Y005992D01*
X024057Y005893D02*
X023943Y005893D01*
X023902Y005795D02*
X024098Y005795D01*
X024178Y005696D02*
X023822Y005696D01*
X023670Y005598D02*
X024330Y005598D01*
X024670Y005598D02*
X026125Y005598D01*
X026125Y005696D02*
X024822Y005696D01*
X024902Y005795D02*
X026125Y005795D01*
X026125Y005893D02*
X024943Y005893D01*
X024960Y005992D02*
X026125Y005992D01*
X026125Y006090D02*
X024960Y006090D01*
X024930Y006189D02*
X026125Y006189D01*
X026125Y006287D02*
X024889Y006287D01*
X024790Y006386D02*
X026125Y006386D01*
X026125Y006484D02*
X024594Y006484D01*
X024634Y006583D02*
X026125Y006583D01*
X026125Y006681D02*
X024807Y006681D01*
X024896Y006780D02*
X026125Y006780D01*
X026125Y006878D02*
X024937Y006878D01*
X024960Y006977D02*
X026125Y006977D01*
X026125Y007075D02*
X024960Y007075D01*
X024936Y007174D02*
X026125Y007174D01*
X026125Y007272D02*
X024896Y007272D01*
X024805Y007371D02*
X026125Y007371D01*
X026125Y007469D02*
X024630Y007469D01*
X024337Y007568D02*
X026125Y007568D01*
X026125Y007666D02*
X024239Y007666D01*
X024140Y007765D02*
X026125Y007765D01*
X026125Y007863D02*
X024042Y007863D01*
X023875Y007775D02*
X024500Y007150D01*
X024500Y007025D01*
X024193Y006681D02*
X024180Y006681D01*
X024197Y006583D02*
X024366Y006583D01*
X024406Y006484D02*
X024296Y006484D01*
X023500Y006025D02*
X023000Y006525D01*
X023000Y007275D01*
X022205Y008070D01*
X022205Y009291D01*
X022008Y009291D02*
X022008Y008908D01*
X021875Y008775D01*
X021875Y007650D01*
X022161Y007765D02*
X022256Y007765D01*
X022183Y007666D02*
X022354Y007666D01*
X022453Y007568D02*
X022175Y007568D01*
X022130Y007469D02*
X022551Y007469D01*
X022650Y007371D02*
X022451Y007371D01*
X022568Y007272D02*
X022748Y007272D01*
X022820Y007174D02*
X022576Y007174D01*
X022576Y007075D02*
X022820Y007075D01*
X022820Y006977D02*
X022576Y006977D01*
X022258Y006977D01*
X022258Y006678D01*
X022446Y006678D01*
X022484Y006688D01*
X022518Y006708D01*
X022546Y006736D01*
X022566Y006770D01*
X022576Y006808D01*
X022576Y006977D01*
X022576Y006878D02*
X022820Y006878D01*
X022820Y006780D02*
X022568Y006780D01*
X022457Y006681D02*
X022820Y006681D01*
X022820Y006583D02*
X022528Y006583D01*
X022576Y006484D02*
X022820Y006484D01*
X022885Y006386D02*
X022576Y006386D01*
X022576Y006227D02*
X022258Y006227D01*
X022258Y005928D01*
X022446Y005928D01*
X022484Y005938D01*
X022518Y005958D01*
X022546Y005986D01*
X022566Y006020D01*
X022576Y006058D01*
X022576Y006227D01*
X022576Y006189D02*
X023070Y006189D01*
X023040Y006090D02*
X022576Y006090D01*
X022549Y005992D02*
X023040Y005992D01*
X023057Y005893D02*
X021785Y005893D01*
X021808Y005795D02*
X023098Y005795D01*
X023178Y005696D02*
X021801Y005696D01*
X021759Y005598D02*
X023330Y005598D01*
X023103Y005302D02*
X026125Y005302D01*
X026125Y005204D02*
X023201Y005204D01*
X023300Y005105D02*
X026125Y005105D01*
X026125Y005007D02*
X023398Y005007D01*
X023497Y004908D02*
X026125Y004908D01*
X026127Y004810D02*
X026873Y004810D01*
X026915Y004827D02*
X026758Y004762D01*
X026638Y004642D01*
X026573Y004485D01*
X026573Y004315D01*
X026638Y004158D01*
X026758Y004038D01*
X026915Y003973D01*
X027085Y003973D01*
X027242Y004038D01*
X027362Y004158D01*
X027427Y004315D01*
X027427Y004485D01*
X027362Y004642D01*
X027242Y004762D01*
X027085Y004827D01*
X026915Y004827D01*
X027127Y004810D02*
X027873Y004810D01*
X027915Y004827D02*
X027758Y004762D01*
X027638Y004642D01*
X027573Y004485D01*
X027573Y004315D01*
X027638Y004158D01*
X027758Y004038D01*
X027915Y003973D01*
X028085Y003973D01*
X028242Y004038D01*
X028362Y004158D01*
X028427Y004315D01*
X028427Y004485D01*
X028362Y004642D01*
X028242Y004762D01*
X028085Y004827D01*
X027915Y004827D01*
X028127Y004810D02*
X028819Y004810D01*
X028828Y004814D02*
X028766Y004782D01*
X028709Y004741D01*
X028659Y004691D01*
X028618Y004634D01*
X028586Y004572D01*
X028564Y004505D01*
X028555Y004448D01*
X028952Y004448D01*
X028952Y004352D01*
X029048Y004352D01*
X029048Y004448D01*
X029445Y004448D01*
X029436Y004505D01*
X029414Y004572D01*
X029382Y004634D01*
X029341Y004691D01*
X029291Y004741D01*
X029234Y004782D01*
X029172Y004814D01*
X029105Y004836D01*
X029048Y004845D01*
X029048Y004448D01*
X028952Y004448D01*
X028952Y004845D01*
X028895Y004836D01*
X028828Y004814D01*
X028952Y004810D02*
X029048Y004810D01*
X029048Y004711D02*
X028952Y004711D01*
X028952Y004613D02*
X029048Y004613D01*
X029048Y004514D02*
X028952Y004514D01*
X028952Y004416D02*
X028427Y004416D01*
X028415Y004514D02*
X028567Y004514D01*
X028607Y004613D02*
X028374Y004613D01*
X028293Y004711D02*
X028679Y004711D01*
X029048Y004416D02*
X029952Y004416D01*
X029952Y004448D02*
X029952Y004352D01*
X030048Y004352D01*
X030048Y004448D01*
X030445Y004448D01*
X030436Y004505D01*
X030414Y004572D01*
X030382Y004634D01*
X030341Y004691D01*
X030291Y004741D01*
X030234Y004782D01*
X030172Y004814D01*
X030105Y004836D01*
X030048Y004845D01*
X030048Y004448D01*
X029952Y004448D01*
X029555Y004448D01*
X029564Y004505D01*
X029586Y004572D01*
X029618Y004634D01*
X029659Y004691D01*
X029709Y004741D01*
X029766Y004782D01*
X029828Y004814D01*
X029895Y004836D01*
X029952Y004845D01*
X029952Y004448D01*
X029952Y004514D02*
X030048Y004514D01*
X030048Y004416D02*
X031399Y004416D01*
X031328Y004514D02*
X030433Y004514D01*
X030393Y004613D02*
X031271Y004613D01*
X031214Y004711D02*
X030321Y004711D01*
X030181Y004810D02*
X031188Y004810D01*
X031161Y004908D02*
X024625Y004908D01*
X024625Y004810D02*
X024873Y004810D01*
X024127Y004810D01*
X024293Y004711D02*
X024707Y004711D01*
X024625Y004711D01*
X024638Y004642D02*
X024758Y004762D01*
X024915Y004827D01*
X025085Y004827D01*
X025242Y004762D01*
X025362Y004642D01*
X025427Y004485D01*
X025427Y004315D01*
X025362Y004158D01*
X025242Y004038D01*
X025085Y003973D01*
X024915Y003973D01*
X024758Y004038D01*
X024638Y004158D01*
X024573Y004315D01*
X024573Y004485D01*
X024638Y004642D01*
X024625Y004613D02*
X024626Y004613D01*
X024374Y004613D01*
X024415Y004514D02*
X024585Y004514D01*
X024573Y004416D02*
X024427Y004416D01*
X024427Y004317D02*
X024573Y004317D01*
X024613Y004219D02*
X024387Y004219D01*
X024324Y004120D02*
X024676Y004120D01*
X024625Y004120D01*
X024625Y004022D02*
X024798Y004022D01*
X024202Y004022D01*
X024091Y003825D02*
X024909Y003825D01*
X024625Y003825D01*
X024625Y003923D02*
X032087Y003923D01*
X032087Y004022D02*
X030239Y004022D01*
X030234Y004018D02*
X030291Y004059D01*
X030341Y004109D01*
X030382Y004166D01*
X030414Y004228D01*
X030436Y004295D01*
X030445Y004352D01*
X030048Y004352D01*
X030048Y003955D01*
X030105Y003964D01*
X030172Y003986D01*
X030234Y004018D01*
X030349Y004120D02*
X031782Y004120D01*
X031611Y004219D02*
X030409Y004219D01*
X030439Y004317D02*
X031498Y004317D01*
X031790Y003726D02*
X030306Y003726D01*
X030386Y003628D02*
X031597Y003628D01*
X031403Y003529D02*
X030428Y003529D01*
X030442Y003332D02*
X030889Y003332D01*
X030586Y003234D02*
X030416Y003234D01*
X030048Y003431D02*
X031192Y003431D01*
X031952Y003825D02*
X030140Y003825D01*
X030048Y003825D02*
X029952Y003825D01*
X029952Y003845D02*
X029895Y003836D01*
X029828Y003814D01*
X029766Y003782D01*
X029709Y003741D01*
X029659Y003691D01*
X029618Y003634D01*
X029586Y003572D01*
X029564Y003505D01*
X029555Y003448D01*
X029952Y003448D01*
X029952Y003845D01*
X029860Y003825D02*
X029140Y003825D01*
X029172Y003814D02*
X029105Y003836D01*
X029048Y003845D01*
X029048Y003448D01*
X029445Y003448D01*
X029436Y003505D01*
X029414Y003572D01*
X029382Y003634D01*
X029341Y003691D01*
X029291Y003741D01*
X029234Y003782D01*
X029172Y003814D01*
X029048Y003825D02*
X028952Y003825D01*
X028952Y003845D02*
X028895Y003836D01*
X028828Y003814D01*
X028766Y003782D01*
X028709Y003741D01*
X028659Y003691D01*
X028618Y003634D01*
X028586Y003572D01*
X028564Y003505D01*
X028555Y003448D01*
X028952Y003448D01*
X028952Y003845D01*
X028860Y003825D02*
X028091Y003825D01*
X027909Y003825D02*
X027091Y003825D01*
X026909Y003825D02*
X026091Y003825D01*
X026125Y003825D01*
X026125Y003923D02*
X023680Y003923D01*
X023680Y003825D02*
X023909Y003825D01*
X023722Y003726D02*
X023680Y003726D01*
X023680Y004022D02*
X023798Y004022D01*
X024278Y003726D02*
X024722Y003726D01*
X024625Y003726D01*
X024625Y003628D02*
X024632Y003628D01*
X024368Y003628D01*
X024409Y003529D02*
X024591Y003529D01*
X024573Y003431D02*
X024427Y003431D01*
X024427Y003332D02*
X024573Y003332D01*
X024607Y003234D02*
X024393Y003234D01*
X024339Y003135D02*
X024661Y003135D01*
X025339Y003135D02*
X025661Y003135D01*
X025339Y003135D01*
X025393Y003234D02*
X025607Y003234D01*
X025393Y003234D01*
X025427Y003332D02*
X025573Y003332D01*
X025427Y003332D01*
X025427Y003431D02*
X025573Y003431D01*
X025427Y003431D01*
X025409Y003529D02*
X025591Y003529D01*
X025409Y003529D01*
X025368Y003628D02*
X025632Y003628D01*
X025368Y003628D01*
X025278Y003726D02*
X025722Y003726D01*
X025278Y003726D01*
X025091Y003825D02*
X025909Y003825D01*
X025091Y003825D01*
X025202Y004022D02*
X025798Y004022D01*
X025202Y004022D01*
X025324Y004120D02*
X025676Y004120D01*
X025324Y004120D01*
X025387Y004219D02*
X025613Y004219D01*
X025387Y004219D01*
X025427Y004317D02*
X025573Y004317D01*
X025427Y004317D01*
X025427Y004416D02*
X025573Y004416D01*
X025427Y004416D01*
X025415Y004514D02*
X025585Y004514D01*
X025415Y004514D01*
X025374Y004613D02*
X025626Y004613D01*
X025374Y004613D01*
X025293Y004711D02*
X025707Y004711D01*
X025293Y004711D01*
X025127Y004810D02*
X025873Y004810D01*
X025127Y004810D01*
X024625Y005007D02*
X031137Y005007D01*
X031137Y005105D02*
X024625Y005105D01*
X023873Y004810D02*
X023595Y004810D01*
X023680Y004711D02*
X023707Y004711D01*
X023500Y004650D02*
X023500Y003150D01*
X023250Y002900D01*
X020500Y002900D01*
X020000Y003400D01*
X019696Y003100D02*
X019304Y003100D01*
X019362Y003158D01*
X019427Y003315D01*
X019427Y003485D01*
X019362Y003642D01*
X019242Y003762D01*
X019085Y003827D01*
X018915Y003827D01*
X018758Y003762D01*
X018638Y003642D01*
X018573Y003485D01*
X018573Y003315D01*
X018638Y003158D01*
X018696Y003100D01*
X018304Y003100D01*
X018362Y003158D01*
X018427Y003315D01*
X018427Y003485D01*
X018362Y003642D01*
X018242Y003762D01*
X018085Y003827D01*
X017915Y003827D01*
X017758Y003762D01*
X017638Y003642D01*
X017573Y003485D01*
X017573Y003315D01*
X017638Y003158D01*
X017696Y003100D01*
X017304Y003100D01*
X017362Y003158D01*
X017427Y003315D01*
X017427Y003485D01*
X017401Y003547D01*
X017575Y003720D01*
X017680Y003825D01*
X017680Y004116D01*
X017758Y004038D01*
X017915Y003973D01*
X018085Y003973D01*
X018242Y004038D01*
X018362Y004158D01*
X018427Y004315D01*
X018427Y004485D01*
X018362Y004642D01*
X018242Y004762D01*
X018085Y004827D01*
X017915Y004827D01*
X017758Y004762D01*
X017680Y004684D01*
X017680Y007534D01*
X017700Y007514D01*
X017814Y007467D01*
X017936Y007467D01*
X018050Y007514D01*
X018069Y007533D01*
X018069Y007524D01*
X018145Y007448D01*
X018235Y007448D01*
X018235Y007387D01*
X017948Y007387D01*
X017872Y007311D01*
X017872Y006987D01*
X017883Y006976D01*
X017882Y006975D01*
X017862Y006941D01*
X017852Y006903D01*
X017852Y006779D01*
X018234Y006779D01*
X018234Y006771D01*
X017852Y006771D01*
X017852Y006647D01*
X017862Y006609D01*
X017882Y006575D01*
X017883Y006574D01*
X017872Y006563D01*
X017872Y006239D01*
X017948Y006163D01*
X018528Y006163D01*
X018586Y006221D01*
X018701Y006221D01*
X018825Y006345D01*
X018896Y006416D01*
X018896Y006239D01*
X018972Y006163D01*
X019082Y006163D01*
X019082Y006102D01*
X018814Y006102D01*
X018761Y006048D01*
X018752Y006064D01*
X018724Y006092D01*
X018690Y006112D01*
X018652Y006122D01*
X018464Y006122D01*
X018464Y005823D01*
X018367Y005823D01*
X018367Y005727D01*
X018049Y005727D01*
X018049Y005558D01*
X018059Y005520D01*
X018079Y005486D01*
X018107Y005458D01*
X018141Y005438D01*
X018179Y005428D01*
X018367Y005428D01*
X018367Y005727D01*
X018464Y005727D01*
X018464Y005428D01*
X018652Y005428D01*
X018690Y005438D01*
X018724Y005458D01*
X018752Y005486D01*
X018761Y005502D01*
X018814Y005448D01*
X019355Y005448D01*
X019431Y005524D01*
X019431Y005533D01*
X019450Y005514D01*
X019564Y005467D01*
X019686Y005467D01*
X019800Y005514D01*
X019886Y005600D01*
X019933Y005714D01*
X019933Y005836D01*
X019886Y005950D01*
X019800Y006036D01*
X019686Y006083D01*
X019564Y006083D01*
X019450Y006036D01*
X019442Y006028D01*
X019442Y006163D01*
X019552Y006163D01*
X019628Y006239D01*
X019628Y006563D01*
X019552Y006639D01*
X018972Y006639D01*
X018930Y006597D01*
X018930Y006953D01*
X018972Y006911D01*
X019552Y006911D01*
X019610Y006969D01*
X019699Y006969D01*
X019825Y007095D01*
X019930Y007200D01*
X019930Y008475D01*
X019805Y008600D01*
X019700Y008705D01*
X019431Y008705D01*
X019431Y008776D01*
X019355Y008852D01*
X018814Y008852D01*
X018761Y008798D01*
X018752Y008814D01*
X018724Y008842D01*
X018690Y008862D01*
X018652Y008872D01*
X018464Y008872D01*
X018464Y008573D01*
X018367Y008573D01*
X018367Y008872D01*
X018179Y008872D01*
X018141Y008862D01*
X018107Y008842D01*
X018079Y008814D01*
X018059Y008780D01*
X018055Y008765D01*
X018055Y009095D01*
X018069Y009095D01*
X018069Y009024D01*
X018145Y008948D01*
X018686Y008948D01*
X018750Y009012D01*
X018814Y008948D01*
X019355Y008948D01*
X019431Y009024D01*
X019431Y009033D01*
X019450Y009014D01*
X019564Y008967D01*
X019686Y008967D01*
X019800Y009014D01*
X019886Y009100D01*
X019933Y009214D01*
X019933Y009336D01*
X019886Y009450D01*
X019800Y009536D01*
X019686Y009583D01*
X019564Y009583D01*
X019450Y009536D01*
X019431Y009517D01*
X019431Y009526D01*
X019374Y009583D01*
X019380Y009584D01*
X019414Y009604D01*
X019442Y009632D01*
X019462Y009666D01*
X019472Y009704D01*
X019472Y009892D01*
X019173Y009892D01*
X019173Y009989D01*
X019472Y009989D01*
X019472Y010177D01*
X019462Y010215D01*
X019442Y010249D01*
X019414Y010277D01*
X019398Y010286D01*
X019452Y010339D01*
X019452Y010470D01*
X019825Y010470D01*
X019942Y010587D01*
X021208Y010587D01*
X021208Y010570D01*
X021208Y010553D01*
X020524Y010553D01*
X020050Y010080D01*
X019945Y009975D01*
X019945Y004950D01*
X020069Y004827D01*
X019915Y004827D01*
X019758Y004762D01*
X019638Y004642D01*
X019573Y004485D01*
X019573Y004315D01*
X019638Y004158D01*
X019758Y004038D01*
X019915Y003973D01*
X020085Y003973D01*
X020242Y004038D01*
X020320Y004116D01*
X020320Y004075D01*
X020570Y003825D01*
X020675Y003720D01*
X020716Y003720D01*
X020638Y003642D01*
X020573Y003485D01*
X020573Y003315D01*
X020638Y003158D01*
X020696Y003100D01*
X020555Y003100D01*
X020401Y003253D01*
X020427Y003315D01*
X020427Y003485D01*
X020362Y003642D01*
X020242Y003762D01*
X020085Y003827D01*
X019915Y003827D01*
X019758Y003762D01*
X019638Y003642D01*
X019573Y003485D01*
X019573Y003315D01*
X019638Y003158D01*
X019696Y003100D01*
X019661Y003135D02*
X019339Y003135D01*
X019393Y003234D02*
X019607Y003234D01*
X019573Y003332D02*
X019427Y003332D01*
X019427Y003431D02*
X019573Y003431D01*
X019591Y003529D02*
X019409Y003529D01*
X019368Y003628D02*
X019632Y003628D01*
X019722Y003726D02*
X019278Y003726D01*
X019091Y003825D02*
X019909Y003825D01*
X020091Y003825D02*
X020571Y003825D01*
X020472Y003923D02*
X017680Y003923D01*
X017679Y003825D02*
X017909Y003825D01*
X018091Y003825D02*
X018909Y003825D01*
X018915Y003973D02*
X018758Y004038D01*
X018638Y004158D01*
X018573Y004315D01*
X018573Y004485D01*
X018638Y004642D01*
X018758Y004762D01*
X018915Y004827D01*
X019085Y004827D01*
X019242Y004762D01*
X019362Y004642D01*
X019427Y004485D01*
X019427Y004315D01*
X019362Y004158D01*
X019242Y004038D01*
X019085Y003973D01*
X018915Y003973D01*
X018798Y004022D02*
X018202Y004022D01*
X018324Y004120D02*
X018676Y004120D01*
X018613Y004219D02*
X018387Y004219D01*
X018427Y004317D02*
X018573Y004317D01*
X018573Y004416D02*
X018427Y004416D01*
X018415Y004514D02*
X018585Y004514D01*
X018626Y004613D02*
X018374Y004613D01*
X018293Y004711D02*
X018707Y004711D01*
X018873Y004810D02*
X018127Y004810D01*
X017873Y004810D02*
X017680Y004810D01*
X017680Y004908D02*
X019987Y004908D01*
X019945Y005007D02*
X017680Y005007D01*
X017680Y005105D02*
X019945Y005105D01*
X019945Y005204D02*
X017680Y005204D01*
X017680Y005302D02*
X019945Y005302D01*
X019945Y005401D02*
X017680Y005401D01*
X017680Y005499D02*
X018071Y005499D01*
X018049Y005598D02*
X017680Y005598D01*
X017680Y005696D02*
X018049Y005696D01*
X018049Y005823D02*
X018367Y005823D01*
X018367Y006122D01*
X018179Y006122D01*
X018141Y006112D01*
X018107Y006092D01*
X018079Y006064D01*
X018059Y006030D01*
X018049Y005992D01*
X018049Y005823D01*
X018049Y005893D02*
X017680Y005893D01*
X017680Y005795D02*
X018367Y005795D01*
X018367Y005893D02*
X018464Y005893D01*
X018464Y005992D02*
X018367Y005992D01*
X018367Y006090D02*
X018464Y006090D01*
X018554Y006189D02*
X018946Y006189D01*
X018896Y006287D02*
X018767Y006287D01*
X018865Y006386D02*
X018896Y006386D01*
X018750Y006525D02*
X018750Y007025D01*
X018625Y007150D01*
X018375Y007150D01*
X018250Y007150D01*
X018249Y007149D01*
X018238Y007149D01*
X018239Y007150D01*
X018250Y007150D01*
X018375Y007150D02*
X018415Y007190D01*
X018415Y007775D01*
X018000Y007775D01*
X017875Y007900D01*
X017875Y009275D01*
X018415Y009275D01*
X018069Y009045D02*
X018055Y009045D01*
X018055Y008947D02*
X019945Y008947D01*
X019945Y009045D02*
X019831Y009045D01*
X019904Y009144D02*
X019945Y009144D01*
X019933Y009242D02*
X019945Y009242D01*
X019932Y009341D02*
X019945Y009341D01*
X019945Y009439D02*
X019891Y009439D01*
X019945Y009538D02*
X019797Y009538D01*
X019945Y009636D02*
X019444Y009636D01*
X019453Y009538D02*
X019419Y009538D01*
X019472Y009735D02*
X019945Y009735D01*
X019945Y009833D02*
X019472Y009833D01*
X019472Y010030D02*
X020000Y010030D01*
X019945Y009932D02*
X019173Y009932D01*
X019077Y009932D02*
X018423Y009932D01*
X018423Y009892D02*
X018423Y009989D01*
X018722Y009989D01*
X018722Y010177D01*
X018712Y010215D01*
X018692Y010249D01*
X018664Y010277D01*
X018648Y010286D01*
X018702Y010339D01*
X018702Y010470D01*
X018798Y010470D01*
X018798Y010339D01*
X018852Y010286D01*
X018836Y010277D01*
X018808Y010249D01*
X018788Y010215D01*
X018778Y010177D01*
X018778Y009989D01*
X019077Y009989D01*
X019077Y009892D01*
X018778Y009892D01*
X018778Y009704D01*
X018788Y009666D01*
X018808Y009632D01*
X018836Y009604D01*
X018839Y009602D01*
X018814Y009602D01*
X018750Y009538D01*
X018686Y009602D01*
X018661Y009602D01*
X018664Y009604D01*
X018692Y009632D01*
X018712Y009666D01*
X018722Y009704D01*
X018722Y009892D01*
X018423Y009892D01*
X018722Y009833D02*
X018778Y009833D01*
X018778Y009735D02*
X018722Y009735D01*
X018694Y009636D02*
X018806Y009636D01*
X018778Y010030D02*
X018722Y010030D01*
X018722Y010129D02*
X018778Y010129D01*
X018795Y010227D02*
X018705Y010227D01*
X018688Y010326D02*
X018812Y010326D01*
X018798Y010424D02*
X018702Y010424D01*
X018625Y010650D02*
X018375Y010610D01*
X018585Y010650D01*
X018125Y010650D01*
X017875Y010400D01*
X017875Y009275D01*
X018055Y008848D02*
X018117Y008848D01*
X018367Y008848D02*
X018464Y008848D01*
X018464Y008750D02*
X018367Y008750D01*
X018367Y008651D02*
X018464Y008651D01*
X018464Y008477D02*
X018367Y008477D01*
X018367Y008178D01*
X018179Y008178D01*
X018141Y008188D01*
X018107Y008208D01*
X018079Y008236D01*
X018059Y008270D01*
X018055Y008285D01*
X018055Y008031D01*
X018069Y008017D01*
X018069Y008026D01*
X018145Y008102D01*
X018686Y008102D01*
X018739Y008048D01*
X018748Y008064D01*
X018776Y008092D01*
X018810Y008112D01*
X018848Y008122D01*
X019036Y008122D01*
X019036Y007823D01*
X019133Y007823D01*
X019451Y007823D01*
X019451Y007992D01*
X019441Y008030D01*
X019421Y008064D01*
X019393Y008092D01*
X019359Y008112D01*
X019321Y008122D01*
X019133Y008122D01*
X019133Y007823D01*
X019133Y007727D01*
X019451Y007727D01*
X019451Y007558D01*
X019441Y007520D01*
X019421Y007486D01*
X019393Y007458D01*
X019359Y007438D01*
X019321Y007428D01*
X019133Y007428D01*
X019133Y007727D01*
X019036Y007727D01*
X019036Y007428D01*
X018848Y007428D01*
X018810Y007438D01*
X018776Y007458D01*
X018748Y007486D01*
X018739Y007502D01*
X018686Y007448D01*
X018595Y007448D01*
X018595Y007330D01*
X018700Y007330D01*
X018805Y007225D01*
X018896Y007134D01*
X018896Y007311D01*
X018972Y007387D01*
X019552Y007387D01*
X019570Y007369D01*
X019570Y008325D01*
X019550Y008345D01*
X019431Y008345D01*
X019431Y008274D01*
X019355Y008198D01*
X018814Y008198D01*
X018761Y008252D01*
X018752Y008236D01*
X018724Y008208D01*
X018690Y008188D01*
X018652Y008178D01*
X018464Y008178D01*
X018464Y008477D01*
X018464Y008454D02*
X018367Y008454D01*
X018367Y008356D02*
X018464Y008356D01*
X018464Y008257D02*
X018367Y008257D01*
X018067Y008257D02*
X018055Y008257D01*
X018055Y008159D02*
X019570Y008159D01*
X019570Y008257D02*
X019414Y008257D01*
X019423Y008060D02*
X019570Y008060D01*
X019570Y007962D02*
X019451Y007962D01*
X019451Y007863D02*
X019570Y007863D01*
X019570Y007765D02*
X019133Y007765D01*
X019133Y007863D02*
X019036Y007863D01*
X019036Y007962D02*
X019133Y007962D01*
X019133Y008060D02*
X019036Y008060D01*
X018746Y008060D02*
X018728Y008060D01*
X018103Y008060D02*
X018055Y008060D01*
X017070Y008060D02*
X008562Y008060D01*
X008592Y008105D02*
X008592Y008105D01*
X008700Y008463D01*
X008700Y018337D01*
X008592Y018695D01*
X008384Y019006D01*
X008096Y019243D01*
X007923Y019315D01*
X007876Y019339D01*
X007794Y019407D01*
X007735Y019495D01*
X007704Y019597D01*
X007700Y019650D01*
X007700Y021953D01*
X007952Y021953D01*
X007952Y022352D01*
X008048Y022352D01*
X008048Y022448D01*
X007952Y022448D01*
X007952Y022847D01*
X007700Y022847D01*
X007700Y023068D01*
X007709Y023059D01*
X007766Y023018D01*
X007828Y022986D01*
X007895Y022964D01*
X007952Y022955D01*
X007952Y023352D01*
X008048Y023352D01*
X008048Y023448D01*
X008445Y023448D01*
X008436Y023505D01*
X008414Y023572D01*
X008382Y023634D01*
X008341Y023691D01*
X008332Y023700D01*
X008696Y023700D01*
X008638Y023642D01*
X008573Y023485D01*
X008573Y023315D01*
X008638Y023158D01*
X008758Y023038D01*
X008915Y022973D01*
X009085Y022973D01*
X009242Y023038D01*
X009362Y023158D01*
X009427Y023315D01*
X009427Y023485D01*
X009362Y023642D01*
X009304Y023700D01*
X009696Y023700D01*
X009638Y023642D01*
X009573Y023485D01*
X009573Y023315D01*
X009638Y023158D01*
X009758Y023038D01*
X009915Y022973D01*
X010085Y022973D01*
X010242Y023038D01*
X010362Y023158D01*
X010427Y023315D01*
X010427Y023485D01*
X010362Y023642D01*
X010304Y023700D01*
X010696Y023700D01*
X010638Y023642D01*
X010573Y023485D01*
X010573Y023315D01*
X010638Y023158D01*
X010758Y023038D01*
X010915Y022973D01*
X011085Y022973D01*
X011242Y023038D01*
X011362Y023158D01*
X011427Y023315D01*
X011427Y023485D01*
X011362Y023642D01*
X011304Y023700D01*
X011696Y023700D01*
X011638Y023642D01*
X011573Y023485D01*
X011573Y023315D01*
X011638Y023158D01*
X011758Y023038D01*
X011915Y022973D01*
X012085Y022973D01*
X012242Y023038D01*
X012362Y023158D01*
X012427Y023315D01*
X012427Y023485D01*
X012362Y023642D01*
X012304Y023700D01*
X012696Y023700D01*
X012638Y023642D01*
X012573Y023485D01*
X012573Y023315D01*
X012638Y023158D01*
X012758Y023038D01*
X012915Y022973D01*
X013085Y022973D01*
X013242Y023038D01*
X013362Y023158D01*
X013427Y023315D01*
X013427Y023485D01*
X013362Y023642D01*
X013304Y023700D01*
X013696Y023700D01*
X013638Y023642D01*
X013573Y023485D01*
X013573Y023315D01*
X013638Y023158D01*
X013758Y023038D01*
X013915Y022973D01*
X014085Y022973D01*
X014242Y023038D01*
X014362Y023158D01*
X014427Y023315D01*
X014427Y023485D01*
X014362Y023642D01*
X014304Y023700D01*
X014696Y023700D01*
X014638Y023642D01*
X014573Y023485D01*
X014573Y023315D01*
X014638Y023158D01*
X014758Y023038D01*
X014915Y022973D01*
X015085Y022973D01*
X015242Y023038D01*
X015362Y023158D01*
X015427Y023315D01*
X015427Y023485D01*
X015362Y023642D01*
X015304Y023700D01*
X015696Y023700D01*
X015638Y023642D01*
X015573Y023485D01*
X015573Y023315D01*
X015638Y023158D01*
X015758Y023038D01*
X015915Y022973D01*
X016085Y022973D01*
X016242Y023038D01*
X016362Y023158D01*
X016427Y023315D01*
X016427Y023485D01*
X016362Y023642D01*
X016304Y023700D01*
X016696Y023700D01*
X016638Y023642D01*
X016573Y023485D01*
X016573Y023315D01*
X016638Y023158D01*
X016758Y023038D01*
X016915Y022973D01*
X017085Y022973D01*
X017242Y023038D01*
X017362Y023158D01*
X017427Y023315D01*
X017427Y023485D01*
X017362Y023642D01*
X017304Y023700D01*
X017696Y023700D01*
X017638Y023642D01*
X017573Y023485D01*
X017573Y023315D01*
X017638Y023158D01*
X017758Y023038D01*
X017915Y022973D01*
X018085Y022973D01*
X018242Y023038D01*
X018362Y023158D01*
X018427Y023315D01*
X018427Y023485D01*
X018362Y023642D01*
X018304Y023700D01*
X018696Y023700D01*
X018638Y023642D01*
X018573Y023485D01*
X018573Y023315D01*
X018638Y023158D01*
X018758Y023038D01*
X018915Y022973D01*
X019085Y022973D01*
X019242Y023038D01*
X019362Y023158D01*
X019427Y023315D01*
X019427Y023485D01*
X019362Y023642D01*
X019304Y023700D01*
X019696Y023700D01*
X019638Y023642D01*
X019573Y023485D01*
X019573Y023315D01*
X019638Y023158D01*
X019758Y023038D01*
X019915Y022973D01*
X020085Y022973D01*
X020242Y023038D01*
X020362Y023158D01*
X020427Y023315D01*
X020427Y023485D01*
X020362Y023642D01*
X020304Y023700D01*
X020696Y023700D01*
X020638Y023642D01*
X020573Y023485D01*
X020573Y023315D01*
X020638Y023158D01*
X020758Y023038D01*
X020915Y022973D01*
X021085Y022973D01*
X021242Y023038D01*
X021362Y023158D01*
X021427Y023315D01*
X021427Y023485D01*
X021362Y023642D01*
X021304Y023700D01*
X021696Y023700D01*
X021638Y023642D01*
X021573Y023485D01*
X021573Y023315D01*
X021638Y023158D01*
X021758Y023038D01*
X021915Y022973D01*
X022085Y022973D01*
X022242Y023038D01*
X022362Y023158D01*
X022427Y023315D01*
X022427Y023485D01*
X022362Y023642D01*
X022304Y023700D01*
X022696Y023700D01*
X022638Y023642D01*
X022573Y023485D01*
X022573Y023315D01*
X022638Y023158D01*
X022758Y023038D01*
X022915Y022973D01*
X023085Y022973D01*
X023242Y023038D01*
X023362Y023158D01*
X023427Y023315D01*
X023427Y023485D01*
X023362Y023642D01*
X023304Y023700D01*
X023696Y023700D01*
X023638Y023642D01*
X023573Y023485D01*
X023573Y023315D01*
X023638Y023158D01*
X023758Y023038D01*
X023915Y022973D01*
X024085Y022973D01*
X024242Y023038D01*
X024362Y023158D01*
X024427Y023315D01*
X024427Y023485D01*
X024362Y023642D01*
X024304Y023700D01*
X024696Y023700D01*
X024638Y023642D01*
X024573Y023485D01*
X024573Y023315D01*
X024638Y023158D01*
X024758Y023038D01*
X024915Y022973D01*
X025000Y022973D01*
X025000Y022827D01*
X024915Y022827D01*
X024758Y022762D01*
X024638Y022642D01*
X024573Y022485D01*
X024573Y022315D01*
X024638Y022158D01*
X024758Y022038D01*
X024915Y021973D01*
X025000Y021973D01*
X025000Y013997D01*
X024964Y013997D01*
X024964Y013698D01*
X024867Y013698D01*
X024867Y013602D01*
X024549Y013602D01*
X024549Y013433D01*
X024559Y013395D01*
X024579Y013361D01*
X024607Y013333D01*
X024641Y013313D01*
X024679Y013303D01*
X024867Y013303D01*
X024867Y013602D01*
X024964Y013602D01*
X024964Y013303D01*
X025000Y013303D01*
X025000Y012650D01*
X025570Y012080D01*
X024300Y012080D01*
X024195Y011975D01*
X023375Y011155D01*
X023375Y011270D01*
X024284Y012180D01*
X024325Y012139D01*
X024439Y012092D01*
X024561Y012092D01*
X024675Y012139D01*
X024761Y012225D01*
X024808Y012339D01*
X024808Y012461D01*
X024761Y012575D01*
X024675Y012661D01*
X024561Y012708D01*
X024439Y012708D01*
X024325Y012661D01*
X024244Y012580D01*
X024175Y012580D01*
X024070Y012475D01*
X023142Y011547D01*
X023026Y011547D01*
X024284Y012805D01*
X024325Y012764D01*
X024439Y012717D01*
X024561Y012717D01*
X024675Y012764D01*
X024761Y012850D01*
X024808Y012964D01*
X024808Y013086D01*
X024761Y013200D01*
X024675Y013286D01*
X024561Y013333D01*
X024439Y013333D01*
X024325Y013286D01*
X024244Y013205D01*
X024175Y013205D01*
X024070Y013100D01*
X022778Y011808D01*
X022778Y012690D01*
X022841Y012690D01*
X023011Y012760D01*
X023140Y012889D01*
X023210Y013058D01*
X023210Y013241D01*
X023140Y013411D01*
X023011Y013540D01*
X022841Y013610D01*
X022658Y013610D01*
X022489Y013540D01*
X022430Y013481D01*
X022430Y013575D01*
X022578Y013723D01*
X022658Y013690D01*
X022841Y013690D01*
X023011Y013760D01*
X023140Y013889D01*
X023210Y014058D01*
X023210Y014241D01*
X023140Y014411D01*
X023011Y014540D01*
X022841Y014610D01*
X022658Y014610D01*
X022489Y014540D01*
X022360Y014411D01*
X022290Y014241D01*
X022290Y014058D01*
X022323Y013978D01*
X022070Y013725D01*
X022070Y013481D01*
X022011Y013540D01*
X021841Y013610D01*
X021658Y013610D01*
X021489Y013540D01*
X021430Y013481D01*
X021430Y013575D01*
X021578Y013723D01*
X021658Y013690D01*
X021841Y013690D01*
X022011Y013760D01*
X022140Y013889D01*
X022210Y014058D01*
X022210Y014241D01*
X022140Y014411D01*
X022011Y014540D01*
X021841Y014610D01*
X021658Y014610D01*
X021489Y014540D01*
X021360Y014411D01*
X021290Y014241D01*
X021290Y014058D01*
X021323Y013978D01*
X021070Y013725D01*
X021070Y012825D01*
X021175Y012720D01*
X021828Y012068D01*
X021828Y011547D01*
X021701Y011547D01*
X021625Y011471D01*
X021625Y011455D01*
X017675Y011455D01*
X017570Y011350D01*
X017070Y010850D01*
X017070Y004827D01*
X016915Y004827D01*
X016758Y004762D01*
X016638Y004642D01*
X016573Y004485D01*
X016573Y004315D01*
X016638Y004158D01*
X016758Y004038D01*
X016915Y003973D01*
X017085Y003973D01*
X017242Y004038D01*
X017320Y004116D01*
X017320Y003975D01*
X017147Y003801D01*
X017085Y003827D01*
X016915Y003827D01*
X016758Y003762D01*
X016638Y003642D01*
X016573Y003485D01*
X016573Y003315D01*
X016638Y003158D01*
X016696Y003100D01*
X016304Y003100D01*
X016362Y003158D01*
X016427Y003315D01*
X016427Y003485D01*
X016362Y003642D01*
X016242Y003762D01*
X016085Y003827D01*
X015915Y003827D01*
X015758Y003762D01*
X015638Y003642D01*
X015573Y003485D01*
X015573Y003315D01*
X015638Y003158D01*
X015696Y003100D01*
X015304Y003100D01*
X015362Y003158D01*
X015427Y003315D01*
X015427Y003485D01*
X015362Y003642D01*
X015242Y003762D01*
X015085Y003827D01*
X014915Y003827D01*
X014758Y003762D01*
X014638Y003642D01*
X014573Y003485D01*
X014573Y003315D01*
X014638Y003158D01*
X014696Y003100D01*
X014304Y003100D01*
X014362Y003158D01*
X014427Y003315D01*
X014427Y003485D01*
X014362Y003642D01*
X014242Y003762D01*
X014085Y003827D01*
X013915Y003827D01*
X013758Y003762D01*
X013638Y003642D01*
X013573Y003485D01*
X013573Y003315D01*
X013638Y003158D01*
X013696Y003100D01*
X013304Y003100D01*
X013362Y003158D01*
X013427Y003315D01*
X013427Y003485D01*
X013362Y003642D01*
X013242Y003762D01*
X013085Y003827D01*
X012915Y003827D01*
X012758Y003762D01*
X012638Y003642D01*
X012573Y003485D01*
X012573Y003315D01*
X012638Y003158D01*
X012696Y003100D01*
X012304Y003100D01*
X012362Y003158D01*
X012427Y003315D01*
X012427Y003485D01*
X012362Y003642D01*
X012242Y003762D01*
X012085Y003827D01*
X011915Y003827D01*
X011758Y003762D01*
X011638Y003642D01*
X011573Y003485D01*
X011573Y003315D01*
X011638Y003158D01*
X011696Y003100D01*
X011304Y003100D01*
X011362Y003158D01*
X011427Y003315D01*
X011427Y003485D01*
X011362Y003642D01*
X011242Y003762D01*
X011085Y003827D01*
X010915Y003827D01*
X010758Y003762D01*
X010638Y003642D01*
X010573Y003485D01*
X010573Y003315D01*
X010638Y003158D01*
X010696Y003100D01*
X010304Y003100D01*
X010362Y003158D01*
X010427Y003315D01*
X010427Y003485D01*
X010362Y003642D01*
X010242Y003762D01*
X010085Y003827D01*
X009915Y003827D01*
X009758Y003762D01*
X009638Y003642D01*
X009573Y003485D01*
X009573Y003315D01*
X009638Y003158D01*
X009696Y003100D01*
X009304Y003100D01*
X009362Y003158D01*
X009427Y003315D01*
X009427Y003485D01*
X009362Y003642D01*
X009242Y003762D01*
X009085Y003827D01*
X008915Y003827D01*
X008758Y003762D01*
X008638Y003642D01*
X008573Y003485D01*
X008573Y003315D01*
X008638Y003158D01*
X008696Y003100D01*
X008447Y003100D01*
X008447Y003352D01*
X008048Y003352D01*
X008048Y003448D01*
X007952Y003448D01*
X007952Y003847D01*
X007700Y003847D01*
X007700Y004068D01*
X007709Y004059D01*
X007766Y004018D01*
X007828Y003986D01*
X007895Y003964D01*
X007952Y003955D01*
X007952Y004352D01*
X008048Y004352D01*
X008048Y004448D01*
X007952Y004448D01*
X007952Y004845D01*
X007895Y004836D01*
X007828Y004814D01*
X007766Y004782D01*
X007709Y004741D01*
X007700Y004732D01*
X007700Y007150D01*
X007704Y007203D01*
X007735Y007305D01*
X007794Y007393D01*
X007876Y007461D01*
X007923Y007485D01*
X008096Y007557D01*
X008384Y007794D01*
X008384Y007794D01*
X008384Y007794D01*
X008592Y008105D01*
X008608Y008159D02*
X017070Y008159D01*
X017070Y008257D02*
X008638Y008257D01*
X008667Y008356D02*
X017070Y008356D01*
X017070Y008454D02*
X008697Y008454D01*
X008700Y008553D02*
X017070Y008553D01*
X017070Y008651D02*
X008700Y008651D01*
X008700Y008750D02*
X017070Y008750D01*
X017070Y008848D02*
X008700Y008848D01*
X008700Y008947D02*
X017070Y008947D01*
X017070Y009045D02*
X008700Y009045D01*
X008700Y009144D02*
X017070Y009144D01*
X017070Y009242D02*
X008700Y009242D01*
X008700Y009341D02*
X017070Y009341D01*
X017070Y009439D02*
X008700Y009439D01*
X008700Y009538D02*
X017070Y009538D01*
X017070Y009636D02*
X008700Y009636D01*
X008700Y009735D02*
X017070Y009735D01*
X017070Y009833D02*
X008700Y009833D01*
X008700Y009932D02*
X017070Y009932D01*
X017070Y010030D02*
X008700Y010030D01*
X008700Y010129D02*
X017070Y010129D01*
X017070Y010227D02*
X008700Y010227D01*
X008700Y010326D02*
X017070Y010326D01*
X017070Y010424D02*
X008700Y010424D01*
X008700Y010523D02*
X017070Y010523D01*
X017070Y010621D02*
X008700Y010621D01*
X008700Y010720D02*
X017070Y010720D01*
X017070Y010818D02*
X008700Y010818D01*
X008700Y010917D02*
X017137Y010917D01*
X017235Y011015D02*
X008700Y011015D01*
X008700Y011114D02*
X017334Y011114D01*
X017432Y011212D02*
X008700Y011212D01*
X008700Y011311D02*
X017531Y011311D01*
X017629Y011409D02*
X008700Y011409D01*
X008700Y011508D02*
X021662Y011508D01*
X021828Y011606D02*
X008700Y011606D01*
X008700Y011705D02*
X021828Y011705D01*
X021828Y011803D02*
X008700Y011803D01*
X008700Y011902D02*
X021828Y011902D01*
X021828Y012000D02*
X008700Y012000D01*
X008700Y012099D02*
X021797Y012099D01*
X021698Y012197D02*
X008700Y012197D01*
X008700Y012296D02*
X021600Y012296D01*
X021501Y012394D02*
X008700Y012394D01*
X008700Y012493D02*
X021403Y012493D01*
X021304Y012591D02*
X008700Y012591D01*
X008700Y012690D02*
X021206Y012690D01*
X021107Y012788D02*
X008700Y012788D01*
X008700Y012887D02*
X021070Y012887D01*
X021070Y012985D02*
X008700Y012985D01*
X008700Y013084D02*
X021070Y013084D01*
X021070Y013182D02*
X008700Y013182D01*
X008700Y013281D02*
X021070Y013281D01*
X021070Y013379D02*
X008700Y013379D01*
X008700Y013478D02*
X021070Y013478D01*
X021070Y013576D02*
X008700Y013576D01*
X008700Y013675D02*
X021070Y013675D01*
X021118Y013773D02*
X008700Y013773D01*
X008700Y013872D02*
X021217Y013872D01*
X021315Y013970D02*
X008700Y013970D01*
X008700Y014069D02*
X021290Y014069D01*
X021290Y014167D02*
X008700Y014167D01*
X008700Y014266D02*
X021300Y014266D01*
X021341Y014364D02*
X008700Y014364D01*
X008700Y014463D02*
X021412Y014463D01*
X021540Y014561D02*
X008700Y014561D01*
X008700Y014660D02*
X025000Y014660D01*
X025000Y014758D02*
X008700Y014758D01*
X008700Y014857D02*
X025000Y014857D01*
X025000Y014955D02*
X008700Y014955D01*
X008700Y015054D02*
X025000Y015054D01*
X025000Y015152D02*
X008700Y015152D01*
X008700Y015251D02*
X025000Y015251D01*
X025000Y015349D02*
X008700Y015349D01*
X008700Y015448D02*
X025000Y015448D01*
X025000Y015546D02*
X008700Y015546D01*
X008700Y015645D02*
X025000Y015645D01*
X025000Y015743D02*
X008700Y015743D01*
X008700Y015842D02*
X025000Y015842D01*
X025000Y015940D02*
X008700Y015940D01*
X008700Y016039D02*
X025000Y016039D01*
X025000Y016137D02*
X008700Y016137D01*
X008700Y016236D02*
X025000Y016236D01*
X025000Y016334D02*
X008700Y016334D01*
X008700Y016433D02*
X025000Y016433D01*
X025000Y016531D02*
X008700Y016531D01*
X008700Y016630D02*
X025000Y016630D01*
X025000Y016728D02*
X008700Y016728D01*
X008700Y016827D02*
X025000Y016827D01*
X025000Y016925D02*
X008700Y016925D01*
X008700Y017024D02*
X025000Y017024D01*
X025000Y017122D02*
X008700Y017122D01*
X008700Y017221D02*
X025000Y017221D01*
X025000Y017319D02*
X008700Y017319D01*
X008700Y017418D02*
X025000Y017418D01*
X025000Y017516D02*
X008700Y017516D01*
X008700Y017615D02*
X025000Y017615D01*
X025000Y017713D02*
X008700Y017713D01*
X008700Y017812D02*
X025000Y017812D01*
X025000Y017910D02*
X008700Y017910D01*
X008700Y018009D02*
X025000Y018009D01*
X025000Y018107D02*
X008700Y018107D01*
X008700Y018206D02*
X025000Y018206D01*
X025000Y018304D02*
X008700Y018304D01*
X008680Y018403D02*
X025000Y018403D01*
X025000Y018501D02*
X008650Y018501D01*
X008620Y018600D02*
X025000Y018600D01*
X025000Y018698D02*
X008589Y018698D01*
X008592Y018695D02*
X008592Y018695D01*
X008524Y018797D02*
X025000Y018797D01*
X025000Y018895D02*
X008458Y018895D01*
X008392Y018994D02*
X025000Y018994D01*
X025000Y019092D02*
X008280Y019092D01*
X008384Y019006D02*
X008384Y019006D01*
X008160Y019191D02*
X025000Y019191D01*
X025000Y019289D02*
X007986Y019289D01*
X007923Y019315D02*
X007923Y019315D01*
X007817Y019388D02*
X025000Y019388D01*
X025000Y019486D02*
X007741Y019486D01*
X007708Y019585D02*
X025000Y019585D01*
X025000Y019683D02*
X007700Y019683D01*
X007700Y019782D02*
X025000Y019782D01*
X025000Y019880D02*
X007700Y019880D01*
X007700Y019979D02*
X025000Y019979D01*
X025000Y020077D02*
X007700Y020077D01*
X007700Y020176D02*
X025000Y020176D01*
X025000Y020274D02*
X007700Y020274D01*
X007700Y020373D02*
X025000Y020373D01*
X025000Y020471D02*
X007700Y020471D01*
X007700Y020570D02*
X025000Y020570D01*
X025000Y020668D02*
X007700Y020668D01*
X007700Y020767D02*
X025000Y020767D01*
X025000Y020865D02*
X007700Y020865D01*
X007700Y020964D02*
X025000Y020964D01*
X025000Y021062D02*
X007700Y021062D01*
X007700Y021161D02*
X025000Y021161D01*
X025000Y021259D02*
X007700Y021259D01*
X007700Y021358D02*
X025000Y021358D01*
X025000Y021456D02*
X007700Y021456D01*
X007700Y021555D02*
X025000Y021555D01*
X025000Y021653D02*
X007700Y021653D01*
X007700Y021752D02*
X025000Y021752D01*
X025000Y021850D02*
X007700Y021850D01*
X007700Y021949D02*
X025000Y021949D01*
X024749Y022047D02*
X024251Y022047D01*
X024242Y022038D02*
X024362Y022158D01*
X024427Y022315D01*
X024427Y022485D01*
X024362Y022642D01*
X024242Y022762D01*
X024085Y022827D01*
X023915Y022827D01*
X023758Y022762D01*
X023638Y022642D01*
X023573Y022485D01*
X023573Y022315D01*
X023638Y022158D01*
X023758Y022038D01*
X023915Y021973D01*
X024085Y021973D01*
X024242Y022038D01*
X024349Y022146D02*
X024651Y022146D01*
X024603Y022244D02*
X024397Y022244D01*
X024427Y022343D02*
X024573Y022343D01*
X024573Y022441D02*
X024427Y022441D01*
X024404Y022540D02*
X024596Y022540D01*
X024637Y022638D02*
X024363Y022638D01*
X024267Y022737D02*
X024733Y022737D01*
X025000Y022835D02*
X008357Y022835D01*
X008355Y022837D02*
X008317Y022847D01*
X008048Y022847D01*
X008048Y022448D01*
X008447Y022448D01*
X008447Y022717D01*
X008437Y022755D01*
X008417Y022789D01*
X008389Y022817D01*
X008355Y022837D01*
X008442Y022737D02*
X008733Y022737D01*
X008758Y022762D02*
X008638Y022642D01*
X008573Y022485D01*
X008573Y022315D01*
X008638Y022158D01*
X008758Y022038D01*
X008915Y021973D01*
X009085Y021973D01*
X009242Y022038D01*
X009362Y022158D01*
X009427Y022315D01*
X009427Y022485D01*
X009362Y022642D01*
X009242Y022762D01*
X009085Y022827D01*
X008915Y022827D01*
X008758Y022762D01*
X008637Y022638D02*
X008447Y022638D01*
X008447Y022540D02*
X008596Y022540D01*
X008573Y022441D02*
X008048Y022441D01*
X008048Y022352D02*
X008447Y022352D01*
X008447Y022083D01*
X008437Y022045D01*
X008417Y022011D01*
X008389Y021983D01*
X008355Y021963D01*
X008317Y021953D01*
X008048Y021953D01*
X008048Y022352D01*
X008048Y022343D02*
X007952Y022343D01*
X007952Y022244D02*
X008048Y022244D01*
X008048Y022146D02*
X007952Y022146D01*
X007952Y022047D02*
X008048Y022047D01*
X008437Y022047D02*
X008749Y022047D01*
X008651Y022146D02*
X008447Y022146D01*
X008447Y022244D02*
X008603Y022244D01*
X008573Y022343D02*
X008447Y022343D01*
X008048Y022540D02*
X007952Y022540D01*
X007952Y022638D02*
X008048Y022638D01*
X008048Y022737D02*
X007952Y022737D01*
X007952Y022835D02*
X008048Y022835D01*
X008048Y022955D02*
X008105Y022964D01*
X008172Y022986D01*
X008234Y023018D01*
X008291Y023059D01*
X008341Y023109D01*
X008382Y023166D01*
X008414Y023228D01*
X008436Y023295D01*
X008445Y023352D01*
X008048Y023352D01*
X008048Y022955D01*
X008048Y023032D02*
X007952Y023032D01*
X007952Y023131D02*
X008048Y023131D01*
X008048Y023229D02*
X007952Y023229D01*
X007952Y023328D02*
X008048Y023328D01*
X008048Y023426D02*
X008573Y023426D01*
X008573Y023328D02*
X008441Y023328D01*
X008414Y023229D02*
X008609Y023229D01*
X008666Y023131D02*
X008357Y023131D01*
X008254Y023032D02*
X008773Y023032D01*
X009227Y023032D02*
X009773Y023032D01*
X009666Y023131D02*
X009334Y023131D01*
X009391Y023229D02*
X009609Y023229D01*
X009573Y023328D02*
X009427Y023328D01*
X009427Y023426D02*
X009573Y023426D01*
X009590Y023525D02*
X009410Y023525D01*
X009370Y023623D02*
X009630Y023623D01*
X010370Y023623D02*
X010630Y023623D01*
X010590Y023525D02*
X010410Y023525D01*
X010427Y023426D02*
X010573Y023426D01*
X010573Y023328D02*
X010427Y023328D01*
X010391Y023229D02*
X010609Y023229D01*
X010666Y023131D02*
X010334Y023131D01*
X010227Y023032D02*
X010773Y023032D01*
X010915Y022827D02*
X010758Y022762D01*
X010638Y022642D01*
X010573Y022485D01*
X010573Y022315D01*
X010638Y022158D01*
X010758Y022038D01*
X010915Y021973D01*
X011085Y021973D01*
X011242Y022038D01*
X011362Y022158D01*
X011427Y022315D01*
X011427Y022485D01*
X011362Y022642D01*
X011242Y022762D01*
X011085Y022827D01*
X010915Y022827D01*
X010733Y022737D02*
X010267Y022737D01*
X010242Y022762D02*
X010085Y022827D01*
X009915Y022827D01*
X009758Y022762D01*
X009638Y022642D01*
X009573Y022485D01*
X009573Y022315D01*
X009638Y022158D01*
X009758Y022038D01*
X009915Y021973D01*
X010085Y021973D01*
X010242Y022038D01*
X010362Y022158D01*
X010427Y022315D01*
X010427Y022485D01*
X010362Y022642D01*
X010242Y022762D01*
X010363Y022638D02*
X010637Y022638D01*
X010596Y022540D02*
X010404Y022540D01*
X010427Y022441D02*
X010573Y022441D01*
X010573Y022343D02*
X010427Y022343D01*
X010397Y022244D02*
X010603Y022244D01*
X010651Y022146D02*
X010349Y022146D01*
X010251Y022047D02*
X010749Y022047D01*
X011251Y022047D02*
X011749Y022047D01*
X011758Y022038D02*
X011915Y021973D01*
X012085Y021973D01*
X012242Y022038D01*
X012362Y022158D01*
X012427Y022315D01*
X012427Y022485D01*
X012362Y022642D01*
X012242Y022762D01*
X012085Y022827D01*
X011915Y022827D01*
X011758Y022762D01*
X011638Y022642D01*
X011573Y022485D01*
X011573Y022315D01*
X011638Y022158D01*
X011758Y022038D01*
X011651Y022146D02*
X011349Y022146D01*
X011397Y022244D02*
X011603Y022244D01*
X011573Y022343D02*
X011427Y022343D01*
X011427Y022441D02*
X011573Y022441D01*
X011596Y022540D02*
X011404Y022540D01*
X011363Y022638D02*
X011637Y022638D01*
X011733Y022737D02*
X011267Y022737D01*
X011227Y023032D02*
X011773Y023032D01*
X011666Y023131D02*
X011334Y023131D01*
X011391Y023229D02*
X011609Y023229D01*
X011573Y023328D02*
X011427Y023328D01*
X011427Y023426D02*
X011573Y023426D01*
X011590Y023525D02*
X011410Y023525D01*
X011370Y023623D02*
X011630Y023623D01*
X012370Y023623D02*
X012630Y023623D01*
X012590Y023525D02*
X012410Y023525D01*
X012427Y023426D02*
X012573Y023426D01*
X012573Y023328D02*
X012427Y023328D01*
X012391Y023229D02*
X012609Y023229D01*
X012666Y023131D02*
X012334Y023131D01*
X012227Y023032D02*
X012773Y023032D01*
X012915Y022827D02*
X012758Y022762D01*
X012638Y022642D01*
X012573Y022485D01*
X012573Y022315D01*
X012638Y022158D01*
X012758Y022038D01*
X012915Y021973D01*
X013085Y021973D01*
X013242Y022038D01*
X013362Y022158D01*
X013427Y022315D01*
X013427Y022485D01*
X013362Y022642D01*
X013242Y022762D01*
X013085Y022827D01*
X012915Y022827D01*
X012733Y022737D02*
X012267Y022737D01*
X012363Y022638D02*
X012637Y022638D01*
X012596Y022540D02*
X012404Y022540D01*
X012427Y022441D02*
X012573Y022441D01*
X012573Y022343D02*
X012427Y022343D01*
X012397Y022244D02*
X012603Y022244D01*
X012651Y022146D02*
X012349Y022146D01*
X012251Y022047D02*
X012749Y022047D01*
X013251Y022047D02*
X013749Y022047D01*
X013758Y022038D02*
X013915Y021973D01*
X014085Y021973D01*
X014242Y022038D01*
X014362Y022158D01*
X014427Y022315D01*
X014427Y022485D01*
X014362Y022642D01*
X014242Y022762D01*
X014085Y022827D01*
X013915Y022827D01*
X013758Y022762D01*
X013638Y022642D01*
X013573Y022485D01*
X013573Y022315D01*
X013638Y022158D01*
X013758Y022038D01*
X013651Y022146D02*
X013349Y022146D01*
X013397Y022244D02*
X013603Y022244D01*
X013573Y022343D02*
X013427Y022343D01*
X013427Y022441D02*
X013573Y022441D01*
X013596Y022540D02*
X013404Y022540D01*
X013363Y022638D02*
X013637Y022638D01*
X013733Y022737D02*
X013267Y022737D01*
X013227Y023032D02*
X013773Y023032D01*
X013666Y023131D02*
X013334Y023131D01*
X013391Y023229D02*
X013609Y023229D01*
X013573Y023328D02*
X013427Y023328D01*
X013427Y023426D02*
X013573Y023426D01*
X013590Y023525D02*
X013410Y023525D01*
X013370Y023623D02*
X013630Y023623D01*
X014370Y023623D02*
X014630Y023623D01*
X014590Y023525D02*
X014410Y023525D01*
X014427Y023426D02*
X014573Y023426D01*
X014573Y023328D02*
X014427Y023328D01*
X014391Y023229D02*
X014609Y023229D01*
X014666Y023131D02*
X014334Y023131D01*
X014227Y023032D02*
X014773Y023032D01*
X014915Y022827D02*
X014758Y022762D01*
X014638Y022642D01*
X014573Y022485D01*
X014573Y022315D01*
X014638Y022158D01*
X014758Y022038D01*
X014915Y021973D01*
X015085Y021973D01*
X015242Y022038D01*
X015362Y022158D01*
X015427Y022315D01*
X015427Y022485D01*
X015362Y022642D01*
X015242Y022762D01*
X015085Y022827D01*
X014915Y022827D01*
X014733Y022737D02*
X014267Y022737D01*
X014363Y022638D02*
X014637Y022638D01*
X014596Y022540D02*
X014404Y022540D01*
X014427Y022441D02*
X014573Y022441D01*
X014573Y022343D02*
X014427Y022343D01*
X014397Y022244D02*
X014603Y022244D01*
X014651Y022146D02*
X014349Y022146D01*
X014251Y022047D02*
X014749Y022047D01*
X015251Y022047D02*
X015749Y022047D01*
X015758Y022038D02*
X015915Y021973D01*
X016085Y021973D01*
X016242Y022038D01*
X016362Y022158D01*
X016427Y022315D01*
X016427Y022485D01*
X016362Y022642D01*
X016242Y022762D01*
X016085Y022827D01*
X015915Y022827D01*
X015758Y022762D01*
X015638Y022642D01*
X015573Y022485D01*
X015573Y022315D01*
X015638Y022158D01*
X015758Y022038D01*
X015651Y022146D02*
X015349Y022146D01*
X015397Y022244D02*
X015603Y022244D01*
X015573Y022343D02*
X015427Y022343D01*
X015427Y022441D02*
X015573Y022441D01*
X015596Y022540D02*
X015404Y022540D01*
X015363Y022638D02*
X015637Y022638D01*
X015733Y022737D02*
X015267Y022737D01*
X015227Y023032D02*
X015773Y023032D01*
X015666Y023131D02*
X015334Y023131D01*
X015391Y023229D02*
X015609Y023229D01*
X015573Y023328D02*
X015427Y023328D01*
X015427Y023426D02*
X015573Y023426D01*
X015590Y023525D02*
X015410Y023525D01*
X015370Y023623D02*
X015630Y023623D01*
X016370Y023623D02*
X016630Y023623D01*
X016590Y023525D02*
X016410Y023525D01*
X016427Y023426D02*
X016573Y023426D01*
X016573Y023328D02*
X016427Y023328D01*
X016391Y023229D02*
X016609Y023229D01*
X016666Y023131D02*
X016334Y023131D01*
X016227Y023032D02*
X016773Y023032D01*
X016915Y022827D02*
X016758Y022762D01*
X016638Y022642D01*
X016573Y022485D01*
X016573Y022315D01*
X016638Y022158D01*
X016758Y022038D01*
X016915Y021973D01*
X017085Y021973D01*
X017242Y022038D01*
X017362Y022158D01*
X017427Y022315D01*
X017427Y022485D01*
X017362Y022642D01*
X017242Y022762D01*
X017085Y022827D01*
X016915Y022827D01*
X016733Y022737D02*
X016267Y022737D01*
X016363Y022638D02*
X016637Y022638D01*
X016596Y022540D02*
X016404Y022540D01*
X016427Y022441D02*
X016573Y022441D01*
X016573Y022343D02*
X016427Y022343D01*
X016397Y022244D02*
X016603Y022244D01*
X016651Y022146D02*
X016349Y022146D01*
X016251Y022047D02*
X016749Y022047D01*
X017251Y022047D02*
X017749Y022047D01*
X017758Y022038D02*
X017915Y021973D01*
X018085Y021973D01*
X018242Y022038D01*
X018362Y022158D01*
X018427Y022315D01*
X018427Y022485D01*
X018362Y022642D01*
X018242Y022762D01*
X018085Y022827D01*
X017915Y022827D01*
X017758Y022762D01*
X017638Y022642D01*
X017573Y022485D01*
X017573Y022315D01*
X017638Y022158D01*
X017758Y022038D01*
X017651Y022146D02*
X017349Y022146D01*
X017397Y022244D02*
X017603Y022244D01*
X017573Y022343D02*
X017427Y022343D01*
X017427Y022441D02*
X017573Y022441D01*
X017596Y022540D02*
X017404Y022540D01*
X017363Y022638D02*
X017637Y022638D01*
X017733Y022737D02*
X017267Y022737D01*
X017227Y023032D02*
X017773Y023032D01*
X017666Y023131D02*
X017334Y023131D01*
X017391Y023229D02*
X017609Y023229D01*
X017573Y023328D02*
X017427Y023328D01*
X017427Y023426D02*
X017573Y023426D01*
X017590Y023525D02*
X017410Y023525D01*
X017370Y023623D02*
X017630Y023623D01*
X018370Y023623D02*
X018630Y023623D01*
X018590Y023525D02*
X018410Y023525D01*
X018427Y023426D02*
X018573Y023426D01*
X018573Y023328D02*
X018427Y023328D01*
X018391Y023229D02*
X018609Y023229D01*
X018666Y023131D02*
X018334Y023131D01*
X018227Y023032D02*
X018773Y023032D01*
X018915Y022827D02*
X018758Y022762D01*
X018638Y022642D01*
X018573Y022485D01*
X018573Y022315D01*
X018638Y022158D01*
X018758Y022038D01*
X018915Y021973D01*
X019085Y021973D01*
X019242Y022038D01*
X019362Y022158D01*
X019427Y022315D01*
X019427Y022485D01*
X019362Y022642D01*
X019242Y022762D01*
X019085Y022827D01*
X018915Y022827D01*
X018733Y022737D02*
X018267Y022737D01*
X018363Y022638D02*
X018637Y022638D01*
X018596Y022540D02*
X018404Y022540D01*
X018427Y022441D02*
X018573Y022441D01*
X018573Y022343D02*
X018427Y022343D01*
X018397Y022244D02*
X018603Y022244D01*
X018651Y022146D02*
X018349Y022146D01*
X018251Y022047D02*
X018749Y022047D01*
X019251Y022047D02*
X019749Y022047D01*
X019758Y022038D02*
X019915Y021973D01*
X020085Y021973D01*
X020242Y022038D01*
X020362Y022158D01*
X020427Y022315D01*
X020427Y022485D01*
X020362Y022642D01*
X020242Y022762D01*
X020085Y022827D01*
X019915Y022827D01*
X019758Y022762D01*
X019638Y022642D01*
X019573Y022485D01*
X019573Y022315D01*
X019638Y022158D01*
X019758Y022038D01*
X019651Y022146D02*
X019349Y022146D01*
X019397Y022244D02*
X019603Y022244D01*
X019573Y022343D02*
X019427Y022343D01*
X019427Y022441D02*
X019573Y022441D01*
X019596Y022540D02*
X019404Y022540D01*
X019363Y022638D02*
X019637Y022638D01*
X019733Y022737D02*
X019267Y022737D01*
X019227Y023032D02*
X019773Y023032D01*
X019666Y023131D02*
X019334Y023131D01*
X019391Y023229D02*
X019609Y023229D01*
X019573Y023328D02*
X019427Y023328D01*
X019427Y023426D02*
X019573Y023426D01*
X019590Y023525D02*
X019410Y023525D01*
X019370Y023623D02*
X019630Y023623D01*
X020370Y023623D02*
X020630Y023623D01*
X020590Y023525D02*
X020410Y023525D01*
X020427Y023426D02*
X020573Y023426D01*
X020573Y023328D02*
X020427Y023328D01*
X020391Y023229D02*
X020609Y023229D01*
X020666Y023131D02*
X020334Y023131D01*
X020227Y023032D02*
X020773Y023032D01*
X020915Y022827D02*
X020758Y022762D01*
X020638Y022642D01*
X020573Y022485D01*
X020573Y022315D01*
X020638Y022158D01*
X020758Y022038D01*
X020915Y021973D01*
X021085Y021973D01*
X021242Y022038D01*
X021362Y022158D01*
X021427Y022315D01*
X021427Y022485D01*
X021362Y022642D01*
X021242Y022762D01*
X021085Y022827D01*
X020915Y022827D01*
X020733Y022737D02*
X020267Y022737D01*
X020363Y022638D02*
X020637Y022638D01*
X020596Y022540D02*
X020404Y022540D01*
X020427Y022441D02*
X020573Y022441D01*
X020573Y022343D02*
X020427Y022343D01*
X020397Y022244D02*
X020603Y022244D01*
X020651Y022146D02*
X020349Y022146D01*
X020251Y022047D02*
X020749Y022047D01*
X021251Y022047D02*
X021749Y022047D01*
X021758Y022038D02*
X021915Y021973D01*
X022085Y021973D01*
X022242Y022038D01*
X022362Y022158D01*
X022427Y022315D01*
X022427Y022485D01*
X022362Y022642D01*
X022242Y022762D01*
X022085Y022827D01*
X021915Y022827D01*
X021758Y022762D01*
X021638Y022642D01*
X021573Y022485D01*
X021573Y022315D01*
X021638Y022158D01*
X021758Y022038D01*
X021651Y022146D02*
X021349Y022146D01*
X021397Y022244D02*
X021603Y022244D01*
X021573Y022343D02*
X021427Y022343D01*
X021427Y022441D02*
X021573Y022441D01*
X021596Y022540D02*
X021404Y022540D01*
X021363Y022638D02*
X021637Y022638D01*
X021733Y022737D02*
X021267Y022737D01*
X021227Y023032D02*
X021773Y023032D01*
X021666Y023131D02*
X021334Y023131D01*
X021391Y023229D02*
X021609Y023229D01*
X021573Y023328D02*
X021427Y023328D01*
X021427Y023426D02*
X021573Y023426D01*
X021590Y023525D02*
X021410Y023525D01*
X021370Y023623D02*
X021630Y023623D01*
X022370Y023623D02*
X022630Y023623D01*
X022590Y023525D02*
X022410Y023525D01*
X022427Y023426D02*
X022573Y023426D01*
X022573Y023328D02*
X022427Y023328D01*
X022391Y023229D02*
X022609Y023229D01*
X022666Y023131D02*
X022334Y023131D01*
X022227Y023032D02*
X022773Y023032D01*
X022915Y022827D02*
X022758Y022762D01*
X022638Y022642D01*
X022573Y022485D01*
X022573Y022315D01*
X022638Y022158D01*
X022758Y022038D01*
X022915Y021973D01*
X023085Y021973D01*
X023242Y022038D01*
X023362Y022158D01*
X023427Y022315D01*
X023427Y022485D01*
X023362Y022642D01*
X023242Y022762D01*
X023085Y022827D01*
X022915Y022827D01*
X022733Y022737D02*
X022267Y022737D01*
X022363Y022638D02*
X022637Y022638D01*
X022596Y022540D02*
X022404Y022540D01*
X022427Y022441D02*
X022573Y022441D01*
X022573Y022343D02*
X022427Y022343D01*
X022397Y022244D02*
X022603Y022244D01*
X022651Y022146D02*
X022349Y022146D01*
X022251Y022047D02*
X022749Y022047D01*
X023251Y022047D02*
X023749Y022047D01*
X023651Y022146D02*
X023349Y022146D01*
X023397Y022244D02*
X023603Y022244D01*
X023573Y022343D02*
X023427Y022343D01*
X023427Y022441D02*
X023573Y022441D01*
X023596Y022540D02*
X023404Y022540D01*
X023363Y022638D02*
X023637Y022638D01*
X023733Y022737D02*
X023267Y022737D01*
X023227Y023032D02*
X023773Y023032D01*
X023666Y023131D02*
X023334Y023131D01*
X023391Y023229D02*
X023609Y023229D01*
X023573Y023328D02*
X023427Y023328D01*
X023427Y023426D02*
X023573Y023426D01*
X023590Y023525D02*
X023410Y023525D01*
X023370Y023623D02*
X023630Y023623D01*
X024370Y023623D02*
X024630Y023623D01*
X024590Y023525D02*
X024410Y023525D01*
X024427Y023426D02*
X024573Y023426D01*
X024573Y023328D02*
X024427Y023328D01*
X024391Y023229D02*
X024609Y023229D01*
X024666Y023131D02*
X024334Y023131D01*
X024227Y023032D02*
X024773Y023032D01*
X025000Y022934D02*
X007700Y022934D01*
X007700Y023032D02*
X007746Y023032D01*
X008429Y023525D02*
X008590Y023525D01*
X008630Y023623D02*
X008388Y023623D01*
X009267Y022737D02*
X009733Y022737D01*
X009637Y022638D02*
X009363Y022638D01*
X009404Y022540D02*
X009596Y022540D01*
X009573Y022441D02*
X009427Y022441D01*
X009427Y022343D02*
X009573Y022343D01*
X009603Y022244D02*
X009397Y022244D01*
X009349Y022146D02*
X009651Y022146D01*
X009749Y022047D02*
X009251Y022047D01*
X008096Y019243D02*
X008096Y019243D01*
X017250Y010775D02*
X017750Y011275D01*
X021795Y011275D01*
X021811Y011259D01*
X022008Y011259D02*
X022008Y012142D01*
X021250Y012900D01*
X021250Y013650D01*
X021750Y014150D01*
X022173Y013970D02*
X022315Y013970D01*
X022290Y014069D02*
X022210Y014069D01*
X022210Y014167D02*
X022290Y014167D01*
X022300Y014266D02*
X022200Y014266D01*
X022159Y014364D02*
X022341Y014364D01*
X022412Y014463D02*
X022088Y014463D01*
X021960Y014561D02*
X022540Y014561D01*
X022960Y014561D02*
X025000Y014561D01*
X025000Y014463D02*
X023088Y014463D01*
X023159Y014364D02*
X025000Y014364D01*
X025000Y014266D02*
X023200Y014266D01*
X023210Y014167D02*
X025000Y014167D01*
X025000Y014069D02*
X023210Y014069D01*
X023173Y013970D02*
X024612Y013970D01*
X024607Y013967D02*
X024579Y013939D01*
X024559Y013905D01*
X024549Y013867D01*
X024549Y013698D01*
X024867Y013698D01*
X024867Y013997D01*
X024679Y013997D01*
X024641Y013987D01*
X024607Y013967D01*
X024550Y013872D02*
X023122Y013872D01*
X023024Y013773D02*
X024549Y013773D01*
X024549Y013576D02*
X022924Y013576D01*
X023073Y013478D02*
X024549Y013478D01*
X024568Y013379D02*
X023153Y013379D01*
X023194Y013281D02*
X024319Y013281D01*
X024152Y013182D02*
X023210Y013182D01*
X023210Y013084D02*
X024054Y013084D01*
X023955Y012985D02*
X023180Y012985D01*
X023137Y012887D02*
X023857Y012887D01*
X023758Y012788D02*
X023039Y012788D01*
X022778Y012690D02*
X023660Y012690D01*
X023561Y012591D02*
X022778Y012591D01*
X022778Y012493D02*
X023463Y012493D01*
X023364Y012394D02*
X022778Y012394D01*
X022778Y012296D02*
X023266Y012296D01*
X023167Y012197D02*
X022778Y012197D01*
X022778Y012099D02*
X023069Y012099D01*
X022970Y012000D02*
X022778Y012000D01*
X022778Y011902D02*
X022872Y011902D01*
X023184Y011705D02*
X023300Y011705D01*
X023283Y011803D02*
X023398Y011803D01*
X023381Y011902D02*
X023497Y011902D01*
X023480Y012000D02*
X023595Y012000D01*
X023578Y012099D02*
X023694Y012099D01*
X023677Y012197D02*
X023792Y012197D01*
X023775Y012296D02*
X023891Y012296D01*
X023874Y012394D02*
X023989Y012394D01*
X023972Y012493D02*
X024088Y012493D01*
X024071Y012591D02*
X024255Y012591D01*
X024169Y012690D02*
X024393Y012690D01*
X024301Y012788D02*
X024268Y012788D01*
X024250Y013025D02*
X024500Y013025D01*
X024250Y013025D02*
X022795Y011570D01*
X022795Y011259D01*
X022598Y011259D02*
X022598Y012998D01*
X022750Y013150D01*
X022402Y012748D02*
X022250Y012900D01*
X022250Y013650D01*
X022750Y014150D01*
X022529Y013675D02*
X024867Y013675D01*
X024867Y013773D02*
X024964Y013773D01*
X024964Y013872D02*
X024867Y013872D01*
X024867Y013970D02*
X024964Y013970D01*
X025500Y013997D02*
X025500Y021650D01*
X031137Y021650D01*
X031137Y021500D01*
X031214Y021210D01*
X031364Y020951D01*
X031576Y020739D01*
X031836Y020589D01*
X032126Y020511D01*
X032426Y020511D01*
X032715Y020589D01*
X032975Y020739D01*
X033187Y020951D01*
X033337Y021210D01*
X033407Y021473D01*
X033704Y020891D01*
X033924Y020212D01*
X034022Y019593D01*
X033847Y019665D01*
X033764Y019665D01*
X033764Y020440D01*
X033688Y020517D01*
X032793Y020517D01*
X032716Y020440D01*
X032716Y020205D01*
X030700Y020205D01*
X030200Y020705D01*
X028800Y020705D01*
X028695Y020600D01*
X028651Y020556D01*
X028605Y020602D01*
X028064Y020602D01*
X028011Y020548D01*
X028002Y020564D01*
X027974Y020592D01*
X027940Y020612D01*
X027902Y020622D01*
X027714Y020622D01*
X027714Y020323D01*
X027617Y020323D01*
X027617Y020227D01*
X027299Y020227D01*
X027299Y020058D01*
X027309Y020020D01*
X027329Y019986D01*
X027357Y019958D01*
X027391Y019938D01*
X027429Y019928D01*
X027617Y019928D01*
X027617Y020227D01*
X027714Y020227D01*
X027714Y019928D01*
X027902Y019928D01*
X027940Y019938D01*
X027974Y019958D01*
X028002Y019986D01*
X028011Y020002D01*
X028064Y019948D01*
X028155Y019948D01*
X028155Y019852D01*
X028064Y019852D01*
X028011Y019798D01*
X028002Y019814D01*
X027974Y019842D01*
X027940Y019862D01*
X027902Y019872D01*
X027714Y019872D01*
X027714Y019573D01*
X027617Y019573D01*
X027617Y019477D01*
X027299Y019477D01*
X027299Y019308D01*
X027309Y019270D01*
X027329Y019236D01*
X027357Y019208D01*
X027391Y019188D01*
X027429Y019178D01*
X027617Y019178D01*
X027617Y019477D01*
X027714Y019477D01*
X027714Y019178D01*
X027902Y019178D01*
X027940Y019188D01*
X027974Y019208D01*
X028002Y019236D01*
X028011Y019252D01*
X028064Y019198D01*
X028155Y019198D01*
X028155Y019122D01*
X028084Y019122D01*
X028008Y019045D01*
X028008Y018505D01*
X028084Y018428D01*
X028585Y018428D01*
X028661Y018505D01*
X028661Y019045D01*
X028585Y019122D01*
X028515Y019122D01*
X028515Y019198D01*
X028605Y019198D01*
X028681Y019274D01*
X028681Y019776D01*
X028605Y019852D01*
X028515Y019852D01*
X028515Y019948D01*
X028605Y019948D01*
X028681Y020024D01*
X028681Y020095D01*
X028700Y020095D01*
X028950Y020345D01*
X030050Y020345D01*
X030445Y019950D01*
X030550Y019845D01*
X032716Y019845D01*
X032716Y019349D01*
X032793Y019272D01*
X033060Y019272D01*
X033060Y019181D01*
X033036Y019124D01*
X033036Y018854D01*
X033060Y018797D01*
X033060Y017803D01*
X033036Y017746D01*
X033036Y017476D01*
X033060Y017419D01*
X033060Y017328D01*
X032793Y017328D01*
X032716Y017251D01*
X032716Y016160D01*
X032793Y016083D01*
X033688Y016083D01*
X033764Y016160D01*
X033764Y016935D01*
X033847Y016935D01*
X034050Y017019D01*
X034050Y015081D01*
X033847Y015165D01*
X033764Y015165D01*
X033764Y015940D01*
X034050Y015940D01*
X034050Y015842D02*
X033764Y015842D01*
X033764Y015940D02*
X033688Y016017D01*
X032793Y016017D01*
X032716Y015940D01*
X030465Y015940D01*
X030563Y015842D02*
X032716Y015842D01*
X032716Y015940D02*
X032716Y015705D01*
X030700Y015705D01*
X030200Y016205D01*
X028925Y016205D01*
X028820Y016100D01*
X028651Y015931D01*
X028605Y015977D01*
X028064Y015977D01*
X028011Y015923D01*
X028002Y015939D01*
X027974Y015967D01*
X027940Y015987D01*
X027902Y015997D01*
X027714Y015997D01*
X027714Y015698D01*
X027617Y015698D01*
X027617Y015602D01*
X027299Y015602D01*
X027299Y015433D01*
X027309Y015395D01*
X027329Y015361D01*
X027357Y015333D01*
X027391Y015313D01*
X027429Y015303D01*
X027617Y015303D01*
X027617Y015602D01*
X027714Y015602D01*
X027714Y015303D01*
X027902Y015303D01*
X027940Y015313D01*
X027974Y015333D01*
X028002Y015361D01*
X028011Y015377D01*
X028064Y015323D01*
X028155Y015323D01*
X028155Y015227D01*
X028064Y015227D01*
X028011Y015173D01*
X028002Y015189D01*
X027974Y015217D01*
X027940Y015237D01*
X027902Y015247D01*
X027714Y015247D01*
X027714Y014948D01*
X027617Y014948D01*
X027617Y014852D01*
X027299Y014852D01*
X027299Y014683D01*
X027309Y014645D01*
X027329Y014611D01*
X027357Y014583D01*
X027391Y014563D01*
X027429Y014553D01*
X027617Y014553D01*
X027617Y014852D01*
X027714Y014852D01*
X027714Y014553D01*
X027902Y014553D01*
X027940Y014563D01*
X027974Y014583D01*
X028002Y014611D01*
X028011Y014627D01*
X028064Y014573D01*
X028155Y014573D01*
X028155Y014477D01*
X028064Y014477D01*
X028000Y014413D01*
X027936Y014477D01*
X027395Y014477D01*
X027319Y014401D01*
X027319Y014392D01*
X027300Y014411D01*
X027186Y014458D01*
X027064Y014458D01*
X026950Y014411D01*
X026864Y014325D01*
X026817Y014211D01*
X026817Y014089D01*
X026864Y013975D01*
X026950Y013889D01*
X027064Y013842D01*
X027186Y013842D01*
X027300Y013889D01*
X027319Y013908D01*
X027319Y013899D01*
X027395Y013823D01*
X027936Y013823D01*
X028000Y013887D01*
X028064Y013823D01*
X028605Y013823D01*
X028681Y013899D01*
X028681Y014401D01*
X028605Y014477D01*
X028515Y014477D01*
X028515Y014573D01*
X028605Y014573D01*
X028681Y014649D01*
X028681Y015151D01*
X028605Y015227D01*
X028515Y015227D01*
X028515Y015323D01*
X028605Y015323D01*
X028681Y015399D01*
X028681Y015470D01*
X028700Y015470D01*
X028979Y015749D01*
X028967Y015728D01*
X028956Y015690D01*
X028956Y015228D01*
X029450Y015228D01*
X029450Y015820D01*
X029087Y015820D01*
X029048Y015810D01*
X029027Y015798D01*
X029075Y015845D01*
X030050Y015845D01*
X030445Y015450D01*
X030550Y015345D01*
X032716Y015345D01*
X032716Y014849D01*
X032793Y014772D01*
X033060Y014772D01*
X033060Y014681D01*
X033036Y014624D01*
X033036Y014354D01*
X033060Y014297D01*
X033060Y013303D01*
X033036Y013246D01*
X033036Y012976D01*
X033060Y012919D01*
X033060Y012828D01*
X032793Y012828D01*
X032716Y012751D01*
X032716Y011660D01*
X032793Y011583D01*
X033688Y011583D01*
X033764Y011660D01*
X033764Y012435D01*
X033847Y012435D01*
X034050Y012519D01*
X034050Y007650D01*
X034036Y007293D01*
X033924Y006588D01*
X033704Y005909D01*
X033534Y005575D01*
X033341Y005575D01*
X033337Y005590D01*
X033187Y005849D01*
X032975Y006061D01*
X032715Y006211D01*
X032426Y006289D01*
X032126Y006289D01*
X031836Y006211D01*
X031576Y006061D01*
X031364Y005849D01*
X031214Y005590D01*
X031210Y005575D01*
X026625Y005575D01*
X026625Y008803D01*
X026661Y008803D01*
X026661Y009102D01*
X026758Y009102D01*
X026758Y009198D01*
X027076Y009198D01*
X027076Y009367D01*
X027066Y009405D01*
X027046Y009439D01*
X027685Y009439D01*
X027739Y009385D02*
X027908Y009315D01*
X028091Y009315D01*
X028261Y009385D01*
X028390Y009514D01*
X028460Y009683D01*
X028460Y009866D01*
X028390Y010036D01*
X028261Y010165D01*
X028091Y010235D01*
X027908Y010235D01*
X027739Y010165D01*
X027610Y010036D01*
X027540Y009866D01*
X027540Y009683D01*
X027610Y009514D01*
X027739Y009385D01*
X027847Y009341D02*
X027076Y009341D01*
X027076Y009242D02*
X034050Y009242D01*
X034050Y009144D02*
X026758Y009144D01*
X026758Y009102D02*
X027076Y009102D01*
X027076Y008933D01*
X027066Y008895D01*
X027046Y008861D01*
X027018Y008833D01*
X026984Y008813D01*
X026946Y008803D01*
X026758Y008803D01*
X026758Y009102D01*
X026758Y009045D02*
X026661Y009045D01*
X026661Y008947D02*
X026758Y008947D01*
X026758Y008848D02*
X026661Y008848D01*
X026625Y008750D02*
X034050Y008750D01*
X034050Y008848D02*
X027033Y008848D01*
X027076Y008947D02*
X034050Y008947D01*
X034050Y009045D02*
X027076Y009045D01*
X026758Y009198D02*
X026661Y009198D01*
X026661Y009497D01*
X026625Y009497D01*
X026625Y009553D01*
X026661Y009553D01*
X026661Y009852D01*
X026758Y009852D01*
X026758Y009948D01*
X027076Y009948D01*
X027076Y010117D01*
X027066Y010155D01*
X027046Y010189D01*
X027018Y010217D01*
X026984Y010237D01*
X026946Y010247D01*
X026758Y010247D01*
X026758Y009948D01*
X026661Y009948D01*
X026661Y010247D01*
X026625Y010247D01*
X026625Y010303D01*
X026661Y010303D01*
X026661Y010602D01*
X026758Y010602D01*
X026758Y010698D01*
X027076Y010698D01*
X027076Y010867D01*
X027066Y010905D01*
X027046Y010939D01*
X027018Y010967D01*
X026984Y010987D01*
X026946Y010997D01*
X026758Y010997D01*
X026758Y010698D01*
X026661Y010698D01*
X026661Y010997D01*
X026625Y010997D01*
X026625Y011053D01*
X026661Y011053D01*
X026661Y011352D01*
X026758Y011352D01*
X026758Y011448D01*
X027076Y011448D01*
X027076Y011617D01*
X027066Y011655D01*
X027046Y011689D01*
X027018Y011717D01*
X026984Y011737D01*
X026946Y011747D01*
X026758Y011747D01*
X026758Y011448D01*
X026661Y011448D01*
X026661Y011747D01*
X026625Y011747D01*
X026625Y011775D01*
X025500Y012900D01*
X025500Y013303D01*
X025536Y013303D01*
X025536Y013602D01*
X025633Y013602D01*
X025633Y013698D01*
X025951Y013698D01*
X025951Y013867D01*
X025941Y013905D01*
X025921Y013939D01*
X025893Y013967D01*
X025859Y013987D01*
X025821Y013997D01*
X025633Y013997D01*
X025633Y013698D01*
X025536Y013698D01*
X025536Y013997D01*
X025500Y013997D01*
X025536Y013970D02*
X025633Y013970D01*
X025633Y013872D02*
X025536Y013872D01*
X025536Y013773D02*
X025633Y013773D01*
X025633Y013675D02*
X026982Y013675D01*
X026950Y013661D02*
X027064Y013708D01*
X027186Y013708D01*
X027300Y013661D01*
X027319Y013642D01*
X027319Y013651D01*
X027395Y013727D01*
X027936Y013727D01*
X028000Y013663D01*
X028064Y013727D01*
X028605Y013727D01*
X028681Y013651D01*
X028681Y013149D01*
X028605Y013073D01*
X028515Y013073D01*
X028515Y012977D01*
X028605Y012977D01*
X028681Y012901D01*
X028681Y012830D01*
X028976Y012830D01*
X028976Y012968D01*
X029052Y013044D01*
X029948Y013044D01*
X030024Y012968D01*
X030024Y011876D01*
X029948Y011800D01*
X029052Y011800D01*
X028976Y011876D01*
X028976Y012470D01*
X028681Y012470D01*
X028681Y012399D01*
X028605Y012323D01*
X028515Y012323D01*
X028515Y012227D01*
X028605Y012227D01*
X028681Y012151D01*
X028681Y011649D01*
X028605Y011573D01*
X028064Y011573D01*
X028011Y011627D01*
X028002Y011611D01*
X027974Y011583D01*
X027940Y011563D01*
X027902Y011553D01*
X027714Y011553D01*
X027714Y011852D01*
X027617Y011852D01*
X027299Y011852D01*
X027299Y011683D01*
X027309Y011645D01*
X027329Y011611D01*
X027357Y011583D01*
X027391Y011563D01*
X027429Y011553D01*
X027617Y011553D01*
X027617Y011852D01*
X027617Y011948D01*
X027299Y011948D01*
X027299Y012117D01*
X027309Y012155D01*
X027329Y012189D01*
X027357Y012217D01*
X027391Y012237D01*
X027429Y012247D01*
X027617Y012247D01*
X027617Y011948D01*
X027714Y011948D01*
X027714Y012247D01*
X027902Y012247D01*
X027940Y012237D01*
X027974Y012217D01*
X028002Y012189D01*
X028011Y012173D01*
X028064Y012227D01*
X028155Y012227D01*
X028155Y012323D01*
X028064Y012323D01*
X028011Y012377D01*
X028002Y012361D01*
X027974Y012333D01*
X027940Y012313D01*
X027902Y012303D01*
X027714Y012303D01*
X027714Y012602D01*
X027617Y012602D01*
X027299Y012602D01*
X027299Y012433D01*
X027309Y012395D01*
X027329Y012361D01*
X027357Y012333D01*
X027391Y012313D01*
X027429Y012303D01*
X027617Y012303D01*
X027617Y012602D01*
X027617Y012698D01*
X027299Y012698D01*
X027299Y012867D01*
X027309Y012905D01*
X027329Y012939D01*
X027357Y012967D01*
X027391Y012987D01*
X027429Y012997D01*
X027617Y012997D01*
X027617Y012698D01*
X027714Y012698D01*
X027714Y012997D01*
X027902Y012997D01*
X027940Y012987D01*
X027974Y012967D01*
X028002Y012939D01*
X028011Y012923D01*
X028064Y012977D01*
X028155Y012977D01*
X028155Y013073D01*
X028064Y013073D01*
X028000Y013137D01*
X027936Y013073D01*
X027395Y013073D01*
X027319Y013149D01*
X027319Y013158D01*
X027300Y013139D01*
X027186Y013092D01*
X027064Y013092D01*
X026950Y013139D01*
X026864Y013225D01*
X026817Y013339D01*
X026817Y013461D01*
X026864Y013575D01*
X026950Y013661D01*
X026865Y013576D02*
X025951Y013576D01*
X025951Y013602D02*
X025633Y013602D01*
X025633Y013303D01*
X025821Y013303D01*
X025859Y013313D01*
X025893Y013333D01*
X025921Y013361D01*
X025941Y013395D01*
X025951Y013433D01*
X025951Y013602D01*
X025951Y013478D02*
X026823Y013478D01*
X026817Y013379D02*
X025932Y013379D01*
X025633Y013379D02*
X025536Y013379D01*
X025536Y013478D02*
X025633Y013478D01*
X025633Y013576D02*
X025536Y013576D01*
X025500Y013281D02*
X026841Y013281D01*
X026907Y013182D02*
X025500Y013182D01*
X025500Y013084D02*
X027385Y013084D01*
X027388Y012985D02*
X025500Y012985D01*
X025513Y012887D02*
X027304Y012887D01*
X027299Y012788D02*
X025612Y012788D01*
X025710Y012690D02*
X027617Y012690D01*
X027617Y012788D02*
X027714Y012788D01*
X027714Y012887D02*
X027617Y012887D01*
X027617Y012985D02*
X027714Y012985D01*
X027943Y012985D02*
X028155Y012985D01*
X028054Y013084D02*
X027946Y013084D01*
X027665Y013400D02*
X027125Y013400D01*
X027268Y013675D02*
X027343Y013675D01*
X027347Y013872D02*
X027259Y013872D01*
X026991Y013872D02*
X025950Y013872D01*
X025951Y013773D02*
X029450Y013773D01*
X029450Y013750D02*
X028838Y013750D01*
X028838Y013387D01*
X028848Y013348D01*
X028868Y013314D01*
X028896Y013286D01*
X028930Y013267D01*
X028968Y013256D01*
X029450Y013256D01*
X029450Y013750D01*
X029550Y013750D01*
X029550Y013850D01*
X030162Y013850D01*
X030162Y014213D01*
X030152Y014252D01*
X030132Y014286D01*
X030104Y014314D01*
X030070Y014333D01*
X030032Y014344D01*
X029550Y014344D01*
X029550Y013850D01*
X029450Y013850D01*
X029450Y014344D01*
X028968Y014344D01*
X028930Y014333D01*
X028896Y014314D01*
X028868Y014286D01*
X028848Y014252D01*
X028838Y014213D01*
X028838Y013850D01*
X029450Y013850D01*
X029450Y013750D01*
X029450Y013675D02*
X029550Y013675D01*
X029550Y013750D02*
X029550Y013256D01*
X030032Y013256D01*
X030070Y013267D01*
X030104Y013286D01*
X030132Y013314D01*
X030152Y013348D01*
X030162Y013387D01*
X030162Y013750D01*
X029550Y013750D01*
X029550Y013773D02*
X033060Y013773D01*
X033060Y013675D02*
X030162Y013675D01*
X030162Y013576D02*
X033060Y013576D01*
X033060Y013478D02*
X030162Y013478D01*
X030160Y013379D02*
X033060Y013379D01*
X033051Y013281D02*
X030094Y013281D01*
X030007Y012985D02*
X033036Y012985D01*
X033036Y013084D02*
X028615Y013084D01*
X028681Y013182D02*
X033036Y013182D01*
X033060Y012887D02*
X030024Y012887D01*
X030024Y012788D02*
X032753Y012788D01*
X032716Y012690D02*
X030024Y012690D01*
X030024Y012591D02*
X032716Y012591D01*
X032716Y012493D02*
X030024Y012493D01*
X030024Y012394D02*
X032716Y012394D01*
X032716Y012296D02*
X030024Y012296D01*
X030024Y012197D02*
X032716Y012197D01*
X032716Y012099D02*
X030024Y012099D01*
X030024Y012000D02*
X032716Y012000D01*
X032716Y011902D02*
X030024Y011902D01*
X029951Y011803D02*
X032716Y011803D01*
X032716Y011705D02*
X028681Y011705D01*
X028681Y011803D02*
X029049Y011803D01*
X028976Y011902D02*
X028681Y011902D01*
X028681Y012000D02*
X028976Y012000D01*
X028976Y012099D02*
X028681Y012099D01*
X028635Y012197D02*
X028976Y012197D01*
X028976Y012296D02*
X028515Y012296D01*
X028676Y012394D02*
X028976Y012394D01*
X029272Y012650D02*
X029500Y012422D01*
X029272Y012650D02*
X028335Y012650D01*
X028335Y011900D01*
X028034Y012197D02*
X027994Y012197D01*
X028155Y012296D02*
X026104Y012296D01*
X026006Y012394D02*
X027310Y012394D01*
X027299Y012493D02*
X025907Y012493D01*
X025809Y012591D02*
X027299Y012591D01*
X027617Y012591D02*
X027714Y012591D01*
X027714Y012493D02*
X027617Y012493D01*
X027617Y012394D02*
X027714Y012394D01*
X027714Y012197D02*
X027617Y012197D01*
X027617Y012099D02*
X027714Y012099D01*
X027714Y012000D02*
X027617Y012000D01*
X027617Y011902D02*
X026498Y011902D01*
X026400Y012000D02*
X027299Y012000D01*
X027299Y012099D02*
X026301Y012099D01*
X026250Y012150D02*
X026000Y011900D01*
X024375Y011900D01*
X023484Y011009D01*
X023484Y010964D01*
X023484Y010767D02*
X023742Y010767D01*
X024375Y011400D01*
X026040Y011400D01*
X026040Y010650D01*
X026040Y009900D01*
X026040Y009150D01*
X026000Y009150D02*
X025875Y009025D01*
X023750Y009025D01*
X023625Y008900D01*
X023750Y009025D02*
X023438Y009338D01*
X023375Y009275D01*
X023205Y009275D01*
X023189Y009291D01*
X022992Y009291D02*
X022992Y008783D01*
X023500Y008275D01*
X027000Y008275D01*
X026625Y008257D02*
X034050Y008257D01*
X034050Y008159D02*
X026625Y008159D01*
X026625Y008060D02*
X034050Y008060D01*
X034050Y007962D02*
X026625Y007962D01*
X026625Y007863D02*
X034050Y007863D01*
X034050Y007765D02*
X026625Y007765D01*
X026625Y007666D02*
X034050Y007666D01*
X034047Y007568D02*
X026625Y007568D01*
X026625Y007469D02*
X034043Y007469D01*
X034039Y007371D02*
X026625Y007371D01*
X026625Y007272D02*
X034033Y007272D01*
X034017Y007174D02*
X026625Y007174D01*
X026625Y007075D02*
X034001Y007075D01*
X033986Y006977D02*
X026625Y006977D01*
X026625Y006878D02*
X033970Y006878D01*
X033955Y006780D02*
X026625Y006780D01*
X026625Y006681D02*
X033939Y006681D01*
X033923Y006583D02*
X026625Y006583D01*
X026625Y006484D02*
X033891Y006484D01*
X033859Y006386D02*
X026625Y006386D01*
X026625Y006287D02*
X032118Y006287D01*
X032433Y006287D02*
X033827Y006287D01*
X033795Y006189D02*
X032755Y006189D01*
X032925Y006090D02*
X033763Y006090D01*
X033731Y005992D02*
X033045Y005992D01*
X033143Y005893D02*
X033696Y005893D01*
X033645Y005795D02*
X033219Y005795D01*
X033276Y005696D02*
X033595Y005696D01*
X033545Y005598D02*
X033332Y005598D01*
X031796Y006189D02*
X026625Y006189D01*
X026625Y006090D02*
X031626Y006090D01*
X031506Y005992D02*
X026625Y005992D01*
X026625Y005893D02*
X031408Y005893D01*
X031333Y005795D02*
X026625Y005795D01*
X026625Y005696D02*
X031276Y005696D01*
X031219Y005598D02*
X026625Y005598D01*
X026125Y005499D02*
X022906Y005499D01*
X023004Y005401D02*
X026125Y005401D01*
X026293Y004711D02*
X026707Y004711D01*
X026626Y004613D02*
X026374Y004613D01*
X026415Y004514D02*
X026585Y004514D01*
X026573Y004416D02*
X026427Y004416D01*
X026427Y004317D02*
X026573Y004317D01*
X026613Y004219D02*
X026387Y004219D01*
X026324Y004120D02*
X026676Y004120D01*
X026798Y004022D02*
X026202Y004022D01*
X026278Y003726D02*
X026722Y003726D01*
X026632Y003628D02*
X026368Y003628D01*
X026409Y003529D02*
X026591Y003529D01*
X026573Y003431D02*
X026427Y003431D01*
X026427Y003332D02*
X026573Y003332D01*
X026607Y003234D02*
X026393Y003234D01*
X026339Y003135D02*
X026661Y003135D01*
X027339Y003135D02*
X027661Y003135D01*
X027607Y003234D02*
X027393Y003234D01*
X027427Y003332D02*
X027573Y003332D01*
X027573Y003431D02*
X027427Y003431D01*
X027409Y003529D02*
X027591Y003529D01*
X027632Y003628D02*
X027368Y003628D01*
X027278Y003726D02*
X027722Y003726D01*
X027798Y004022D02*
X027202Y004022D01*
X027324Y004120D02*
X027676Y004120D01*
X027613Y004219D02*
X027387Y004219D01*
X027427Y004317D02*
X027573Y004317D01*
X027573Y004416D02*
X027427Y004416D01*
X027415Y004514D02*
X027585Y004514D01*
X027626Y004613D02*
X027374Y004613D01*
X027293Y004711D02*
X027707Y004711D01*
X028427Y004317D02*
X028561Y004317D01*
X028564Y004295D02*
X028586Y004228D01*
X028618Y004166D01*
X028659Y004109D01*
X028709Y004059D01*
X028766Y004018D01*
X028828Y003986D01*
X028895Y003964D01*
X028952Y003955D01*
X028952Y004352D01*
X028555Y004352D01*
X028564Y004295D01*
X028591Y004219D02*
X028387Y004219D01*
X028324Y004120D02*
X028651Y004120D01*
X028761Y004022D02*
X028202Y004022D01*
X028278Y003726D02*
X028694Y003726D01*
X028614Y003628D02*
X028368Y003628D01*
X028409Y003529D02*
X028572Y003529D01*
X028427Y003431D02*
X028952Y003431D01*
X029048Y003431D02*
X029952Y003431D01*
X029952Y003529D02*
X030048Y003529D01*
X030048Y003628D02*
X029952Y003628D01*
X029952Y003726D02*
X030048Y003726D01*
X029952Y003955D02*
X029952Y004352D01*
X029555Y004352D01*
X029564Y004295D01*
X029586Y004228D01*
X029618Y004166D01*
X029659Y004109D01*
X029709Y004059D01*
X029766Y004018D01*
X029828Y003986D01*
X029895Y003964D01*
X029952Y003955D01*
X029952Y004022D02*
X030048Y004022D01*
X030048Y004120D02*
X029952Y004120D01*
X029952Y004219D02*
X030048Y004219D01*
X030048Y004317D02*
X029952Y004317D01*
X029952Y004613D02*
X030048Y004613D01*
X030048Y004711D02*
X029952Y004711D01*
X029952Y004810D02*
X030048Y004810D01*
X029819Y004810D02*
X029181Y004810D01*
X029321Y004711D02*
X029679Y004711D01*
X029607Y004613D02*
X029393Y004613D01*
X029433Y004514D02*
X029567Y004514D01*
X029561Y004317D02*
X029439Y004317D01*
X029436Y004295D02*
X029445Y004352D01*
X029048Y004352D01*
X029048Y003955D01*
X029105Y003964D01*
X029172Y003986D01*
X029234Y004018D01*
X029291Y004059D01*
X029341Y004109D01*
X029382Y004166D01*
X029414Y004228D01*
X029436Y004295D01*
X029409Y004219D02*
X029591Y004219D01*
X029651Y004120D02*
X029349Y004120D01*
X029239Y004022D02*
X029761Y004022D01*
X029694Y003726D02*
X029306Y003726D01*
X029386Y003628D02*
X029614Y003628D01*
X029572Y003529D02*
X029428Y003529D01*
X029442Y003332D02*
X029558Y003332D01*
X029584Y003234D02*
X029416Y003234D01*
X029360Y003135D02*
X029640Y003135D01*
X029048Y003529D02*
X028952Y003529D01*
X028952Y003628D02*
X029048Y003628D01*
X029048Y003726D02*
X028952Y003726D01*
X028952Y004022D02*
X029048Y004022D01*
X029048Y004120D02*
X028952Y004120D01*
X028952Y004219D02*
X029048Y004219D01*
X029048Y004317D02*
X028952Y004317D01*
X028558Y003332D02*
X028427Y003332D01*
X028393Y003234D02*
X028584Y003234D01*
X028640Y003135D02*
X028339Y003135D01*
X023500Y004650D02*
X022750Y005400D01*
X021250Y005400D01*
X021125Y005525D01*
X021125Y009400D01*
X021311Y009586D01*
X021516Y009586D01*
X021516Y009783D02*
X021133Y009783D01*
X020875Y009525D01*
X020875Y005275D01*
X021000Y005150D01*
X022250Y005150D01*
X022625Y004775D01*
X022625Y003775D01*
X023000Y003400D01*
X022375Y003775D02*
X022000Y003400D01*
X022375Y003775D02*
X022375Y004650D01*
X022125Y004900D01*
X020875Y004900D01*
X020625Y005150D01*
X020625Y009650D01*
X020955Y009980D01*
X021516Y009980D01*
X021516Y010177D02*
X020777Y010177D01*
X020375Y009775D01*
X020375Y005025D01*
X021000Y004400D01*
X020750Y003900D02*
X021500Y003900D01*
X022000Y004400D01*
X020750Y003900D02*
X020500Y004150D01*
X020500Y004650D01*
X020125Y005025D01*
X020125Y009900D01*
X020598Y010373D01*
X021516Y010373D01*
X021516Y010570D02*
X021208Y010570D01*
X021516Y010570D01*
X022205Y010570D01*
X022500Y010275D01*
X022598Y010177D01*
X023484Y010177D01*
X023792Y010177D01*
X023792Y010193D01*
X024423Y010193D01*
X024825Y010595D01*
X025119Y010595D01*
X025200Y010514D01*
X025314Y010467D01*
X025436Y010467D01*
X025550Y010514D01*
X025636Y010600D01*
X025683Y010714D01*
X025683Y010836D01*
X025636Y010950D01*
X025550Y011036D01*
X025436Y011083D01*
X025314Y011083D01*
X025200Y011036D01*
X025119Y010955D01*
X024675Y010955D01*
X024570Y010850D01*
X024558Y010838D01*
X024511Y010950D01*
X024425Y011036D01*
X024313Y011083D01*
X024450Y011220D01*
X025694Y011220D01*
X025694Y011149D01*
X025770Y011073D01*
X025860Y011073D01*
X025860Y010977D01*
X025770Y010977D01*
X025694Y010901D01*
X025694Y010399D01*
X025770Y010323D01*
X025860Y010323D01*
X025860Y010227D01*
X024457Y010227D01*
X024370Y010160D02*
X023792Y010160D01*
X023792Y010177D01*
X023484Y010177D01*
X023484Y010177D01*
X023484Y010373D02*
X024348Y010373D01*
X024750Y010775D01*
X025375Y010775D01*
X025650Y010917D02*
X025710Y010917D01*
X025694Y010818D02*
X025683Y010818D01*
X025683Y010720D02*
X025694Y010720D01*
X025694Y010621D02*
X025645Y010621D01*
X025694Y010523D02*
X025559Y010523D01*
X025694Y010424D02*
X024654Y010424D01*
X024752Y010523D02*
X025191Y010523D01*
X025179Y011015D02*
X024446Y011015D01*
X024525Y010917D02*
X024637Y010917D01*
X024343Y011114D02*
X025730Y011114D01*
X025694Y011212D02*
X024442Y011212D01*
X024250Y010775D02*
X024080Y010570D01*
X023484Y010570D01*
X023484Y009980D02*
X024295Y009980D01*
X024750Y009525D01*
X025375Y009525D01*
X025498Y009242D02*
X025694Y009242D01*
X025694Y009205D02*
X024491Y009205D01*
X024511Y009225D01*
X024558Y009339D01*
X024558Y009461D01*
X024558Y009462D01*
X024570Y009450D01*
X024675Y009345D01*
X025119Y009345D01*
X025200Y009264D01*
X025314Y009217D01*
X025436Y009217D01*
X025550Y009264D01*
X025636Y009350D01*
X025683Y009464D01*
X025683Y009586D01*
X025636Y009700D01*
X025550Y009786D01*
X025436Y009833D01*
X025314Y009833D01*
X025200Y009786D01*
X025119Y009705D01*
X024825Y009705D01*
X024370Y010160D01*
X024401Y010129D02*
X025694Y010129D01*
X025694Y010151D02*
X025694Y009649D01*
X025770Y009573D01*
X025860Y009573D01*
X025860Y009477D01*
X025770Y009477D01*
X025694Y009401D01*
X025694Y009205D01*
X025694Y009341D02*
X025627Y009341D01*
X025673Y009439D02*
X025732Y009439D01*
X025683Y009538D02*
X025860Y009538D01*
X025707Y009636D02*
X025663Y009636D01*
X025694Y009735D02*
X025602Y009735D01*
X025694Y009833D02*
X025437Y009833D01*
X025313Y009833D02*
X024697Y009833D01*
X024795Y009735D02*
X025148Y009735D01*
X025123Y009341D02*
X024558Y009341D01*
X024558Y009439D02*
X024581Y009439D01*
X024518Y009242D02*
X025252Y009242D01*
X024250Y009400D02*
X024125Y009400D01*
X023742Y009783D01*
X023484Y009783D01*
X023484Y009586D02*
X023484Y009384D01*
X023438Y009338D01*
X022795Y009291D02*
X022795Y008605D01*
X023625Y007775D01*
X023875Y007775D01*
X023693Y007962D02*
X026125Y007962D01*
X026125Y008060D02*
X023595Y008060D01*
X022157Y007863D02*
X022098Y007863D01*
X022059Y007962D02*
X022055Y007962D01*
X022161Y007371D02*
X022258Y007371D01*
X022258Y007272D02*
X022161Y007272D01*
X022161Y007174D02*
X022258Y007174D01*
X022258Y007075D02*
X022161Y007075D01*
X022161Y006977D02*
X022258Y006977D01*
X022258Y006878D02*
X022161Y006878D01*
X022161Y006780D02*
X022258Y006780D01*
X022258Y006681D02*
X022161Y006681D01*
X022161Y006583D02*
X022258Y006583D01*
X022258Y006484D02*
X022161Y006484D01*
X022161Y006386D02*
X022258Y006386D01*
X022258Y006287D02*
X022983Y006287D01*
X023197Y006583D02*
X023366Y006583D01*
X023406Y006484D02*
X023296Y006484D01*
X023193Y006681D02*
X023180Y006681D01*
X022258Y006189D02*
X022161Y006189D01*
X022161Y006090D02*
X022258Y006090D01*
X022258Y005992D02*
X022161Y005992D01*
X021870Y005992D02*
X021854Y005992D01*
X021500Y005775D02*
X021500Y009150D01*
X021641Y009291D01*
X021811Y009291D01*
X021516Y010570D02*
X021516Y010570D01*
X021516Y010767D02*
X019867Y010767D01*
X019875Y010775D01*
X019867Y010767D02*
X019750Y010650D01*
X019375Y010650D01*
X019125Y010610D01*
X019335Y010650D01*
X018625Y010650D01*
X019375Y010650D02*
X019375Y010767D01*
X019452Y010424D02*
X020394Y010424D01*
X020296Y010326D02*
X019438Y010326D01*
X019455Y010227D02*
X020197Y010227D01*
X020099Y010129D02*
X019472Y010129D01*
X019877Y010523D02*
X020493Y010523D01*
X021455Y011025D02*
X021516Y010964D01*
X021455Y011025D02*
X017875Y011025D01*
X017500Y010650D01*
X017500Y003900D01*
X017000Y003400D01*
X017393Y003234D02*
X017607Y003234D01*
X017573Y003332D02*
X017427Y003332D01*
X017427Y003431D02*
X017573Y003431D01*
X017591Y003529D02*
X017409Y003529D01*
X017482Y003628D02*
X017632Y003628D01*
X017581Y003726D02*
X017722Y003726D01*
X017680Y004022D02*
X017798Y004022D01*
X018278Y003726D02*
X018722Y003726D01*
X018632Y003628D02*
X018368Y003628D01*
X018409Y003529D02*
X018591Y003529D01*
X018573Y003431D02*
X018427Y003431D01*
X018427Y003332D02*
X018573Y003332D01*
X018607Y003234D02*
X018393Y003234D01*
X018339Y003135D02*
X018661Y003135D01*
X017661Y003135D02*
X017339Y003135D01*
X016661Y003135D02*
X016339Y003135D01*
X016393Y003234D02*
X016607Y003234D01*
X016573Y003332D02*
X016427Y003332D01*
X016427Y003431D02*
X016573Y003431D01*
X016591Y003529D02*
X016409Y003529D01*
X016368Y003628D02*
X016632Y003628D01*
X016722Y003726D02*
X016278Y003726D01*
X016091Y003825D02*
X016909Y003825D01*
X017091Y003825D02*
X017170Y003825D01*
X017268Y003923D02*
X007700Y003923D01*
X007700Y004022D02*
X007761Y004022D01*
X007952Y004022D02*
X008048Y004022D01*
X008048Y003955D02*
X008105Y003964D01*
X008172Y003986D01*
X008234Y004018D01*
X008291Y004059D01*
X008341Y004109D01*
X008382Y004166D01*
X008414Y004228D01*
X008436Y004295D01*
X008445Y004352D01*
X008048Y004352D01*
X008048Y003955D01*
X008048Y003847D02*
X008048Y003448D01*
X008447Y003448D01*
X008447Y003717D01*
X008437Y003755D01*
X008417Y003789D01*
X008389Y003817D01*
X008355Y003837D01*
X008317Y003847D01*
X008048Y003847D01*
X008048Y003825D02*
X007952Y003825D01*
X007952Y003726D02*
X008048Y003726D01*
X008048Y003628D02*
X007952Y003628D01*
X007952Y003529D02*
X008048Y003529D01*
X008048Y003431D02*
X008573Y003431D01*
X008573Y003332D02*
X008447Y003332D01*
X008447Y003234D02*
X008607Y003234D01*
X008661Y003135D02*
X008447Y003135D01*
X008447Y003529D02*
X008591Y003529D01*
X008632Y003628D02*
X008447Y003628D01*
X008444Y003726D02*
X008722Y003726D01*
X008909Y003825D02*
X008376Y003825D01*
X008239Y004022D02*
X008798Y004022D01*
X008758Y004038D02*
X008915Y003973D01*
X009085Y003973D01*
X009242Y004038D01*
X009362Y004158D01*
X009427Y004315D01*
X009427Y004485D01*
X009362Y004642D01*
X009242Y004762D01*
X009085Y004827D01*
X008915Y004827D01*
X008758Y004762D01*
X008638Y004642D01*
X008573Y004485D01*
X008573Y004315D01*
X008638Y004158D01*
X008758Y004038D01*
X008676Y004120D02*
X008349Y004120D01*
X008409Y004219D02*
X008613Y004219D01*
X008573Y004317D02*
X008439Y004317D01*
X008445Y004448D02*
X008048Y004448D01*
X008048Y004845D01*
X008105Y004836D01*
X008172Y004814D01*
X008234Y004782D01*
X008291Y004741D01*
X008341Y004691D01*
X008382Y004634D01*
X008414Y004572D01*
X008436Y004505D01*
X008445Y004448D01*
X008433Y004514D02*
X008585Y004514D01*
X008573Y004416D02*
X008048Y004416D01*
X008048Y004514D02*
X007952Y004514D01*
X007952Y004613D02*
X008048Y004613D01*
X008048Y004711D02*
X007952Y004711D01*
X007952Y004810D02*
X008048Y004810D01*
X008181Y004810D02*
X008873Y004810D01*
X008707Y004711D02*
X008321Y004711D01*
X008393Y004613D02*
X008626Y004613D01*
X008048Y004317D02*
X007952Y004317D01*
X007952Y004219D02*
X008048Y004219D01*
X008048Y004120D02*
X007952Y004120D01*
X007819Y004810D02*
X007700Y004810D01*
X007700Y004908D02*
X017070Y004908D01*
X017070Y005007D02*
X007700Y005007D01*
X007700Y005105D02*
X017070Y005105D01*
X017070Y005204D02*
X007700Y005204D01*
X007700Y005302D02*
X017070Y005302D01*
X017070Y005401D02*
X007700Y005401D01*
X007700Y005499D02*
X017070Y005499D01*
X017070Y005598D02*
X007700Y005598D01*
X007700Y005696D02*
X017070Y005696D01*
X017070Y005795D02*
X007700Y005795D01*
X007700Y005893D02*
X017070Y005893D01*
X017070Y005992D02*
X007700Y005992D01*
X007700Y006090D02*
X017070Y006090D01*
X017070Y006189D02*
X007700Y006189D01*
X007700Y006287D02*
X017070Y006287D01*
X017070Y006386D02*
X007700Y006386D01*
X007700Y006484D02*
X017070Y006484D01*
X017070Y006583D02*
X007700Y006583D01*
X007700Y006681D02*
X017070Y006681D01*
X017070Y006780D02*
X007700Y006780D01*
X007700Y006878D02*
X017070Y006878D01*
X017070Y006977D02*
X007700Y006977D01*
X007700Y007075D02*
X017070Y007075D01*
X017070Y007174D02*
X007702Y007174D01*
X007725Y007272D02*
X017070Y007272D01*
X017070Y007371D02*
X007779Y007371D01*
X007892Y007469D02*
X017070Y007469D01*
X017070Y007568D02*
X008109Y007568D01*
X008096Y007557D02*
X008096Y007557D01*
X008229Y007666D02*
X017070Y007666D01*
X017070Y007765D02*
X008348Y007765D01*
X008430Y007863D02*
X017070Y007863D01*
X017070Y007962D02*
X008496Y007962D01*
X007923Y007485D02*
X007923Y007485D01*
X009127Y004810D02*
X009873Y004810D01*
X009915Y004827D02*
X009758Y004762D01*
X009638Y004642D01*
X009573Y004485D01*
X009573Y004315D01*
X009638Y004158D01*
X009758Y004038D01*
X009915Y003973D01*
X010085Y003973D01*
X010242Y004038D01*
X010362Y004158D01*
X010427Y004315D01*
X010427Y004485D01*
X010362Y004642D01*
X010242Y004762D01*
X010085Y004827D01*
X009915Y004827D01*
X010127Y004810D02*
X010873Y004810D01*
X010915Y004827D02*
X010758Y004762D01*
X010638Y004642D01*
X010573Y004485D01*
X010573Y004315D01*
X010638Y004158D01*
X010758Y004038D01*
X010915Y003973D01*
X011085Y003973D01*
X011242Y004038D01*
X011362Y004158D01*
X011427Y004315D01*
X011427Y004485D01*
X011362Y004642D01*
X011242Y004762D01*
X011085Y004827D01*
X010915Y004827D01*
X011127Y004810D02*
X011873Y004810D01*
X011915Y004827D02*
X011758Y004762D01*
X011638Y004642D01*
X011573Y004485D01*
X011573Y004315D01*
X011638Y004158D01*
X011758Y004038D01*
X011915Y003973D01*
X012085Y003973D01*
X012242Y004038D01*
X012362Y004158D01*
X012427Y004315D01*
X012427Y004485D01*
X012362Y004642D01*
X012242Y004762D01*
X012085Y004827D01*
X011915Y004827D01*
X012127Y004810D02*
X012873Y004810D01*
X012915Y004827D02*
X012758Y004762D01*
X012638Y004642D01*
X012573Y004485D01*
X012573Y004315D01*
X012638Y004158D01*
X012758Y004038D01*
X012915Y003973D01*
X013085Y003973D01*
X013242Y004038D01*
X013362Y004158D01*
X013427Y004315D01*
X013427Y004485D01*
X013362Y004642D01*
X013242Y004762D01*
X013085Y004827D01*
X012915Y004827D01*
X013127Y004810D02*
X013873Y004810D01*
X013915Y004827D02*
X013758Y004762D01*
X013638Y004642D01*
X013573Y004485D01*
X013573Y004315D01*
X013638Y004158D01*
X013758Y004038D01*
X013915Y003973D01*
X014085Y003973D01*
X014242Y004038D01*
X014362Y004158D01*
X014427Y004315D01*
X014427Y004485D01*
X014362Y004642D01*
X014242Y004762D01*
X014085Y004827D01*
X013915Y004827D01*
X014127Y004810D02*
X014873Y004810D01*
X014915Y004827D02*
X014758Y004762D01*
X014638Y004642D01*
X014573Y004485D01*
X014573Y004315D01*
X014638Y004158D01*
X014758Y004038D01*
X014915Y003973D01*
X015085Y003973D01*
X015242Y004038D01*
X015362Y004158D01*
X015427Y004315D01*
X015427Y004485D01*
X015362Y004642D01*
X015242Y004762D01*
X015085Y004827D01*
X014915Y004827D01*
X015127Y004810D02*
X015873Y004810D01*
X015915Y004827D02*
X015758Y004762D01*
X015638Y004642D01*
X015573Y004485D01*
X015573Y004315D01*
X015638Y004158D01*
X015758Y004038D01*
X015915Y003973D01*
X016085Y003973D01*
X016242Y004038D01*
X016362Y004158D01*
X016427Y004315D01*
X016427Y004485D01*
X016362Y004642D01*
X016242Y004762D01*
X016085Y004827D01*
X015915Y004827D01*
X016127Y004810D02*
X016873Y004810D01*
X016707Y004711D02*
X016293Y004711D01*
X016374Y004613D02*
X016626Y004613D01*
X016585Y004514D02*
X016415Y004514D01*
X016427Y004416D02*
X016573Y004416D01*
X016573Y004317D02*
X016427Y004317D01*
X016387Y004219D02*
X016613Y004219D01*
X016676Y004120D02*
X016324Y004120D01*
X016202Y004022D02*
X016798Y004022D01*
X017202Y004022D02*
X017320Y004022D01*
X017000Y004400D02*
X017250Y004650D01*
X017250Y010775D01*
X019085Y009275D02*
X019625Y009275D01*
X019359Y008848D02*
X019945Y008848D01*
X019945Y008750D02*
X019431Y008750D01*
X019625Y008525D02*
X019750Y008400D01*
X019750Y007275D01*
X019624Y007149D01*
X019262Y007149D01*
X019133Y007469D02*
X019036Y007469D01*
X019036Y007568D02*
X019133Y007568D01*
X019133Y007666D02*
X019036Y007666D01*
X018955Y007371D02*
X018595Y007371D01*
X018707Y007469D02*
X018765Y007469D01*
X018758Y007272D02*
X018896Y007272D01*
X018896Y007174D02*
X018856Y007174D01*
X018930Y006878D02*
X019945Y006878D01*
X019945Y006780D02*
X018930Y006780D01*
X018930Y006681D02*
X019945Y006681D01*
X019945Y006583D02*
X019609Y006583D01*
X019628Y006484D02*
X019945Y006484D01*
X019945Y006386D02*
X019628Y006386D01*
X019628Y006287D02*
X019945Y006287D01*
X019945Y006189D02*
X019578Y006189D01*
X019442Y006090D02*
X019945Y006090D01*
X019945Y005992D02*
X019845Y005992D01*
X019910Y005893D02*
X019945Y005893D01*
X019933Y005795D02*
X019945Y005795D01*
X019945Y005696D02*
X019926Y005696D01*
X019945Y005598D02*
X019884Y005598D01*
X019945Y005499D02*
X019765Y005499D01*
X019485Y005499D02*
X019406Y005499D01*
X019625Y005775D02*
X019085Y005775D01*
X019262Y005952D01*
X019262Y006401D01*
X018802Y006090D02*
X018726Y006090D01*
X018626Y006401D02*
X018238Y006401D01*
X018237Y006400D01*
X018105Y006090D02*
X017680Y006090D01*
X017680Y005992D02*
X018049Y005992D01*
X017922Y006189D02*
X017680Y006189D01*
X017680Y006287D02*
X017872Y006287D01*
X017872Y006386D02*
X017680Y006386D01*
X017680Y006484D02*
X017872Y006484D01*
X017877Y006583D02*
X017680Y006583D01*
X017680Y006681D02*
X017852Y006681D01*
X017852Y006780D02*
X017680Y006780D01*
X017680Y006878D02*
X017852Y006878D01*
X017882Y006977D02*
X017680Y006977D01*
X017680Y007075D02*
X017872Y007075D01*
X017872Y007174D02*
X017680Y007174D01*
X017680Y007272D02*
X017872Y007272D01*
X017931Y007371D02*
X017680Y007371D01*
X017680Y007469D02*
X017808Y007469D01*
X017942Y007469D02*
X018124Y007469D01*
X018750Y006525D02*
X018626Y006401D01*
X018464Y005696D02*
X018367Y005696D01*
X018367Y005598D02*
X018464Y005598D01*
X018464Y005499D02*
X018367Y005499D01*
X018759Y005499D02*
X018763Y005499D01*
X019127Y004810D02*
X019873Y004810D01*
X019707Y004711D02*
X019293Y004711D01*
X019374Y004613D02*
X019626Y004613D01*
X019585Y004514D02*
X019415Y004514D01*
X019427Y004416D02*
X019573Y004416D01*
X019573Y004317D02*
X019427Y004317D01*
X019387Y004219D02*
X019613Y004219D01*
X019676Y004120D02*
X019324Y004120D01*
X019202Y004022D02*
X019798Y004022D01*
X020202Y004022D02*
X020374Y004022D01*
X020278Y003726D02*
X020669Y003726D01*
X020632Y003628D02*
X020368Y003628D01*
X020409Y003529D02*
X020591Y003529D01*
X020573Y003431D02*
X020427Y003431D01*
X020427Y003332D02*
X020573Y003332D01*
X020607Y003234D02*
X020421Y003234D01*
X020520Y003135D02*
X020661Y003135D01*
X017707Y004711D02*
X017680Y004711D01*
X015909Y003825D02*
X015091Y003825D01*
X014909Y003825D02*
X014091Y003825D01*
X013909Y003825D02*
X013091Y003825D01*
X012909Y003825D02*
X012091Y003825D01*
X011909Y003825D02*
X011091Y003825D01*
X010909Y003825D02*
X010091Y003825D01*
X009909Y003825D02*
X009091Y003825D01*
X009278Y003726D02*
X009722Y003726D01*
X009632Y003628D02*
X009368Y003628D01*
X009409Y003529D02*
X009591Y003529D01*
X009573Y003431D02*
X009427Y003431D01*
X009427Y003332D02*
X009573Y003332D01*
X009607Y003234D02*
X009393Y003234D01*
X009339Y003135D02*
X009661Y003135D01*
X010339Y003135D02*
X010661Y003135D01*
X010607Y003234D02*
X010393Y003234D01*
X010427Y003332D02*
X010573Y003332D01*
X010573Y003431D02*
X010427Y003431D01*
X010409Y003529D02*
X010591Y003529D01*
X010632Y003628D02*
X010368Y003628D01*
X010278Y003726D02*
X010722Y003726D01*
X010798Y004022D02*
X010202Y004022D01*
X010324Y004120D02*
X010676Y004120D01*
X010613Y004219D02*
X010387Y004219D01*
X010427Y004317D02*
X010573Y004317D01*
X010573Y004416D02*
X010427Y004416D01*
X010415Y004514D02*
X010585Y004514D01*
X010626Y004613D02*
X010374Y004613D01*
X010293Y004711D02*
X010707Y004711D01*
X011293Y004711D02*
X011707Y004711D01*
X011626Y004613D02*
X011374Y004613D01*
X011415Y004514D02*
X011585Y004514D01*
X011573Y004416D02*
X011427Y004416D01*
X011427Y004317D02*
X011573Y004317D01*
X011613Y004219D02*
X011387Y004219D01*
X011324Y004120D02*
X011676Y004120D01*
X011798Y004022D02*
X011202Y004022D01*
X011278Y003726D02*
X011722Y003726D01*
X011632Y003628D02*
X011368Y003628D01*
X011409Y003529D02*
X011591Y003529D01*
X011573Y003431D02*
X011427Y003431D01*
X011427Y003332D02*
X011573Y003332D01*
X011607Y003234D02*
X011393Y003234D01*
X011339Y003135D02*
X011661Y003135D01*
X012339Y003135D02*
X012661Y003135D01*
X012607Y003234D02*
X012393Y003234D01*
X012427Y003332D02*
X012573Y003332D01*
X012573Y003431D02*
X012427Y003431D01*
X012409Y003529D02*
X012591Y003529D01*
X012632Y003628D02*
X012368Y003628D01*
X012278Y003726D02*
X012722Y003726D01*
X012798Y004022D02*
X012202Y004022D01*
X012324Y004120D02*
X012676Y004120D01*
X012613Y004219D02*
X012387Y004219D01*
X012427Y004317D02*
X012573Y004317D01*
X012573Y004416D02*
X012427Y004416D01*
X012415Y004514D02*
X012585Y004514D01*
X012626Y004613D02*
X012374Y004613D01*
X012293Y004711D02*
X012707Y004711D01*
X013293Y004711D02*
X013707Y004711D01*
X013626Y004613D02*
X013374Y004613D01*
X013415Y004514D02*
X013585Y004514D01*
X013573Y004416D02*
X013427Y004416D01*
X013427Y004317D02*
X013573Y004317D01*
X013613Y004219D02*
X013387Y004219D01*
X013324Y004120D02*
X013676Y004120D01*
X013798Y004022D02*
X013202Y004022D01*
X013278Y003726D02*
X013722Y003726D01*
X013632Y003628D02*
X013368Y003628D01*
X013409Y003529D02*
X013591Y003529D01*
X013573Y003431D02*
X013427Y003431D01*
X013427Y003332D02*
X013573Y003332D01*
X013607Y003234D02*
X013393Y003234D01*
X013339Y003135D02*
X013661Y003135D01*
X014339Y003135D02*
X014661Y003135D01*
X014607Y003234D02*
X014393Y003234D01*
X014427Y003332D02*
X014573Y003332D01*
X014573Y003431D02*
X014427Y003431D01*
X014409Y003529D02*
X014591Y003529D01*
X014632Y003628D02*
X014368Y003628D01*
X014278Y003726D02*
X014722Y003726D01*
X014798Y004022D02*
X014202Y004022D01*
X014324Y004120D02*
X014676Y004120D01*
X014613Y004219D02*
X014387Y004219D01*
X014427Y004317D02*
X014573Y004317D01*
X014573Y004416D02*
X014427Y004416D01*
X014415Y004514D02*
X014585Y004514D01*
X014626Y004613D02*
X014374Y004613D01*
X014293Y004711D02*
X014707Y004711D01*
X015293Y004711D02*
X015707Y004711D01*
X015626Y004613D02*
X015374Y004613D01*
X015415Y004514D02*
X015585Y004514D01*
X015573Y004416D02*
X015427Y004416D01*
X015427Y004317D02*
X015573Y004317D01*
X015613Y004219D02*
X015387Y004219D01*
X015324Y004120D02*
X015676Y004120D01*
X015798Y004022D02*
X015202Y004022D01*
X015278Y003726D02*
X015722Y003726D01*
X015632Y003628D02*
X015368Y003628D01*
X015409Y003529D02*
X015591Y003529D01*
X015573Y003431D02*
X015427Y003431D01*
X015427Y003332D02*
X015573Y003332D01*
X015607Y003234D02*
X015393Y003234D01*
X015339Y003135D02*
X015661Y003135D01*
X019706Y006977D02*
X019945Y006977D01*
X019945Y007075D02*
X019805Y007075D01*
X019903Y007174D02*
X019945Y007174D01*
X019945Y007272D02*
X019930Y007272D01*
X019930Y007371D02*
X019945Y007371D01*
X019945Y007469D02*
X019930Y007469D01*
X019930Y007568D02*
X019945Y007568D01*
X019945Y007666D02*
X019930Y007666D01*
X019930Y007765D02*
X019945Y007765D01*
X019945Y007863D02*
X019930Y007863D01*
X019930Y007962D02*
X019945Y007962D01*
X019945Y008060D02*
X019930Y008060D01*
X019930Y008159D02*
X019945Y008159D01*
X019945Y008257D02*
X019930Y008257D01*
X019930Y008356D02*
X019945Y008356D01*
X019945Y008454D02*
X019930Y008454D01*
X019945Y008553D02*
X019852Y008553D01*
X019945Y008651D02*
X019754Y008651D01*
X019625Y008525D02*
X019085Y008525D01*
X018810Y008848D02*
X018713Y008848D01*
X019451Y007666D02*
X019570Y007666D01*
X019570Y007568D02*
X019451Y007568D01*
X019404Y007469D02*
X019570Y007469D01*
X019569Y007371D02*
X019570Y007371D01*
X021500Y006985D02*
X021500Y006275D01*
X021540Y006275D01*
X021830Y006583D02*
X021892Y006583D01*
X021963Y006681D02*
X021680Y006681D01*
X021625Y007025D02*
X021540Y007025D01*
X021500Y006985D01*
X024500Y010030D02*
X025694Y010030D01*
X025694Y009932D02*
X024598Y009932D01*
X024555Y010326D02*
X025768Y010326D01*
X025770Y010227D02*
X025694Y010151D01*
X025770Y010227D02*
X025860Y010227D01*
X026661Y010227D02*
X026758Y010227D01*
X026758Y010303D02*
X026946Y010303D01*
X026984Y010313D01*
X027018Y010333D01*
X027046Y010361D01*
X027066Y010395D01*
X027076Y010433D01*
X027076Y010602D01*
X026758Y010602D01*
X026758Y010303D01*
X026758Y010326D02*
X026661Y010326D01*
X026661Y010424D02*
X026758Y010424D01*
X026758Y010523D02*
X026661Y010523D01*
X026758Y010621D02*
X027566Y010621D01*
X027540Y010683D02*
X027610Y010514D01*
X027739Y010385D01*
X027908Y010315D01*
X028091Y010315D01*
X028261Y010385D01*
X028390Y010514D01*
X028460Y010683D01*
X028460Y010866D01*
X028390Y011036D01*
X028261Y011165D01*
X028091Y011235D01*
X027908Y011235D01*
X027739Y011165D01*
X027610Y011036D01*
X027540Y010866D01*
X027540Y010683D01*
X027540Y010720D02*
X027076Y010720D01*
X027076Y010818D02*
X027540Y010818D01*
X027561Y010917D02*
X027059Y010917D01*
X026984Y011063D02*
X027018Y011083D01*
X027046Y011111D01*
X027066Y011145D01*
X027076Y011183D01*
X027076Y011352D01*
X026758Y011352D01*
X026758Y011053D01*
X026946Y011053D01*
X026984Y011063D01*
X027048Y011114D02*
X027688Y011114D01*
X027602Y011015D02*
X026625Y011015D01*
X026661Y010917D02*
X026758Y010917D01*
X026758Y010818D02*
X026661Y010818D01*
X026661Y010720D02*
X026758Y010720D01*
X027076Y010523D02*
X027607Y010523D01*
X027700Y010424D02*
X027074Y010424D01*
X027005Y010326D02*
X027883Y010326D01*
X027889Y010227D02*
X027001Y010227D01*
X027073Y010129D02*
X027703Y010129D01*
X027608Y010030D02*
X027076Y010030D01*
X027076Y009852D02*
X026758Y009852D01*
X026758Y009553D01*
X026946Y009553D01*
X026984Y009563D01*
X027018Y009583D01*
X027046Y009611D01*
X027066Y009645D01*
X027076Y009683D01*
X027076Y009852D01*
X027076Y009833D02*
X027540Y009833D01*
X027540Y009735D02*
X027076Y009735D01*
X027061Y009636D02*
X027560Y009636D01*
X027600Y009538D02*
X026625Y009538D01*
X026661Y009636D02*
X026758Y009636D01*
X026758Y009735D02*
X026661Y009735D01*
X026661Y009833D02*
X026758Y009833D01*
X026758Y009932D02*
X027567Y009932D01*
X028111Y010227D02*
X034050Y010227D01*
X034050Y010129D02*
X028297Y010129D01*
X028392Y010030D02*
X034050Y010030D01*
X034050Y009932D02*
X028433Y009932D01*
X028460Y009833D02*
X034050Y009833D01*
X034050Y009735D02*
X028460Y009735D01*
X028440Y009636D02*
X034050Y009636D01*
X034050Y009538D02*
X028400Y009538D01*
X028315Y009439D02*
X034050Y009439D01*
X034050Y009341D02*
X028153Y009341D01*
X027046Y009439D02*
X027018Y009467D01*
X026984Y009487D01*
X026946Y009497D01*
X026758Y009497D01*
X026758Y009198D01*
X026758Y009242D02*
X026661Y009242D01*
X026661Y009341D02*
X026758Y009341D01*
X026758Y009439D02*
X026661Y009439D01*
X026661Y010030D02*
X026758Y010030D01*
X026758Y010129D02*
X026661Y010129D01*
X025860Y011015D02*
X025571Y011015D01*
X026661Y011114D02*
X026758Y011114D01*
X026758Y011212D02*
X026661Y011212D01*
X026661Y011311D02*
X026758Y011311D01*
X026758Y011409D02*
X034050Y011409D01*
X034050Y011311D02*
X027076Y011311D01*
X027076Y011212D02*
X027853Y011212D01*
X028147Y011212D02*
X034050Y011212D01*
X034050Y011114D02*
X028312Y011114D01*
X028398Y011015D02*
X034050Y011015D01*
X034050Y010917D02*
X028439Y010917D01*
X028460Y010818D02*
X034050Y010818D01*
X034050Y010720D02*
X028460Y010720D01*
X028434Y010621D02*
X034050Y010621D01*
X034050Y010523D02*
X028393Y010523D01*
X028300Y010424D02*
X034050Y010424D01*
X034050Y010326D02*
X028117Y010326D01*
X028031Y011606D02*
X027997Y011606D01*
X027714Y011606D02*
X027617Y011606D01*
X027617Y011705D02*
X027714Y011705D01*
X027714Y011803D02*
X027617Y011803D01*
X027299Y011803D02*
X026597Y011803D01*
X026661Y011705D02*
X026758Y011705D01*
X026758Y011606D02*
X026661Y011606D01*
X026661Y011508D02*
X026758Y011508D01*
X027076Y011508D02*
X034050Y011508D01*
X034050Y011606D02*
X033710Y011606D01*
X033764Y011705D02*
X034050Y011705D01*
X034050Y011803D02*
X033764Y011803D01*
X033764Y011902D02*
X034050Y011902D01*
X034050Y012000D02*
X033764Y012000D01*
X033764Y012099D02*
X034050Y012099D01*
X034050Y012197D02*
X033764Y012197D01*
X033764Y012296D02*
X034050Y012296D01*
X034050Y012394D02*
X033764Y012394D01*
X033987Y012493D02*
X034050Y012493D01*
X033240Y012206D02*
X033240Y015394D01*
X033110Y015525D01*
X030625Y015525D01*
X030125Y016025D01*
X029000Y016025D01*
X028625Y015650D01*
X028335Y015650D01*
X028335Y014900D01*
X028335Y014150D01*
X028681Y014167D02*
X028838Y014167D01*
X028838Y014069D02*
X028681Y014069D01*
X028681Y013970D02*
X028838Y013970D01*
X028838Y013872D02*
X028653Y013872D01*
X028657Y013675D02*
X028838Y013675D01*
X028838Y013576D02*
X028681Y013576D01*
X028681Y013478D02*
X028838Y013478D01*
X028840Y013379D02*
X028681Y013379D01*
X028681Y013281D02*
X028906Y013281D01*
X028993Y012985D02*
X028515Y012985D01*
X028681Y012887D02*
X028976Y012887D01*
X029450Y013281D02*
X029550Y013281D01*
X029550Y013379D02*
X029450Y013379D01*
X029450Y013478D02*
X029550Y013478D01*
X029550Y013576D02*
X029450Y013576D01*
X029450Y013872D02*
X029550Y013872D01*
X029550Y013970D02*
X029450Y013970D01*
X029450Y014069D02*
X029550Y014069D01*
X029550Y014167D02*
X029450Y014167D01*
X029450Y014266D02*
X029550Y014266D01*
X029550Y014536D02*
X029913Y014536D01*
X029952Y014546D01*
X029986Y014566D01*
X030014Y014594D01*
X030033Y014628D01*
X030044Y014666D01*
X030044Y015128D01*
X029550Y015128D01*
X029550Y015228D01*
X029450Y015228D01*
X029450Y015128D01*
X028956Y015128D01*
X028956Y014666D01*
X028967Y014628D01*
X028986Y014594D01*
X029014Y014566D01*
X029048Y014546D01*
X029087Y014536D01*
X029450Y014536D01*
X029450Y015128D01*
X029550Y015128D01*
X029550Y014536D01*
X029550Y014561D02*
X029450Y014561D01*
X029450Y014660D02*
X029550Y014660D01*
X029550Y014758D02*
X029450Y014758D01*
X029450Y014857D02*
X029550Y014857D01*
X029550Y014955D02*
X029450Y014955D01*
X029450Y015054D02*
X029550Y015054D01*
X029550Y015152D02*
X032716Y015152D01*
X032716Y015054D02*
X030044Y015054D01*
X030044Y014955D02*
X032716Y014955D01*
X032716Y014857D02*
X030044Y014857D01*
X030044Y014758D02*
X033060Y014758D01*
X033051Y014660D02*
X030042Y014660D01*
X029978Y014561D02*
X033036Y014561D01*
X033036Y014463D02*
X028619Y014463D01*
X028681Y014364D02*
X033036Y014364D01*
X033060Y014266D02*
X030144Y014266D01*
X030162Y014167D02*
X033060Y014167D01*
X033060Y014069D02*
X030162Y014069D01*
X030162Y013970D02*
X033060Y013970D01*
X033060Y013872D02*
X030162Y013872D01*
X029022Y014561D02*
X028515Y014561D01*
X028681Y014660D02*
X028958Y014660D01*
X028956Y014758D02*
X028681Y014758D01*
X028681Y014857D02*
X028956Y014857D01*
X028956Y014955D02*
X028681Y014955D01*
X028681Y015054D02*
X028956Y015054D01*
X028956Y015251D02*
X028515Y015251D01*
X028631Y015349D02*
X028956Y015349D01*
X028956Y015448D02*
X028681Y015448D01*
X028776Y015546D02*
X028956Y015546D01*
X028956Y015645D02*
X028874Y015645D01*
X028973Y015743D02*
X028975Y015743D01*
X029071Y015842D02*
X030054Y015842D01*
X029986Y015790D02*
X030014Y015762D01*
X030033Y015728D01*
X030044Y015690D01*
X030044Y015228D01*
X029550Y015228D01*
X029550Y015820D01*
X029913Y015820D01*
X029952Y015810D01*
X029986Y015790D01*
X030025Y015743D02*
X030152Y015743D01*
X030251Y015645D02*
X030044Y015645D01*
X030044Y015546D02*
X030349Y015546D01*
X030448Y015448D02*
X030044Y015448D01*
X030044Y015349D02*
X030546Y015349D01*
X030044Y015251D02*
X032716Y015251D01*
X032716Y015743D02*
X030662Y015743D01*
X030366Y016039D02*
X034050Y016039D01*
X034050Y016137D02*
X033741Y016137D01*
X033764Y016236D02*
X034050Y016236D01*
X034050Y016334D02*
X033764Y016334D01*
X033764Y016433D02*
X034050Y016433D01*
X034050Y016531D02*
X033764Y016531D01*
X033764Y016630D02*
X034050Y016630D01*
X034050Y016728D02*
X033764Y016728D01*
X033764Y016827D02*
X034050Y016827D01*
X034050Y016925D02*
X033764Y016925D01*
X033240Y016706D02*
X033240Y019894D01*
X033110Y020025D01*
X030625Y020025D01*
X030125Y020525D01*
X028875Y020525D01*
X028625Y020275D01*
X028335Y020275D01*
X028335Y019525D01*
X028335Y018775D01*
X028661Y018797D02*
X028879Y018797D01*
X028868Y018786D02*
X028848Y018752D01*
X028838Y018713D01*
X028838Y018350D01*
X029450Y018350D01*
X029450Y018844D01*
X028968Y018844D01*
X028930Y018833D01*
X028896Y018814D01*
X028868Y018786D01*
X028838Y018698D02*
X028661Y018698D01*
X028661Y018600D02*
X028838Y018600D01*
X028838Y018501D02*
X028658Y018501D01*
X028585Y018372D02*
X028084Y018372D01*
X028008Y018295D01*
X028008Y017755D01*
X028084Y017678D01*
X028155Y017678D01*
X028155Y017602D01*
X028064Y017602D01*
X028011Y017548D01*
X028002Y017564D01*
X027974Y017592D01*
X027940Y017612D01*
X027902Y017622D01*
X027714Y017622D01*
X027714Y017323D01*
X027617Y017323D01*
X027617Y017227D01*
X027299Y017227D01*
X027299Y017058D01*
X027309Y017020D01*
X027329Y016986D01*
X027357Y016958D01*
X027391Y016938D01*
X027429Y016928D01*
X027617Y016928D01*
X027617Y017227D01*
X027714Y017227D01*
X027714Y016928D01*
X027902Y016928D01*
X027940Y016938D01*
X027974Y016958D01*
X028002Y016986D01*
X028011Y017002D01*
X028064Y016948D01*
X028155Y016948D01*
X028155Y016852D01*
X028064Y016852D01*
X028011Y016798D01*
X028002Y016814D01*
X027974Y016842D01*
X027940Y016862D01*
X027902Y016872D01*
X027714Y016872D01*
X027714Y016573D01*
X027617Y016573D01*
X027617Y016477D01*
X027299Y016477D01*
X027299Y016308D01*
X027309Y016270D01*
X027329Y016236D01*
X027357Y016208D01*
X027391Y016188D01*
X027429Y016178D01*
X027617Y016178D01*
X027617Y016477D01*
X027714Y016477D01*
X027714Y016178D01*
X027902Y016178D01*
X027940Y016188D01*
X027974Y016208D01*
X028002Y016236D01*
X028011Y016252D01*
X028064Y016198D01*
X028605Y016198D01*
X028681Y016274D01*
X028681Y016776D01*
X028605Y016852D01*
X028515Y016852D01*
X028515Y016948D01*
X028605Y016948D01*
X028681Y017024D01*
X028681Y017095D01*
X028976Y017095D01*
X028976Y016376D01*
X029052Y016300D01*
X029948Y016300D01*
X030024Y016376D01*
X030024Y017468D01*
X029948Y017544D01*
X029052Y017544D01*
X028976Y017468D01*
X028976Y017455D01*
X028681Y017455D01*
X028681Y017526D01*
X028605Y017602D01*
X028515Y017602D01*
X028515Y017678D01*
X028585Y017678D01*
X028661Y017755D01*
X028661Y018295D01*
X028585Y018372D01*
X028653Y018304D02*
X029450Y018304D01*
X029450Y018350D02*
X029450Y018250D01*
X029550Y018250D01*
X029550Y018350D01*
X030162Y018350D01*
X030162Y018713D01*
X030152Y018752D01*
X030132Y018786D01*
X030104Y018814D01*
X030070Y018833D01*
X030032Y018844D01*
X029550Y018844D01*
X029550Y018350D01*
X029450Y018350D01*
X029450Y018403D02*
X029550Y018403D01*
X029550Y018501D02*
X029450Y018501D01*
X029450Y018600D02*
X029550Y018600D01*
X029550Y018698D02*
X029450Y018698D01*
X029450Y018797D02*
X029550Y018797D01*
X029550Y019036D02*
X029913Y019036D01*
X029952Y019046D01*
X029986Y019066D01*
X030014Y019094D01*
X030033Y019128D01*
X030044Y019166D01*
X030044Y019628D01*
X029550Y019628D01*
X029550Y019728D01*
X029450Y019728D01*
X029450Y020320D01*
X029087Y020320D01*
X029048Y020310D01*
X029014Y020290D01*
X028986Y020262D01*
X028967Y020228D01*
X028956Y020190D01*
X028956Y019728D01*
X029450Y019728D01*
X029450Y019628D01*
X028956Y019628D01*
X028956Y019166D01*
X028967Y019128D01*
X028986Y019094D01*
X029014Y019066D01*
X029048Y019046D01*
X029087Y019036D01*
X029450Y019036D01*
X029450Y019628D01*
X029550Y019628D01*
X029550Y019036D01*
X029550Y019092D02*
X029450Y019092D01*
X029450Y019191D02*
X029550Y019191D01*
X029550Y019289D02*
X029450Y019289D01*
X029450Y019388D02*
X029550Y019388D01*
X029550Y019486D02*
X029450Y019486D01*
X029450Y019585D02*
X029550Y019585D01*
X029550Y019683D02*
X032716Y019683D01*
X032716Y019585D02*
X030044Y019585D01*
X030044Y019486D02*
X032716Y019486D01*
X032716Y019388D02*
X030044Y019388D01*
X030044Y019289D02*
X032776Y019289D01*
X033060Y019191D02*
X030044Y019191D01*
X030012Y019092D02*
X033036Y019092D01*
X033036Y018994D02*
X028661Y018994D01*
X028661Y018895D02*
X033036Y018895D01*
X033060Y018797D02*
X030121Y018797D01*
X030162Y018698D02*
X033060Y018698D01*
X033060Y018600D02*
X030162Y018600D01*
X030162Y018501D02*
X033060Y018501D01*
X033060Y018403D02*
X030162Y018403D01*
X030162Y018250D02*
X029550Y018250D01*
X029550Y017756D01*
X030032Y017756D01*
X030070Y017767D01*
X030104Y017786D01*
X030132Y017814D01*
X030152Y017848D01*
X030162Y017887D01*
X030162Y018250D01*
X030162Y018206D02*
X033060Y018206D01*
X033060Y018304D02*
X029550Y018304D01*
X029550Y018206D02*
X029450Y018206D01*
X029450Y018250D02*
X029450Y017756D01*
X028968Y017756D01*
X028930Y017767D01*
X028896Y017786D01*
X028868Y017814D01*
X028848Y017848D01*
X028838Y017887D01*
X028838Y018250D01*
X029450Y018250D01*
X029450Y018107D02*
X029550Y018107D01*
X029550Y018009D02*
X029450Y018009D01*
X029450Y017910D02*
X029550Y017910D01*
X029550Y017812D02*
X029450Y017812D01*
X029024Y017516D02*
X028681Y017516D01*
X028515Y017615D02*
X033036Y017615D01*
X033036Y017713D02*
X028620Y017713D01*
X028661Y017812D02*
X028871Y017812D01*
X028838Y017910D02*
X028661Y017910D01*
X028661Y018009D02*
X028838Y018009D01*
X028838Y018107D02*
X028661Y018107D01*
X028661Y018206D02*
X028838Y018206D01*
X028838Y018403D02*
X025500Y018403D01*
X025500Y018501D02*
X025842Y018501D01*
X025839Y018505D02*
X025915Y018428D01*
X026416Y018428D01*
X026492Y018505D01*
X026492Y019045D01*
X026416Y019122D01*
X026345Y019122D01*
X026345Y019279D01*
X026655Y019279D01*
X026655Y019122D01*
X026584Y019122D01*
X026508Y019045D01*
X026508Y018505D01*
X026584Y018428D01*
X027085Y018428D01*
X027161Y018505D01*
X027161Y018595D01*
X027339Y018595D01*
X027339Y018505D01*
X027415Y018428D01*
X027916Y018428D01*
X027992Y018505D01*
X027992Y019045D01*
X027916Y019122D01*
X027415Y019122D01*
X027339Y019045D01*
X027339Y018955D01*
X027161Y018955D01*
X027161Y019045D01*
X027085Y019122D01*
X027015Y019122D01*
X027015Y019279D01*
X027158Y019279D01*
X027234Y019355D01*
X027234Y020093D01*
X027158Y020169D01*
X026345Y020169D01*
X026345Y020381D01*
X027158Y020381D01*
X027234Y020457D01*
X027234Y021195D01*
X027158Y021271D01*
X026342Y021271D01*
X026266Y021195D01*
X026266Y021006D01*
X026227Y021006D01*
X026121Y020901D01*
X025985Y020765D01*
X025985Y020583D01*
X025939Y020583D01*
X025825Y020536D01*
X025739Y020450D01*
X025692Y020336D01*
X025692Y020214D01*
X025739Y020100D01*
X025825Y020014D01*
X025939Y019967D01*
X025985Y019967D01*
X025985Y019122D01*
X025915Y019122D01*
X025839Y019045D01*
X025839Y018505D01*
X025839Y018600D02*
X025500Y018600D01*
X025500Y018698D02*
X025839Y018698D01*
X025839Y018797D02*
X025500Y018797D01*
X025500Y018895D02*
X025839Y018895D01*
X025839Y018994D02*
X025500Y018994D01*
X025500Y019092D02*
X025885Y019092D01*
X025985Y019191D02*
X025500Y019191D01*
X025500Y019289D02*
X025985Y019289D01*
X025985Y019388D02*
X025500Y019388D01*
X025500Y019486D02*
X025985Y019486D01*
X025985Y019585D02*
X025500Y019585D01*
X025500Y019683D02*
X025985Y019683D01*
X025985Y019782D02*
X025500Y019782D01*
X025500Y019880D02*
X025985Y019880D01*
X025910Y019979D02*
X025500Y019979D01*
X025500Y020077D02*
X025762Y020077D01*
X025707Y020176D02*
X025500Y020176D01*
X025500Y020274D02*
X025692Y020274D01*
X025707Y020373D02*
X025500Y020373D01*
X025500Y020471D02*
X025760Y020471D01*
X025905Y020570D02*
X025500Y020570D01*
X025500Y020668D02*
X025985Y020668D01*
X025987Y020767D02*
X025500Y020767D01*
X025500Y020865D02*
X026085Y020865D01*
X026184Y020964D02*
X025500Y020964D01*
X025500Y021062D02*
X026266Y021062D01*
X026266Y021161D02*
X025500Y021161D01*
X025500Y021259D02*
X026330Y021259D01*
X026301Y020826D02*
X026750Y020826D01*
X026301Y020826D02*
X026165Y020690D01*
X026165Y020275D01*
X026000Y020275D01*
X026165Y020275D02*
X026165Y018775D01*
X026492Y018797D02*
X026508Y018797D01*
X026508Y018895D02*
X026492Y018895D01*
X026492Y018994D02*
X026508Y018994D01*
X026554Y019092D02*
X026446Y019092D01*
X026345Y019191D02*
X026655Y019191D01*
X027015Y019191D02*
X027387Y019191D01*
X027385Y019092D02*
X027115Y019092D01*
X027161Y018994D02*
X027339Y018994D01*
X027304Y019289D02*
X027168Y019289D01*
X027234Y019388D02*
X027299Y019388D01*
X027234Y019486D02*
X027617Y019486D01*
X027617Y019573D02*
X027299Y019573D01*
X027299Y019742D01*
X027309Y019780D01*
X027329Y019814D01*
X027357Y019842D01*
X027391Y019862D01*
X027429Y019872D01*
X027617Y019872D01*
X027617Y019573D01*
X027617Y019585D02*
X027714Y019585D01*
X027714Y019683D02*
X027617Y019683D01*
X027617Y019782D02*
X027714Y019782D01*
X027714Y019979D02*
X027617Y019979D01*
X027617Y020077D02*
X027714Y020077D01*
X027714Y020176D02*
X027617Y020176D01*
X027617Y020274D02*
X026345Y020274D01*
X026345Y020176D02*
X027299Y020176D01*
X027299Y020077D02*
X027234Y020077D01*
X027234Y019979D02*
X027336Y019979D01*
X027234Y019880D02*
X028155Y019880D01*
X028034Y019979D02*
X027994Y019979D01*
X027714Y020373D02*
X027617Y020373D01*
X027617Y020323D02*
X027617Y020622D01*
X027429Y020622D01*
X027391Y020612D01*
X027357Y020592D01*
X027329Y020564D01*
X027309Y020530D01*
X027299Y020492D01*
X027299Y020323D01*
X027617Y020323D01*
X027617Y020471D02*
X027714Y020471D01*
X027714Y020570D02*
X027617Y020570D01*
X027334Y020570D02*
X027234Y020570D01*
X027234Y020668D02*
X028763Y020668D01*
X028665Y020570D02*
X028637Y020570D01*
X028879Y020274D02*
X028998Y020274D01*
X028956Y020176D02*
X028780Y020176D01*
X028681Y020077D02*
X028956Y020077D01*
X028956Y019979D02*
X028635Y019979D01*
X028515Y019880D02*
X028956Y019880D01*
X028956Y019782D02*
X028675Y019782D01*
X028681Y019683D02*
X029450Y019683D01*
X029450Y019782D02*
X029550Y019782D01*
X029550Y019728D02*
X029550Y020320D01*
X029913Y020320D01*
X029952Y020310D01*
X029986Y020290D01*
X030014Y020262D01*
X030033Y020228D01*
X030044Y020190D01*
X030044Y019728D01*
X029550Y019728D01*
X029550Y019880D02*
X029450Y019880D01*
X029450Y019979D02*
X029550Y019979D01*
X029550Y020077D02*
X029450Y020077D01*
X029450Y020176D02*
X029550Y020176D01*
X029550Y020274D02*
X029450Y020274D01*
X030002Y020274D02*
X030121Y020274D01*
X030044Y020176D02*
X030220Y020176D01*
X030318Y020077D02*
X030044Y020077D01*
X030044Y019979D02*
X030417Y019979D01*
X030515Y019880D02*
X030044Y019880D01*
X030044Y019782D02*
X032716Y019782D01*
X032716Y020274D02*
X030631Y020274D01*
X030532Y020373D02*
X032716Y020373D01*
X032747Y020471D02*
X030434Y020471D01*
X030335Y020570D02*
X031907Y020570D01*
X031698Y020668D02*
X030237Y020668D01*
X031243Y021161D02*
X027234Y021161D01*
X027234Y021062D02*
X031300Y021062D01*
X031357Y020964D02*
X027234Y020964D01*
X027234Y020865D02*
X031450Y020865D01*
X031548Y020767D02*
X027234Y020767D01*
X027234Y020471D02*
X027299Y020471D01*
X027299Y020373D02*
X026345Y020373D01*
X026750Y019724D02*
X026835Y019639D01*
X026835Y018775D01*
X027665Y018775D01*
X027992Y018797D02*
X028008Y018797D01*
X028008Y018895D02*
X027992Y018895D01*
X027992Y018994D02*
X028008Y018994D01*
X028054Y019092D02*
X027946Y019092D01*
X027944Y019191D02*
X028155Y019191D01*
X028515Y019191D02*
X028956Y019191D01*
X028956Y019289D02*
X028681Y019289D01*
X028681Y019388D02*
X028956Y019388D01*
X028956Y019486D02*
X028681Y019486D01*
X028681Y019585D02*
X028956Y019585D01*
X028988Y019092D02*
X028615Y019092D01*
X028008Y018698D02*
X027992Y018698D01*
X027992Y018600D02*
X028008Y018600D01*
X028011Y018501D02*
X027989Y018501D01*
X027916Y018372D02*
X027415Y018372D01*
X027339Y018295D01*
X027339Y018205D01*
X027161Y018205D01*
X027161Y018295D01*
X027085Y018372D01*
X026584Y018372D01*
X026508Y018295D01*
X026508Y017755D01*
X026584Y017678D01*
X026655Y017678D01*
X026655Y017521D01*
X026345Y017521D01*
X026345Y017678D01*
X026416Y017678D01*
X026492Y017755D01*
X026492Y018295D01*
X026416Y018372D01*
X025915Y018372D01*
X025839Y018295D01*
X025839Y017755D01*
X025915Y017678D01*
X025985Y017678D01*
X025985Y016833D01*
X025939Y016833D01*
X025825Y016786D01*
X025739Y016700D01*
X025692Y016586D01*
X025692Y016464D01*
X025739Y016350D01*
X025825Y016264D01*
X025939Y016217D01*
X025985Y016217D01*
X025985Y016035D01*
X026091Y015930D01*
X026121Y015899D01*
X026227Y015794D01*
X026266Y015794D01*
X026266Y015605D01*
X026342Y015529D01*
X027158Y015529D01*
X027234Y015605D01*
X027234Y016343D01*
X027158Y016419D01*
X026345Y016419D01*
X026345Y016631D01*
X027158Y016631D01*
X027234Y016707D01*
X027234Y017445D01*
X027158Y017521D01*
X027015Y017521D01*
X027015Y017678D01*
X027085Y017678D01*
X027161Y017755D01*
X027161Y017845D01*
X027339Y017845D01*
X027339Y017755D01*
X027415Y017678D01*
X027916Y017678D01*
X027992Y017755D01*
X027992Y018295D01*
X027916Y018372D01*
X027984Y018304D02*
X028016Y018304D01*
X028008Y018206D02*
X027992Y018206D01*
X027992Y018107D02*
X028008Y018107D01*
X028008Y018009D02*
X027992Y018009D01*
X027992Y017910D02*
X028008Y017910D01*
X028008Y017812D02*
X027992Y017812D01*
X027951Y017713D02*
X028049Y017713D01*
X028155Y017615D02*
X027929Y017615D01*
X027714Y017615D02*
X027617Y017615D01*
X027617Y017622D02*
X027429Y017622D01*
X027391Y017612D01*
X027357Y017592D01*
X027329Y017564D01*
X027309Y017530D01*
X027299Y017492D01*
X027299Y017323D01*
X027617Y017323D01*
X027617Y017622D01*
X027617Y017516D02*
X027714Y017516D01*
X027714Y017418D02*
X027617Y017418D01*
X027617Y017319D02*
X027234Y017319D01*
X027234Y017221D02*
X027299Y017221D01*
X027299Y017122D02*
X027234Y017122D01*
X027234Y017024D02*
X027308Y017024D01*
X027234Y016925D02*
X028155Y016925D01*
X028039Y016827D02*
X027989Y016827D01*
X027714Y016827D02*
X027617Y016827D01*
X027617Y016872D02*
X027429Y016872D01*
X027391Y016862D01*
X027357Y016842D01*
X027329Y016814D01*
X027309Y016780D01*
X027299Y016742D01*
X027299Y016573D01*
X027617Y016573D01*
X027617Y016872D01*
X027617Y016728D02*
X027714Y016728D01*
X027714Y016630D02*
X027617Y016630D01*
X027617Y016531D02*
X026345Y016531D01*
X026345Y016433D02*
X027299Y016433D01*
X027299Y016334D02*
X027234Y016334D01*
X027234Y016236D02*
X027329Y016236D01*
X027234Y016137D02*
X028857Y016137D01*
X028759Y016039D02*
X027234Y016039D01*
X027234Y015940D02*
X027330Y015940D01*
X027329Y015939D02*
X027309Y015905D01*
X027299Y015867D01*
X027299Y015698D01*
X027617Y015698D01*
X027617Y015997D01*
X027429Y015997D01*
X027391Y015987D01*
X027357Y015967D01*
X027329Y015939D01*
X027299Y015842D02*
X027234Y015842D01*
X027234Y015743D02*
X027299Y015743D01*
X027234Y015645D02*
X027617Y015645D01*
X027617Y015743D02*
X027714Y015743D01*
X027714Y015842D02*
X027617Y015842D01*
X027617Y015940D02*
X027714Y015940D01*
X028001Y015940D02*
X028027Y015940D01*
X028027Y016236D02*
X028001Y016236D01*
X027714Y016236D02*
X027617Y016236D01*
X027617Y016334D02*
X027714Y016334D01*
X027714Y016433D02*
X027617Y016433D01*
X027299Y016630D02*
X026345Y016630D01*
X026165Y016525D02*
X026000Y016525D01*
X026165Y016525D02*
X026165Y018025D01*
X025839Y018009D02*
X025500Y018009D01*
X025500Y018107D02*
X025839Y018107D01*
X025839Y018206D02*
X025500Y018206D01*
X025500Y018304D02*
X025847Y018304D01*
X025839Y017910D02*
X025500Y017910D01*
X025500Y017812D02*
X025839Y017812D01*
X025880Y017713D02*
X025500Y017713D01*
X025500Y017615D02*
X025985Y017615D01*
X025985Y017516D02*
X025500Y017516D01*
X025500Y017418D02*
X025985Y017418D01*
X025985Y017319D02*
X025500Y017319D01*
X025500Y017221D02*
X025985Y017221D01*
X025985Y017122D02*
X025500Y017122D01*
X025500Y017024D02*
X025985Y017024D01*
X025985Y016925D02*
X025500Y016925D01*
X025500Y016827D02*
X025922Y016827D01*
X025767Y016728D02*
X025500Y016728D01*
X025500Y016630D02*
X025709Y016630D01*
X025692Y016531D02*
X025500Y016531D01*
X025500Y016433D02*
X025704Y016433D01*
X025755Y016334D02*
X025500Y016334D01*
X025500Y016236D02*
X025893Y016236D01*
X025985Y016137D02*
X025500Y016137D01*
X025500Y016039D02*
X025985Y016039D01*
X026080Y015940D02*
X025500Y015940D01*
X025500Y015842D02*
X026179Y015842D01*
X026266Y015743D02*
X025500Y015743D01*
X025500Y015645D02*
X026266Y015645D01*
X026325Y015546D02*
X025500Y015546D01*
X025500Y015448D02*
X027299Y015448D01*
X027299Y015546D02*
X027175Y015546D01*
X027341Y015349D02*
X025500Y015349D01*
X025500Y015251D02*
X028155Y015251D01*
X028038Y015349D02*
X027990Y015349D01*
X027714Y015349D02*
X027617Y015349D01*
X027617Y015448D02*
X027714Y015448D01*
X027714Y015546D02*
X027617Y015546D01*
X027617Y015247D02*
X027429Y015247D01*
X027391Y015237D01*
X027357Y015217D01*
X027329Y015189D01*
X027309Y015155D01*
X027299Y015117D01*
X027299Y014948D01*
X027617Y014948D01*
X027617Y015247D01*
X027617Y015152D02*
X027714Y015152D01*
X027714Y015054D02*
X027617Y015054D01*
X027617Y014955D02*
X027714Y014955D01*
X027617Y014857D02*
X025500Y014857D01*
X025500Y014955D02*
X027299Y014955D01*
X027299Y015054D02*
X025500Y015054D01*
X025500Y015152D02*
X027308Y015152D01*
X027299Y014758D02*
X025500Y014758D01*
X025500Y014660D02*
X027305Y014660D01*
X027400Y014561D02*
X025500Y014561D01*
X025500Y014463D02*
X027381Y014463D01*
X027617Y014561D02*
X027714Y014561D01*
X027714Y014660D02*
X027617Y014660D01*
X027617Y014758D02*
X027714Y014758D01*
X027931Y014561D02*
X028155Y014561D01*
X028050Y014463D02*
X027950Y014463D01*
X027665Y014150D02*
X027125Y014150D01*
X026839Y014266D02*
X025500Y014266D01*
X025500Y014364D02*
X026903Y014364D01*
X026817Y014167D02*
X025500Y014167D01*
X025500Y014069D02*
X026825Y014069D01*
X026869Y013970D02*
X025888Y013970D01*
X024964Y013576D02*
X024867Y013576D01*
X024867Y013478D02*
X024964Y013478D01*
X024964Y013379D02*
X024867Y013379D01*
X025000Y013281D02*
X024681Y013281D01*
X024769Y013182D02*
X025000Y013182D01*
X025000Y013084D02*
X024808Y013084D01*
X024808Y012985D02*
X025000Y012985D01*
X025000Y012887D02*
X024776Y012887D01*
X024699Y012788D02*
X025000Y012788D01*
X025000Y012690D02*
X024607Y012690D01*
X024745Y012591D02*
X025059Y012591D01*
X025157Y012493D02*
X024796Y012493D01*
X024808Y012394D02*
X025256Y012394D01*
X025354Y012296D02*
X024791Y012296D01*
X024733Y012197D02*
X025453Y012197D01*
X025551Y012099D02*
X024578Y012099D01*
X024422Y012099D02*
X024203Y012099D01*
X024220Y012000D02*
X024105Y012000D01*
X024122Y011902D02*
X024006Y011902D01*
X024023Y011803D02*
X023908Y011803D01*
X023925Y011705D02*
X023809Y011705D01*
X023826Y011606D02*
X023711Y011606D01*
X023728Y011508D02*
X023612Y011508D01*
X023629Y011409D02*
X023514Y011409D01*
X023531Y011311D02*
X023415Y011311D01*
X023432Y011212D02*
X023375Y011212D01*
X023189Y011259D02*
X023189Y011339D01*
X024250Y012400D01*
X024500Y012400D01*
X023201Y011606D02*
X023086Y011606D01*
X022402Y011259D02*
X022402Y012748D01*
X022205Y012570D02*
X021750Y013025D01*
X021750Y013150D01*
X021576Y013576D02*
X021431Y013576D01*
X021529Y013675D02*
X022070Y013675D01*
X022070Y013576D02*
X021924Y013576D01*
X022024Y013773D02*
X022118Y013773D01*
X022122Y013872D02*
X022217Y013872D01*
X022431Y013576D02*
X022576Y013576D01*
X022205Y012570D02*
X022205Y011259D01*
X026203Y012197D02*
X027337Y012197D01*
X027299Y011705D02*
X027031Y011705D01*
X027076Y011606D02*
X027334Y011606D01*
X028638Y011606D02*
X032770Y011606D01*
X034050Y008651D02*
X026625Y008651D01*
X026625Y008553D02*
X034050Y008553D01*
X034050Y008454D02*
X026625Y008454D01*
X026625Y008356D02*
X034050Y008356D01*
X028335Y012650D02*
X028335Y013400D01*
X028012Y013675D02*
X027988Y013675D01*
X027984Y013872D02*
X028016Y013872D01*
X028681Y014266D02*
X028856Y014266D01*
X028680Y015152D02*
X029450Y015152D01*
X029450Y015251D02*
X029550Y015251D01*
X029550Y015349D02*
X029450Y015349D01*
X029450Y015448D02*
X029550Y015448D01*
X029550Y015546D02*
X029450Y015546D01*
X029450Y015645D02*
X029550Y015645D01*
X029550Y015743D02*
X029450Y015743D01*
X029018Y016334D02*
X028681Y016334D01*
X028681Y016433D02*
X028976Y016433D01*
X028976Y016531D02*
X028681Y016531D01*
X028681Y016630D02*
X028976Y016630D01*
X028976Y016728D02*
X028681Y016728D01*
X028630Y016827D02*
X028976Y016827D01*
X028976Y016925D02*
X028515Y016925D01*
X028680Y017024D02*
X028976Y017024D01*
X029147Y017275D02*
X029500Y016922D01*
X029147Y017275D02*
X028335Y017275D01*
X028335Y016525D01*
X028642Y016236D02*
X032716Y016236D01*
X032716Y016334D02*
X029982Y016334D01*
X030024Y016433D02*
X032716Y016433D01*
X032716Y016531D02*
X030024Y016531D01*
X030024Y016630D02*
X032716Y016630D01*
X032716Y016728D02*
X030024Y016728D01*
X030024Y016827D02*
X032716Y016827D01*
X032716Y016925D02*
X030024Y016925D01*
X030024Y017024D02*
X032716Y017024D01*
X032716Y017122D02*
X030024Y017122D01*
X030024Y017221D02*
X032716Y017221D01*
X032784Y017319D02*
X030024Y017319D01*
X030024Y017418D02*
X033060Y017418D01*
X033036Y017516D02*
X029976Y017516D01*
X030129Y017812D02*
X033060Y017812D01*
X033060Y017910D02*
X030162Y017910D01*
X030162Y018009D02*
X033060Y018009D01*
X033060Y018107D02*
X030162Y018107D01*
X028335Y018025D02*
X028335Y017275D01*
X027714Y017221D02*
X027617Y017221D01*
X027617Y017122D02*
X027714Y017122D01*
X027714Y017024D02*
X027617Y017024D01*
X027341Y016827D02*
X027234Y016827D01*
X027234Y016728D02*
X027299Y016728D01*
X026835Y017161D02*
X026750Y017076D01*
X026835Y017161D02*
X026835Y018025D01*
X027665Y018025D01*
X027339Y018206D02*
X027161Y018206D01*
X027153Y018304D02*
X027347Y018304D01*
X027342Y018501D02*
X027158Y018501D01*
X026511Y018501D02*
X026489Y018501D01*
X026492Y018600D02*
X026508Y018600D01*
X026508Y018698D02*
X026492Y018698D01*
X026484Y018304D02*
X026516Y018304D01*
X026508Y018206D02*
X026492Y018206D01*
X026492Y018107D02*
X026508Y018107D01*
X026508Y018009D02*
X026492Y018009D01*
X026492Y017910D02*
X026508Y017910D01*
X026508Y017812D02*
X026492Y017812D01*
X026451Y017713D02*
X026549Y017713D01*
X026655Y017615D02*
X026345Y017615D01*
X027015Y017615D02*
X027402Y017615D01*
X027380Y017713D02*
X027120Y017713D01*
X027161Y017812D02*
X027339Y017812D01*
X027305Y017516D02*
X027163Y017516D01*
X027234Y017418D02*
X027299Y017418D01*
X026165Y016525D02*
X026165Y016110D01*
X026301Y015974D01*
X026750Y015974D01*
X028642Y015940D02*
X028660Y015940D01*
X030268Y016137D02*
X032739Y016137D01*
X033764Y015743D02*
X034050Y015743D01*
X034050Y015645D02*
X033764Y015645D01*
X033764Y015546D02*
X034050Y015546D01*
X034050Y015448D02*
X033764Y015448D01*
X033764Y015349D02*
X034050Y015349D01*
X034050Y015251D02*
X033764Y015251D01*
X033879Y015152D02*
X034050Y015152D01*
X034008Y019683D02*
X033764Y019683D01*
X033764Y019782D02*
X033992Y019782D01*
X033977Y019880D02*
X033764Y019880D01*
X033764Y019979D02*
X033961Y019979D01*
X033946Y020077D02*
X033764Y020077D01*
X033764Y020176D02*
X033930Y020176D01*
X033904Y020274D02*
X033764Y020274D01*
X033764Y020373D02*
X033872Y020373D01*
X033840Y020471D02*
X033733Y020471D01*
X033808Y020570D02*
X032644Y020570D01*
X032853Y020668D02*
X033776Y020668D01*
X033744Y020767D02*
X033003Y020767D01*
X033101Y020865D02*
X033712Y020865D01*
X033667Y020964D02*
X033194Y020964D01*
X033251Y021062D02*
X033617Y021062D01*
X033566Y021161D02*
X033308Y021161D01*
X033350Y021259D02*
X033516Y021259D01*
X033466Y021358D02*
X033376Y021358D01*
X033403Y021456D02*
X033416Y021456D01*
X031201Y021259D02*
X027170Y021259D01*
X027996Y020570D02*
X028032Y020570D01*
X027310Y019782D02*
X027234Y019782D01*
X027234Y019683D02*
X027299Y019683D01*
X027299Y019585D02*
X027234Y019585D01*
X027617Y019388D02*
X027714Y019388D01*
X027714Y019289D02*
X027617Y019289D01*
X027617Y019191D02*
X027714Y019191D01*
X025500Y021358D02*
X031175Y021358D01*
X031148Y021456D02*
X025500Y021456D01*
X025500Y021555D02*
X031137Y021555D01*
X009707Y004711D02*
X009293Y004711D01*
X009374Y004613D02*
X009626Y004613D01*
X009585Y004514D02*
X009415Y004514D01*
X009427Y004416D02*
X009573Y004416D01*
X009573Y004317D02*
X009427Y004317D01*
X009387Y004219D02*
X009613Y004219D01*
X009676Y004120D02*
X009324Y004120D01*
X009202Y004022D02*
X009798Y004022D01*
D24*
X016625Y005775D03*
X017875Y005775D03*
X019625Y005775D03*
X021500Y005775D03*
X022250Y005775D03*
X021875Y007650D03*
X023625Y008900D03*
X024250Y009400D03*
X025375Y009525D03*
X025375Y010150D03*
X025375Y010775D03*
X024250Y010775D03*
X024500Y012400D03*
X024500Y013025D03*
X024375Y013650D03*
X027125Y013400D03*
X027125Y014150D03*
X026000Y016525D03*
X024625Y017275D03*
X024625Y019275D03*
X026000Y020275D03*
X024625Y021150D03*
X021375Y011900D03*
X019875Y011900D03*
X018125Y011900D03*
X016625Y010400D03*
X016625Y008775D03*
X017875Y007775D03*
X016625Y007275D03*
X019625Y009275D03*
X019625Y009900D03*
X025750Y007775D03*
X025750Y006650D03*
X025750Y005525D03*
M02*
